<svg width="120" height="120" viewBox="0 0 120 120" fill="none" xmlns="http://www.w3.org/2000/svg">
<g clip-path="url(#clip0)">
<g filter="url(#filter0_iiii)">
<circle cx="60" cy="60" r="50" fill="url(#paint0_linear)"/>
</g>
<g filter="url(#filter1_f)">
<ellipse rx="22.9426" ry="21.9263" transform="matrix(0.414908 0.909864 -0.90714 0.420829 62.5581 58.4954)" fill="url(#paint1_radial)" fill-opacity="0.5"/>
</g>
<ellipse cx="9.5" cy="60.5" rx="7.5" ry="7.49999" fill="url(#paint2_linear)"/>
<ellipse cx="9.5" cy="60.5" rx="7.5" ry="7.49999" fill="url(#paint3_radial)"/>
<ellipse cx="9.5" cy="60.5" rx="7.5" ry="7.49999" fill="url(#paint4_radial)"/>
<ellipse cx="110.628" cy="60.5" rx="7.5" ry="7.49999" fill="url(#paint5_linear)"/>
<ellipse cx="110.628" cy="60.5" rx="7.5" ry="7.49999" fill="url(#paint6_radial)"/>
<ellipse cx="110.628" cy="60.5" rx="7.5" ry="7.49999" fill="url(#paint7_radial)"/>
<path d="M57.6864 27.17L36.9826 42.1056C35.7376 43.0037 35 44.4453 35 45.9804V59.3981C35 74.5963 44.2624 88.306 58.3375 94.0398C59.8414 94.6525 61.5344 94.6383 63.0259 93.996C76.3609 88.2532 85 75.1265 85 60.6075V45.9538C85 44.43 84.289 42.9936 83.0773 42.0696L63.6437 27.2491C61.8922 25.9134 59.4729 25.8812 57.6864 27.17Z" fill="url(#paint8_linear)"/>
<path d="M57.6864 27.17L36.9826 42.1056C35.7376 43.0037 35 44.4453 35 45.9804V59.3981C35 74.5963 44.2624 88.306 58.3375 94.0398C59.8414 94.6525 61.5344 94.6383 63.0259 93.996C76.3609 88.2532 85 75.1265 85 60.6075V45.9538C85 44.43 84.289 42.9936 83.0773 42.0696L63.6437 27.2491C61.8922 25.9134 59.4729 25.8812 57.6864 27.17Z" fill="url(#paint9_radial)"/>
<path d="M57.6864 27.17L36.9826 42.1056C35.7376 43.0037 35 44.4453 35 45.9804V59.3981C35 74.5963 44.2624 88.306 58.3375 94.0398C59.8414 94.6525 61.5344 94.6383 63.0259 93.996C76.3609 88.2532 85 75.1265 85 60.6075V45.9538C85 44.43 84.289 42.9936 83.0773 42.0696L63.6437 27.2491C61.8922 25.9134 59.4729 25.8812 57.6864 27.17Z" fill="url(#paint10_radial)"/>
</g>
<defs>
<filter id="filter0_iiii" x="-41" y="5" width="156" height="154" filterUnits="userSpaceOnUse" color-interpolation-filters="sRGB">
<feFlood flood-opacity="0" result="BackgroundImageFix"/>
<feBlend mode="normal" in="SourceGraphic" in2="BackgroundImageFix" result="shape"/>
<feColorMatrix in="SourceAlpha" type="matrix" values="0 0 0 0 0 0 0 0 0 0 0 0 0 0 0 0 0 0 127 0" result="hardAlpha"/>
<feMorphology radius="22" operator="erode" in="SourceAlpha" result="effect1_innerShadow"/>
<feOffset dx="-97" dy="49"/>
<feGaussianBlur stdDeviation="14.5"/>
<feComposite in2="hardAlpha" operator="arithmetic" k2="-1" k3="1"/>
<feColorMatrix type="matrix" values="0 0 0 0 0.108333 0 0 0 0 0.108333 0 0 0 0 0.108333 0 0 0 0.72 0"/>
<feBlend mode="normal" in2="shape" result="effect1_innerShadow"/>
<feColorMatrix in="SourceAlpha" type="matrix" values="0 0 0 0 0 0 0 0 0 0 0 0 0 0 0 0 0 0 127 0" result="hardAlpha"/>
<feMorphology radius="28" operator="dilate" in="SourceAlpha" result="effect2_innerShadow"/>
<feOffset dx="-10" dy="-26"/>
<feGaussianBlur stdDeviation="16.5"/>
<feComposite in2="hardAlpha" operator="arithmetic" k2="-1" k3="1"/>
<feColorMatrix type="matrix" values="0 0 0 0 1 0 0 0 0 1 0 0 0 0 1 0 0 0 0.1 0"/>
<feBlend mode="normal" in2="effect1_innerShadow" result="effect2_innerShadow"/>
<feColorMatrix in="SourceAlpha" type="matrix" values="0 0 0 0 0 0 0 0 0 0 0 0 0 0 0 0 0 0 127 0" result="hardAlpha"/>
<feOffset dx="5" dy="5"/>
<feGaussianBlur stdDeviation="2.5"/>
<feComposite in2="hardAlpha" operator="arithmetic" k2="-1" k3="1"/>
<feColorMatrix type="matrix" values="0 0 0 0 0 0 0 0 0 0 0 0 0 0 0 0 0 0 0.21 0"/>
<feBlend mode="normal" in2="effect2_innerShadow" result="effect3_innerShadow"/>
<feColorMatrix in="SourceAlpha" type="matrix" values="0 0 0 0 0 0 0 0 0 0 0 0 0 0 0 0 0 0 127 0" result="hardAlpha"/>
<feOffset dx="-2" dy="-2"/>
<feGaussianBlur stdDeviation="2"/>
<feComposite in2="hardAlpha" operator="arithmetic" k2="-1" k3="1"/>
<feColorMatrix type="matrix" values="0 0 0 0 0.3125 0 0 0 0 0.3125 0 0 0 0 0.3125 0 0 0 0.1 0"/>
<feBlend mode="normal" in2="effect3_innerShadow" result="effect4_innerShadow"/>
</filter>
<filter id="filter1_f" x="-3.49756" y="-8.3335" width="132.112" height="133.657" filterUnits="userSpaceOnUse" color-interpolation-filters="sRGB">
<feFlood flood-opacity="0" result="BackgroundImageFix"/>
<feBlend mode="normal" in="SourceGraphic" in2="BackgroundImageFix" result="shape"/>
<feGaussianBlur stdDeviation="22" result="effect1_foregroundBlur"/>
</filter>
<linearGradient id="paint0_linear" x1="10" y1="1.80327" x2="144.099" y2="162.349" gradientUnits="userSpaceOnUse">
<stop/>
<stop offset="1"/>
</linearGradient>
<radialGradient id="paint1_radial" cx="0" cy="0" r="1" gradientUnits="userSpaceOnUse" gradientTransform="translate(22.9426 21.9263) rotate(143.675) scale(42.7892 44.4497)">
<stop stop-color="white"/>
<stop offset="1" stop-color="#8C8C8C" stop-opacity="0"/>
</radialGradient>
<linearGradient id="paint2_linear" x1="15.7903" y1="69.7742" x2="2.48389" y2="49.6129" gradientUnits="userSpaceOnUse">
<stop stop-color="#3E3E3E"/>
<stop offset="1" stop-color="#0D0D0D"/>
</linearGradient>
<radialGradient id="paint3_radial" cx="0" cy="0" r="1" gradientUnits="userSpaceOnUse" gradientTransform="translate(11.3548 57.2742) rotate(132.51) scale(6.56404)">
<stop offset="0.135417" stop-color="white"/>
<stop offset="1" stop-color="white" stop-opacity="0.27"/>
</radialGradient>
<radialGradient id="paint4_radial" cx="0" cy="0" r="1" gradientUnits="userSpaceOnUse" gradientTransform="translate(11.5968 57.2742) rotate(141.491) scale(9.58456)">
<stop stop-color="white"/>
<stop offset="0.338542" stop-color="white"/>
<stop offset="1" stop-color="white" stop-opacity="0"/>
</radialGradient>
<linearGradient id="paint5_linear" x1="116.919" y1="69.7742" x2="103.612" y2="49.6129" gradientUnits="userSpaceOnUse">
<stop stop-color="#3E3E3E"/>
<stop offset="1" stop-color="#0D0D0D"/>
</linearGradient>
<radialGradient id="paint6_radial" cx="0" cy="0" r="1" gradientUnits="userSpaceOnUse" gradientTransform="translate(112.483 57.2742) rotate(132.51) scale(6.56404)">
<stop offset="0.135417" stop-color="white"/>
<stop offset="1" stop-color="white" stop-opacity="0.27"/>
</radialGradient>
<radialGradient id="paint7_radial" cx="0" cy="0" r="1" gradientUnits="userSpaceOnUse" gradientTransform="translate(112.725 57.2742) rotate(141.491) scale(9.58456)">
<stop stop-color="white"/>
<stop offset="0.338542" stop-color="white"/>
<stop offset="1" stop-color="white" stop-opacity="0"/>
</radialGradient>
<linearGradient id="paint8_linear" x1="80.9677" y1="103.28" x2="13.6432" y2="30.4175" gradientUnits="userSpaceOnUse">
<stop stop-color="#3E3E3E"/>
<stop offset="1" stop-color="#0D0D0D"/>
</linearGradient>
<radialGradient id="paint9_radial" cx="0" cy="0" r="1" gradientUnits="userSpaceOnUse" gradientTransform="translate(66.1828 44.9462) rotate(123.215) scale(26.9904 24.8324)">
<stop offset="0.135417" stop-color="white"/>
<stop offset="1" stop-color="white" stop-opacity="0.27"/>
</radialGradient>
<radialGradient id="paint10_radial" cx="0" cy="0" r="1" gradientUnits="userSpaceOnUse" gradientTransform="translate(66.9892 44.9462) rotate(131.914) scale(37.4245 38.1834)">
<stop stop-color="white"/>
<stop offset="0.338542" stop-color="white"/>
<stop offset="1" stop-color="white" stop-opacity="0"/>
</radialGradient>
<clipPath id="clip0">
<rect width="120" height="120" fill="white"/>
</clipPath>
</defs>
</svg>
