<svg width="128" height="128" viewBox="0 0 128 128" fill="none" xmlns="http://www.w3.org/2000/svg">
<circle cx="64" cy="64.001" r="64" fill="url(#paint0_linear)"/>
<circle cx="64" cy="64.001" r="64" fill="url(#paint1_radial)" fill-opacity="0.2"/>
<circle cx="64" cy="64.001" r="64" fill="url(#paint2_radial)" fill-opacity="0.2"/>
<circle cx="64" cy="64.001" r="64" fill="url(#paint3_radial)" fill-opacity="0.5"/>
<circle cx="64" cy="64.001" r="64" fill="url(#paint4_radial)" fill-opacity="0.3"/>
<circle cx="64" cy="64.001" r="64" fill="url(#paint5_radial)" fill-opacity="0.5"/>
<g clip-path="url(#clip0)">
<path d="M108 20.001H20V108.001H108V20.001Z" fill="#34D399"/>
<path d="M85.9356 64.0161C85.9065 62.8685 85.8747 61.7848 85.8747 60.706V40.681H44.5845L52.5944 45.0347H81.539V60.7053C81.539 61.8451 81.5708 63.0094 81.6019 64.1333C81.7167 68.4017 81.8348 72.8151 80.2505 76.5075C77.5089 82.8942 71.2631 87.0229 64.3469 87.0229C55.9216 87.0229 48.8857 81.5891 46.8387 73.5012C46.229 71.086 46.3093 68.5924 46.3963 65.9483C46.4253 65.0159 46.4543 64.0529 46.4543 63.0857V52.7007L42.1186 50.3986V63.0871C42.1186 63.9834 42.0868 64.9117 42.0605 65.8082C41.9686 68.6356 41.8761 71.5606 42.6365 74.5739C45.1763 84.6231 53.9056 91.3767 64.3462 91.3767C72.9982 91.3767 80.8043 86.2162 84.2309 78.2303C86.1975 73.6588 86.0641 68.7562 85.9356 64.0161Z" fill="white"/>
<path d="M51.1772 70.0987C51.1772 70.1819 51.1821 70.2632 51.1917 70.3464C51.6535 74.4573 54.9509 82.2405 64.1277 82.2405C73.4406 82.2405 76.1089 74.3373 76.221 70.1577C76.221 70.1383 76.2238 70.1195 76.2238 70.0987V51.0036C76.2238 49.8005 75.2518 48.8244 74.0531 48.8244H59.5666L67.5745 53.1794H71.886V70.0619C71.8466 70.9487 71.3363 77.886 64.1284 77.886C56.9591 77.886 55.6857 71.1762 55.513 69.9587V57.513L51.2187 55.2303C51.1944 55.3622 51.1772 55.4968 51.1772 55.6368V70.0987Z" fill="white"/>
<path d="M51.2251 55.1879C51.2183 55.2018 51.2231 55.2178 51.2183 55.2304L55.5126 57.5131L51.2251 55.1879Z" fill="white"/>
</g>
<defs>
<linearGradient id="paint0_linear" x1="117.677" y1="143.141" x2="6.19355" y2="-20.6442" gradientUnits="userSpaceOnUse">
<stop stop-color="#121212"/>
<stop offset="1" stop-color="#171717"/>
</linearGradient>
<radialGradient id="paint1_radial" cx="0" cy="0" r="1" gradientUnits="userSpaceOnUse" gradientTransform="translate(80.5161 41.2913) rotate(113.199) scale(52.4096)">
<stop stop-color="#DDDDDD" stop-opacity="0.32"/>
<stop offset="1" stop-color="#7C7C7C" stop-opacity="0.05"/>
</radialGradient>
<radialGradient id="paint2_radial" cx="0" cy="0" r="1" gradientUnits="userSpaceOnUse" gradientTransform="translate(79.828 42.6676) rotate(116.565) scale(49.2416)">
<stop stop-color="#E6E6E6" stop-opacity="0.48"/>
<stop offset="1" stop-color="#232323" stop-opacity="0"/>
</radialGradient>
<radialGradient id="paint3_radial" cx="0" cy="0" r="1" gradientUnits="userSpaceOnUse" gradientTransform="translate(82.944 -82.943) rotate(98.2072) scale(156.808)">
<stop stop-color="#56C2FF"/>
<stop offset="0.215632" stop-color="#56C2FF" stop-opacity="0.828125"/>
<stop offset="1" stop-color="#0034EB" stop-opacity="0"/>
</radialGradient>
<radialGradient id="paint4_radial" cx="0" cy="0" r="1" gradientUnits="userSpaceOnUse" gradientTransform="translate(-38.5376 143.141) rotate(-40.1965) scale(116.222)">
<stop stop-color="#7BDFFF"/>
<stop offset="0.317708" stop-color="#7BDFFF" stop-opacity="0.911458"/>
<stop offset="1" stop-opacity="0"/>
</radialGradient>
<radialGradient id="paint5_radial" cx="0" cy="0" r="1" gradientUnits="userSpaceOnUse" gradientTransform="translate(124.121 41.3844) rotate(152.949) scale(131.202 129.869)">
<stop stop-color="#2894ED"/>
<stop offset="1" stop-opacity="0"/>
</radialGradient>
<clipPath id="clip0">
<rect x="20" y="20.001" width="88" height="88" rx="44" fill="white"/>
</clipPath>
</defs>
</svg>
