<svg width="293" height="641" viewBox="0 0 293 641" fill="none" xmlns="http://www.w3.org/2000/svg">
<path d="M290 0V0C290 38.1741 259.054 69.1202 220.88 69.1202H40.108C19.6138 69.1202 3 85.7341 3 106.228V106.228C3 126.722 19.6138 143.336 40.108 143.336H252.23C273.09 143.336 290 160.246 290 181.106V181.106C290 201.966 273.09 218.876 252.23 218.876H40.4314C19.7586 218.876 3 235.634 3 256.307V256.307C3 276.98 19.7586 293.738 40.4314 293.738H252.715C273.307 293.738 290 310.431 290 331.023V331.023C290 351.615 273.307 368.308 252.715 368.308H40.7697C19.9101 368.308 3 385.218 3 406.077V406.077C3 426.937 19.9101 443.847 40.7697 443.847H252.536C273.227 443.847 290 460.62 290 481.311V481.311C290 502.002 273.227 518.776 252.536 518.776H40.5931C19.831 518.776 3 535.607 3 556.369V556.369C3 577.131 19.831 593.962 40.5931 593.962H242.962C268.94 593.962 290 615.022 290 641V641" stroke="url(#paint0_linear)" stroke-width="5"/>
<defs>
<linearGradient id="paint0_linear" x1="289.275" y1="0.000235133" x2="289.483" y2="640.954" gradientUnits="userSpaceOnUse">
<stop stop-color="#6AD760" stop-opacity="0"/>
<stop offset="1" stop-color="#6AD760"/>
</linearGradient>
</defs>
</svg>
