<svg width="190" height="57" viewBox="0 0 190 57" fill="none" xmlns="http://www.w3.org/2000/svg">
<path d="M190 0H0V57H190V0Z" fill="#151515"/>
<path d="M63.6528 29.7391C63.6528 31.4786 63.0914 32.928 61.9731 34.0865C60.8503 35.2446 59.4348 35.8246 57.7302 35.8246C56.022 35.8246 54.6065 35.2446 53.4869 34.0865C52.3672 32.9271 51.8076 31.4776 51.8076 29.7391V22.1021H53.5954V29.964C53.5954 31.094 54.0057 32.0644 54.8359 32.8732C55.6615 33.6803 56.6264 34.087 57.7302 34.087C58.834 34.087 59.7976 33.6812 60.6245 32.8732C61.4515 32.0644 61.8649 31.094 61.8649 29.964V22.1021H63.6528V29.7391Z" fill="white"/>
<path d="M79.3466 35.496H77.5624V27.6708C77.5624 26.5416 77.1489 25.5713 76.3219 24.7574C75.495 23.9436 74.5314 23.5342 73.4258 23.5342C72.3075 23.5342 71.3358 23.9431 70.5075 24.7574C69.6805 25.5717 69.2671 26.5416 69.2671 27.6708V35.496H67.4824V27.8585C67.4824 26.12 68.0456 24.6746 69.173 23.5238C70.3008 22.3725 71.719 21.7961 73.4258 21.7961C75.1177 21.7961 76.5287 22.3725 77.6578 23.5238C78.7838 24.6746 79.3466 26.12 79.3466 27.8585V35.496Z" fill="white"/>
<path d="M102.379 35.4962H100.522V27.2728C100.522 26.2377 100.223 25.3529 99.6276 24.6169C99.0337 23.8808 98.2511 23.5112 97.278 23.5112C96.2913 23.5112 95.4413 23.8324 94.7293 24.4753C94.0141 25.1176 93.6607 25.9179 93.6607 26.8729V35.4971H91.7815V26.8729C91.7815 25.9184 91.4215 25.1176 90.7108 24.4753C89.9965 23.8324 89.1473 23.5112 88.1616 23.5112C87.1881 23.5112 86.4154 23.8763 85.8346 24.6046C85.2541 25.3325 84.9646 26.2233 84.9646 27.2728V35.4962H83.1099V27.484C83.1099 25.8071 83.5871 24.4608 84.5412 23.4407C85.4351 22.4848 86.6086 21.9455 88.0657 21.8184C90.0091 21.6642 91.5585 22.4943 92.7202 24.3106C93.8801 22.4943 95.4282 21.6642 97.373 21.8184C98.8296 21.9455 100.011 22.4848 100.923 23.4407C101.893 24.4612 102.379 25.8071 102.379 27.484V35.4962H102.379Z" fill="white"/>
<path d="M119.93 28.7755V35.4956H118.144V33.4024C116.693 35.0672 114.913 35.8638 112.808 35.8005C110.967 35.7367 109.399 35.0246 108.105 33.6634C106.807 32.2995 106.161 30.6782 106.161 28.7985C106.161 26.8406 106.858 25.1609 108.251 23.7572C109.645 22.3553 111.314 21.693 113.257 21.7708C115.138 21.8346 116.734 22.5516 118.051 23.9219C119.367 25.293 119.994 26.9112 119.93 28.7755ZM118.144 28.6465C118.115 27.2333 117.611 26.0223 116.638 25.0184C115.663 24.0141 114.494 23.5106 113.128 23.5106C111.7 23.5106 110.481 24.0141 109.479 25.0184C108.474 26.0223 107.962 27.2405 107.947 28.6673C107.916 30.0824 108.382 31.3174 109.348 32.3787C110.315 33.4381 111.479 34.0005 112.846 34.0647C114.32 34.1249 115.579 33.6114 116.626 32.5221C117.67 31.4291 118.175 30.1376 118.144 28.6465Z" fill="white"/>
<path d="M128.954 23.6292C128.125 23.6604 127.453 23.888 126.935 24.31C126.416 24.7344 126.066 25.103 125.879 25.4129C125.577 25.9314 125.432 26.6208 125.432 27.4821V35.496H123.551V22.102H125.219V24.0065C125.596 23.284 126.15 22.7276 126.888 22.3367C127.562 21.9753 128.25 21.8111 128.955 21.8436V23.6292H128.954Z" fill="white"/>
<path d="M139.693 31.5034C139.788 32.7085 139.365 33.7558 138.424 34.6384C137.486 35.5255 136.403 35.9295 135.182 35.8498C134.054 35.7711 133.11 35.3169 132.35 34.4846C131.587 33.6549 131.212 32.6687 131.212 31.5255H133.065V31.9752C133.065 32.4353 133.319 32.9089 133.818 33.3979C134.321 33.8906 134.853 34.1258 135.417 34.1109C136.168 34.0973 136.763 33.8671 137.203 33.4278C137.592 33.0188 137.8 32.485 137.813 31.8232C137.828 30.6746 137.177 29.8911 135.861 29.4658L134.289 28.9664C132.643 28.4498 131.782 27.3283 131.704 25.6043C131.656 24.5697 132.006 23.6853 132.753 22.947C133.497 22.2124 134.399 21.8183 135.453 21.7722C136.363 21.7265 137.215 22.0192 138.01 22.653C138.803 23.2872 139.229 24.0748 139.293 25.0158V25.4134H137.413V25.1053C137.413 24.6308 137.215 24.2454 136.817 23.9522C136.416 23.6582 135.959 23.5107 135.44 23.5107C134.938 23.5274 134.505 23.7075 134.136 24.054C133.767 24.4005 133.576 24.8339 133.56 25.3542C133.497 26.3155 134.069 26.9995 135.276 27.408L136.827 27.9278C138.611 28.5407 139.567 29.7318 139.693 31.5034Z" fill="white"/>
<path d="M155.11 35.496H153.323V27.6938C153.323 26.5664 152.903 25.5907 152.07 24.7682C151.23 23.9476 150.25 23.55 149.13 23.5816C147.991 23.5988 147.031 23.9761 146.249 24.7207C145.467 25.4663 145.074 26.4095 145.074 27.5526V35.4969H143.287V17.3777H145.074V24.0046C146.096 22.6746 147.406 21.9689 149.009 21.8902C150.673 21.8106 152.104 22.3602 153.305 23.5337C154.508 24.7103 155.11 26.1593 155.11 27.8829L155.11 35.496Z" fill="white"/>
<path d="M172.452 28.7755V35.4956H170.665V33.4024C169.217 35.0672 167.436 35.8638 165.33 35.8005C163.489 35.7367 161.921 35.0246 160.626 33.6634C159.329 32.2995 158.683 30.6782 158.683 28.7985C158.683 26.8406 159.38 25.1609 160.773 23.7572C162.169 22.3553 163.836 21.693 165.779 21.7708C167.658 21.8346 169.255 22.5516 170.573 23.9219C171.889 25.293 172.512 26.9112 172.452 28.7755ZM170.664 28.6465C170.633 27.2333 170.132 26.0223 169.16 25.0184C168.184 24.0141 167.015 23.5106 165.647 23.5106C164.221 23.5106 163.001 24.0141 161.997 25.0184C160.995 26.0223 160.482 27.2405 160.467 28.6673C160.436 30.0824 160.902 31.3174 161.87 32.3787C162.837 33.4381 164.001 34.0005 165.368 34.0647C166.844 34.1249 168.104 33.6114 169.147 32.5221C170.193 31.4291 170.696 30.1376 170.664 28.6465Z" fill="white"/>
<path d="M177.996 17.3777H176.212V35.496H177.996V17.3777Z" fill="white"/>
<path d="M40.514 26.9769C40.495 26.2287 40.4742 25.522 40.4742 24.8186V11.762H13.4535L18.6952 14.6007H37.6369V24.8181C37.6369 25.5614 37.6577 26.3205 37.678 27.0533C37.7531 29.8364 37.8305 32.7135 36.7936 35.1211C34.9995 39.2853 30.9122 41.9774 26.3862 41.9774C20.8725 41.9774 16.2682 38.4343 14.9287 33.1614C14.5297 31.5862 14.5822 29.9603 14.6392 28.2363C14.6582 27.6283 14.6772 27.0004 14.6772 26.3698V19.599L11.8398 18.098V26.3712C11.8398 26.9556 11.819 27.5609 11.8018 28.1454C11.7417 29.9888 11.6811 31.8961 12.1787 33.8608C13.8407 40.4131 19.5534 44.817 26.3857 44.817C32.0477 44.817 37.156 41.4522 39.3984 36.2453C40.6855 33.2641 40.5982 30.0676 40.514 26.9769Z" fill="#34D399"/>
<path d="M17.7671 30.9429C17.7671 30.9967 17.7703 31.0497 17.7766 31.1039C18.0792 33.7847 20.2366 38.8596 26.2424 38.8596C32.3369 38.8596 34.0831 33.7065 34.1564 30.9809C34.1564 30.9687 34.1582 30.956 34.1582 30.9429V18.4925C34.1582 17.708 33.5222 17.0715 32.7377 17.0715H23.2576L28.498 19.9111H31.3195V30.9189C31.2937 31.4966 30.9599 36.02 26.2429 36.02C21.5513 36.02 20.718 31.645 20.6049 30.8506V22.7367L17.7947 21.2484C17.7789 21.3343 17.7675 21.4221 17.7675 21.5135V30.9429H17.7671Z" fill="#34D399"/>
<path d="M17.7994 21.2207C17.7949 21.2298 17.7981 21.2402 17.7949 21.2483L20.6051 22.7366L17.7994 21.2207Z" fill="white"/>
</svg>
