<svg width="200" height="142" viewBox="0 0 200 142" fill="none" xmlns="http://www.w3.org/2000/svg">
<path d="M15.2 119.873C16.95 119.873 18.5833 119.515 20.1 118.798C21.6333 118.065 22.9833 117.032 24.15 115.698V119.073H31.825V93.4732H24.15V96.5982C23.1333 95.3649 21.8417 94.4066 20.275 93.7232C18.7083 93.0232 17.0167 92.6732 15.2 92.6732C12.7333 92.6732 10.5417 93.2732 8.625 94.4732C6.725 95.6566 5.23333 97.2732 4.15 99.3232C3.06667 101.357 2.525 103.657 2.525 106.223C2.525 108.857 3.09167 111.207 4.225 113.273C5.35833 115.323 6.875 116.94 8.775 118.123C10.6917 119.29 12.8333 119.873 15.2 119.873ZM17.475 113.348C15.4917 113.348 13.85 112.682 12.55 111.348C11.25 110.015 10.6 108.323 10.6 106.273C10.6 104.223 11.25 102.532 12.55 101.198C13.8667 99.8649 15.5083 99.1982 17.475 99.1982C19.4583 99.1982 21.0917 99.8649 22.375 101.198C23.675 102.515 24.325 104.207 24.325 106.273C24.325 108.34 23.6833 110.04 22.4 111.373C21.1167 112.69 19.475 113.348 17.475 113.348ZM40.8531 119.073H48.5281V104.773C48.5281 103.823 48.8031 102.94 49.3531 102.123C49.9198 101.29 50.6448 100.615 51.5281 100.098C52.4281 99.5816 53.3781 99.3232 54.3781 99.3232C55.8281 99.3232 57.1948 99.7399 58.4781 100.573L61.6781 94.0982C61.0115 93.6816 60.1948 93.3399 59.2281 93.0732C58.2781 92.8066 57.3531 92.6732 56.4531 92.6732C54.8698 92.6732 53.3865 93.0649 52.0031 93.8482C50.6365 94.6149 49.4781 95.7149 48.5281 97.1482V93.4732H40.8531V119.073ZM77.6328 119.873C79.3161 119.873 80.8995 119.632 82.3828 119.148C83.8661 118.682 85.0911 118.09 86.0578 117.373L83.4328 112.198C82.2495 113.115 80.7161 113.573 78.8328 113.573C77.3495 113.573 76.0411 113.248 74.9078 112.598C73.7911 111.948 72.9245 111.073 72.3078 109.973C71.6911 108.857 71.3828 107.623 71.3828 106.273C71.3828 105.04 71.6661 103.865 72.2328 102.748C72.8161 101.632 73.6578 100.723 74.7578 100.023C75.8578 99.3232 77.1995 98.9732 78.7828 98.9732C80.6661 98.9732 82.2161 99.4316 83.4328 100.348L86.0578 95.1732C85.1245 94.4399 83.8911 93.8399 82.3578 93.3732C80.8411 92.9066 79.2578 92.6732 77.6078 92.6732C75.5578 92.6732 73.6661 93.0399 71.9328 93.7732C70.1995 94.5066 68.6911 95.5066 67.4078 96.7732C66.1245 98.0399 65.1245 99.4899 64.4078 101.123C63.6911 102.757 63.3328 104.482 63.3328 106.298C63.3328 108.198 63.7078 109.973 64.4578 111.623C65.2078 113.257 66.2411 114.69 67.5578 115.923C68.8745 117.157 70.3911 118.123 72.1078 118.823C73.8411 119.523 75.6828 119.873 77.6328 119.873ZM102.7 119.873C104.45 119.873 106.083 119.515 107.6 118.798C109.133 118.065 110.483 117.032 111.65 115.698V119.073H119.325V93.4732H111.65V96.5982C110.633 95.3649 109.342 94.4066 107.775 93.7232C106.208 93.0232 104.517 92.6732 102.7 92.6732C100.233 92.6732 98.0417 93.2732 96.125 94.4732C94.225 95.6566 92.7333 97.2732 91.65 99.3232C90.5667 101.357 90.025 103.657 90.025 106.223C90.025 108.857 90.5917 111.207 91.725 113.273C92.8583 115.323 94.375 116.94 96.275 118.123C98.1917 119.29 100.333 119.873 102.7 119.873ZM104.975 113.348C102.992 113.348 101.35 112.682 100.05 111.348C98.75 110.015 98.1 108.323 98.1 106.273C98.1 104.223 98.75 102.532 100.05 101.198C101.367 99.8649 103.008 99.1982 104.975 99.1982C106.958 99.1982 108.592 99.8649 109.875 101.198C111.175 102.515 111.825 104.207 111.825 106.273C111.825 108.34 111.183 110.04 109.9 111.373C108.617 112.69 106.975 113.348 104.975 113.348ZM128.353 119.073H136.028V103.923C136.028 102.44 136.52 101.198 137.503 100.198C138.486 99.1816 139.828 98.6732 141.528 98.6732C143.195 98.6732 144.503 99.1899 145.453 100.223C146.42 101.24 146.903 102.665 146.903 104.498V119.073H154.578V102.873C154.578 100.84 154.153 99.0649 153.303 97.5482C152.453 96.0149 151.278 94.8232 149.778 93.9732C148.295 93.1066 146.57 92.6732 144.603 92.6732C142.836 92.6732 141.211 93.0149 139.728 93.6982C138.245 94.3649 137.011 95.2399 136.028 96.3232V93.4732H128.353V119.073ZM173.794 119.873C175.544 119.873 177.177 119.515 178.694 118.798C180.227 118.065 181.577 117.032 182.744 115.698V119.073H190.419V93.4732H182.744V96.5982C181.727 95.3649 180.435 94.4066 178.869 93.7232C177.302 93.0232 175.61 92.6732 173.794 92.6732C171.327 92.6732 169.135 93.2732 167.219 94.4732C165.319 95.6566 163.827 97.2732 162.744 99.3232C161.66 101.357 161.119 103.657 161.119 106.223C161.119 108.857 161.685 111.207 162.819 113.273C163.952 115.323 165.469 116.94 167.369 118.123C169.285 119.29 171.427 119.873 173.794 119.873ZM176.069 113.348C174.085 113.348 172.444 112.682 171.144 111.348C169.844 110.015 169.194 108.323 169.194 106.273C169.194 104.223 169.844 102.532 171.144 101.198C172.46 99.8649 174.102 99.1982 176.069 99.1982C178.052 99.1982 179.685 99.8649 180.969 101.198C182.269 102.515 182.919 104.207 182.919 106.273C182.919 108.34 182.277 110.04 180.994 111.373C179.71 112.69 178.069 113.348 176.069 113.348Z" fill="white"/>
<path fill-rule="evenodd" clip-rule="evenodd" d="M112.507 56.8146C118.736 64.0446 129.573 65.1753 136.712 59.3401C143.852 53.5048 144.591 42.9134 138.362 35.6834L113.755 7.1233C107.527 -0.10666 96.6895 -1.23824 89.5496 4.59702C82.4098 10.4323 81.6712 21.0187 87.9015 28.2495L112.507 56.8146ZM130.559 52.1975C128.944 53.4656 126.877 54.057 124.814 53.8417C122.751 53.6264 120.86 52.622 119.557 51.0493L94.9507 22.4892C93.5869 20.9661 92.8997 18.9779 93.0403 16.9615C93.1809 14.9452 94.1377 13.0657 95.7004 11.7362C97.3161 10.4681 99.3827 9.87673 101.446 10.092C103.509 10.3073 105.4 11.3117 106.703 12.8845L131.31 41.4446C132.673 42.9678 133.36 44.9561 133.22 46.9724C133.079 48.9887 132.122 50.8682 130.559 52.1975Z" fill="white"/>
<path fill-rule="evenodd" clip-rule="evenodd" d="M87.7141 56.8143C81.4813 64.0418 70.6476 65.1733 63.5086 59.3381C56.3696 53.5028 55.6302 42.9089 61.8587 35.6806L86.4651 7.11795C92.6945 -0.112844 103.532 -1.24359 110.671 4.59167C117.81 10.4269 118.549 21.0183 112.32 28.2491L87.7141 56.8143ZM69.6602 52.1972C71.2758 53.4653 73.3422 54.0566 75.4053 53.8413C77.4683 53.626 79.3592 52.6216 80.6623 51.049L105.269 22.4888C106.633 20.9657 107.32 18.9775 107.179 16.9612C107.038 14.9448 106.082 13.0654 104.519 11.7359C102.903 10.4678 100.837 9.87637 98.7735 10.0917C96.7103 10.307 94.8193 11.3114 93.516 12.8841L68.9105 41.4434C67.5464 42.9666 66.8591 44.9549 66.9997 46.9715C67.1403 48.988 68.0973 50.8677 69.6602 52.1972Z" fill="white"/>
</svg>
