<svg width="431" height="424" viewBox="0 0 431 424" fill="none" xmlns="http://www.w3.org/2000/svg">
<g filter="url(#filter0_ddii)">
<ellipse cx="211.424" cy="361.767" rx="194.405" ry="45.1661" transform="rotate(-0.0289505 211.424 361.767)" fill="url(#paint0_linear)"/>
<ellipse cx="211.424" cy="361.767" rx="194.405" ry="45.1661" transform="rotate(-0.0289505 211.424 361.767)" fill="url(#paint1_radial)"/>
<ellipse cx="211.424" cy="361.767" rx="194.405" ry="45.1661" transform="rotate(-0.0289505 211.424 361.767)" fill="url(#paint2_radial)" fill-opacity="0.16"/>
<path d="M404.829 361.669C404.83 364.476 403.612 367.296 401.133 370.113C398.649 372.936 394.939 375.708 390.079 378.381C380.359 383.726 366.227 388.574 348.678 392.661C313.596 400.83 265.077 405.906 211.446 405.933C157.816 405.96 109.291 400.934 74.2008 392.8C56.6475 388.731 42.5108 383.897 32.7861 378.562C27.9233 375.894 24.2104 373.126 21.7232 370.305C19.2417 367.49 18.0203 364.672 18.0189 361.865C18.0175 359.058 19.236 356.238 21.7147 353.421C24.199 350.598 27.9091 347.826 32.7692 345.153C42.4886 339.808 56.6203 334.96 74.1695 330.873C109.252 322.704 157.771 317.628 211.402 317.601C265.032 317.574 313.556 322.601 348.647 330.735C366.2 334.803 380.337 339.637 390.062 344.973C394.924 347.641 398.637 350.409 401.125 353.23C403.606 356.044 404.827 358.862 404.829 361.669Z" stroke="url(#paint3_radial)" stroke-width="2"/>
<path d="M404.829 361.669C404.83 364.476 403.612 367.296 401.133 370.113C398.649 372.936 394.939 375.708 390.079 378.381C380.359 383.726 366.227 388.574 348.678 392.661C313.596 400.83 265.077 405.906 211.446 405.933C157.816 405.96 109.291 400.934 74.2008 392.8C56.6475 388.731 42.5108 383.897 32.7861 378.562C27.9233 375.894 24.2104 373.126 21.7232 370.305C19.2417 367.49 18.0203 364.672 18.0189 361.865C18.0175 359.058 19.236 356.238 21.7147 353.421C24.199 350.598 27.9091 347.826 32.7692 345.153C42.4886 339.808 56.6203 334.96 74.1695 330.873C109.252 322.704 157.771 317.628 211.402 317.601C265.032 317.574 313.556 322.601 348.647 330.735C366.2 334.803 380.337 339.637 390.062 344.973C394.924 347.641 398.637 350.409 401.125 353.23C403.606 356.044 404.827 358.862 404.829 361.669Z" stroke="black" stroke-opacity="0.2" stroke-width="2"/>
</g>
<g filter="url(#filter1_i)">
<circle cx="405.852" cy="293.198" r="17.8328" transform="rotate(-53.3382 405.852 293.198)" fill="url(#paint4_linear)"/>
<circle cx="405.852" cy="293.198" r="17.8328" transform="rotate(-53.3382 405.852 293.198)" fill="url(#paint5_radial)" fill-opacity="0.8"/>
<circle cx="405.852" cy="293.198" r="17.8328" transform="rotate(-53.3382 405.852 293.198)" fill="url(#paint6_radial)" fill-opacity="0.6"/>
<circle cx="405.852" cy="293.198" r="17.8328" transform="rotate(-53.3382 405.852 293.198)" fill="url(#paint7_linear)" fill-opacity="0.6"/>
</g>
<g filter="url(#filter2_i)">
<circle cx="308.195" cy="26.5669" r="26.5669" transform="rotate(-90 308.195 26.5669)" fill="url(#paint8_linear)"/>
<circle cx="308.195" cy="26.5669" r="26.5669" transform="rotate(-90 308.195 26.5669)" fill="url(#paint9_radial)"/>
<circle cx="308.195" cy="26.5669" r="26.5669" transform="rotate(-90 308.195 26.5669)" fill="url(#paint10_radial)"/>
<circle cx="308.195" cy="26.5669" r="26.5669" transform="rotate(-90 308.195 26.5669)" fill="url(#paint11_radial)" fill-opacity="0.6"/>
<circle cx="308.195" cy="26.5669" r="26.5669" transform="rotate(-90 308.195 26.5669)" fill="url(#paint12_linear)" fill-opacity="0.6"/>
</g>
<g filter="url(#filter3_i)">
<circle cx="64.3427" cy="139.748" r="20.4022" transform="rotate(-90 64.3427 139.748)" fill="url(#paint13_linear)"/>
<circle cx="64.3427" cy="139.748" r="20.4022" transform="rotate(-90 64.3427 139.748)" fill="url(#paint14_radial)"/>
<circle cx="64.3427" cy="139.748" r="20.4022" transform="rotate(-90 64.3427 139.748)" fill="url(#paint15_radial)"/>
<circle cx="64.3427" cy="139.748" r="20.4022" transform="rotate(-90 64.3427 139.748)" fill="url(#paint16_radial)" fill-opacity="0.6"/>
<circle cx="64.3427" cy="139.748" r="20.4022" transform="rotate(-90 64.3427 139.748)" fill="url(#paint17_linear)" fill-opacity="0.6"/>
</g>
<circle cx="276.1" cy="285.652" r="82.6006" transform="rotate(97.3578 276.1 285.652)" fill="url(#paint18_linear)"/>
<circle cx="276.1" cy="285.652" r="82.6006" transform="rotate(97.3578 276.1 285.652)" fill="url(#paint19_radial)" fill-opacity="0.2"/>
<circle cx="276.1" cy="285.652" r="82.6006" transform="rotate(97.3578 276.1 285.652)" fill="url(#paint20_radial)" fill-opacity="0.2"/>
<circle cx="276.1" cy="285.652" r="82.6006" transform="rotate(97.3578 276.1 285.652)" fill="url(#paint21_radial)" fill-opacity="0.5"/>
<circle cx="276.1" cy="285.652" r="82.6006" transform="rotate(97.3578 276.1 285.652)" fill="url(#paint22_radial)" fill-opacity="0.3"/>
<circle cx="276.1" cy="285.652" r="82.6006" transform="rotate(97.3578 276.1 285.652)" fill="url(#paint23_radial)" fill-opacity="0.35"/>
<g filter="url(#filter4_i)">
<circle cx="139.244" cy="283.858" r="94.2454" transform="rotate(-9.55531 139.244 283.858)" fill="url(#paint24_linear)"/>
<circle cx="139.244" cy="283.858" r="94.2454" transform="rotate(-9.55531 139.244 283.858)" fill="url(#paint25_radial)" fill-opacity="0.8"/>
<circle cx="139.244" cy="283.858" r="94.2454" transform="rotate(-9.55531 139.244 283.858)" fill="url(#paint26_radial)" fill-opacity="0.6"/>
<circle cx="139.244" cy="283.858" r="94.2454" transform="rotate(-9.55531 139.244 283.858)" fill="url(#paint27_linear)" fill-opacity="0.6"/>
</g>
<g filter="url(#filter5_i)">
<circle cx="219.119" cy="150.151" r="66.7485" transform="rotate(-29.7162 219.119 150.151)" fill="url(#paint28_linear)"/>
<circle cx="219.119" cy="150.151" r="66.7485" transform="rotate(-29.7162 219.119 150.151)" fill="url(#paint29_radial)" fill-opacity="0.8"/>
<circle cx="219.119" cy="150.151" r="66.7485" transform="rotate(-29.7162 219.119 150.151)" fill="url(#paint30_radial)" fill-opacity="0.8"/>
<circle cx="219.119" cy="150.151" r="66.7485" transform="rotate(-29.7162 219.119 150.151)" fill="url(#paint31_radial)" fill-opacity="0.6"/>
<circle cx="219.119" cy="150.151" r="66.7485" transform="rotate(-29.7162 219.119 150.151)" fill="url(#paint32_linear)" fill-opacity="0.6"/>
<circle cx="219.119" cy="150.151" r="66.7485" transform="rotate(-29.7162 219.119 150.151)" fill="url(#paint33_radial)" fill-opacity="0.2"/>
<circle cx="219.119" cy="150.151" r="66.7485" transform="rotate(-29.7162 219.119 150.151)" fill="url(#paint34_radial)" fill-opacity="0.7"/>
</g>
<defs>
<filter id="filter0_ddii" x="0.996094" y="300.503" width="420.856" height="122.529" filterUnits="userSpaceOnUse" color-interpolation-filters="sRGB">
<feFlood flood-opacity="0" result="BackgroundImageFix"/>
<feColorMatrix in="SourceAlpha" type="matrix" values="0 0 0 0 0 0 0 0 0 0 0 0 0 0 0 0 0 0 127 0" result="hardAlpha"/>
<feOffset dx="4" dy="4"/>
<feGaussianBlur stdDeviation="6"/>
<feComposite in2="hardAlpha" operator="out"/>
<feColorMatrix type="matrix" values="0 0 0 0 0.2125 0 0 0 0 0.2125 0 0 0 0 0.2125 0 0 0 0.4 0"/>
<feBlend mode="normal" in2="BackgroundImageFix" result="effect1_dropShadow"/>
<feColorMatrix in="SourceAlpha" type="matrix" values="0 0 0 0 0 0 0 0 0 0 0 0 0 0 0 0 0 0 127 0" result="hardAlpha"/>
<feOffset dx="-4" dy="-4"/>
<feGaussianBlur stdDeviation="6"/>
<feComposite in2="hardAlpha" operator="out"/>
<feColorMatrix type="matrix" values="0 0 0 0 0.329167 0 0 0 0 0.329167 0 0 0 0 0.329167 0 0 0 0.1 0"/>
<feBlend mode="normal" in2="effect1_dropShadow" result="effect2_dropShadow"/>
<feBlend mode="normal" in="SourceGraphic" in2="effect2_dropShadow" result="shape"/>
<feColorMatrix in="SourceAlpha" type="matrix" values="0 0 0 0 0 0 0 0 0 0 0 0 0 0 0 0 0 0 127 0" result="hardAlpha"/>
<feOffset dx="10" dy="10"/>
<feGaussianBlur stdDeviation="30"/>
<feComposite in2="hardAlpha" operator="arithmetic" k2="-1" k3="1"/>
<feColorMatrix type="matrix" values="0 0 0 0 0 0 0 0 0 0 0 0 0 0 0 0 0 0 0.25 0"/>
<feBlend mode="normal" in2="shape" result="effect3_innerShadow"/>
<feColorMatrix in="SourceAlpha" type="matrix" values="0 0 0 0 0 0 0 0 0 0 0 0 0 0 0 0 0 0 127 0" result="hardAlpha"/>
<feOffset dx="12" dy="12"/>
<feGaussianBlur stdDeviation="20"/>
<feComposite in2="hardAlpha" operator="arithmetic" k2="-1" k3="1"/>
<feColorMatrix type="matrix" values="0 0 0 0 0 0 0 0 0 0 0 0 0 0 0 0 0 0 0.5 0"/>
<feBlend mode="normal" in2="effect3_innerShadow" result="effect4_innerShadow"/>
</filter>
<filter id="filter1_i" x="379.018" y="268.364" width="44.6677" height="42.6677" filterUnits="userSpaceOnUse" color-interpolation-filters="sRGB">
<feFlood flood-opacity="0" result="BackgroundImageFix"/>
<feBlend mode="normal" in="SourceGraphic" in2="BackgroundImageFix" result="shape"/>
<feColorMatrix in="SourceAlpha" type="matrix" values="0 0 0 0 0 0 0 0 0 0 0 0 0 0 0 0 0 0 127 0" result="hardAlpha"/>
<feOffset dx="-9" dy="-7"/>
<feGaussianBlur stdDeviation="33"/>
<feComposite in2="hardAlpha" operator="arithmetic" k2="-1" k3="1"/>
<feColorMatrix type="matrix" values="0 0 0 0 0.55 0 0 0 0 0.00687498 0 0 0 0 0.00687498 0 0 0 0.37 0"/>
<feBlend mode="normal" in2="shape" result="effect1_innerShadow"/>
</filter>
<filter id="filter2_i" x="281.628" y="-7" width="53.1338" height="60.1338" filterUnits="userSpaceOnUse" color-interpolation-filters="sRGB">
<feFlood flood-opacity="0" result="BackgroundImageFix"/>
<feBlend mode="normal" in="SourceGraphic" in2="BackgroundImageFix" result="shape"/>
<feColorMatrix in="SourceAlpha" type="matrix" values="0 0 0 0 0 0 0 0 0 0 0 0 0 0 0 0 0 0 127 0" result="hardAlpha"/>
<feOffset dy="-7"/>
<feGaussianBlur stdDeviation="33"/>
<feComposite in2="hardAlpha" operator="arithmetic" k2="-1" k3="1"/>
<feColorMatrix type="matrix" values="0 0 0 0 0 0 0 0 0 0.174417 0 0 0 0 0.379167 0 0 0 0.37 0"/>
<feBlend mode="normal" in2="shape" result="effect1_innerShadow"/>
</filter>
<filter id="filter3_i" x="43.9404" y="112.346" width="40.8044" height="47.8044" filterUnits="userSpaceOnUse" color-interpolation-filters="sRGB">
<feFlood flood-opacity="0" result="BackgroundImageFix"/>
<feBlend mode="normal" in="SourceGraphic" in2="BackgroundImageFix" result="shape"/>
<feColorMatrix in="SourceAlpha" type="matrix" values="0 0 0 0 0 0 0 0 0 0 0 0 0 0 0 0 0 0 127 0" result="hardAlpha"/>
<feOffset dy="-7"/>
<feGaussianBlur stdDeviation="33"/>
<feComposite in2="hardAlpha" operator="arithmetic" k2="-1" k3="1"/>
<feColorMatrix type="matrix" values="0 0 0 0 0 0 0 0 0 0.174417 0 0 0 0 0.379167 0 0 0 0.37 0"/>
<feBlend mode="normal" in2="shape" result="effect1_innerShadow"/>
</filter>
<filter id="filter4_i" x="21.6611" y="168.275" width="226.165" height="224.165" filterUnits="userSpaceOnUse" color-interpolation-filters="sRGB">
<feFlood flood-opacity="0" result="BackgroundImageFix"/>
<feBlend mode="normal" in="SourceGraphic" in2="BackgroundImageFix" result="shape"/>
<feColorMatrix in="SourceAlpha" type="matrix" values="0 0 0 0 0 0 0 0 0 0 0 0 0 0 0 0 0 0 127 0" result="hardAlpha"/>
<feOffset dx="-9" dy="-7"/>
<feGaussianBlur stdDeviation="33"/>
<feComposite in2="hardAlpha" operator="arithmetic" k2="-1" k3="1"/>
<feColorMatrix type="matrix" values="0 0 0 0 0.55 0 0 0 0 0.00687498 0 0 0 0 0.00687498 0 0 0 0.37 0"/>
<feBlend mode="normal" in2="shape" result="effect1_innerShadow"/>
</filter>
<filter id="filter5_i" x="128.061" y="52.0926" width="182.116" height="189.116" filterUnits="userSpaceOnUse" color-interpolation-filters="sRGB">
<feFlood flood-opacity="0" result="BackgroundImageFix"/>
<feBlend mode="normal" in="SourceGraphic" in2="BackgroundImageFix" result="shape"/>
<feColorMatrix in="SourceAlpha" type="matrix" values="0 0 0 0 0 0 0 0 0 0 0 0 0 0 0 0 0 0 127 0" result="hardAlpha"/>
<feOffset dy="-7"/>
<feGaussianBlur stdDeviation="33"/>
<feComposite in2="hardAlpha" operator="arithmetic" k2="-1" k3="1"/>
<feColorMatrix type="matrix" values="0 0 0 0 1 0 0 0 0 0.436333 0 0 0 0 0.258333 0 0 0 0.37 0"/>
<feBlend mode="normal" in2="shape" result="effect1_innerShadow"/>
</filter>
<linearGradient id="paint0_linear" x1="211.424" y1="342.002" x2="211.424" y2="487.895" gradientUnits="userSpaceOnUse">
<stop offset="0.142259" stop-color="#0C0C0C"/>
<stop offset="0.531381" stop-color="#181818"/>
<stop offset="1"/>
</linearGradient>
<radialGradient id="paint1_radial" cx="0" cy="0" r="1" gradientUnits="userSpaceOnUse" gradientTransform="translate(211.424 403.225) rotate(90) scale(44.2889 190.629)">
<stop/>
<stop offset="1" stop-opacity="0"/>
</radialGradient>
<radialGradient id="paint2_radial" cx="0" cy="0" r="1" gradientUnits="userSpaceOnUse" gradientTransform="translate(197.429 316.496) rotate(97.3027) scale(78.982 339.956)">
<stop stop-opacity="0"/>
<stop offset="0.981852" stop-color="#E9648D"/>
</radialGradient>
<radialGradient id="paint3_radial" cx="0" cy="0" r="1" gradientUnits="userSpaceOnUse" gradientTransform="translate(224.178 413.562) rotate(-90.029) scale(104.188 324.633)">
<stop stop-color="#FB428C"/>
<stop offset="1" stop-opacity="0"/>
</radialGradient>
<linearGradient id="paint4_linear" x1="420.808" y1="315.249" x2="389.169" y2="267.312" gradientUnits="userSpaceOnUse">
<stop stop-color="#FF31C5"/>
<stop offset="1" stop-color="#FF04B0"/>
</linearGradient>
<radialGradient id="paint5_radial" cx="0" cy="0" r="1" gradientUnits="userSpaceOnUse" gradientTransform="translate(410.866 284.27) rotate(121.734) scale(27.5616)">
<stop stop-color="#FFB340"/>
<stop offset="0.0001" stop-color="#FFB340"/>
<stop offset="0.838542" stop-color="#FF2AD0"/>
</radialGradient>
<radialGradient id="paint6_radial" cx="0" cy="0" r="1" gradientUnits="userSpaceOnUse" gradientTransform="translate(419.466 312.181) rotate(-138.906) scale(33.8399)">
<stop stop-color="#FF2A90"/>
<stop offset="0.322917" stop-color="#FF2AB7" stop-opacity="0.828125"/>
<stop offset="1" stop-color="#FF2AB7" stop-opacity="0"/>
</radialGradient>
<linearGradient id="paint7_linear" x1="393.004" y1="309.113" x2="409.643" y2="287.103" gradientUnits="userSpaceOnUse">
<stop stop-color="#7C0000"/>
<stop offset="1" stop-color="#AD2E00" stop-opacity="0"/>
</linearGradient>
<linearGradient id="paint8_linear" x1="330.477" y1="59.4184" x2="283.342" y2="-11.998" gradientUnits="userSpaceOnUse">
<stop stop-color="#5CF5FF"/>
<stop offset="1" stop-color="#5CF5FF"/>
</linearGradient>
<radialGradient id="paint9_radial" cx="0" cy="0" r="1" gradientUnits="userSpaceOnUse" gradientTransform="translate(314.765 15.1403) rotate(132.51) scale(23.2515)">
<stop offset="0.135417" stop-color="white"/>
<stop offset="1" stop-color="white" stop-opacity="0.27"/>
</radialGradient>
<radialGradient id="paint10_radial" cx="0" cy="0" r="1" gradientUnits="userSpaceOnUse" gradientTransform="translate(315.622 15.1403) rotate(141.491) scale(33.951)">
<stop stop-color="white"/>
<stop offset="0.338542" stop-color="white"/>
<stop offset="1" stop-color="white" stop-opacity="0"/>
</radialGradient>
<radialGradient id="paint11_radial" cx="0" cy="0" r="1" gradientUnits="userSpaceOnUse" gradientTransform="translate(328.477 54.8478) rotate(-138.906) scale(50.4141)">
<stop stop-color="#5CF5FF"/>
<stop offset="0.322917" stop-color="#5CF5FF" stop-opacity="0.828125"/>
<stop offset="1" stop-color="#5CF5FF" stop-opacity="0"/>
</radialGradient>
<linearGradient id="paint12_linear" x1="289.055" y1="50.2771" x2="303.624" y2="27.9951" gradientUnits="userSpaceOnUse">
<stop stop-color="#5CF5FF"/>
<stop offset="1" stop-color="#5CF5FF" stop-opacity="0"/>
</linearGradient>
<linearGradient id="paint13_linear" x1="81.4542" y1="164.977" x2="45.2567" y2="110.132" gradientUnits="userSpaceOnUse">
<stop stop-color="#5CF5FF"/>
<stop offset="1" stop-color="#5CF5FF"/>
</linearGradient>
<radialGradient id="paint14_radial" cx="0" cy="0" r="1" gradientUnits="userSpaceOnUse" gradientTransform="translate(69.3884 130.973) rotate(132.51) scale(17.8561)">
<stop offset="0.135417" stop-color="white"/>
<stop offset="1" stop-color="white" stop-opacity="0.27"/>
</radialGradient>
<radialGradient id="paint15_radial" cx="0" cy="0" r="1" gradientUnits="userSpaceOnUse" gradientTransform="translate(70.0465 130.973) rotate(141.491) scale(26.0729)">
<stop stop-color="white"/>
<stop offset="0.338542" stop-color="white"/>
<stop offset="1" stop-color="white" stop-opacity="0"/>
</radialGradient>
<radialGradient id="paint16_radial" cx="0" cy="0" r="1" gradientUnits="userSpaceOnUse" gradientTransform="translate(79.9185 161.467) rotate(-138.906) scale(38.7158)">
<stop stop-color="#5CF5FF"/>
<stop offset="0.322917" stop-color="#5CF5FF" stop-opacity="0.828125"/>
<stop offset="1" stop-color="#5CF5FF" stop-opacity="0"/>
</radialGradient>
<linearGradient id="paint17_linear" x1="49.6443" y1="157.957" x2="60.8325" y2="140.845" gradientUnits="userSpaceOnUse">
<stop stop-color="#5CF5FF"/>
<stop offset="1" stop-color="#5CF5FF" stop-opacity="0"/>
</linearGradient>
<linearGradient id="paint18_linear" x1="345.378" y1="387.792" x2="201.493" y2="176.406" gradientUnits="userSpaceOnUse">
<stop stop-color="#121212"/>
<stop offset="1" stop-color="#171717"/>
</linearGradient>
<radialGradient id="paint19_radial" cx="0" cy="0" r="1" gradientUnits="userSpaceOnUse" gradientTransform="translate(297.417 256.342) rotate(113.199) scale(67.6417)">
<stop stop-color="#DDDDDD" stop-opacity="0.32"/>
<stop offset="1" stop-color="#7C7C7C" stop-opacity="0.05"/>
</radialGradient>
<radialGradient id="paint20_radial" cx="0" cy="0" r="1" gradientUnits="userSpaceOnUse" gradientTransform="translate(296.529 258.118) rotate(116.565) scale(63.5529)">
<stop stop-color="#E6E6E6" stop-opacity="0.48"/>
<stop offset="1" stop-color="#232323" stop-opacity="0"/>
</radialGradient>
<radialGradient id="paint21_radial" cx="0" cy="0" r="1" gradientUnits="userSpaceOnUse" gradientTransform="translate(37.8548 409.683) rotate(-25.534) scale(254.71)">
<stop stop-color="#FBFF4F"/>
<stop offset="0.215632" stop-color="#FFEE56" stop-opacity="0.9"/>
<stop offset="1" stop-color="#EBB700" stop-opacity="0"/>
</radialGradient>
<radialGradient id="paint22_radial" cx="0" cy="0" r="1" gradientUnits="userSpaceOnUse" gradientTransform="translate(158.076 400.173) rotate(-47.4416) scale(148.24)">
<stop stop-color="#7BDFFF"/>
<stop offset="0.317708" stop-color="#7BDFFF" stop-opacity="0.911458"/>
<stop offset="1" stop-opacity="0"/>
</radialGradient>
<radialGradient id="paint23_radial" cx="0" cy="0" r="1" gradientUnits="userSpaceOnUse" gradientTransform="translate(307.81 345.125) rotate(-103.122) scale(169.17)">
<stop stop-color="#D92B75"/>
<stop offset="1" stop-opacity="0"/>
</radialGradient>
<linearGradient id="paint24_linear" x1="218.288" y1="400.398" x2="51.0786" y2="147.05" gradientUnits="userSpaceOnUse">
<stop stop-color="#FF31C5"/>
<stop offset="1" stop-color="#FF04B0"/>
</linearGradient>
<radialGradient id="paint25_radial" cx="0" cy="0" r="1" gradientUnits="userSpaceOnUse" gradientTransform="translate(165.744 236.673) rotate(121.734) scale(145.662)">
<stop stop-color="#FFB340"/>
<stop offset="0.0001" stop-color="#FFB340"/>
<stop offset="0.838542" stop-color="#FF2AD0"/>
</radialGradient>
<radialGradient id="paint26_radial" cx="0" cy="0" r="1" gradientUnits="userSpaceOnUse" gradientTransform="translate(211.195 384.183) rotate(-138.906) scale(178.843)">
<stop stop-color="#FF2A90"/>
<stop offset="0.322917" stop-color="#FF2AB7" stop-opacity="0.828125"/>
<stop offset="1" stop-color="#FF2AB7" stop-opacity="0"/>
</radialGradient>
<linearGradient id="paint27_linear" x1="71.3465" y1="367.969" x2="159.281" y2="251.646" gradientUnits="userSpaceOnUse">
<stop stop-color="#7C0000"/>
<stop offset="1" stop-color="#AD2E00" stop-opacity="0"/>
</linearGradient>
<linearGradient id="paint28_linear" x1="275.101" y1="232.689" x2="156.676" y2="53.2576" gradientUnits="userSpaceOnUse">
<stop stop-color="#FFE177"/>
<stop offset="1" stop-color="#FF975C"/>
</linearGradient>
<radialGradient id="paint29_radial" cx="0" cy="0" r="1" gradientUnits="userSpaceOnUse" gradientTransform="translate(235.626 121.442) rotate(132.51) scale(58.4186)">
<stop stop-color="white"/>
<stop offset="1" stop-color="white" stop-opacity="0.27"/>
</radialGradient>
<radialGradient id="paint30_radial" cx="0" cy="0" r="1" gradientUnits="userSpaceOnUse" gradientTransform="translate(237.779 121.442) rotate(141.491) scale(85.3007)">
<stop stop-color="white"/>
<stop offset="0.234375" stop-color="white"/>
<stop offset="1" stop-color="white" stop-opacity="0"/>
</radialGradient>
<radialGradient id="paint31_radial" cx="0" cy="0" r="1" gradientUnits="userSpaceOnUse" gradientTransform="translate(270.077 221.205) rotate(-138.906) scale(126.664)">
<stop stop-color="#FFDB5C"/>
<stop offset="0.322917" stop-color="#FFDB5C" stop-opacity="0.828125"/>
<stop offset="1" stop-color="#FFDB5C" stop-opacity="0"/>
</radialGradient>
<linearGradient id="paint32_linear" x1="171.031" y1="209.722" x2="207.635" y2="153.739" gradientUnits="userSpaceOnUse">
<stop stop-color="#FFB526"/>
<stop offset="1" stop-color="#FFAF37" stop-opacity="0"/>
</linearGradient>
<radialGradient id="paint33_radial" cx="0" cy="0" r="1" gradientUnits="userSpaceOnUse" gradientTransform="translate(244.957 264.987) rotate(-106.289) scale(115.152)">
<stop stop-color="#747474"/>
<stop offset="1" stop-opacity="0"/>
</radialGradient>
<radialGradient id="paint34_radial" cx="0" cy="0" r="1" gradientUnits="userSpaceOnUse" gradientTransform="translate(239.172 109.057) rotate(102.857) scale(176.201)">
<stop stop-color="#160000" stop-opacity="0"/>
<stop offset="0.955812" stop-color="#FF4861"/>
</radialGradient>
</defs>
</svg>
