<svg width="300" height="268" viewBox="0 0 300 268" fill="none" xmlns="http://www.w3.org/2000/svg">
<g filter="url(#filter0_iiii)">
<ellipse cx="133.294" cy="133.858" rx="131.294" ry="131.858" fill="url(#paint0_linear)"/>
</g>
<path d="M133.294 266.717C206.362 266.717 265.588 207.23 265.588 133.858C265.588 60.4868 206.362 1 133.294 1C60.226 1 1 60.4868 1 133.858C1 207.23 60.226 266.717 133.294 266.717Z" stroke="url(#paint1_radial)" stroke-width="2"/>
<g filter="url(#filter1_f)">
<ellipse rx="62.1452" ry="60.843" transform="matrix(0.427758 0.903893 -0.912938 0.4081 122.158 162.16)" fill="url(#paint2_radial)" fill-opacity="0.1"/>
</g>
<rect width="59.3454" height="59.1544" rx="10" transform="matrix(0.715374 -0.698741 0.71005 0.704152 215.543 106.407)" fill="url(#paint3_linear)"/>
<rect width="59.3454" height="59.1544" rx="10" transform="matrix(0.715374 -0.698741 0.71005 0.704152 215.543 106.407)" fill="url(#paint4_radial)" fill-opacity="0.2"/>
<rect width="59.3454" height="59.1544" rx="10" transform="matrix(0.715374 -0.698741 0.71005 0.704152 215.543 106.407)" fill="url(#paint5_radial)" fill-opacity="0.2"/>
<rect width="59.3454" height="59.1544" rx="10" transform="matrix(0.715374 -0.698741 0.71005 0.704152 215.543 106.407)" fill="url(#paint6_radial)" fill-opacity="0.5"/>
<rect width="59.3454" height="59.1544" rx="10" transform="matrix(0.715374 -0.698741 0.71005 0.704152 215.543 106.407)" fill="url(#paint7_radial)" fill-opacity="0.3"/>
<rect width="59.3454" height="59.1544" rx="10" transform="matrix(0.715374 -0.698741 0.71005 0.704152 215.543 106.407)" fill="url(#paint8_radial)" fill-opacity="0.2"/>
<ellipse cx="134.483" cy="91.9184" rx="37.1034" ry="37.0215" fill="url(#paint9_linear)"/>
<ellipse cx="134.483" cy="91.9184" rx="37.1034" ry="37.0215" fill="url(#paint10_radial)" fill-opacity="0.2"/>
<ellipse cx="134.483" cy="91.9184" rx="37.1034" ry="37.0215" fill="url(#paint11_radial)" fill-opacity="0.2"/>
<ellipse cx="134.483" cy="91.9184" rx="37.1034" ry="37.0215" fill="url(#paint12_radial)" fill-opacity="0.5"/>
<ellipse cx="134.483" cy="91.9184" rx="37.1034" ry="37.0215" fill="url(#paint13_radial)" fill-opacity="0.3"/>
<ellipse cx="134.483" cy="91.9184" rx="37.1034" ry="37.0215" fill="url(#paint14_radial)" fill-opacity="0.2"/>
<path d="M211.542 148.878C211.542 158.975 209.548 168.974 205.676 178.303C201.803 187.632 196.127 196.108 188.971 203.248C181.815 210.388 173.32 216.052 163.971 219.916C154.621 223.78 144.601 225.769 134.481 225.769C124.361 225.769 114.34 223.78 104.991 219.916C95.6414 216.052 87.1463 210.388 79.9905 203.248C72.8348 196.108 67.1585 187.632 63.2858 178.303C59.4132 168.974 57.4199 158.975 57.4199 148.878L134.481 148.878H211.542Z" fill="url(#paint15_linear)"/>
<path d="M211.542 148.878C211.542 158.975 209.548 168.974 205.676 178.303C201.803 187.632 196.127 196.108 188.971 203.248C181.815 210.388 173.32 216.052 163.971 219.916C154.621 223.78 144.601 225.769 134.481 225.769C124.361 225.769 114.34 223.78 104.991 219.916C95.6414 216.052 87.1463 210.388 79.9905 203.248C72.8348 196.108 67.1585 187.632 63.2858 178.303C59.4132 168.974 57.4199 158.975 57.4199 148.878L134.481 148.878H211.542Z" fill="url(#paint16_radial)" fill-opacity="0.2"/>
<path d="M211.542 148.878C211.542 158.975 209.548 168.974 205.676 178.303C201.803 187.632 196.127 196.108 188.971 203.248C181.815 210.388 173.32 216.052 163.971 219.916C154.621 223.78 144.601 225.769 134.481 225.769C124.361 225.769 114.34 223.78 104.991 219.916C95.6414 216.052 87.1463 210.388 79.9905 203.248C72.8348 196.108 67.1585 187.632 63.2858 178.303C59.4132 168.974 57.4199 158.975 57.4199 148.878L134.481 148.878H211.542Z" fill="url(#paint17_radial)" fill-opacity="0.2"/>
<path d="M211.542 148.878C211.542 158.975 209.548 168.974 205.676 178.303C201.803 187.632 196.127 196.108 188.971 203.248C181.815 210.388 173.32 216.052 163.971 219.916C154.621 223.78 144.601 225.769 134.481 225.769C124.361 225.769 114.34 223.78 104.991 219.916C95.6414 216.052 87.1463 210.388 79.9905 203.248C72.8348 196.108 67.1585 187.632 63.2858 178.303C59.4132 168.974 57.4199 158.975 57.4199 148.878L134.481 148.878H211.542Z" fill="url(#paint18_radial)" fill-opacity="0.5"/>
<path d="M211.542 148.878C211.542 158.975 209.548 168.974 205.676 178.303C201.803 187.632 196.127 196.108 188.971 203.248C181.815 210.388 173.32 216.052 163.971 219.916C154.621 223.78 144.601 225.769 134.481 225.769C124.361 225.769 114.34 223.78 104.991 219.916C95.6414 216.052 87.1463 210.388 79.9905 203.248C72.8348 196.108 67.1585 187.632 63.2858 178.303C59.4132 168.974 57.4199 158.975 57.4199 148.878L134.481 148.878H211.542Z" fill="url(#paint19_radial)" fill-opacity="0.3"/>
<path d="M211.542 148.878C211.542 158.975 209.548 168.974 205.676 178.303C201.803 187.632 196.127 196.108 188.971 203.248C181.815 210.388 173.32 216.052 163.971 219.916C154.621 223.78 144.601 225.769 134.481 225.769C124.361 225.769 114.34 223.78 104.991 219.916C95.6414 216.052 87.1463 210.388 79.9905 203.248C72.8348 196.108 67.1585 187.632 63.2858 178.303C59.4132 168.974 57.4199 158.975 57.4199 148.878L134.481 148.878H211.542Z" fill="url(#paint20_radial)" fill-opacity="0.2"/>
<defs>
<filter id="filter0_iiii" x="-51" y="-5" width="322.588" height="323.717" filterUnits="userSpaceOnUse" color-interpolation-filters="sRGB">
<feFlood flood-opacity="0" result="BackgroundImageFix"/>
<feBlend mode="normal" in="SourceGraphic" in2="BackgroundImageFix" result="shape"/>
<feColorMatrix in="SourceAlpha" type="matrix" values="0 0 0 0 0 0 0 0 0 0 0 0 0 0 0 0 0 0 127 0" result="hardAlpha"/>
<feMorphology radius="22" operator="erode" in="SourceAlpha" result="effect1_innerShadow"/>
<feOffset dx="-73" dy="252"/>
<feGaussianBlur stdDeviation="14.5"/>
<feComposite in2="hardAlpha" operator="arithmetic" k2="-1" k3="1"/>
<feColorMatrix type="matrix" values="0 0 0 0 0.108333 0 0 0 0 0.108333 0 0 0 0 0.108333 0 0 0 0.72 0"/>
<feBlend mode="normal" in2="shape" result="effect1_innerShadow"/>
<feColorMatrix in="SourceAlpha" type="matrix" values="0 0 0 0 0 0 0 0 0 0 0 0 0 0 0 0 0 0 127 0" result="hardAlpha"/>
<feMorphology radius="28" operator="dilate" in="SourceAlpha" result="effect2_innerShadow"/>
<feOffset dx="-10" dy="-26"/>
<feGaussianBlur stdDeviation="16.5"/>
<feComposite in2="hardAlpha" operator="arithmetic" k2="-1" k3="1"/>
<feColorMatrix type="matrix" values="0 0 0 0 1 0 0 0 0 1 0 0 0 0 1 0 0 0 0.1 0"/>
<feBlend mode="normal" in2="effect1_innerShadow" result="effect2_innerShadow"/>
<feColorMatrix in="SourceAlpha" type="matrix" values="0 0 0 0 0 0 0 0 0 0 0 0 0 0 0 0 0 0 127 0" result="hardAlpha"/>
<feOffset dx="5" dy="5"/>
<feGaussianBlur stdDeviation="2.5"/>
<feComposite in2="hardAlpha" operator="arithmetic" k2="-1" k3="1"/>
<feColorMatrix type="matrix" values="0 0 0 0 0 0 0 0 0 0 0 0 0 0 0 0 0 0 0.21 0"/>
<feBlend mode="normal" in2="effect2_innerShadow" result="effect3_innerShadow"/>
<feColorMatrix in="SourceAlpha" type="matrix" values="0 0 0 0 0 0 0 0 0 0 0 0 0 0 0 0 0 0 127 0" result="hardAlpha"/>
<feOffset dx="-2" dy="-2"/>
<feGaussianBlur stdDeviation="2"/>
<feComposite in2="hardAlpha" operator="arithmetic" k2="-1" k3="1"/>
<feColorMatrix type="matrix" values="0 0 0 0 0.3125 0 0 0 0 0.3125 0 0 0 0 0.3125 0 0 0 0.1 0"/>
<feBlend mode="normal" in2="effect3_innerShadow" result="effect4_innerShadow"/>
</filter>
<filter id="filter1_f" x="16.5645" y="56.729" width="211.188" height="210.862" filterUnits="userSpaceOnUse" color-interpolation-filters="sRGB">
<feFlood flood-opacity="0" result="BackgroundImageFix"/>
<feBlend mode="normal" in="SourceGraphic" in2="BackgroundImageFix" result="shape"/>
<feGaussianBlur stdDeviation="22" result="effect1_foregroundBlur"/>
</filter>
<linearGradient id="paint0_linear" x1="2.00001" y1="-19.6161" x2="355.907" y2="402.275" gradientUnits="userSpaceOnUse">
<stop/>
<stop offset="1"/>
</linearGradient>
<radialGradient id="paint1_radial" cx="0" cy="0" r="1" gradientUnits="userSpaceOnUse" gradientTransform="translate(2.14837 29.2537) rotate(51.2912) scale(358.729 362.711)">
<stop stop-color="#055128"/>
<stop offset="1" stop-color="#FFEB39" stop-opacity="0"/>
</radialGradient>
<radialGradient id="paint2_radial" cx="0" cy="0" r="1" gradientUnits="userSpaceOnUse" gradientTransform="translate(62.1452 60.843) rotate(143.013) scale(116.906 122.287)">
<stop stop-color="white"/>
<stop offset="1" stop-color="#8C8C8C" stop-opacity="0"/>
</radialGradient>
<linearGradient id="paint3_linear" x1="54.5595" y1="66.1511" x2="3.09903" y2="-9.69537" gradientUnits="userSpaceOnUse">
<stop stop-color="#121212"/>
<stop offset="1" stop-color="#171717"/>
</linearGradient>
<radialGradient id="paint4_radial" cx="0" cy="0" r="1" gradientUnits="userSpaceOnUse" gradientTransform="translate(37.3302 19.0821) rotate(113.266) scale(24.2329 24.2868)">
<stop stop-color="#DDDDDD" stop-opacity="0.32"/>
<stop offset="1" stop-color="#7C7C7C" stop-opacity="0.05"/>
</radialGradient>
<radialGradient id="paint5_radial" cx="0" cy="0" r="1" gradientUnits="userSpaceOnUse" gradientTransform="translate(37.0111 19.7181) rotate(116.639) scale(22.7714 22.8154)">
<stop stop-color="#E6E6E6" stop-opacity="0.48"/>
<stop offset="1" stop-color="#232323" stop-opacity="0"/>
</radialGradient>
<radialGradient id="paint6_radial" cx="0" cy="0" r="1" gradientUnits="userSpaceOnUse" gradientTransform="translate(84.5512 -21.9444) rotate(135.563) scale(87.8199 87.8147)">
<stop stop-color="#FFBF66"/>
<stop offset="0.0001" stop-color="#FFDD99"/>
<stop offset="1" stop-color="#FFDB9D" stop-opacity="0"/>
</radialGradient>
<radialGradient id="paint7_radial" cx="0" cy="0" r="1" gradientUnits="userSpaceOnUse" gradientTransform="translate(-17.8674 66.1511) rotate(-36.9057) scale(96.74 96.6768)">
<stop stop-color="#22FF95"/>
<stop offset="0.317708" stop-color="#22FFE4" stop-opacity="0.911458"/>
<stop offset="1" stop-opacity="0"/>
</radialGradient>
<radialGradient id="paint8_radial" cx="0" cy="0" r="1" gradientUnits="userSpaceOnUse" gradientTransform="translate(41.1589 80.4626) rotate(-106.339) scale(51.0384 51.1772)">
<stop stop-color="#747474"/>
<stop offset="1" stop-opacity="0"/>
</radialGradient>
<linearGradient id="paint9_linear" x1="165.602" y1="137.698" x2="101.166" y2="42.8221" gradientUnits="userSpaceOnUse">
<stop stop-color="#121212"/>
<stop offset="1" stop-color="#171717"/>
</linearGradient>
<radialGradient id="paint10_radial" cx="0" cy="0" r="1" gradientUnits="userSpaceOnUse" gradientTransform="translate(144.058 78.7818) rotate(113.244) scale(30.3273 30.3735)">
<stop stop-color="#DDDDDD" stop-opacity="0.32"/>
<stop offset="1" stop-color="#7C7C7C" stop-opacity="0.05"/>
</radialGradient>
<radialGradient id="paint11_radial" cx="0" cy="0" r="1" gradientUnits="userSpaceOnUse" gradientTransform="translate(143.659 79.5779) rotate(116.616) scale(28.4969 28.5347)">
<stop stop-color="#E6E6E6" stop-opacity="0.48"/>
<stop offset="1" stop-color="#232323" stop-opacity="0"/>
</radialGradient>
<radialGradient id="paint12_radial" cx="0" cy="0" r="1" gradientUnits="userSpaceOnUse" gradientTransform="translate(203.105 27.4294) rotate(135.534) scale(109.867 109.862)">
<stop stop-color="#FFBF66"/>
<stop offset="0.0001" stop-color="#FFDD99"/>
<stop offset="1" stop-color="#FFDB9D" stop-opacity="0"/>
</radialGradient>
<radialGradient id="paint13_radial" cx="0" cy="0" r="1" gradientUnits="userSpaceOnUse" gradientTransform="translate(75.0381 137.698) rotate(-36.9336) scale(121.01 120.965)">
<stop stop-color="#22FF95"/>
<stop offset="0.317708" stop-color="#22FFE4" stop-opacity="0.911458"/>
<stop offset="1" stop-opacity="0"/>
</radialGradient>
<radialGradient id="paint14_radial" cx="0" cy="0" r="1" gradientUnits="userSpaceOnUse" gradientTransform="translate(148.846 155.611) rotate(-106.323) scale(63.8791 63.9981)">
<stop stop-color="#747474"/>
<stop offset="1" stop-opacity="0"/>
</radialGradient>
<linearGradient id="paint15_linear" x1="199.112" y1="243.958" x2="65.2825" y2="46.9087" gradientUnits="userSpaceOnUse">
<stop stop-color="#121212"/>
<stop offset="1" stop-color="#171717"/>
</linearGradient>
<radialGradient id="paint16_radial" cx="0" cy="0" r="1" gradientUnits="userSpaceOnUse" gradientTransform="translate(154.367 121.594) rotate(113.244) scale(62.9875 63.0834)">
<stop stop-color="#DDDDDD" stop-opacity="0.32"/>
<stop offset="1" stop-color="#7C7C7C" stop-opacity="0.05"/>
</radialGradient>
<radialGradient id="paint17_radial" cx="0" cy="0" r="1" gradientUnits="userSpaceOnUse" gradientTransform="translate(153.539 123.248) rotate(116.616) scale(59.1859 59.2643)">
<stop stop-color="#E6E6E6" stop-opacity="0.48"/>
<stop offset="1" stop-color="#232323" stop-opacity="0"/>
</radialGradient>
<radialGradient id="paint18_radial" cx="0" cy="0" r="1" gradientUnits="userSpaceOnUse" gradientTransform="translate(277.002 14.9394) rotate(135.534) scale(228.184 228.175)">
<stop stop-color="#FFBF66"/>
<stop offset="0.0001" stop-color="#FFDD99"/>
<stop offset="1" stop-color="#FFDB9D" stop-opacity="0"/>
</radialGradient>
<radialGradient id="paint19_radial" cx="0" cy="0" r="1" gradientUnits="userSpaceOnUse" gradientTransform="translate(11.0177 243.958) rotate(-36.9336) scale(251.328 251.235)">
<stop stop-color="#22FF95"/>
<stop offset="0.317708" stop-color="#22FFE4" stop-opacity="0.911458"/>
<stop offset="1" stop-opacity="0"/>
</radialGradient>
<radialGradient id="paint20_radial" cx="0" cy="0" r="1" gradientUnits="userSpaceOnUse" gradientTransform="translate(164.311 281.163) rotate(-106.323) scale(132.672 132.919)">
<stop stop-color="#747474"/>
<stop offset="1" stop-opacity="0"/>
</radialGradient>
</defs>
</svg>
