<svg width="36" height="42" viewBox="0 0 36 42" fill="none" xmlns="http://www.w3.org/2000/svg">
<path d="M14.2765 17.2593C13.1039 17.2593 12.1782 18.2878 12.1782 19.5427C12.1782 20.7976 13.1245 21.8261 14.2765 21.8261C15.4491 21.8261 16.3748 20.7976 16.3748 19.5427C16.3954 18.2878 15.4491 17.2593 14.2765 17.2593ZM21.7851 17.2593C20.6125 17.2593 19.6868 18.2878 19.6868 19.5427C19.6868 20.7976 20.6331 21.8261 21.7851 21.8261C22.9577 21.8261 23.8834 20.7976 23.8834 19.5427C23.8834 18.2878 22.9577 17.2593 21.7851 17.2593Z" fill="#7289DA"/>
<path d="M31.7829 0H4.21714C1.89257 0 0 1.89257 0 4.23771V32.0503C0 34.3954 1.89257 36.288 4.21714 36.288H27.5451L26.4549 32.4823L29.088 34.9303L31.5771 37.2343L36 41.1429V4.23771C36 1.89257 34.1074 0 31.7829 0ZM23.8423 26.8663C23.8423 26.8663 23.1017 25.9817 22.4846 25.2C25.1794 24.4389 26.208 22.752 26.208 22.752C25.3646 23.3074 24.5623 23.6983 23.8423 23.9657C22.8137 24.3977 21.8263 24.6857 20.8594 24.8503C18.8846 25.2206 17.0743 25.1177 15.5314 24.8297C14.3589 24.6034 13.3509 24.2743 12.5074 23.9451C12.0343 23.76 11.52 23.5337 11.0057 23.2457C10.944 23.2046 10.8823 23.184 10.8206 23.1429C10.7794 23.1223 10.7589 23.1017 10.7383 23.0811C10.368 22.8754 10.1623 22.7314 10.1623 22.7314C10.1623 22.7314 11.1497 24.3771 13.7623 25.1589C13.1451 25.9406 12.384 26.8663 12.384 26.8663C7.83771 26.7223 6.10971 23.7394 6.10971 23.7394C6.10971 17.1154 9.072 11.7463 9.072 11.7463C12.0343 9.52457 14.8526 9.58629 14.8526 9.58629L15.0583 9.83314C11.3554 10.9029 9.648 12.528 9.648 12.528C9.648 12.528 10.1006 12.2811 10.8617 11.9314C13.0629 10.9646 14.8114 10.6971 15.5314 10.6354C15.6549 10.6149 15.7577 10.5943 15.8811 10.5943C17.136 10.4297 18.5554 10.3886 20.0366 10.5531C21.9909 10.7794 24.0891 11.3554 26.2286 12.528C26.2286 12.528 24.6034 10.9851 21.1063 9.91543L21.3943 9.58629C21.3943 9.58629 24.2126 9.52457 27.1749 11.7463C27.1749 11.7463 30.1371 17.1154 30.1371 23.7394C30.1371 23.7394 28.3886 26.7223 23.8423 26.8663Z" fill="#7289DA"/>
</svg>
