<svg width="300" height="262" viewBox="0 0 300 262" fill="none" xmlns="http://www.w3.org/2000/svg">
<g filter="url(#filter0_iiii)">
<ellipse cx="148.718" cy="130.933" rx="128.205" ry="128.933" fill="url(#paint0_linear)"/>
</g>
<path d="M148.718 260.865C220.081 260.865 277.923 202.687 277.923 130.933C277.923 59.1781 220.081 1 148.718 1C77.3545 1 19.5127 59.1781 19.5127 130.933C19.5127 202.687 77.3545 260.865 148.718 260.865Z" stroke="url(#paint1_radial)" stroke-width="2"/>
<g filter="url(#filter1_f)">
<ellipse rx="59.1907" ry="56.6765" transform="matrix(0.415913 0.909404 -0.907609 0.419816 156.616 127.053)" fill="url(#paint2_radial)" fill-opacity="0.5"/>
</g>
<g filter="url(#filter2_i)">
<ellipse cx="19.2307" cy="141.259" rx="19.2307" ry="19.3399" fill="url(#paint3_linear)"/>
<ellipse cx="19.2307" cy="141.259" rx="19.2307" ry="19.3399" fill="url(#paint4_radial)" fill-opacity="0.8"/>
<ellipse cx="19.2307" cy="141.259" rx="19.2307" ry="19.3399" fill="url(#paint5_radial)" fill-opacity="0.8"/>
<ellipse cx="19.2307" cy="141.259" rx="19.2307" ry="19.3399" fill="url(#paint6_radial)" fill-opacity="0.6"/>
<ellipse cx="19.2307" cy="141.259" rx="19.2307" ry="19.3399" fill="url(#paint7_linear)" fill-opacity="0.6"/>
</g>
<g filter="url(#filter3_i)">
<ellipse cx="280.769" cy="141.257" rx="19.2307" ry="19.3399" fill="url(#paint8_linear)"/>
<ellipse cx="280.769" cy="141.257" rx="19.2307" ry="19.3399" fill="url(#paint9_radial)" fill-opacity="0.8"/>
<ellipse cx="280.769" cy="141.257" rx="19.2307" ry="19.3399" fill="url(#paint10_radial)" fill-opacity="0.8"/>
<ellipse cx="280.769" cy="141.257" rx="19.2307" ry="19.3399" fill="url(#paint11_radial)" fill-opacity="0.6"/>
<ellipse cx="280.769" cy="141.257" rx="19.2307" ry="19.3399" fill="url(#paint12_linear)" fill-opacity="0.6"/>
</g>
<g filter="url(#filter4_i)">
<path d="M146.14 42.8391L84.7718 86.9807C83.4656 87.9202 82.6914 89.4308 82.6914 91.0398V153.804C82.6914 178.222 97.489 200.204 120.112 209.393L145.272 219.613C147.749 220.619 150.525 220.592 152.981 219.537L175.675 209.792C197.716 200.328 212.002 178.646 212.002 154.66V90.9565C212.002 89.3943 211.272 87.9219 210.028 86.9764L152.086 42.9181C150.337 41.588 147.924 41.5559 146.14 42.8391Z" fill="url(#paint13_linear)"/>
<path d="M146.14 42.8391L84.7718 86.9807C83.4656 87.9202 82.6914 89.4308 82.6914 91.0398V153.804C82.6914 178.222 97.489 200.204 120.112 209.393L145.272 219.613C147.749 220.619 150.525 220.592 152.981 219.537L175.675 209.792C197.716 200.328 212.002 178.646 212.002 154.66V90.9565C212.002 89.3943 211.272 87.9219 210.028 86.9764L152.086 42.9181C150.337 41.588 147.924 41.5559 146.14 42.8391Z" fill="url(#paint14_radial)" fill-opacity="0.8"/>
<path d="M146.14 42.8391L84.7718 86.9807C83.4656 87.9202 82.6914 89.4308 82.6914 91.0398V153.804C82.6914 178.222 97.489 200.204 120.112 209.393L145.272 219.613C147.749 220.619 150.525 220.592 152.981 219.537L175.675 209.792C197.716 200.328 212.002 178.646 212.002 154.66V90.9565C212.002 89.3943 211.272 87.9219 210.028 86.9764L152.086 42.9181C150.337 41.588 147.924 41.5559 146.14 42.8391Z" fill="url(#paint15_radial)" fill-opacity="0.8"/>
<path d="M146.14 42.8391L84.7718 86.9807C83.4656 87.9202 82.6914 89.4308 82.6914 91.0398V153.804C82.6914 178.222 97.489 200.204 120.112 209.393L145.272 219.613C147.749 220.619 150.525 220.592 152.981 219.537L175.675 209.792C197.716 200.328 212.002 178.646 212.002 154.66V90.9565C212.002 89.3943 211.272 87.9219 210.028 86.9764L152.086 42.9181C150.337 41.588 147.924 41.5559 146.14 42.8391Z" fill="url(#paint16_radial)" fill-opacity="0.6"/>
<path d="M146.14 42.8391L84.7718 86.9807C83.4656 87.9202 82.6914 89.4308 82.6914 91.0398V153.804C82.6914 178.222 97.489 200.204 120.112 209.393L145.272 219.613C147.749 220.619 150.525 220.592 152.981 219.537L175.675 209.792C197.716 200.328 212.002 178.646 212.002 154.66V90.9565C212.002 89.3943 211.272 87.9219 210.028 86.9764L152.086 42.9181C150.337 41.588 147.924 41.5559 146.14 42.8391Z" fill="url(#paint17_linear)" fill-opacity="0.6"/>
</g>
<defs>
<filter id="filter0_iiii" x="-32.4873" y="-5" width="316.41" height="317.865" filterUnits="userSpaceOnUse" color-interpolation-filters="sRGB">
<feFlood flood-opacity="0" result="BackgroundImageFix"/>
<feBlend mode="normal" in="SourceGraphic" in2="BackgroundImageFix" result="shape"/>
<feColorMatrix in="SourceAlpha" type="matrix" values="0 0 0 0 0 0 0 0 0 0 0 0 0 0 0 0 0 0 127 0" result="hardAlpha"/>
<feMorphology radius="22" operator="erode" in="SourceAlpha" result="effect1_innerShadow"/>
<feOffset dx="-73" dy="252"/>
<feGaussianBlur stdDeviation="14.5"/>
<feComposite in2="hardAlpha" operator="arithmetic" k2="-1" k3="1"/>
<feColorMatrix type="matrix" values="0 0 0 0 0.108333 0 0 0 0 0.108333 0 0 0 0 0.108333 0 0 0 0.72 0"/>
<feBlend mode="normal" in2="shape" result="effect1_innerShadow"/>
<feColorMatrix in="SourceAlpha" type="matrix" values="0 0 0 0 0 0 0 0 0 0 0 0 0 0 0 0 0 0 127 0" result="hardAlpha"/>
<feMorphology radius="28" operator="dilate" in="SourceAlpha" result="effect2_innerShadow"/>
<feOffset dx="-10" dy="-26"/>
<feGaussianBlur stdDeviation="16.5"/>
<feComposite in2="hardAlpha" operator="arithmetic" k2="-1" k3="1"/>
<feColorMatrix type="matrix" values="0 0 0 0 1 0 0 0 0 1 0 0 0 0 1 0 0 0 0.1 0"/>
<feBlend mode="normal" in2="effect1_innerShadow" result="effect2_innerShadow"/>
<feColorMatrix in="SourceAlpha" type="matrix" values="0 0 0 0 0 0 0 0 0 0 0 0 0 0 0 0 0 0 127 0" result="hardAlpha"/>
<feOffset dx="5" dy="5"/>
<feGaussianBlur stdDeviation="2.5"/>
<feComposite in2="hardAlpha" operator="arithmetic" k2="-1" k3="1"/>
<feColorMatrix type="matrix" values="0 0 0 0 0 0 0 0 0 0 0 0 0 0 0 0 0 0 0.21 0"/>
<feBlend mode="normal" in2="effect2_innerShadow" result="effect3_innerShadow"/>
<feColorMatrix in="SourceAlpha" type="matrix" values="0 0 0 0 0 0 0 0 0 0 0 0 0 0 0 0 0 0 127 0" result="hardAlpha"/>
<feOffset dx="-2" dy="-2"/>
<feGaussianBlur stdDeviation="2"/>
<feComposite in2="hardAlpha" operator="arithmetic" k2="-1" k3="1"/>
<feColorMatrix type="matrix" values="0 0 0 0 0.3125 0 0 0 0 0.3125 0 0 0 0 0.3125 0 0 0 0.1 0"/>
<feBlend mode="normal" in2="effect3_innerShadow" result="effect4_innerShadow"/>
</filter>
<filter id="filter1_f" x="55.5752" y="24.186" width="202.081" height="205.734" filterUnits="userSpaceOnUse" color-interpolation-filters="sRGB">
<feFlood flood-opacity="0" result="BackgroundImageFix"/>
<feBlend mode="normal" in="SourceGraphic" in2="BackgroundImageFix" result="shape"/>
<feGaussianBlur stdDeviation="22" result="effect1_foregroundBlur"/>
</filter>
<filter id="filter2_i" x="0" y="114.919" width="38.4619" height="45.6797" filterUnits="userSpaceOnUse" color-interpolation-filters="sRGB">
<feFlood flood-opacity="0" result="BackgroundImageFix"/>
<feBlend mode="normal" in="SourceGraphic" in2="BackgroundImageFix" result="shape"/>
<feColorMatrix in="SourceAlpha" type="matrix" values="0 0 0 0 0 0 0 0 0 0 0 0 0 0 0 0 0 0 127 0" result="hardAlpha"/>
<feOffset dy="-7"/>
<feGaussianBlur stdDeviation="33"/>
<feComposite in2="hardAlpha" operator="arithmetic" k2="-1" k3="1"/>
<feColorMatrix type="matrix" values="0 0 0 0 1 0 0 0 0 0.436333 0 0 0 0 0.258333 0 0 0 0.37 0"/>
<feBlend mode="normal" in2="shape" result="effect1_innerShadow"/>
</filter>
<filter id="filter3_i" x="261.538" y="114.917" width="38.4619" height="45.6797" filterUnits="userSpaceOnUse" color-interpolation-filters="sRGB">
<feFlood flood-opacity="0" result="BackgroundImageFix"/>
<feBlend mode="normal" in="SourceGraphic" in2="BackgroundImageFix" result="shape"/>
<feColorMatrix in="SourceAlpha" type="matrix" values="0 0 0 0 0 0 0 0 0 0 0 0 0 0 0 0 0 0 127 0" result="hardAlpha"/>
<feOffset dy="-7"/>
<feGaussianBlur stdDeviation="33"/>
<feComposite in2="hardAlpha" operator="arithmetic" k2="-1" k3="1"/>
<feColorMatrix type="matrix" values="0 0 0 0 1 0 0 0 0 0.436333 0 0 0 0 0.258333 0 0 0 0.37 0"/>
<feBlend mode="normal" in2="shape" result="effect1_innerShadow"/>
</filter>
<filter id="filter4_i" x="82.6914" y="34.8979" width="129.311" height="185.45" filterUnits="userSpaceOnUse" color-interpolation-filters="sRGB">
<feFlood flood-opacity="0" result="BackgroundImageFix"/>
<feBlend mode="normal" in="SourceGraphic" in2="BackgroundImageFix" result="shape"/>
<feColorMatrix in="SourceAlpha" type="matrix" values="0 0 0 0 0 0 0 0 0 0 0 0 0 0 0 0 0 0 127 0" result="hardAlpha"/>
<feOffset dy="-7"/>
<feGaussianBlur stdDeviation="33"/>
<feComposite in2="hardAlpha" operator="arithmetic" k2="-1" k3="1"/>
<feColorMatrix type="matrix" values="0 0 0 0 1 0 0 0 0 0.436333 0 0 0 0 0.258333 0 0 0 0.37 0"/>
<feBlend mode="normal" in2="shape" result="effect1_innerShadow"/>
</filter>
<linearGradient id="paint0_linear" x1="20.5127" y1="-19.1365" x2="366.649" y2="392.927" gradientUnits="userSpaceOnUse">
<stop/>
<stop offset="1"/>
</linearGradient>
<radialGradient id="paint1_radial" cx="0" cy="0" r="1" gradientUnits="userSpaceOnUse" gradientTransform="translate(20.6576 28.649) rotate(51.3295) scale(350.582 354.367)">
<stop stop-color="#FFC839"/>
<stop offset="1" stop-color="#FFC839" stop-opacity="0"/>
</radialGradient>
<radialGradient id="paint2_radial" cx="0" cy="0" r="1" gradientUnits="userSpaceOnUse" gradientTransform="translate(59.1907 56.6765) rotate(143.623) scale(110.468 114.82)">
<stop stop-color="white"/>
<stop offset="1" stop-color="#8C8C8C" stop-opacity="0"/>
</radialGradient>
<linearGradient id="paint3_linear" x1="35.3598" y1="165.174" x2="0.971153" y2="113.364" gradientUnits="userSpaceOnUse">
<stop stop-color="#FFE177"/>
<stop offset="1" stop-color="#FF975C"/>
</linearGradient>
<radialGradient id="paint4_radial" cx="0" cy="0" r="1" gradientUnits="userSpaceOnUse" gradientTransform="translate(23.9867 132.941) rotate(132.349) scale(16.8828 16.8743)">
<stop stop-color="white"/>
<stop offset="1" stop-color="white" stop-opacity="0.27"/>
</radialGradient>
<radialGradient id="paint5_radial" cx="0" cy="0" r="1" gradientUnits="userSpaceOnUse" gradientTransform="translate(24.6071 132.941) rotate(141.333) scale(24.6299 24.6609)">
<stop stop-color="white"/>
<stop offset="0.234375" stop-color="white"/>
<stop offset="1" stop-color="white" stop-opacity="0"/>
</radialGradient>
<radialGradient id="paint6_radial" cx="0" cy="0" r="1" gradientUnits="userSpaceOnUse" gradientTransform="translate(33.9123 161.846) rotate(-138.745) scale(36.5824 36.61)">
<stop stop-color="#FFDB5C"/>
<stop offset="0.322917" stop-color="#FFDB5C" stop-opacity="0.828125"/>
<stop offset="1" stop-color="#FFDB5C" stop-opacity="0"/>
</radialGradient>
<linearGradient id="paint7_linear" x1="-7.47479" y1="145.832" x2="19.0374" y2="144.578" gradientUnits="userSpaceOnUse">
<stop stop-color="#FF2667"/>
<stop offset="1" stop-color="#FFAF37" stop-opacity="0"/>
</linearGradient>
<linearGradient id="paint8_linear" x1="296.898" y1="165.172" x2="262.509" y2="113.362" gradientUnits="userSpaceOnUse">
<stop stop-color="#FFE177"/>
<stop offset="1" stop-color="#FF975C"/>
</linearGradient>
<radialGradient id="paint9_radial" cx="0" cy="0" r="1" gradientUnits="userSpaceOnUse" gradientTransform="translate(285.525 132.939) rotate(132.349) scale(16.8828 16.8743)">
<stop stop-color="white"/>
<stop offset="1" stop-color="white" stop-opacity="0.27"/>
</radialGradient>
<radialGradient id="paint10_radial" cx="0" cy="0" r="1" gradientUnits="userSpaceOnUse" gradientTransform="translate(286.145 132.939) rotate(141.333) scale(24.6299 24.6609)">
<stop stop-color="white"/>
<stop offset="0.234375" stop-color="white"/>
<stop offset="1" stop-color="white" stop-opacity="0"/>
</radialGradient>
<radialGradient id="paint11_radial" cx="0" cy="0" r="1" gradientUnits="userSpaceOnUse" gradientTransform="translate(295.45 161.845) rotate(-138.745) scale(36.5824 36.61)">
<stop stop-color="#FFDB5C"/>
<stop offset="0.322917" stop-color="#FFDB5C" stop-opacity="0.828125"/>
<stop offset="1" stop-color="#FFDB5C" stop-opacity="0"/>
</radialGradient>
<linearGradient id="paint12_linear" x1="254.063" y1="145.831" x2="280.576" y2="144.576" gradientUnits="userSpaceOnUse">
<stop stop-color="#FF2667"/>
<stop offset="1" stop-color="#FFAF37" stop-opacity="0"/>
</linearGradient>
<linearGradient id="paint13_linear" x1="201.573" y1="242.535" x2="28.0079" y2="54.1434" gradientUnits="userSpaceOnUse">
<stop stop-color="#FFE177"/>
<stop offset="1" stop-color="#FF975C"/>
</linearGradient>
<radialGradient id="paint14_radial" cx="0" cy="0" r="1" gradientUnits="userSpaceOnUse" gradientTransform="translate(163.337 92.1141) rotate(123.292) scale(69.66 64.1653)">
<stop stop-color="white"/>
<stop offset="1" stop-color="white" stop-opacity="0.27"/>
</radialGradient>
<radialGradient id="paint15_radial" cx="0" cy="0" r="1" gradientUnits="userSpaceOnUse" gradientTransform="translate(165.422 92.1141) rotate(131.997) scale(96.631 98.6211)">
<stop stop-color="white"/>
<stop offset="0.234375" stop-color="white"/>
<stop offset="1" stop-color="white" stop-opacity="0"/>
</radialGradient>
<radialGradient id="paint16_radial" cx="0" cy="0" r="1" gradientUnits="userSpaceOnUse" gradientTransform="translate(196.707 227.008) rotate(-129.398) scale(145.679 144.241)">
<stop stop-color="#FFDB5C"/>
<stop offset="0.322917" stop-color="#FFDB5C" stop-opacity="0.828125"/>
<stop offset="1" stop-color="#FFDB5C" stop-opacity="0"/>
</radialGradient>
<linearGradient id="paint17_linear" x1="57.5606" y1="152.276" x2="146.792" y2="149.234" gradientUnits="userSpaceOnUse">
<stop stop-color="#FF2667"/>
<stop offset="1" stop-color="#FFAF37" stop-opacity="0"/>
</linearGradient>
</defs>
</svg>
