<svg width="141" height="144" viewBox="0 0 141 144" fill="none" xmlns="http://www.w3.org/2000/svg">
<g filter="url(#filter0_iiii_329)">
<ellipse cx="67.5" cy="74" rx="58.5" ry="60" fill="url(#paint0_linear_329)"/>
</g>
<g filter="url(#filter1_f_329)">
<ellipse rx="27.4138" ry="25.7714" transform="matrix(0.406265 0.913755 -0.902997 0.429648 70.4932 72.1944)" fill="url(#paint1_radial_329)" fill-opacity="0.5"/>
</g>
<ellipse cx="67.0076" cy="134" rx="6.00079" ry="6" fill="url(#paint2_linear_329)"/>
<ellipse cx="67.0076" cy="134" rx="6.00079" ry="6" fill="url(#paint3_radial_329)"/>
<ellipse cx="67.0076" cy="134" rx="6.00079" ry="6" fill="url(#paint4_radial_329)"/>
<ellipse cx="15.0008" cy="47" rx="6.00079" ry="6" fill="url(#paint5_linear_329)"/>
<ellipse cx="15.0008" cy="47" rx="6.00079" ry="6" fill="url(#paint6_radial_329)"/>
<ellipse cx="15.0008" cy="47" rx="6.00079" ry="6" fill="url(#paint7_radial_329)"/>
<ellipse cx="119.001" cy="47" rx="6.00079" ry="6" fill="url(#paint8_linear_329)"/>
<ellipse cx="119.001" cy="47" rx="6.00079" ry="6" fill="url(#paint9_radial_329)"/>
<ellipse cx="119.001" cy="47" rx="6.00079" ry="6" fill="url(#paint10_radial_329)"/>
<path d="M64.7637 43.0815L43.0378 58.3669C41.7602 59.2658 41 60.7301 41 62.2923V75.2512C41 91.0272 50.6867 105.232 65.348 111.057C66.8658 111.66 68.5658 111.646 70.0716 111.013C83.9631 105.179 93 91.5816 93 76.5146V62.2653C93 60.7146 92.2666 59.2552 91.0223 58.3297L70.6248 43.1588C68.8926 41.8705 66.5293 41.8393 64.7637 43.0815Z" fill="url(#paint11_linear_329)"/>
<path d="M64.7637 43.0815L43.0378 58.3669C41.7602 59.2658 41 60.7301 41 62.2923V75.2512C41 91.0272 50.6867 105.232 65.348 111.057C66.8658 111.66 68.5658 111.646 70.0716 111.013C83.9631 105.179 93 91.5816 93 76.5146V62.2653C93 60.7146 92.2666 59.2552 91.0223 58.3297L70.6248 43.1588C68.8926 41.8705 66.5293 41.8393 64.7637 43.0815Z" fill="url(#paint12_radial_329)"/>
<path d="M64.7637 43.0815L43.0378 58.3669C41.7602 59.2658 41 60.7301 41 62.2923V75.2512C41 91.0272 50.6867 105.232 65.348 111.057C66.8658 111.66 68.5658 111.646 70.0716 111.013C83.9631 105.179 93 91.5816 93 76.5146V62.2653C93 60.7146 92.2666 59.2552 91.0223 58.3297L70.6248 43.1588C68.8926 41.8705 66.5293 41.8393 64.7637 43.0815Z" fill="url(#paint13_radial_329)"/>
<defs>
<filter id="filter0_iiii_329" x="-42" y="9" width="173" height="174" filterUnits="userSpaceOnUse" color-interpolation-filters="sRGB">
<feFlood flood-opacity="0" result="BackgroundImageFix"/>
<feBlend mode="normal" in="SourceGraphic" in2="BackgroundImageFix" result="shape"/>
<feColorMatrix in="SourceAlpha" type="matrix" values="0 0 0 0 0 0 0 0 0 0 0 0 0 0 0 0 0 0 127 0" result="hardAlpha"/>
<feMorphology radius="22" operator="erode" in="SourceAlpha" result="effect1_innerShadow_329"/>
<feOffset dx="-97" dy="49"/>
<feGaussianBlur stdDeviation="14.5"/>
<feComposite in2="hardAlpha" operator="arithmetic" k2="-1" k3="1"/>
<feColorMatrix type="matrix" values="0 0 0 0 0.108333 0 0 0 0 0.108333 0 0 0 0 0.108333 0 0 0 0.72 0"/>
<feBlend mode="normal" in2="shape" result="effect1_innerShadow_329"/>
<feColorMatrix in="SourceAlpha" type="matrix" values="0 0 0 0 0 0 0 0 0 0 0 0 0 0 0 0 0 0 127 0" result="hardAlpha"/>
<feMorphology radius="28" operator="dilate" in="SourceAlpha" result="effect2_innerShadow_329"/>
<feOffset dx="-10" dy="-26"/>
<feGaussianBlur stdDeviation="16.5"/>
<feComposite in2="hardAlpha" operator="arithmetic" k2="-1" k3="1"/>
<feColorMatrix type="matrix" values="0 0 0 0 1 0 0 0 0 1 0 0 0 0 1 0 0 0 0.1 0"/>
<feBlend mode="normal" in2="effect1_innerShadow_329" result="effect2_innerShadow_329"/>
<feColorMatrix in="SourceAlpha" type="matrix" values="0 0 0 0 0 0 0 0 0 0 0 0 0 0 0 0 0 0 127 0" result="hardAlpha"/>
<feOffset dx="5" dy="5"/>
<feGaussianBlur stdDeviation="2.5"/>
<feComposite in2="hardAlpha" operator="arithmetic" k2="-1" k3="1"/>
<feColorMatrix type="matrix" values="0 0 0 0 0 0 0 0 0 0 0 0 0 0 0 0 0 0 0.21 0"/>
<feBlend mode="normal" in2="effect2_innerShadow_329" result="effect3_innerShadow_329"/>
<feColorMatrix in="SourceAlpha" type="matrix" values="0 0 0 0 0 0 0 0 0 0 0 0 0 0 0 0 0 0 127 0" result="hardAlpha"/>
<feOffset dx="-2" dy="-2"/>
<feGaussianBlur stdDeviation="2"/>
<feComposite in2="hardAlpha" operator="arithmetic" k2="-1" k3="1"/>
<feColorMatrix type="matrix" values="0 0 0 0 0.3125 0 0 0 0 0.3125 0 0 0 0 0.3125 0 0 0 0.1 0"/>
<feBlend mode="normal" in2="effect3_innerShadow_329" result="effect4_innerShadow_329"/>
</filter>
<filter id="filter1_f_329" x="0.687988" y="0.799927" width="139.611" height="142.789" filterUnits="userSpaceOnUse" color-interpolation-filters="sRGB">
<feFlood flood-opacity="0" result="BackgroundImageFix"/>
<feBlend mode="normal" in="SourceGraphic" in2="BackgroundImageFix" result="shape"/>
<feGaussianBlur stdDeviation="22" result="effect1_foregroundBlur_329"/>
</filter>
<linearGradient id="paint0_linear_329" x1="9" y1="4.16393" x2="170.595" y2="192.792" gradientUnits="userSpaceOnUse">
<stop/>
<stop offset="1"/>
</linearGradient>
<radialGradient id="paint1_radial_329" cx="0" cy="0" r="1" gradientUnits="userSpaceOnUse" gradientTransform="translate(27.4138 25.7714) rotate(144.125) scale(50.8369 52.5444)">
<stop stop-color="white"/>
<stop offset="1" stop-color="#8C8C8C" stop-opacity="0"/>
</radialGradient>
<linearGradient id="paint2_linear_329" x1="72.0405" y1="141.419" x2="61.3959" y2="125.289" gradientUnits="userSpaceOnUse">
<stop stop-color="#3E3E3E"/>
<stop offset="1" stop-color="#0D0D0D"/>
</linearGradient>
<radialGradient id="paint3_radial_329" cx="0" cy="0" r="1" gradientUnits="userSpaceOnUse" gradientTransform="translate(68.4917 131.419) rotate(132.514) scale(5.25155)">
<stop offset="0.135417" stop-color="white"/>
<stop offset="1" stop-color="white" stop-opacity="0.27"/>
</radialGradient>
<radialGradient id="paint4_radial_329" cx="0" cy="0" r="1" gradientUnits="userSpaceOnUse" gradientTransform="translate(68.6853 131.419) rotate(141.494) scale(7.66827 7.66804)">
<stop stop-color="white"/>
<stop offset="0.338542" stop-color="white"/>
<stop offset="1" stop-color="white" stop-opacity="0"/>
</radialGradient>
<linearGradient id="paint5_linear_329" x1="20.0337" y1="54.4194" x2="9.3891" y2="38.289" gradientUnits="userSpaceOnUse">
<stop stop-color="#3E3E3E"/>
<stop offset="1" stop-color="#0D0D0D"/>
</linearGradient>
<radialGradient id="paint6_radial_329" cx="0" cy="0" r="1" gradientUnits="userSpaceOnUse" gradientTransform="translate(16.4849 44.4194) rotate(132.514) scale(5.25155)">
<stop offset="0.135417" stop-color="white"/>
<stop offset="1" stop-color="white" stop-opacity="0.27"/>
</radialGradient>
<radialGradient id="paint7_radial_329" cx="0" cy="0" r="1" gradientUnits="userSpaceOnUse" gradientTransform="translate(16.6784 44.4194) rotate(141.494) scale(7.66827 7.66804)">
<stop stop-color="white"/>
<stop offset="0.338542" stop-color="white"/>
<stop offset="1" stop-color="white" stop-opacity="0"/>
</radialGradient>
<linearGradient id="paint8_linear_329" x1="124.034" y1="54.4194" x2="113.389" y2="38.289" gradientUnits="userSpaceOnUse">
<stop stop-color="#3E3E3E"/>
<stop offset="1" stop-color="#0D0D0D"/>
</linearGradient>
<radialGradient id="paint9_radial_329" cx="0" cy="0" r="1" gradientUnits="userSpaceOnUse" gradientTransform="translate(120.485 44.4194) rotate(132.514) scale(5.25155)">
<stop offset="0.135417" stop-color="white"/>
<stop offset="1" stop-color="white" stop-opacity="0.27"/>
</radialGradient>
<radialGradient id="paint10_radial_329" cx="0" cy="0" r="1" gradientUnits="userSpaceOnUse" gradientTransform="translate(120.678 44.4194) rotate(141.494) scale(7.66827 7.66804)">
<stop stop-color="white"/>
<stop offset="0.338542" stop-color="white"/>
<stop offset="1" stop-color="white" stop-opacity="0"/>
</radialGradient>
<linearGradient id="paint11_linear_329" x1="88.8064" y1="120.398" x2="20.6761" y2="44.7943" gradientUnits="userSpaceOnUse">
<stop stop-color="#3E3E3E"/>
<stop offset="1" stop-color="#0D0D0D"/>
</linearGradient>
<radialGradient id="paint12_radial_329" cx="0" cy="0" r="1" gradientUnits="userSpaceOnUse" gradientTransform="translate(73.4301 61.2312) rotate(123.876) scale(27.586 25.629)">
<stop offset="0.135417" stop-color="white"/>
<stop offset="1" stop-color="white" stop-opacity="0.27"/>
</radialGradient>
<radialGradient id="paint13_radial_329" cx="0" cy="0" r="1" gradientUnits="userSpaceOnUse" gradientTransform="translate(74.2688 61.2312) rotate(132.628) scale(38.3915 39.2635)">
<stop stop-color="white"/>
<stop offset="0.338542" stop-color="white"/>
<stop offset="1" stop-color="white" stop-opacity="0"/>
</radialGradient>
</defs>
</svg>
