<svg width="1447" height="989" viewBox="0 0 1447 989" fill="none" xmlns="http://www.w3.org/2000/svg">
<g filter="url(#filter0_d)">
<mask id="mask0" style="mask-type:alpha" maskUnits="userSpaceOnUse" x="0" y="0" width="1439" height="980">
<rect y="0.5" width="1439" height="979" fill="url(#paint0_radial)"/>
</mask>
<g mask="url(#mask0)">
<rect x="0.999023" y="-990.233" width="1439" height="2925.27" fill="url(#paint1_radial)"/>
</g>
</g>
<g filter="url(#filter1_f)">
<path d="M291 190.5L1207 93.5V782.5L310 749L291 190.5Z" fill="#0B0A0A"/>
</g>
<path d="M291 189.624L1207 96V782.5L309 750L291 189.624Z" fill="url(#paint2_radial)" fill-opacity="0.5"/>
<path d="M309 750L1 979.5L2 0.5L292.5 190.5L309 750Z" fill="url(#paint3_linear)" fill-opacity="0.74"/>
<path d="M1208 97.5L1441 3L1444.5 979.5L1207 782.37L1208 97.5Z" fill="url(#paint4_linear)" fill-opacity="0.74"/>
<path d="M1207 782.5L1444 979.5L1 979.497L310 749L1207 782.5Z" fill="url(#paint5_linear)" fill-opacity="0.66"/>
<path d="M291.042 189.5L1.5 0H1441L1208.5 97.5L291.042 189.5Z" fill="url(#paint6_linear)" fill-opacity="0.8"/>
<defs>
<filter id="filter0_d" x="0.999023" y="0.5" width="1446" height="988" filterUnits="userSpaceOnUse" color-interpolation-filters="sRGB">
<feFlood flood-opacity="0" result="BackgroundImageFix"/>
<feColorMatrix in="SourceAlpha" type="matrix" values="0 0 0 0 0 0 0 0 0 0 0 0 0 0 0 0 0 0 127 0" result="hardAlpha"/>
<feOffset dx="4" dy="5"/>
<feGaussianBlur stdDeviation="2"/>
<feColorMatrix type="matrix" values="0 0 0 0 0 0 0 0 0 0 0 0 0 0 0 0 0 0 0.25 0"/>
<feBlend mode="normal" in2="BackgroundImageFix" result="effect1_dropShadow"/>
<feBlend mode="normal" in="SourceGraphic" in2="effect1_dropShadow" result="shape"/>
</filter>
<filter id="filter1_f" x="287" y="89.5" width="924" height="697" filterUnits="userSpaceOnUse" color-interpolation-filters="sRGB">
<feFlood flood-opacity="0" result="BackgroundImageFix"/>
<feBlend mode="normal" in="SourceGraphic" in2="BackgroundImageFix" result="shape"/>
<feGaussianBlur stdDeviation="2" result="effect1_foregroundBlur"/>
</filter>
<radialGradient id="paint0_radial" cx="0" cy="0" r="1" gradientUnits="userSpaceOnUse" gradientTransform="translate(-339.428 -125.823) rotate(29.7309) scale(2228.8 8721.05)">
<stop stop-color="#262626"/>
<stop offset="0.314118" stop-color="#1A1A1A" stop-opacity="0.86293"/>
<stop offset="1" stop-color="#202020" stop-opacity="0.49"/>
</radialGradient>
<radialGradient id="paint1_radial" cx="0" cy="0" r="1" gradientUnits="userSpaceOnUse" gradientTransform="translate(-338.429 -1367.69) rotate(59.6295) scale(3828.03 15172.2)">
<stop stop-color="#262626"/>
<stop offset="0.314118" stop-color="#1A1A1A" stop-opacity="0.86293"/>
<stop offset="1" stop-color="#202020" stop-opacity="0.49"/>
</radialGradient>
<radialGradient id="paint2_radial" cx="0" cy="0" r="1" gradientUnits="userSpaceOnUse" gradientTransform="translate(749 277) rotate(90) scale(273 372.376)">
<stop stop-color="#565454"/>
<stop offset="1" stop-color="#202020" stop-opacity="0.49"/>
</radialGradient>
<linearGradient id="paint3_linear" x1="120.5" y1="405.5" x2="383" y2="387.5" gradientUnits="userSpaceOnUse">
<stop/>
<stop offset="1" stop-color="#302F2F"/>
</linearGradient>
<linearGradient id="paint4_linear" x1="1377.5" y1="568.501" x2="1065" y2="544" gradientUnits="userSpaceOnUse">
<stop/>
<stop offset="1" stop-color="#302F2F"/>
</linearGradient>
<linearGradient id="paint5_linear" x1="800" y1="931.302" x2="785.999" y2="677.34" gradientUnits="userSpaceOnUse">
<stop/>
<stop offset="1" stop-color="#1B1919"/>
</linearGradient>
<linearGradient id="paint6_linear" x1="688.5" y1="-25" x2="673.17" y2="233.48" gradientUnits="userSpaceOnUse">
<stop/>
<stop offset="1" stop-color="#353434"/>
</linearGradient>
</defs>
</svg>
