<svg width="146" height="147" viewBox="0 0 146 147" fill="none" xmlns="http://www.w3.org/2000/svg">
<g filter="url(#filter0_iiii)">
<ellipse rx="60.0088" ry="60" transform="matrix(-1 0 0 1 68.6133 60)" fill="url(#paint0_linear)"/>
</g>
<g filter="url(#filter1_f)">
<ellipse rx="28.7794" ry="28.1791" transform="matrix(-0.427809 0.903869 0.91296 0.40805 72.9699 74.1683)" fill="url(#paint1_radial)" fill-opacity="0.5"/>
</g>
<g filter="url(#filter2_ii)">
<path d="M103.089 62.1302L73.6115 91.227C71.7093 93.1046 68.4716 91.76 68.4802 89.0961L68.6679 30.7137C68.6765 28.0498 71.9228 26.7261 73.8128 28.6159L103.103 57.9016C104.274 59.0731 104.268 60.9663 103.089 62.1302Z" fill="url(#paint2_linear)"/>
<path d="M103.089 62.1302L73.6115 91.227C71.7093 93.1046 68.4716 91.76 68.4802 89.0961L68.6679 30.7137C68.6765 28.0498 71.9228 26.7261 73.8128 28.6159L103.103 57.9016C104.274 59.0731 104.268 60.9663 103.089 62.1302Z" fill="url(#paint3_radial)"/>
<path d="M103.089 62.1302L73.6115 91.227C71.7093 93.1046 68.4716 91.76 68.4802 89.0961L68.6679 30.7137C68.6765 28.0498 71.9228 26.7261 73.8128 28.6159L103.103 57.9016C104.274 59.0731 104.268 60.9663 103.089 62.1302Z" fill="url(#paint4_radial)"/>
<path d="M103.089 62.1302L73.6115 91.227C71.7093 93.1046 68.4716 91.76 68.4802 89.0961L68.6679 30.7137C68.6765 28.0498 71.9228 26.7261 73.8128 28.6159L103.103 57.9016C104.274 59.0731 104.268 60.9663 103.089 62.1302Z" fill="url(#paint5_radial)" fill-opacity="0.5"/>
</g>
<g filter="url(#filter3_ii)">
<path d="M76.1654 62.1302L46.6877 91.227C44.7855 93.1046 41.5478 91.76 41.5563 89.0961L41.7441 30.7137C41.7526 28.0498 44.9989 26.7261 46.889 28.6159L76.1789 57.9016C77.3506 59.0731 77.3445 60.9663 76.1654 62.1302Z" fill="url(#paint6_linear)"/>
<path d="M76.1654 62.1302L46.6877 91.227C44.7855 93.1046 41.5478 91.76 41.5563 89.0961L41.7441 30.7137C41.7526 28.0498 44.9989 26.7261 46.889 28.6159L76.1789 57.9016C77.3506 59.0731 77.3445 60.9663 76.1654 62.1302Z" fill="url(#paint7_radial)"/>
<path d="M76.1654 62.1302L46.6877 91.227C44.7855 93.1046 41.5478 91.76 41.5563 89.0961L41.7441 30.7137C41.7526 28.0498 44.9989 26.7261 46.889 28.6159L76.1789 57.9016C77.3506 59.0731 77.3445 60.9663 76.1654 62.1302Z" fill="url(#paint8_radial)"/>
<path d="M76.1654 62.1302L46.6877 91.227C44.7855 93.1046 41.5478 91.76 41.5563 89.0961L41.7441 30.7137C41.7526 28.0498 44.9989 26.7261 46.889 28.6159L76.1789 57.9016C77.3506 59.0731 77.3445 60.9663 76.1654 62.1302Z" fill="url(#paint9_radial)" fill-opacity="0.5"/>
</g>
<defs>
<filter id="filter0_iiii" x="-42.3955" y="-5" width="176.018" height="174" filterUnits="userSpaceOnUse" color-interpolation-filters="sRGB">
<feFlood flood-opacity="0" result="BackgroundImageFix"/>
<feBlend mode="normal" in="SourceGraphic" in2="BackgroundImageFix" result="shape"/>
<feColorMatrix in="SourceAlpha" type="matrix" values="0 0 0 0 0 0 0 0 0 0 0 0 0 0 0 0 0 0 127 0" result="hardAlpha"/>
<feMorphology radius="22" operator="erode" in="SourceAlpha" result="effect1_innerShadow"/>
<feOffset dx="-97" dy="49"/>
<feGaussianBlur stdDeviation="14.5"/>
<feComposite in2="hardAlpha" operator="arithmetic" k2="-1" k3="1"/>
<feColorMatrix type="matrix" values="0 0 0 0 0.108333 0 0 0 0 0.108333 0 0 0 0 0.108333 0 0 0 0.72 0"/>
<feBlend mode="normal" in2="shape" result="effect1_innerShadow"/>
<feColorMatrix in="SourceAlpha" type="matrix" values="0 0 0 0 0 0 0 0 0 0 0 0 0 0 0 0 0 0 127 0" result="hardAlpha"/>
<feMorphology radius="28" operator="dilate" in="SourceAlpha" result="effect2_innerShadow"/>
<feOffset dx="-10" dy="-26"/>
<feGaussianBlur stdDeviation="16.5"/>
<feComposite in2="hardAlpha" operator="arithmetic" k2="-1" k3="1"/>
<feColorMatrix type="matrix" values="0 0 0 0 1 0 0 0 0 1 0 0 0 0 1 0 0 0 0.1 0"/>
<feBlend mode="normal" in2="effect1_innerShadow" result="effect2_innerShadow"/>
<feColorMatrix in="SourceAlpha" type="matrix" values="0 0 0 0 0 0 0 0 0 0 0 0 0 0 0 0 0 0 127 0" result="hardAlpha"/>
<feOffset dx="5" dy="5"/>
<feGaussianBlur stdDeviation="2.5"/>
<feComposite in2="hardAlpha" operator="arithmetic" k2="-1" k3="1"/>
<feColorMatrix type="matrix" values="0 0 0 0 0 0 0 0 0 0 0 0 0 0 0 0 0 0 0.21 0"/>
<feBlend mode="normal" in2="effect2_innerShadow" result="effect3_innerShadow"/>
<feColorMatrix in="SourceAlpha" type="matrix" values="0 0 0 0 0 0 0 0 0 0 0 0 0 0 0 0 0 0 127 0" result="hardAlpha"/>
<feOffset dx="-2" dy="-2"/>
<feGaussianBlur stdDeviation="2"/>
<feComposite in2="hardAlpha" operator="arithmetic" k2="-1" k3="1"/>
<feColorMatrix type="matrix" values="0 0 0 0 0.3125 0 0 0 0 0.3125 0 0 0 0 0.3125 0 0 0 0.1 0"/>
<feBlend mode="normal" in2="effect3_innerShadow" result="effect4_innerShadow"/>
</filter>
<filter id="filter1_f" x="0.442383" y="1.72021" width="145.055" height="144.896" filterUnits="userSpaceOnUse" color-interpolation-filters="sRGB">
<feFlood flood-opacity="0" result="BackgroundImageFix"/>
<feBlend mode="normal" in="SourceGraphic" in2="BackgroundImageFix" result="shape"/>
<feGaussianBlur stdDeviation="22" result="effect1_foregroundBlur"/>
</filter>
<filter id="filter2_ii" x="68.4805" y="20.7273" width="35.4971" height="71.3748" filterUnits="userSpaceOnUse" color-interpolation-filters="sRGB">
<feFlood flood-opacity="0" result="BackgroundImageFix"/>
<feBlend mode="normal" in="SourceGraphic" in2="BackgroundImageFix" result="shape"/>
<feColorMatrix in="SourceAlpha" type="matrix" values="0 0 0 0 0 0 0 0 0 0 0 0 0 0 0 0 0 0 127 0" result="hardAlpha"/>
<feOffset dy="-7"/>
<feGaussianBlur stdDeviation="33"/>
<feComposite in2="hardAlpha" operator="arithmetic" k2="-1" k3="1"/>
<feColorMatrix type="matrix" values="0 0 0 0 1 0 0 0 0 1 0 0 0 0 1 0 0 0 0.37 0"/>
<feBlend mode="normal" in2="shape" result="effect1_innerShadow"/>
<feColorMatrix in="SourceAlpha" type="matrix" values="0 0 0 0 0 0 0 0 0 0 0 0 0 0 0 0 0 0 127 0" result="hardAlpha"/>
<feOffset dy="-7"/>
<feGaussianBlur stdDeviation="33"/>
<feComposite in2="hardAlpha" operator="arithmetic" k2="-1" k3="1"/>
<feColorMatrix type="matrix" values="0 0 0 0 1 0 0 0 0 1 0 0 0 0 1 0 0 0 0.37 0"/>
<feBlend mode="normal" in2="effect1_innerShadow" result="effect2_innerShadow"/>
</filter>
<filter id="filter3_ii" x="41.5566" y="20.7273" width="35.4971" height="71.3748" filterUnits="userSpaceOnUse" color-interpolation-filters="sRGB">
<feFlood flood-opacity="0" result="BackgroundImageFix"/>
<feBlend mode="normal" in="SourceGraphic" in2="BackgroundImageFix" result="shape"/>
<feColorMatrix in="SourceAlpha" type="matrix" values="0 0 0 0 0 0 0 0 0 0 0 0 0 0 0 0 0 0 127 0" result="hardAlpha"/>
<feOffset dy="-7"/>
<feGaussianBlur stdDeviation="33"/>
<feComposite in2="hardAlpha" operator="arithmetic" k2="-1" k3="1"/>
<feColorMatrix type="matrix" values="0 0 0 0 1 0 0 0 0 1 0 0 0 0 1 0 0 0 0.37 0"/>
<feBlend mode="normal" in2="shape" result="effect1_innerShadow"/>
<feColorMatrix in="SourceAlpha" type="matrix" values="0 0 0 0 0 0 0 0 0 0 0 0 0 0 0 0 0 0 127 0" result="hardAlpha"/>
<feOffset dy="-7"/>
<feGaussianBlur stdDeviation="33"/>
<feComposite in2="hardAlpha" operator="arithmetic" k2="-1" k3="1"/>
<feColorMatrix type="matrix" values="0 0 0 0 1 0 0 0 0 1 0 0 0 0 1 0 0 0 0.37 0"/>
<feBlend mode="normal" in2="effect1_innerShadow" result="effect2_innerShadow"/>
</filter>
<linearGradient id="paint0_linear" x1="5.01388e-06" y1="-9.83607" x2="160.914" y2="182.841" gradientUnits="userSpaceOnUse">
<stop/>
<stop offset="1"/>
</linearGradient>
<radialGradient id="paint1_radial" cx="0" cy="0" r="1" gradientUnits="userSpaceOnUse" gradientTransform="translate(23.6012 13.7502) rotate(158.886) scale(37.92 39.4251)">
<stop stop-color="white"/>
<stop offset="1" stop-color="#8C8C8C" stop-opacity="0"/>
</radialGradient>
<linearGradient id="paint2_linear" x1="106.627" y1="52.7843" x2="24.8429" y2="69.3718" gradientUnits="userSpaceOnUse">
<stop stop-color="#3E3E3E"/>
<stop offset="1" stop-color="#0D0D0D"/>
</linearGradient>
<radialGradient id="paint3_radial" cx="0" cy="0" r="1" gradientUnits="userSpaceOnUse" gradientTransform="translate(65.1846 72.2266) rotate(-87.3098) scale(22.5332 22.6813)">
<stop offset="0.135417" stop-color="white"/>
<stop offset="1" stop-color="white" stop-opacity="0.27"/>
</radialGradient>
<radialGradient id="paint4_radial" cx="0" cy="0" r="1" gradientUnits="userSpaceOnUse" gradientTransform="translate(65.7739 72.8157) rotate(-96.349) scale(32.9045 33.116)">
<stop stop-color="white"/>
<stop offset="0.338542" stop-color="white"/>
<stop offset="1" stop-color="white" stop-opacity="0"/>
</radialGradient>
<radialGradient id="paint5_radial" cx="0" cy="0" r="1" gradientUnits="userSpaceOnUse" gradientTransform="translate(90.8247 45.3423) rotate(140.861) scale(28.7024 28.6019)">
<stop stop-color="#747474"/>
<stop offset="1" stop-opacity="0"/>
</radialGradient>
<linearGradient id="paint6_linear" x1="79.703" y1="52.7843" x2="-2.08093" y2="69.3718" gradientUnits="userSpaceOnUse">
<stop stop-color="#3E3E3E"/>
<stop offset="1" stop-color="#0D0D0D"/>
</linearGradient>
<radialGradient id="paint7_radial" cx="0" cy="0" r="1" gradientUnits="userSpaceOnUse" gradientTransform="translate(38.2608 72.2266) rotate(-87.3098) scale(22.5332 22.6813)">
<stop offset="0.135417" stop-color="white"/>
<stop offset="1" stop-color="white" stop-opacity="0.27"/>
</radialGradient>
<radialGradient id="paint8_radial" cx="0" cy="0" r="1" gradientUnits="userSpaceOnUse" gradientTransform="translate(38.85 72.8157) rotate(-96.349) scale(32.9045 33.116)">
<stop stop-color="white"/>
<stop offset="0.338542" stop-color="white"/>
<stop offset="1" stop-color="white" stop-opacity="0"/>
</radialGradient>
<radialGradient id="paint9_radial" cx="0" cy="0" r="1" gradientUnits="userSpaceOnUse" gradientTransform="translate(63.9008 45.3423) rotate(140.861) scale(28.7024 28.6019)">
<stop stop-color="#747474"/>
<stop offset="1" stop-opacity="0"/>
</radialGradient>
</defs>
</svg>
