<svg width="1440" height="550" viewBox="0 0 1440 550" fill="none" xmlns="http://www.w3.org/2000/svg">
<rect x="0.000244141" y="1.52588e-05" width="1440" height="550" fill="black"/>
<path d="M120 488.5L0.000244141 549.5L0.000244141 0L120 206L120 488.5Z" fill="url(#paint0_linear)" fill-opacity="0.74"/>
<path d="M1209.5 504L1440 549.5L0 550L119.5 488.5L1209.5 504Z" fill="url(#paint1_linear)" fill-opacity="0.5"/>
<path d="M120 206L1320 63L1209 504L120 488.356V206Z" fill="url(#paint2_radial)" fill-opacity="0.55"/>
<path d="M119.5 206L0.000244141 1.52588e-05H1439.5L1319.5 62.5L119.5 206Z" fill="url(#paint3_linear)" fill-opacity="0.7"/>
<path d="M1320 63.5L1439.5 1.52347e-05L1440 550L1209 504L1320 63.5Z" fill="url(#paint4_linear)" fill-opacity="0.7"/>
<defs>
<linearGradient id="paint0_linear" x1="-7.99976" y1="343" x2="137.5" y2="305.5" gradientUnits="userSpaceOnUse">
<stop stop-color="#111111"/>
<stop offset="1" stop-color="#545353"/>
</linearGradient>
<linearGradient id="paint1_linear" x1="768" y1="585.5" x2="722.302" y2="355.543" gradientUnits="userSpaceOnUse">
<stop/>
<stop offset="1" stop-color="#595959"/>
</linearGradient>
<radialGradient id="paint2_radial" cx="0" cy="0" r="1" gradientUnits="userSpaceOnUse" gradientTransform="translate(193.5 328.5) rotate(11.6098) scale(449.7 487.251)">
<stop stop-color="#545454"/>
<stop offset="1" stop-color="#1F1E1E" stop-opacity="0.53"/>
</radialGradient>
<linearGradient id="paint3_linear" x1="488" y1="1.81412e-05" x2="472.5" y2="258" gradientUnits="userSpaceOnUse">
<stop/>
<stop offset="1" stop-color="#585757" stop-opacity="0.76"/>
</linearGradient>
<linearGradient id="paint4_linear" x1="1439.5" y1="289" x2="1268" y2="245.5" gradientUnits="userSpaceOnUse">
<stop/>
<stop offset="1" stop-color="#212121"/>
</linearGradient>
</defs>
</svg>
