<svg width="349" height="359" viewBox="0 0 349 359" fill="none" xmlns="http://www.w3.org/2000/svg">
<circle cx="33.423" cy="297.47" r="7.4458" transform="rotate(-8.11528 33.423 297.47)" fill="url(#paint0_linear)"/>
<circle cx="33.423" cy="297.47" r="7.4458" transform="rotate(-8.11528 33.423 297.47)" fill="url(#paint1_radial)"/>
<g filter="url(#filter0_i)">
<circle cx="211.653" cy="277.311" r="16.8207" transform="rotate(-85.6669 211.653 277.311)" fill="url(#paint2_linear)"/>
<circle cx="211.653" cy="277.311" r="16.8207" transform="rotate(-85.6669 211.653 277.311)" fill="url(#paint3_radial)"/>
<circle cx="211.653" cy="277.311" r="16.8207" transform="rotate(-85.6669 211.653 277.311)" fill="url(#paint4_radial)"/>
</g>
<g filter="url(#filter1_i)">
<circle cx="41.486" cy="139.486" r="14.5565" transform="rotate(103.148 41.486 139.486)" fill="url(#paint5_linear)"/>
<circle cx="41.486" cy="139.486" r="14.5565" transform="rotate(103.148 41.486 139.486)" fill="url(#paint6_radial)"/>
<circle cx="41.486" cy="139.486" r="14.5565" transform="rotate(103.148 41.486 139.486)" fill="url(#paint7_radial)"/>
</g>
<g opacity="0.5" filter="url(#filter2_i)">
<circle cx="188.135" cy="148.73" r="8.06551" transform="rotate(-162.618 188.135 148.73)" fill="url(#paint8_linear)"/>
<circle cx="188.135" cy="148.73" r="8.06551" transform="rotate(-162.618 188.135 148.73)" fill="url(#paint9_radial)"/>
<circle cx="188.135" cy="148.73" r="8.06551" transform="rotate(-162.618 188.135 148.73)" fill="url(#paint10_radial)"/>
</g>
<g filter="url(#filter3_f)">
<ellipse cx="252.616" cy="194.454" rx="31.6996" ry="30.4651" transform="rotate(65.3003 252.616 194.454)" fill="#969999" fill-opacity="0.8"/>
</g>
<g filter="url(#filter4_f)">
<ellipse cx="109.617" cy="252.454" rx="24.6478" ry="23.6879" transform="rotate(65.3003 109.617 252.454)" fill="#969999" fill-opacity="0.8"/>
</g>
<g filter="url(#filter5_f)">
<ellipse cx="105.82" cy="106.291" rx="24.6478" ry="23.6879" transform="rotate(65.3003 105.82 106.291)" fill="#969999" fill-opacity="0.8"/>
</g>
<path d="M230.747 195.579L221.275 205.051L211.78 195.579L221.252 186.108L230.747 195.579ZM253.769 172.557L270.016 188.804L279.488 179.332L253.769 153.589L228.027 179.332L237.499 188.804L253.769 172.557ZM286.267 186.112L276.795 195.583L286.267 205.055L295.738 195.583L286.267 186.112ZM253.772 218.606L237.525 202.359L228.053 211.83L253.772 237.572L279.49 211.83L270.019 202.359L253.772 218.606ZM253.772 205.055L263.243 195.583L253.772 186.112L244.277 195.583L253.772 205.055Z" fill="url(#paint11_linear)"/>
<path d="M74.4485 84.8349C74.5123 84.577 74.5316 84.3114 74.6079 84.0554C74.7475 83.5676 74.9827 83.1124 75.2999 82.7164C75.6172 82.3204 76.01 81.9915 76.4557 81.7488C78.0407 80.8448 79.6084 79.9136 81.1837 78.9893C84.3719 77.1219 87.5593 75.257 90.7462 73.3948C91.1709 73.1238 91.6673 72.9868 92.1709 73.0017C92.6937 73.0282 93.2176 73.0282 93.7404 73.0017C94.1129 72.9862 94.4819 73.0787 94.8029 73.2683C95.3265 73.5629 95.8442 73.8671 96.3629 74.1714C100.205 76.4251 104.047 78.6828 107.888 80.9443C108.396 81.2113 108.882 81.5157 109.345 81.8551C109.845 82.2326 110.252 82.7196 110.535 83.2788C110.818 83.838 110.97 84.4545 110.978 85.0812C111.01 87.0516 110.988 89.0231 110.991 90.9945C110.993 91.0325 110.983 91.0702 110.963 91.1024C110.943 91.1346 110.913 91.1596 110.877 91.1741C108.826 92.3596 106.775 93.5464 104.724 94.7344L104.376 94.9353V94.7422C104.376 92.9378 104.376 91.1336 104.376 89.3331C104.4 88.1898 103.972 87.0831 103.186 86.2529C102.803 85.8795 102.369 85.5619 101.897 85.3092C99.5548 83.8925 97.2116 82.4775 94.8677 81.064C94.388 80.7895 93.8583 80.6138 93.3097 80.5473C92.4295 80.4004 91.5254 80.5466 90.7365 80.9636C90.2999 81.1973 89.8759 81.4533 89.448 81.7025C87.3874 82.9021 85.3252 84.1031 83.2614 85.3053C82.6841 85.6251 82.1881 86.0734 81.8117 86.6156C81.4354 87.1578 81.1888 87.7792 81.091 88.4319C81.0597 88.6623 81.0477 88.895 81.0553 89.1274C81.0553 91.9623 81.0485 94.7962 81.0553 97.6273C81.0307 98.3922 81.2165 99.1491 81.5926 99.8156C81.9687 100.482 82.5205 101.033 83.188 101.407C85.6336 102.89 88.0745 104.378 90.5288 105.84C91.3342 106.31 92.2694 106.507 93.1957 106.403C93.8557 106.332 94.4905 106.11 95.0512 105.754C98.1256 103.903 101.196 102.047 104.284 100.219C105.533 99.4799 106.815 98.7941 108.092 98.1054C110.883 96.5986 113.597 94.9585 116.331 93.3522C117.78 92.5012 119.203 91.603 120.677 90.8052C121.326 90.4182 122.067 90.214 122.822 90.214C123.577 90.214 124.319 90.4182 124.967 90.8052C129.433 93.3809 133.894 95.9682 138.35 98.5671C138.895 98.8469 139.398 99.2012 139.845 99.6199C140.612 100.389 141.054 101.424 141.081 102.51C141.091 102.777 141.081 103.044 141.081 103.312C141.081 108.54 141.081 113.769 141.081 118.998C141.11 119.783 140.919 120.56 140.528 121.241C140.138 121.923 139.565 122.481 138.874 122.854C138.312 123.182 137.748 123.508 137.186 123.834C133.115 126.196 129.043 128.557 124.972 130.917C124.533 131.197 124.019 131.337 123.499 131.319C123.016 131.287 122.532 131.287 122.05 131.319C121.575 131.338 121.106 131.209 120.706 130.952C117.67 129.191 114.634 127.429 111.598 125.666C109.967 124.72 108.326 123.791 106.709 122.821C106.042 122.455 105.488 121.915 105.107 121.257C104.725 120.6 104.531 119.851 104.544 119.091C104.529 117.237 104.544 115.382 104.544 113.528C104.538 113.488 104.544 113.447 104.562 113.411C104.58 113.374 104.61 113.345 104.645 113.326C106.79 112.088 108.932 110.849 111.074 109.606C111.092 109.596 111.113 109.589 111.151 109.572C111.151 109.639 111.159 109.696 111.159 109.754C111.159 111.536 111.143 113.318 111.163 115.099C111.146 115.856 111.337 116.604 111.716 117.259C112.095 117.915 112.647 118.453 113.312 118.815C115.745 120.242 118.184 121.659 120.627 123.065C121.167 123.368 121.764 123.558 122.379 123.623C123.342 123.737 124.314 123.516 125.132 122.998C127.45 121.611 129.769 120.236 132.087 118.854C132.636 118.548 133.112 118.126 133.481 117.617C133.851 117.109 134.105 116.526 134.226 115.909C134.284 115.608 134.312 115.302 134.308 114.996C134.308 112.207 134.308 109.417 134.308 106.627C134.342 105.812 134.143 105.004 133.735 104.298C133.327 103.592 132.727 103.016 132.005 102.638C129.617 101.267 127.256 99.8479 124.857 98.4985C124.198 98.0906 123.44 97.8725 122.665 97.8682C121.89 97.864 121.129 98.0737 120.466 98.4744C117.066 100.44 113.676 102.423 110.28 104.395C105.22 107.336 100.159 110.275 95.0985 113.214C94.3268 113.678 93.4402 113.916 92.5398 113.901C91.8577 113.892 91.1894 113.708 90.5993 113.366C85.9315 110.661 81.2652 107.951 76.6006 105.236C76.0074 104.908 75.5033 104.44 75.1321 103.873C74.7609 103.306 74.5339 102.656 74.4707 101.982C74.4646 101.956 74.4556 101.931 74.4437 101.907L74.4485 84.8349Z" fill="url(#paint12_linear)"/>
<path d="M109.81 214.279C109.962 214.008 109.993 214.296 110.021 214.341C110.376 214.908 110.719 215.482 111.063 216.059C118.932 229.115 126.8 242.172 134.668 255.228C134.771 255.351 134.845 255.496 134.884 255.651C134.735 255.655 134.587 255.618 134.458 255.543C133.533 255.127 132.608 254.701 131.691 254.28C130.217 253.607 128.744 252.934 127.271 252.261C125.2 251.32 123.13 250.382 121.061 249.445C119.587 248.775 118.118 248.098 116.643 247.426C114.55 246.475 112.453 245.529 110.362 244.575C109.886 244.357 109.892 244.345 109.892 244.872C109.892 253.376 109.892 261.879 109.892 270.382C109.778 270.285 109.819 270.152 109.819 270.033C109.819 261.496 109.819 252.958 109.819 244.421C109.889 244.275 109.914 244.112 109.893 243.952C109.893 234.188 109.893 224.425 109.893 214.662C109.884 214.533 109.938 214.386 109.81 214.279Z" fill="url(#paint13_linear)"/>
<path d="M109.811 214.279C109.943 214.386 109.883 214.532 109.883 214.662C109.883 224.425 109.883 234.188 109.883 243.951C109.905 244.112 109.879 244.275 109.809 244.42C109.447 244.574 109.081 244.719 108.722 244.883C107.237 245.558 105.755 246.241 104.271 246.916C102.201 247.857 100.131 248.796 98.0609 249.732C96.5864 250.402 95.1172 251.08 93.6427 251.748C91.3133 252.805 88.9853 253.862 86.6493 254.907C86.0883 255.217 85.4951 255.464 84.8802 255.644C85.2557 254.907 85.672 254.19 86.1274 253.499C92.1594 243.478 98.193 233.46 104.228 223.444C106.032 220.449 107.837 217.458 109.646 214.469C109.691 214.396 109.716 214.308 109.811 214.279Z" fill="url(#paint14_linear)"/>
<path d="M109.885 270.382C109.885 261.878 109.885 253.375 109.885 244.872C109.885 244.344 109.885 244.357 110.357 244.575C112.448 245.529 114.544 246.475 116.638 247.426C118.111 248.096 119.583 248.775 121.056 249.445C123.127 250.386 125.197 251.325 127.266 252.261C128.74 252.93 130.213 253.603 131.685 254.28C132.609 254.701 133.526 255.127 134.45 255.543C134.579 255.618 134.727 255.655 134.877 255.651C135.009 255.877 134.761 255.855 134.682 255.902C133.165 256.812 131.643 257.715 130.117 258.612L120.34 264.387C117.62 265.995 114.903 267.61 112.176 269.21C111.414 269.656 110.682 270.157 109.876 270.531C109.885 270.478 109.885 270.429 109.885 270.382Z" fill="url(#paint15_linear)"/>
<path d="M109.885 270.382V270.527C109.356 270.291 108.85 270.009 108.371 269.684C100.612 265.104 92.8569 260.52 85.1047 255.934C85.0307 255.89 84.9595 255.84 84.8868 255.793C84.8868 255.744 84.8868 255.695 84.8868 255.646C85.5017 255.466 86.0949 255.218 86.656 254.909C88.9919 253.868 91.3199 252.807 93.6493 251.75C95.1238 251.08 96.593 250.402 98.0675 249.733C100.138 248.793 102.207 247.854 104.277 246.918C105.762 246.243 107.244 245.56 108.729 244.884C109.088 244.722 109.454 244.577 109.816 244.422C109.816 252.96 109.816 261.497 109.816 270.034C109.812 270.152 109.77 270.284 109.885 270.382Z" fill="url(#paint16_linear)"/>
<path d="M109.952 295.75C109.77 295.908 109.758 295.693 109.709 295.618C108.916 294.521 108.132 293.42 107.357 292.315L89.7844 267.548C88.2218 265.346 86.6597 263.144 85.0979 260.941C85.0345 260.852 84.9738 260.759 84.9117 260.667C85.0358 260.59 85.1072 260.688 85.1865 260.734C89.7844 263.449 94.3815 266.164 98.9777 268.88L109.76 275.249C109.803 275.272 109.847 275.292 109.893 275.309C109.893 275.359 109.893 275.408 109.893 275.457C109.893 282.114 109.893 288.771 109.893 295.429C109.887 295.542 109.85 295.661 109.952 295.75Z" fill="url(#paint17_linear)"/>
<path d="M109.95 295.75C109.848 295.661 109.884 295.542 109.884 295.435C109.884 288.778 109.884 282.121 109.884 275.463C109.884 275.415 109.884 275.364 109.884 275.315L124.86 266.479C128.059 264.59 131.259 262.701 134.459 260.812C134.551 260.733 134.664 260.681 134.784 260.663C134.818 260.816 134.702 260.894 134.636 260.988C126.459 272.507 118.281 284.026 110.103 295.544C110.059 295.614 110.004 295.681 109.95 295.75Z" fill="url(#paint18_linear)"/>
<path d="M84.8801 255.645C84.8801 255.693 84.8801 255.742 84.8801 255.791C84.7771 255.746 84.8008 255.697 84.8801 255.645Z" fill="url(#paint19_linear)"/>
<defs>
<filter id="filter0_i" x="193.609" y="252.267" width="36.087" height="43.087" filterUnits="userSpaceOnUse" color-interpolation-filters="sRGB">
<feFlood flood-opacity="0" result="BackgroundImageFix"/>
<feBlend mode="normal" in="SourceGraphic" in2="BackgroundImageFix" result="shape"/>
<feColorMatrix in="SourceAlpha" type="matrix" values="0 0 0 0 0 0 0 0 0 0 0 0 0 0 0 0 0 0 127 0" result="hardAlpha"/>
<feOffset dy="-7"/>
<feGaussianBlur stdDeviation="33"/>
<feComposite in2="hardAlpha" operator="arithmetic" k2="-1" k3="1"/>
<feColorMatrix type="matrix" values="0 0 0 0 0 0 0 0 0 0 0 0 0 0 0 0 0 0 0.37 0"/>
<feBlend mode="normal" in2="shape" result="effect1_innerShadow"/>
</filter>
<filter id="filter1_i" x="24" y="115" width="34.972" height="41.972" filterUnits="userSpaceOnUse" color-interpolation-filters="sRGB">
<feFlood flood-opacity="0" result="BackgroundImageFix"/>
<feBlend mode="normal" in="SourceGraphic" in2="BackgroundImageFix" result="shape"/>
<feColorMatrix in="SourceAlpha" type="matrix" values="0 0 0 0 0 0 0 0 0 0 0 0 0 0 0 0 0 0 127 0" result="hardAlpha"/>
<feOffset dy="-7"/>
<feGaussianBlur stdDeviation="33"/>
<feComposite in2="hardAlpha" operator="arithmetic" k2="-1" k3="1"/>
<feColorMatrix type="matrix" values="0 0 0 0 0 0 0 0 0 0 0 0 0 0 0 0 0 0 0.37 0"/>
<feBlend mode="normal" in2="shape" result="effect1_innerShadow"/>
</filter>
<filter id="filter2_i" x="178.028" y="131.623" width="20.2133" height="27.2133" filterUnits="userSpaceOnUse" color-interpolation-filters="sRGB">
<feFlood flood-opacity="0" result="BackgroundImageFix"/>
<feBlend mode="normal" in="SourceGraphic" in2="BackgroundImageFix" result="shape"/>
<feColorMatrix in="SourceAlpha" type="matrix" values="0 0 0 0 0 0 0 0 0 0 0 0 0 0 0 0 0 0 127 0" result="hardAlpha"/>
<feOffset dy="-7"/>
<feGaussianBlur stdDeviation="33"/>
<feComposite in2="hardAlpha" operator="arithmetic" k2="-1" k3="1"/>
<feColorMatrix type="matrix" values="0 0 0 0 0 0 0 0 0 0 0 0 0 0 0 0 0 0 0.37 0"/>
<feBlend mode="normal" in2="shape" result="effect1_innerShadow"/>
</filter>
<filter id="filter3_f" x="137.692" y="78.9243" width="229.848" height="231.059" filterUnits="userSpaceOnUse" color-interpolation-filters="sRGB">
<feFlood flood-opacity="0" result="BackgroundImageFix"/>
<feBlend mode="normal" in="SourceGraphic" in2="BackgroundImageFix" result="shape"/>
<feGaussianBlur stdDeviation="37" result="effect1_foregroundBlur"/>
</filter>
<filter id="filter4_f" x="3.79642" y="146.163" width="211.64" height="212.582" filterUnits="userSpaceOnUse" color-interpolation-filters="sRGB">
<feFlood flood-opacity="0" result="BackgroundImageFix"/>
<feBlend mode="normal" in="SourceGraphic" in2="BackgroundImageFix" result="shape"/>
<feGaussianBlur stdDeviation="37" result="effect1_foregroundBlur"/>
</filter>
<filter id="filter5_f" x="-0.000457764" y="0" width="211.64" height="212.582" filterUnits="userSpaceOnUse" color-interpolation-filters="sRGB">
<feFlood flood-opacity="0" result="BackgroundImageFix"/>
<feBlend mode="normal" in="SourceGraphic" in2="BackgroundImageFix" result="shape"/>
<feGaussianBlur stdDeviation="37" result="effect1_foregroundBlur"/>
</filter>
<linearGradient id="paint0_linear" x1="39.6678" y1="306.677" x2="26.6977" y2="287.623" gradientUnits="userSpaceOnUse">
<stop stop-color="#121212"/>
<stop offset="1" stop-color="#171717"/>
</linearGradient>
<radialGradient id="paint1_radial" cx="0" cy="0" r="1" gradientUnits="userSpaceOnUse" gradientTransform="translate(40.4175 294.839) rotate(152.949) scale(15.2641 15.109)">
<stop stop-color="#888888"/>
<stop offset="1" stop-opacity="0"/>
</radialGradient>
<linearGradient id="paint2_linear" x1="225.76" y1="298.111" x2="195.917" y2="252.894" gradientUnits="userSpaceOnUse">
<stop stop-color="#3E3E3E"/>
<stop offset="1" stop-color="#0D0D0D"/>
</linearGradient>
<radialGradient id="paint3_radial" cx="0" cy="0" r="1" gradientUnits="userSpaceOnUse" gradientTransform="translate(215.813 270.076) rotate(132.51) scale(14.7215)">
<stop offset="0.135417" stop-color="white"/>
<stop offset="1" stop-color="white" stop-opacity="0.27"/>
</radialGradient>
<radialGradient id="paint4_radial" cx="0" cy="0" r="1" gradientUnits="userSpaceOnUse" gradientTransform="translate(216.355 270.076) rotate(141.491) scale(21.4959)">
<stop stop-color="white"/>
<stop offset="0.338542" stop-color="white"/>
<stop offset="1" stop-color="white" stop-opacity="0"/>
</radialGradient>
<linearGradient id="paint5_linear" x1="53.6947" y1="157.486" x2="27.8687" y2="118.356" gradientUnits="userSpaceOnUse">
<stop stop-color="#3E3E3E"/>
<stop offset="1" stop-color="#0D0D0D"/>
</linearGradient>
<radialGradient id="paint6_radial" cx="0" cy="0" r="1" gradientUnits="userSpaceOnUse" gradientTransform="translate(45.086 133.225) rotate(132.51) scale(12.7399)">
<stop offset="0.135417" stop-color="white"/>
<stop offset="1" stop-color="white" stop-opacity="0.27"/>
</radialGradient>
<radialGradient id="paint7_radial" cx="0" cy="0" r="1" gradientUnits="userSpaceOnUse" gradientTransform="translate(45.5556 133.225) rotate(141.491) scale(18.6023)">
<stop stop-color="white"/>
<stop offset="0.338542" stop-color="white"/>
<stop offset="1" stop-color="white" stop-opacity="0"/>
</radialGradient>
<linearGradient id="paint8_linear" x1="194.9" y1="158.704" x2="180.59" y2="137.022" gradientUnits="userSpaceOnUse">
<stop stop-color="#3E3E3E"/>
<stop offset="1" stop-color="#0D0D0D"/>
</linearGradient>
<radialGradient id="paint9_radial" cx="0" cy="0" r="1" gradientUnits="userSpaceOnUse" gradientTransform="translate(190.13 145.261) rotate(132.51) scale(7.05898)">
<stop offset="0.135417" stop-color="white"/>
<stop offset="1" stop-color="white" stop-opacity="0.27"/>
</radialGradient>
<radialGradient id="paint10_radial" cx="0" cy="0" r="1" gradientUnits="userSpaceOnUse" gradientTransform="translate(190.39 145.261) rotate(141.491) scale(10.3073)">
<stop stop-color="white"/>
<stop offset="0.338542" stop-color="white"/>
<stop offset="1" stop-color="white" stop-opacity="0"/>
</radialGradient>
<linearGradient id="paint11_linear" x1="253.759" y1="153.589" x2="253.759" y2="237.572" gradientUnits="userSpaceOnUse">
<stop stop-color="#D1D1D1"/>
<stop offset="1" stop-color="white" stop-opacity="0.51"/>
</linearGradient>
<linearGradient id="paint12_linear" x1="107.765" y1="73" x2="107.765" y2="131.321" gradientUnits="userSpaceOnUse">
<stop stop-color="white"/>
<stop offset="1" stop-color="#BFBFBF" stop-opacity="0.63"/>
</linearGradient>
<linearGradient id="paint13_linear" x1="122.347" y1="214.164" x2="122.347" y2="270.382" gradientUnits="userSpaceOnUse">
<stop stop-color="white"/>
<stop offset="1" stop-color="#EDEDED" stop-opacity="0.61"/>
</linearGradient>
<linearGradient id="paint14_linear" x1="97.3885" y1="214.279" x2="97.3885" y2="255.644" gradientUnits="userSpaceOnUse">
<stop stop-color="white"/>
<stop offset="1" stop-color="#EDEDED" stop-opacity="0.61"/>
</linearGradient>
<linearGradient id="paint15_linear" x1="122.395" y1="244.433" x2="122.395" y2="270.531" gradientUnits="userSpaceOnUse">
<stop stop-color="white"/>
<stop offset="1" stop-color="#EDEDED" stop-opacity="0.61"/>
</linearGradient>
<linearGradient id="paint16_linear" x1="97.3858" y1="244.422" x2="97.3858" y2="270.527" gradientUnits="userSpaceOnUse">
<stop stop-color="white"/>
<stop offset="1" stop-color="#EDEDED" stop-opacity="0.61"/>
</linearGradient>
<linearGradient id="paint17_linear" x1="97.4318" y1="260.638" x2="97.4318" y2="295.807" gradientUnits="userSpaceOnUse">
<stop stop-color="white"/>
<stop offset="1" stop-color="#EDEDED" stop-opacity="0.61"/>
</linearGradient>
<linearGradient id="paint18_linear" x1="122.334" y1="260.663" x2="122.334" y2="295.75" gradientUnits="userSpaceOnUse">
<stop stop-color="white"/>
<stop offset="1" stop-color="#EDEDED" stop-opacity="0.61"/>
</linearGradient>
<linearGradient id="paint19_linear" x1="84.8458" y1="255.645" x2="84.8458" y2="255.791" gradientUnits="userSpaceOnUse">
<stop stop-color="white"/>
<stop offset="1" stop-color="#EDEDED" stop-opacity="0.61"/>
</linearGradient>
</defs>
</svg>
