<svg width="461" height="161" viewBox="0 0 461 161" fill="none" xmlns="http://www.w3.org/2000/svg">
<path d="M44.0784 7.44384V108.944H20.5884V26.2938H0.288438V7.44384H44.0784ZM105.211 110.684C96.8007 110.684 89.309 108.606 82.7357 104.449C76.1623 100.292 70.9907 94.2988 67.2207 86.4688C63.5473 78.5422 61.7107 69.1172 61.7107 58.1938C61.7107 47.2705 63.5473 37.8938 67.2207 30.0638C70.9907 22.1372 76.1623 16.0955 82.7357 11.9388C89.309 7.78218 96.8007 5.70385 105.211 5.70385C113.621 5.70385 121.112 7.78218 127.686 11.9388C134.259 16.0955 139.382 22.1372 143.056 30.0638C146.826 37.8938 148.711 47.2705 148.711 58.1938C148.711 69.1172 146.826 78.5422 143.056 86.4688C139.382 94.2988 134.259 100.292 127.686 104.449C121.112 108.606 113.621 110.684 105.211 110.684ZM105.211 90.8188C111.397 90.8188 116.231 88.1605 119.711 82.8438C123.287 77.5272 125.076 69.3105 125.076 58.1938C125.076 47.0772 123.287 38.8605 119.711 33.5438C116.231 28.2272 111.397 25.5688 105.211 25.5688C99.1207 25.5688 94.2873 28.2272 90.7107 33.5438C87.2307 38.8605 85.4907 47.0772 85.4907 58.1938C85.4907 69.3105 87.2307 77.5272 90.7107 82.8438C94.2873 88.1605 99.1207 90.8188 105.211 90.8188ZM203.624 110.684C195.214 110.684 187.722 108.606 181.149 104.449C174.575 100.292 169.404 94.2988 165.634 86.4688C161.96 78.5422 160.124 69.1172 160.124 58.1938C160.124 47.2705 161.96 37.8938 165.634 30.0638C169.404 22.1372 174.575 16.0955 181.149 11.9388C187.722 7.78218 195.214 5.70385 203.624 5.70385C212.034 5.70385 219.525 7.78218 226.099 11.9388C232.672 16.0955 237.795 22.1372 241.469 30.0638C245.239 37.8938 247.124 47.2705 247.124 58.1938C247.124 69.1172 245.239 78.5422 241.469 86.4688C237.795 94.2988 232.672 100.292 226.099 104.449C219.525 108.606 212.034 110.684 203.624 110.684ZM203.624 90.8188C209.81 90.8188 214.644 88.1605 218.124 82.8438C221.7 77.5272 223.489 69.3105 223.489 58.1938C223.489 47.0772 221.7 38.8605 218.124 33.5438C214.644 28.2272 209.81 25.5688 203.624 25.5688C197.534 25.5688 192.7 28.2272 189.124 33.5438C185.644 38.8605 183.904 47.0772 183.904 58.1938C183.904 69.3105 185.644 77.5272 189.124 82.8438C192.7 88.1605 197.534 90.8188 203.624 90.8188ZM302.037 110.684C293.627 110.684 286.135 108.606 279.562 104.449C272.989 100.292 267.817 94.2988 264.047 86.4688C260.374 78.5422 258.537 69.1172 258.537 58.1938C258.537 47.2705 260.374 37.8938 264.047 30.0638C267.817 22.1372 272.989 16.0955 279.562 11.9388C286.135 7.78218 293.627 5.70385 302.037 5.70385C310.447 5.70385 317.939 7.78218 324.512 11.9388C331.085 16.0955 336.209 22.1372 339.882 30.0638C343.652 37.8938 345.537 47.2705 345.537 58.1938C345.537 69.1172 343.652 78.5422 339.882 86.4688C336.209 94.2988 331.085 100.292 324.512 104.449C317.939 108.606 310.447 110.684 302.037 110.684ZM302.037 90.8188C308.224 90.8188 313.057 88.1605 316.537 82.8438C320.114 77.5272 321.902 69.3105 321.902 58.1938C321.902 47.0772 320.114 38.8605 316.537 33.5438C313.057 28.2272 308.224 25.5688 302.037 25.5688C295.947 25.5688 291.114 28.2272 287.537 33.5438C284.057 38.8605 282.317 47.0772 282.317 58.1938C282.317 69.3105 284.057 77.5272 287.537 82.8438C291.114 88.1605 295.947 90.8188 302.037 90.8188ZM370.435 0.193839C374.495 0.193839 377.83 1.49884 380.44 4.10884C383.05 6.62218 384.355 9.95718 384.355 14.1138C384.355 16.0472 384.113 17.9805 383.63 19.9138C383.147 21.8472 382.132 24.7472 380.585 28.6138L372.175 49.4938H357.82L364.055 26.5838C361.638 25.5205 359.753 23.9255 358.4 21.7988C357.047 19.6722 356.37 17.1105 356.37 14.1138C356.37 9.95718 357.675 6.62218 360.285 4.10884C362.992 1.49884 366.375 0.193839 370.435 0.193839ZM423.38 110.104C416.904 110.104 410.572 109.331 404.385 107.784C398.199 106.141 393.269 104.111 389.595 101.694L397.135 85.4538C400.615 87.6772 404.82 89.5138 409.75 90.9638C414.68 92.3172 419.514 92.9938 424.25 92.9938C433.82 92.9938 438.605 90.6255 438.605 85.8888C438.605 83.6655 437.3 82.0705 434.69 81.1038C432.08 80.1372 428.069 79.3155 422.655 78.6388C416.275 77.6722 411.007 76.5605 406.85 75.3038C402.694 74.0472 399.069 71.8238 395.975 68.6338C392.979 65.4438 391.48 60.9005 391.48 55.0038C391.48 50.0738 392.882 45.7238 395.685 41.9538C398.585 38.0872 402.742 35.0905 408.155 32.9638C413.665 30.8372 420.142 29.7738 427.585 29.7738C433.095 29.7738 438.557 30.4022 443.97 31.6588C449.48 32.8188 454.024 34.4622 457.6 36.5888L450.06 52.6838C443.197 48.8172 435.705 46.8838 427.585 46.8838C422.752 46.8838 419.127 47.5605 416.71 48.9138C414.294 50.2672 413.085 52.0072 413.085 54.1338C413.085 56.5505 414.39 58.2422 417 59.2088C419.61 60.1755 423.767 61.0938 429.47 61.9638C435.85 63.0272 441.07 64.1872 445.13 65.4438C449.19 66.6038 452.719 68.7788 455.715 71.9688C458.712 75.1588 460.21 79.6055 460.21 85.3088C460.21 90.1422 458.76 94.4438 455.86 98.2138C452.96 101.984 448.707 104.932 443.1 107.059C437.59 109.089 431.017 110.104 423.38 110.104ZM117.001 160.448L113.473 157.172C110.673 159.356 107.397 160.448 103.645 160.448C101.517 160.448 99.5989 160.112 97.8909 159.44C96.1829 158.74 94.8389 157.774 93.8589 156.542C92.9069 155.31 92.4309 153.924 92.4309 152.384C92.4309 150.564 92.9349 148.968 93.9429 147.596C94.9789 146.196 96.6309 144.866 98.8989 143.606C97.8349 142.514 97.0649 141.478 96.5889 140.498C96.1129 139.49 95.8749 138.454 95.8749 137.39C95.8749 135.962 96.2529 134.702 97.0089 133.61C97.7649 132.518 98.8289 131.678 100.201 131.09C101.601 130.474 103.211 130.166 105.031 130.166C107.579 130.166 109.623 130.782 111.163 132.014C112.703 133.218 113.473 134.856 113.473 136.928C113.473 138.44 113.011 139.784 112.087 140.96C111.191 142.136 109.735 143.27 107.719 144.362L113.095 149.36C113.739 148.016 114.229 146.49 114.565 144.782L119.815 146.42C119.255 149.024 118.359 151.25 117.127 153.098L120.571 156.29L117.001 160.448ZM105.031 134.618C104.051 134.618 103.267 134.87 102.679 135.374C102.119 135.878 101.839 136.522 101.839 137.306C101.839 137.894 101.993 138.454 102.301 138.986C102.609 139.49 103.211 140.176 104.107 141.044C105.535 140.288 106.529 139.616 107.089 139.028C107.649 138.412 107.929 137.754 107.929 137.054C107.929 136.326 107.677 135.738 107.173 135.29C106.669 134.842 105.955 134.618 105.031 134.618ZM104.107 155.324C106.151 155.324 107.985 154.75 109.609 153.602L102.511 146.966C101.195 147.722 100.257 148.464 99.6969 149.192C99.1369 149.92 98.8569 150.746 98.8569 151.67C98.8569 152.762 99.3329 153.644 100.285 154.316C101.237 154.988 102.511 155.324 104.107 155.324ZM150.926 160.448C147.93 160.448 145.214 159.804 142.778 158.516C140.37 157.2 138.466 155.394 137.066 153.098C135.694 150.774 135.008 148.156 135.008 145.244C135.008 142.332 135.694 139.728 137.066 137.432C138.466 135.108 140.37 133.302 142.778 132.014C145.214 130.698 147.944 130.04 150.968 130.04C153.516 130.04 155.812 130.488 157.856 131.384C159.928 132.28 161.664 133.568 163.064 135.248L158.696 139.28C156.708 136.984 154.244 135.836 151.304 135.836C149.484 135.836 147.86 136.242 146.432 137.054C145.004 137.838 143.884 138.944 143.072 140.372C142.288 141.8 141.896 143.424 141.896 145.244C141.896 147.064 142.288 148.688 143.072 150.116C143.884 151.544 145.004 152.664 146.432 153.476C147.86 154.26 149.484 154.652 151.304 154.652C154.244 154.652 156.708 153.49 158.696 151.166L163.064 155.198C161.664 156.906 159.928 158.208 157.856 159.104C155.784 160 153.474 160.448 150.926 160.448ZM181.282 160.448C178.23 160.448 175.472 159.79 173.008 158.474C170.572 157.158 168.654 155.352 167.254 153.056C165.882 150.732 165.196 148.128 165.196 145.244C165.196 142.36 165.882 139.77 167.254 137.474C168.654 135.15 170.572 133.33 173.008 132.014C175.472 130.698 178.23 130.04 181.282 130.04C184.334 130.04 187.078 130.698 189.514 132.014C191.95 133.33 193.868 135.15 195.268 137.474C196.668 139.77 197.368 142.36 197.368 145.244C197.368 148.128 196.668 150.732 195.268 153.056C193.868 155.352 191.95 157.158 189.514 158.474C187.078 159.79 184.334 160.448 181.282 160.448ZM181.282 154.652C183.018 154.652 184.586 154.26 185.986 153.476C187.386 152.664 188.478 151.544 189.262 150.116C190.074 148.688 190.48 147.064 190.48 145.244C190.48 143.424 190.074 141.8 189.262 140.372C188.478 138.944 187.386 137.838 185.986 137.054C184.586 136.242 183.018 135.836 181.282 135.836C179.546 135.836 177.978 136.242 176.578 137.054C175.178 137.838 174.072 138.944 173.26 140.372C172.476 141.8 172.084 143.424 172.084 145.244C172.084 147.064 172.476 148.688 173.26 150.116C174.072 151.544 175.178 152.664 176.578 153.476C177.978 154.26 179.546 154.652 181.282 154.652ZM215.543 160.448C211.343 160.448 208.067 159.286 205.715 156.962C203.391 154.638 202.229 151.32 202.229 147.008V130.544H209.033V146.756C209.033 152.02 211.217 154.652 215.585 154.652C217.713 154.652 219.337 154.022 220.457 152.762C221.577 151.474 222.137 149.472 222.137 146.756V130.544H228.857V147.008C228.857 151.32 227.681 154.638 225.329 156.962C223.005 159.286 219.743 160.448 215.543 160.448ZM262.545 130.544V159.944H256.959L242.301 142.094V159.944H235.581V130.544H241.209L255.825 148.394V130.544H262.545ZM275.591 136.088H266.183V130.544H291.803V136.088H282.395V159.944H275.591V136.088ZM295.464 130.544H302.268V159.944H295.464V130.544ZM336.209 130.544V159.944H330.623L315.965 142.094V159.944H309.245V130.544H314.873L329.489 148.394V130.544H336.209ZM363.031 144.782H369.247V156.71C367.651 157.914 365.803 158.838 363.703 159.482C361.603 160.126 359.489 160.448 357.361 160.448C354.309 160.448 351.565 159.804 349.129 158.516C346.693 157.2 344.775 155.394 343.375 153.098C342.003 150.774 341.317 148.156 341.317 145.244C341.317 142.332 342.003 139.728 343.375 137.432C344.775 135.108 346.707 133.302 349.171 132.014C351.635 130.698 354.407 130.04 357.487 130.04C360.063 130.04 362.401 130.474 364.501 131.342C366.601 132.21 368.365 133.47 369.793 135.122L365.425 139.154C363.325 136.942 360.791 135.836 357.823 135.836C355.947 135.836 354.281 136.228 352.825 137.012C351.369 137.796 350.235 138.902 349.423 140.33C348.611 141.758 348.205 143.396 348.205 145.244C348.205 147.064 348.611 148.688 349.423 150.116C350.235 151.544 351.355 152.664 352.783 153.476C354.239 154.26 355.891 154.652 357.739 154.652C359.699 154.652 361.463 154.232 363.031 153.392V144.782Z" fill="url(#paint0_linear)"/>
<defs>
<linearGradient id="paint0_linear" x1="152.719" y1="14.9215" x2="251.862" y2="156.706" gradientUnits="userSpaceOnUse">
<stop stop-color="#C4C4C4"/>
<stop offset="1" stop-color="white"/>
</linearGradient>
</defs>
</svg>
