<svg width="1440" height="550" viewBox="0 0 1440 550" fill="none" xmlns="http://www.w3.org/2000/svg">
<rect x="0.000244141" y="0.000244141" width="1440" height="550" fill="black"/>
<path d="M120 488.5L0.000244141 549.5L0.000244141 0L120 134.13L120 488.5Z" fill="url(#paint0_linear)" fill-opacity="0.54"/>
<path d="M1319 506L1440 549.5L0 550L119.5 488.5L1319 506Z" fill="url(#paint1_linear)" fill-opacity="0.5"/>
<path d="M120 134.124L1320 45.0002V506L120 488.356V134.124Z" fill="url(#paint2_radial)"/>
<path d="M120 134.124L1320 45.0002V506L120 488.356V134.124Z" fill="url(#paint3_radial)" fill-opacity="0.2"/>
<path d="M120.5 134.5L0.500244 0.000244141H1440L1319.5 45.0002L120.5 134.5Z" fill="url(#paint4_linear)" fill-opacity="0.7"/>
<path d="M1319 45.0002L1439.5 0.000244117L1440 550L1320 506L1319 45.0002Z" fill="url(#paint5_linear)"/>
<defs>
<linearGradient id="paint0_linear" x1="-50.4998" y1="348" x2="130.5" y2="334.5" gradientUnits="userSpaceOnUse">
<stop/>
<stop offset="1" stop-color="#302F2F"/>
</linearGradient>
<linearGradient id="paint1_linear" x1="768" y1="585.5" x2="763.717" y2="463.957" gradientUnits="userSpaceOnUse">
<stop/>
<stop offset="1" stop-color="#525252"/>
</linearGradient>
<radialGradient id="paint2_radial" cx="0" cy="0" r="1" gradientUnits="userSpaceOnUse" gradientTransform="translate(146.5 146) rotate(12.8435) scale(809.759 2120.12)">
<stop stop-color="#262626"/>
<stop offset="0.314118" stop-color="#1A1A1A" stop-opacity="0.86293"/>
<stop offset="1" stop-color="#202020" stop-opacity="0.49"/>
</radialGradient>
<radialGradient id="paint3_radial" cx="0" cy="0" r="1" gradientUnits="userSpaceOnUse" gradientTransform="translate(783 387.5) rotate(-87.0856) scale(137.678 263.345)">
<stop stop-color="#A4A1A1"/>
<stop offset="1" stop-opacity="0"/>
</radialGradient>
<linearGradient id="paint4_linear" x1="485" y1="-13.4998" x2="489" y2="106" gradientUnits="userSpaceOnUse">
<stop/>
<stop offset="1" stop-color="#212020"/>
</linearGradient>
<linearGradient id="paint5_linear" x1="1508" y1="295.5" x2="1313" y2="297" gradientUnits="userSpaceOnUse">
<stop/>
<stop offset="1" stop-color="#1E1D1D"/>
</linearGradient>
</defs>
</svg>
