<svg width="627" height="565" viewBox="0 0 627 565" fill="none" xmlns="http://www.w3.org/2000/svg">
<g filter="url(#filter0_f)">
<ellipse cx="308.229" cy="282.626" rx="195.499" ry="105.406" transform="rotate(32.865 308.229 282.626)" fill="#ADADAD" fill-opacity="0.3"/>
</g>
<g filter="url(#filter1_i)">
<circle cx="187.684" cy="440.457" r="39.5818" transform="rotate(10.7449 187.684 440.457)" fill="url(#paint0_linear)"/>
<circle cx="187.684" cy="440.457" r="39.5818" transform="rotate(10.7449 187.684 440.457)" fill="url(#paint1_radial)" fill-opacity="0.5"/>
<circle cx="187.684" cy="440.457" r="39.5818" transform="rotate(10.7449 187.684 440.457)" fill="url(#paint2_radial)" fill-opacity="0.5"/>
</g>
<g filter="url(#filter2_i)">
<circle cx="520.152" cy="409.209" r="9.04085" transform="rotate(-72.9464 520.152 409.209)" fill="url(#paint3_linear)"/>
<circle cx="520.152" cy="409.209" r="9.04085" transform="rotate(-72.9464 520.152 409.209)" fill="url(#paint4_radial)" fill-opacity="0.3"/>
<circle cx="520.152" cy="409.209" r="9.04085" transform="rotate(-72.9464 520.152 409.209)" fill="url(#paint5_radial)" fill-opacity="0.3"/>
</g>
<path d="M180.078 192.444V293.944H156.588V211.294H136.288V192.444H180.078ZM241.211 295.684C232.801 295.684 225.309 293.606 218.736 289.449C212.162 285.292 206.991 279.299 203.221 271.469C199.547 263.542 197.711 254.117 197.711 243.194C197.711 232.271 199.547 222.894 203.221 215.064C206.991 207.137 212.162 201.096 218.736 196.939C225.309 192.782 232.801 190.704 241.211 190.704C249.621 190.704 257.112 192.782 263.686 196.939C270.259 201.096 275.382 207.137 279.056 215.064C282.826 222.894 284.711 232.271 284.711 243.194C284.711 254.117 282.826 263.542 279.056 271.469C275.382 279.299 270.259 285.292 263.686 289.449C257.112 293.606 249.621 295.684 241.211 295.684ZM241.211 275.819C247.397 275.819 252.231 273.161 255.711 267.844C259.287 262.527 261.076 254.311 261.076 243.194C261.076 232.077 259.287 223.861 255.711 218.544C252.231 213.227 247.397 210.569 241.211 210.569C235.121 210.569 230.287 213.227 226.711 218.544C223.231 223.861 221.491 232.077 221.491 243.194C221.491 254.311 223.231 262.527 226.711 267.844C230.287 273.161 235.121 275.819 241.211 275.819ZM339.624 295.684C331.214 295.684 323.722 293.606 317.149 289.449C310.575 285.292 305.404 279.299 301.634 271.469C297.96 263.542 296.124 254.117 296.124 243.194C296.124 232.271 297.96 222.894 301.634 215.064C305.404 207.137 310.575 201.096 317.149 196.939C323.722 192.782 331.214 190.704 339.624 190.704C348.034 190.704 355.525 192.782 362.099 196.939C368.672 201.096 373.795 207.137 377.469 215.064C381.239 222.894 383.124 232.271 383.124 243.194C383.124 254.117 381.239 263.542 377.469 271.469C373.795 279.299 368.672 285.292 362.099 289.449C355.525 293.606 348.034 295.684 339.624 295.684ZM339.624 275.819C345.81 275.819 350.644 273.161 354.124 267.844C357.7 262.527 359.489 254.311 359.489 243.194C359.489 232.077 357.7 223.861 354.124 218.544C350.644 213.227 345.81 210.569 339.624 210.569C333.534 210.569 328.7 213.227 325.124 218.544C321.644 223.861 319.904 232.077 319.904 243.194C319.904 254.311 321.644 262.527 325.124 267.844C328.7 273.161 333.534 275.819 339.624 275.819ZM438.037 295.684C429.627 295.684 422.135 293.606 415.562 289.449C408.989 285.292 403.817 279.299 400.047 271.469C396.374 263.542 394.537 254.117 394.537 243.194C394.537 232.271 396.374 222.894 400.047 215.064C403.817 207.137 408.989 201.096 415.562 196.939C422.135 192.782 429.627 190.704 438.037 190.704C446.447 190.704 453.939 192.782 460.512 196.939C467.085 201.096 472.209 207.137 475.882 215.064C479.652 222.894 481.537 232.271 481.537 243.194C481.537 254.117 479.652 263.542 475.882 271.469C472.209 279.299 467.085 285.292 460.512 289.449C453.939 293.606 446.447 295.684 438.037 295.684ZM438.037 275.819C444.224 275.819 449.057 273.161 452.537 267.844C456.114 262.527 457.902 254.311 457.902 243.194C457.902 232.077 456.114 223.861 452.537 218.544C449.057 213.227 444.224 210.569 438.037 210.569C431.947 210.569 427.114 213.227 423.537 218.544C420.057 223.861 418.317 232.077 418.317 243.194C418.317 254.311 420.057 262.527 423.537 267.844C427.114 273.161 431.947 275.819 438.037 275.819ZM506.435 185.194C510.495 185.194 513.83 186.499 516.44 189.109C519.05 191.622 520.355 194.957 520.355 199.114C520.355 201.047 520.113 202.981 519.63 204.914C519.147 206.847 518.132 209.747 516.585 213.614L508.175 234.494H493.82L500.055 211.584C497.638 210.521 495.753 208.926 494.4 206.799C493.047 204.672 492.37 202.111 492.37 199.114C492.37 194.957 493.675 191.622 496.285 189.109C498.992 186.499 502.375 185.194 506.435 185.194ZM559.38 295.104C552.904 295.104 546.572 294.331 540.385 292.784C534.199 291.141 529.269 289.111 525.595 286.694L533.135 270.454C536.615 272.677 540.82 274.514 545.75 275.964C550.68 277.317 555.514 277.994 560.25 277.994C569.82 277.994 574.605 275.626 574.605 270.889C574.605 268.666 573.3 267.071 570.69 266.104C568.08 265.137 564.069 264.316 558.655 263.639C552.275 262.672 547.007 261.561 542.85 260.304C538.694 259.047 535.069 256.824 531.975 253.634C528.979 250.444 527.48 245.901 527.48 240.004C527.48 235.074 528.882 230.724 531.685 226.954C534.585 223.087 538.742 220.091 544.155 217.964C549.665 215.837 556.142 214.774 563.585 214.774C569.095 214.774 574.557 215.402 579.97 216.659C585.48 217.819 590.024 219.462 593.6 221.589L586.06 237.684C579.197 233.817 571.705 231.884 563.585 231.884C558.752 231.884 555.127 232.561 552.71 233.914C550.294 235.267 549.085 237.007 549.085 239.134C549.085 241.551 550.39 243.242 553 244.209C555.61 245.176 559.767 246.094 565.47 246.964C571.85 248.027 577.07 249.187 581.13 250.444C585.19 251.604 588.719 253.779 591.715 256.969C594.712 260.159 596.21 264.606 596.21 270.309C596.21 275.142 594.76 279.444 591.86 283.214C588.96 286.984 584.707 289.932 579.1 292.059C573.59 294.089 567.017 295.104 559.38 295.104ZM253.001 345.448L249.473 342.172C246.673 344.356 243.397 345.448 239.645 345.448C237.517 345.448 235.599 345.112 233.891 344.44C232.183 343.74 230.839 342.774 229.859 341.542C228.907 340.31 228.431 338.924 228.431 337.384C228.431 335.564 228.935 333.968 229.943 332.596C230.979 331.196 232.631 329.866 234.899 328.606C233.835 327.514 233.065 326.478 232.589 325.498C232.113 324.49 231.875 323.454 231.875 322.39C231.875 320.962 232.253 319.702 233.009 318.61C233.765 317.518 234.829 316.678 236.201 316.09C237.601 315.474 239.211 315.166 241.031 315.166C243.579 315.166 245.623 315.782 247.163 317.014C248.703 318.218 249.473 319.856 249.473 321.928C249.473 323.44 249.011 324.784 248.087 325.96C247.191 327.136 245.735 328.27 243.719 329.362L249.095 334.36C249.739 333.016 250.229 331.49 250.565 329.782L255.815 331.42C255.255 334.024 254.359 336.25 253.127 338.098L256.571 341.29L253.001 345.448ZM241.031 319.618C240.051 319.618 239.267 319.87 238.679 320.374C238.119 320.878 237.839 321.522 237.839 322.306C237.839 322.894 237.993 323.454 238.301 323.986C238.609 324.49 239.211 325.176 240.107 326.044C241.535 325.288 242.529 324.616 243.089 324.028C243.649 323.412 243.929 322.754 243.929 322.054C243.929 321.326 243.677 320.738 243.173 320.29C242.669 319.842 241.955 319.618 241.031 319.618ZM240.107 340.324C242.151 340.324 243.985 339.75 245.609 338.602L238.511 331.966C237.195 332.722 236.257 333.464 235.697 334.192C235.137 334.92 234.857 335.746 234.857 336.67C234.857 337.762 235.333 338.644 236.285 339.316C237.237 339.988 238.511 340.324 240.107 340.324ZM286.926 345.448C283.93 345.448 281.214 344.804 278.778 343.516C276.37 342.2 274.466 340.394 273.066 338.098C271.694 335.774 271.008 333.156 271.008 330.244C271.008 327.332 271.694 324.728 273.066 322.432C274.466 320.108 276.37 318.302 278.778 317.014C281.214 315.698 283.944 315.04 286.968 315.04C289.516 315.04 291.812 315.488 293.856 316.384C295.928 317.28 297.664 318.568 299.064 320.248L294.696 324.28C292.708 321.984 290.244 320.836 287.304 320.836C285.484 320.836 283.86 321.242 282.432 322.054C281.004 322.838 279.884 323.944 279.072 325.372C278.288 326.8 277.896 328.424 277.896 330.244C277.896 332.064 278.288 333.688 279.072 335.116C279.884 336.544 281.004 337.664 282.432 338.476C283.86 339.26 285.484 339.652 287.304 339.652C290.244 339.652 292.708 338.49 294.696 336.166L299.064 340.198C297.664 341.906 295.928 343.208 293.856 344.104C291.784 345 289.474 345.448 286.926 345.448ZM317.282 345.448C314.23 345.448 311.472 344.79 309.008 343.474C306.572 342.158 304.654 340.352 303.254 338.056C301.882 335.732 301.196 333.128 301.196 330.244C301.196 327.36 301.882 324.77 303.254 322.474C304.654 320.15 306.572 318.33 309.008 317.014C311.472 315.698 314.23 315.04 317.282 315.04C320.334 315.04 323.078 315.698 325.514 317.014C327.95 318.33 329.868 320.15 331.268 322.474C332.668 324.77 333.368 327.36 333.368 330.244C333.368 333.128 332.668 335.732 331.268 338.056C329.868 340.352 327.95 342.158 325.514 343.474C323.078 344.79 320.334 345.448 317.282 345.448ZM317.282 339.652C319.018 339.652 320.586 339.26 321.986 338.476C323.386 337.664 324.478 336.544 325.262 335.116C326.074 333.688 326.48 332.064 326.48 330.244C326.48 328.424 326.074 326.8 325.262 325.372C324.478 323.944 323.386 322.838 321.986 322.054C320.586 321.242 319.018 320.836 317.282 320.836C315.546 320.836 313.978 321.242 312.578 322.054C311.178 322.838 310.072 323.944 309.26 325.372C308.476 326.8 308.084 328.424 308.084 330.244C308.084 332.064 308.476 333.688 309.26 335.116C310.072 336.544 311.178 337.664 312.578 338.476C313.978 339.26 315.546 339.652 317.282 339.652ZM351.543 345.448C347.343 345.448 344.067 344.286 341.715 341.962C339.391 339.638 338.229 336.32 338.229 332.008V315.544H345.033V331.756C345.033 337.02 347.217 339.652 351.585 339.652C353.713 339.652 355.337 339.022 356.457 337.762C357.577 336.474 358.137 334.472 358.137 331.756V315.544H364.857V332.008C364.857 336.32 363.681 339.638 361.329 341.962C359.005 344.286 355.743 345.448 351.543 345.448ZM398.545 315.544V344.944H392.959L378.301 327.094V344.944H371.581V315.544H377.209L391.825 333.394V315.544H398.545ZM411.591 321.088H402.183V315.544H427.803V321.088H418.395V344.944H411.591V321.088ZM431.464 315.544H438.268V344.944H431.464V315.544ZM472.209 315.544V344.944H466.623L451.965 327.094V344.944H445.245V315.544H450.873L465.489 333.394V315.544H472.209ZM499.031 329.782H505.247V341.71C503.651 342.914 501.803 343.838 499.703 344.482C497.603 345.126 495.489 345.448 493.361 345.448C490.309 345.448 487.565 344.804 485.129 343.516C482.693 342.2 480.775 340.394 479.375 338.098C478.003 335.774 477.317 333.156 477.317 330.244C477.317 327.332 478.003 324.728 479.375 322.432C480.775 320.108 482.707 318.302 485.171 317.014C487.635 315.698 490.407 315.04 493.487 315.04C496.063 315.04 498.401 315.474 500.501 316.342C502.601 317.21 504.365 318.47 505.793 320.122L501.425 324.154C499.325 321.942 496.791 320.836 493.823 320.836C491.947 320.836 490.281 321.228 488.825 322.012C487.369 322.796 486.235 323.902 485.423 325.33C484.611 326.758 484.205 328.396 484.205 330.244C484.205 332.064 484.611 333.688 485.423 335.116C486.235 336.544 487.355 337.664 488.783 338.476C490.239 339.26 491.891 339.652 493.739 339.652C495.699 339.652 497.463 339.232 499.031 338.392V329.782Z" fill="url(#paint6_linear)"/>
<g filter="url(#filter3_i)">
<circle cx="454.379" cy="112.018" r="13.5552" transform="rotate(169.026 454.379 112.018)" fill="url(#paint7_linear)"/>
<circle cx="454.379" cy="112.018" r="13.5552" transform="rotate(169.026 454.379 112.018)" fill="url(#paint8_radial)" fill-opacity="0.8"/>
<circle cx="454.379" cy="112.018" r="13.5552" transform="rotate(169.026 454.379 112.018)" fill="url(#paint9_radial)" fill-opacity="0.8"/>
</g>
<defs>
<filter id="filter0_f" x="-9.70508" y="0.442871" width="635.868" height="564.366" filterUnits="userSpaceOnUse" color-interpolation-filters="sRGB">
<feFlood flood-opacity="0" result="BackgroundImageFix"/>
<feBlend mode="normal" in="SourceGraphic" in2="BackgroundImageFix" result="shape"/>
<feGaussianBlur stdDeviation="72" result="effect1_foregroundBlur"/>
</filter>
<filter id="filter1_i" x="148.095" y="393.868" width="79.1777" height="86.1782" filterUnits="userSpaceOnUse" color-interpolation-filters="sRGB">
<feFlood flood-opacity="0" result="BackgroundImageFix"/>
<feBlend mode="normal" in="SourceGraphic" in2="BackgroundImageFix" result="shape"/>
<feColorMatrix in="SourceAlpha" type="matrix" values="0 0 0 0 0 0 0 0 0 0 0 0 0 0 0 0 0 0 127 0" result="hardAlpha"/>
<feOffset dy="-7"/>
<feGaussianBlur stdDeviation="33"/>
<feComposite in2="hardAlpha" operator="arithmetic" k2="-1" k3="1"/>
<feColorMatrix type="matrix" values="0 0 0 0 0.105469 0 0 0 0 0.143203 0 0 0 0 0.1875 0 0 0 0.37 0"/>
<feBlend mode="normal" in2="shape" result="effect1_innerShadow"/>
</filter>
<filter id="filter2_i" x="511.108" y="393.166" width="18.0864" height="25.0864" filterUnits="userSpaceOnUse" color-interpolation-filters="sRGB">
<feFlood flood-opacity="0" result="BackgroundImageFix"/>
<feBlend mode="normal" in="SourceGraphic" in2="BackgroundImageFix" result="shape"/>
<feColorMatrix in="SourceAlpha" type="matrix" values="0 0 0 0 0 0 0 0 0 0 0 0 0 0 0 0 0 0 127 0" result="hardAlpha"/>
<feOffset dy="-7"/>
<feGaussianBlur stdDeviation="33"/>
<feComposite in2="hardAlpha" operator="arithmetic" k2="-1" k3="1"/>
<feColorMatrix type="matrix" values="0 0 0 0 0.105469 0 0 0 0 0.143203 0 0 0 0 0.1875 0 0 0 0.37 0"/>
<feBlend mode="normal" in2="shape" result="effect1_innerShadow"/>
</filter>
<filter id="filter3_i" x="440.822" y="91.4597" width="27.1152" height="34.1155" filterUnits="userSpaceOnUse" color-interpolation-filters="sRGB">
<feFlood flood-opacity="0" result="BackgroundImageFix"/>
<feBlend mode="normal" in="SourceGraphic" in2="BackgroundImageFix" result="shape"/>
<feColorMatrix in="SourceAlpha" type="matrix" values="0 0 0 0 0 0 0 0 0 0 0 0 0 0 0 0 0 0 127 0" result="hardAlpha"/>
<feOffset dy="-7"/>
<feGaussianBlur stdDeviation="33"/>
<feComposite in2="hardAlpha" operator="arithmetic" k2="-1" k3="1"/>
<feColorMatrix type="matrix" values="0 0 0 0 0.654167 0 0 0 0 0.654167 0 0 0 0 0.654167 0 0 0 0.37 0"/>
<feBlend mode="normal" in2="shape" result="effect1_innerShadow"/>
</filter>
<linearGradient id="paint0_linear" x1="220.881" y1="489.403" x2="150.655" y2="383" gradientUnits="userSpaceOnUse">
<stop stop-color="#3E3E3E"/>
<stop offset="1" stop-color="#0D0D0D"/>
</linearGradient>
<radialGradient id="paint1_radial" cx="0" cy="0" r="1" gradientUnits="userSpaceOnUse" gradientTransform="translate(197.473 423.433) rotate(132.51) scale(34.6422)">
<stop offset="0.135417" stop-color="white"/>
<stop offset="1" stop-color="white" stop-opacity="0.27"/>
</radialGradient>
<radialGradient id="paint2_radial" cx="0" cy="0" r="1" gradientUnits="userSpaceOnUse" gradientTransform="translate(198.75 423.433) rotate(141.491) scale(50.5833)">
<stop stop-color="white"/>
<stop offset="0.338542" stop-color="white"/>
<stop offset="1" stop-color="white" stop-opacity="0"/>
</radialGradient>
<linearGradient id="paint3_linear" x1="527.734" y1="420.389" x2="511.694" y2="396.085" gradientUnits="userSpaceOnUse">
<stop stop-color="#3E3E3E"/>
<stop offset="1" stop-color="#0D0D0D"/>
</linearGradient>
<radialGradient id="paint4_radial" cx="0" cy="0" r="1" gradientUnits="userSpaceOnUse" gradientTransform="translate(522.387 405.321) rotate(132.51) scale(7.9126)">
<stop offset="0.135417" stop-color="white"/>
<stop offset="1" stop-color="white" stop-opacity="0.27"/>
</radialGradient>
<radialGradient id="paint5_radial" cx="0" cy="0" r="1" gradientUnits="userSpaceOnUse" gradientTransform="translate(522.679 405.321) rotate(141.491) scale(11.5537)">
<stop stop-color="white"/>
<stop offset="0.338542" stop-color="white"/>
<stop offset="1" stop-color="white" stop-opacity="0"/>
</radialGradient>
<linearGradient id="paint6_linear" x1="288.719" y1="199.921" x2="387.862" y2="341.706" gradientUnits="userSpaceOnUse">
<stop stop-color="#C4C4C4"/>
<stop offset="1" stop-color="white"/>
</linearGradient>
<linearGradient id="paint7_linear" x1="465.748" y1="128.779" x2="441.699" y2="92.3406" gradientUnits="userSpaceOnUse">
<stop stop-color="#3E3E3E"/>
<stop offset="1" stop-color="#0D0D0D"/>
</linearGradient>
<radialGradient id="paint8_radial" cx="0" cy="0" r="1" gradientUnits="userSpaceOnUse" gradientTransform="translate(457.732 106.187) rotate(132.51) scale(11.8636)">
<stop offset="0.135417" stop-color="white"/>
<stop offset="1" stop-color="white" stop-opacity="0.27"/>
</radialGradient>
<radialGradient id="paint9_radial" cx="0" cy="0" r="1" gradientUnits="userSpaceOnUse" gradientTransform="translate(458.169 106.187) rotate(141.491) scale(17.3227)">
<stop stop-color="white"/>
<stop offset="0.338542" stop-color="white"/>
<stop offset="1" stop-color="white" stop-opacity="0"/>
</radialGradient>
</defs>
</svg>
