<svg width="483" height="578" viewBox="0 0 483 578" fill="none" xmlns="http://www.w3.org/2000/svg">
<g filter="url(#filter0_ddii)">
<ellipse cx="241.038" cy="493.004" rx="225.003" ry="68.8822" transform="rotate(-0.0289489 241.038 493.004)" fill="url(#paint0_linear)"/>
<ellipse cx="241.038" cy="493.004" rx="225.003" ry="68.8822" transform="rotate(-0.0289489 241.038 493.004)" fill="url(#paint1_radial)"/>
<ellipse cx="241.038" cy="493.004" rx="225.003" ry="68.8822" transform="rotate(-0.0289489 241.038 493.004)" fill="url(#paint2_radial)" fill-opacity="0.16"/>
<path d="M465.041 492.891C465.045 501.926 459.065 510.728 447.786 518.901C436.529 527.058 420.173 534.448 399.87 540.675C359.278 553.124 303.134 560.855 241.072 560.886C179.01 560.917 122.859 553.243 82.2535 540.835C61.9448 534.629 45.5814 527.255 34.3161 519.11C23.0281 510.949 17.0394 502.152 17.0348 493.117C17.0302 484.082 23.0101 475.279 34.2898 467.106C45.5469 458.95 61.9028 451.56 82.2052 445.333C122.798 432.884 178.941 425.153 241.003 425.122C303.066 425.09 359.217 432.764 399.822 445.173C420.131 451.379 436.494 458.752 447.759 466.897C459.047 475.059 465.036 483.856 465.041 492.891Z" stroke="url(#paint3_radial)" stroke-width="2"/>
<path d="M465.041 492.891C465.045 501.926 459.065 510.728 447.786 518.901C436.529 527.058 420.173 534.448 399.87 540.675C359.278 553.124 303.134 560.855 241.072 560.886C179.01 560.917 122.859 553.243 82.2535 540.835C61.9448 534.629 45.5814 527.255 34.3161 519.11C23.0281 510.949 17.0394 502.152 17.0348 493.117C17.0302 484.082 23.0101 475.279 34.2898 467.106C45.5469 458.95 61.9028 451.56 82.2052 445.333C122.798 432.884 178.941 425.153 241.003 425.122C303.066 425.09 359.217 432.764 399.822 445.173C420.131 451.379 436.494 458.752 447.759 466.897C459.047 475.059 465.036 483.856 465.041 492.891Z" stroke="black" stroke-opacity="0.2" stroke-width="2"/>
</g>
<path fill-rule="evenodd" clip-rule="evenodd" d="M437.344 299.26C440.796 297.824 443.934 296.35 446.74 294.844C452.263 291.88 456.359 288.867 459.041 285.893C461.706 282.936 462.84 280.179 462.84 277.61C462.84 275.041 461.706 272.283 459.041 269.327C456.359 266.352 452.263 263.339 446.74 260.375C435.697 254.449 419.52 249.02 399.275 244.425C358.834 235.246 302.817 229.542 240.84 229.542C178.863 229.542 122.846 235.246 82.4048 244.425C66.0191 248.144 52.298 252.41 41.8072 257.043L36.0465 256.428C71.5051 238.796 149.867 226.542 240.84 226.542C365.104 226.542 465.84 249.406 465.84 277.61C465.84 285.601 457.752 293.164 443.334 299.899L437.344 299.26Z" fill="url(#paint4_linear)"/>
<g filter="url(#filter1_i)">
<circle cx="438.329" cy="301.529" r="7.48121" transform="rotate(-0.243785 438.329 301.529)" fill="url(#paint5_linear)"/>
<circle cx="438.329" cy="301.529" r="7.48121" transform="rotate(-0.243785 438.329 301.529)" fill="url(#paint6_radial)" fill-opacity="0.8"/>
<circle cx="438.329" cy="301.529" r="7.48121" transform="rotate(-0.243785 438.329 301.529)" fill="url(#paint7_radial)" fill-opacity="0.6"/>
<circle cx="438.329" cy="301.529" r="7.48121" transform="rotate(-0.243785 438.329 301.529)" fill="url(#paint8_linear)" fill-opacity="0.6"/>
</g>
<ellipse cx="241.047" cy="195.011" rx="50" ry="50.0028" fill="url(#paint9_linear)"/>
<ellipse cx="241.047" cy="195.011" rx="50" ry="50.0028" fill="url(#paint10_radial)" fill-opacity="0.2"/>
<ellipse cx="241.047" cy="195.011" rx="50" ry="50.0028" fill="url(#paint11_radial)" fill-opacity="0.2"/>
<ellipse cx="241.047" cy="195.011" rx="50" ry="50.0028" fill="url(#paint12_radial)" fill-opacity="0.2"/>
<g filter="url(#filter2_i)">
<ellipse rx="75" ry="75.0042" transform="matrix(-0.999991 -0.00425531 -0.00425483 0.999991 240.728 264.695)" fill="url(#paint13_linear)"/>
<ellipse rx="75" ry="75.0042" transform="matrix(-0.999991 -0.00425531 -0.00425483 0.999991 240.728 264.695)" fill="url(#paint14_radial)" fill-opacity="0.8"/>
<ellipse rx="75" ry="75.0042" transform="matrix(-0.999991 -0.00425531 -0.00425483 0.999991 240.728 264.695)" fill="url(#paint15_radial)" fill-opacity="0.6"/>
<ellipse rx="75" ry="75.0042" transform="matrix(-0.999991 -0.00425531 -0.00425483 0.999991 240.728 264.695)" fill="url(#paint16_linear)" fill-opacity="0.6"/>
</g>
<g filter="url(#filter3_i)">
<ellipse rx="10" ry="10.0006" transform="matrix(1 0 0 -1 331.047 342.02)" fill="url(#paint17_linear)"/>
<ellipse rx="10" ry="10.0006" transform="matrix(1 0 0 -1 331.047 342.02)" fill="url(#paint18_radial)" fill-opacity="0.8"/>
<ellipse rx="10" ry="10.0006" transform="matrix(1 0 0 -1 331.047 342.02)" fill="url(#paint19_radial)" fill-opacity="0.6"/>
<ellipse rx="10" ry="10.0006" transform="matrix(1 0 0 -1 331.047 342.02)" fill="url(#paint20_linear)" fill-opacity="0.6"/>
</g>
<ellipse cx="241.047" cy="335.019" rx="50" ry="50.0028" fill="url(#paint21_linear)"/>
<ellipse cx="241.047" cy="335.019" rx="50" ry="50.0028" fill="url(#paint22_radial)" fill-opacity="0.2"/>
<ellipse cx="241.047" cy="335.019" rx="50" ry="50.0028" fill="url(#paint23_radial)" fill-opacity="0.2"/>
<ellipse cx="241.047" cy="335.019" rx="50" ry="50.0028" fill="url(#paint24_radial)" fill-opacity="0.2"/>
<ellipse cx="156.047" cy="261.015" rx="50" ry="50.0028" fill="url(#paint25_linear)"/>
<ellipse cx="156.047" cy="261.015" rx="50" ry="50.0028" fill="url(#paint26_radial)" fill-opacity="0.2"/>
<ellipse cx="156.047" cy="261.015" rx="50" ry="50.0028" fill="url(#paint27_radial)" fill-opacity="0.2"/>
<ellipse cx="326.047" cy="261.015" rx="50" ry="50.0028" fill="url(#paint28_linear)"/>
<ellipse cx="326.047" cy="261.015" rx="50" ry="50.0028" fill="url(#paint29_radial)" fill-opacity="0.2"/>
<ellipse cx="326.047" cy="261.015" rx="50" ry="50.0028" fill="url(#paint30_radial)" fill-opacity="0.2"/>
<ellipse cx="326.047" cy="261.015" rx="50" ry="50.0028" fill="url(#paint31_radial)" fill-opacity="0.2"/>
<ellipse cx="170.547" cy="385.522" rx="14.5" ry="14.5008" fill="url(#paint32_linear)"/>
<ellipse cx="170.547" cy="385.522" rx="14.5" ry="14.5008" fill="url(#paint33_radial)" fill-opacity="0.2"/>
<ellipse cx="170.547" cy="385.522" rx="14.5" ry="14.5008" fill="url(#paint34_radial)" fill-opacity="0.2"/>
<ellipse cx="170.547" cy="385.522" rx="14.5" ry="14.5008" fill="url(#paint35_radial)" fill-opacity="0.5"/>
<ellipse cx="170.547" cy="385.522" rx="14.5" ry="14.5008" fill="url(#paint36_radial)" fill-opacity="0.3"/>
<ellipse cx="170.547" cy="385.522" rx="14.5" ry="14.5008" fill="url(#paint37_radial)" fill-opacity="0.2"/>
<ellipse cx="193.031" cy="128.992" rx="14.5006" ry="14.5002" transform="rotate(122.051 193.031 128.992)" fill="url(#paint38_linear)"/>
<ellipse cx="193.031" cy="128.992" rx="14.5006" ry="14.5002" transform="rotate(122.051 193.031 128.992)" fill="url(#paint39_radial)" fill-opacity="0.2"/>
<ellipse cx="193.031" cy="128.992" rx="14.5006" ry="14.5002" transform="rotate(122.051 193.031 128.992)" fill="url(#paint40_radial)" fill-opacity="0.2"/>
<ellipse cx="193.031" cy="128.992" rx="14.5006" ry="14.5002" transform="rotate(122.051 193.031 128.992)" fill="url(#paint41_radial)" fill-opacity="0.5"/>
<ellipse cx="193.031" cy="128.992" rx="14.5006" ry="14.5002" transform="rotate(122.051 193.031 128.992)" fill="url(#paint42_radial)" fill-opacity="0.3"/>
<ellipse cx="193.031" cy="128.992" rx="14.5006" ry="14.5002" transform="rotate(122.051 193.031 128.992)" fill="url(#paint43_radial)" fill-opacity="0.2"/>
<g filter="url(#filter4_i)">
<ellipse cx="156.047" cy="185.497" rx="10.0006" ry="10" transform="rotate(-90 156.047 185.497)" fill="url(#paint44_linear)"/>
<ellipse cx="156.047" cy="185.497" rx="10.0006" ry="10" transform="rotate(-90 156.047 185.497)" fill="url(#paint45_radial)"/>
<ellipse cx="156.047" cy="185.497" rx="10.0006" ry="10" transform="rotate(-90 156.047 185.497)" fill="url(#paint46_radial)"/>
<ellipse cx="156.047" cy="185.497" rx="10.0006" ry="10" transform="rotate(-90 156.047 185.497)" fill="url(#paint47_linear)" fill-opacity="0.6"/>
<ellipse cx="156.047" cy="185.497" rx="10.0006" ry="10" transform="rotate(-90 156.047 185.497)" fill="url(#paint48_linear)" fill-opacity="0.6"/>
</g>
<g filter="url(#filter5_i)">
<ellipse cx="325.828" cy="160.01" rx="20" ry="20.0011" fill="url(#paint49_linear)"/>
<ellipse cx="325.828" cy="160.01" rx="20" ry="20.0011" fill="url(#paint50_radial)" fill-opacity="0.8"/>
<ellipse cx="325.828" cy="160.01" rx="20" ry="20.0011" fill="url(#paint51_radial)" fill-opacity="0.8"/>
<ellipse cx="325.828" cy="160.01" rx="20" ry="20.0011" fill="url(#paint52_radial)" fill-opacity="0.6"/>
<ellipse cx="325.828" cy="160.01" rx="20" ry="20.0011" fill="url(#paint53_linear)" fill-opacity="0.6"/>
</g>
<g filter="url(#filter6_i)">
<circle r="7.5" transform="matrix(-0.965922 0.258833 -0.258806 -0.965929 156.233 324.205)" fill="url(#paint54_linear)"/>
<circle r="7.5" transform="matrix(-0.965922 0.258833 -0.258806 -0.965929 156.233 324.205)" fill="url(#paint55_radial)" fill-opacity="0.8"/>
<circle r="7.5" transform="matrix(-0.965922 0.258833 -0.258806 -0.965929 156.233 324.205)" fill="url(#paint56_radial)" fill-opacity="0.8"/>
<circle r="7.5" transform="matrix(-0.965922 0.258833 -0.258806 -0.965929 156.233 324.205)" fill="url(#paint57_radial)" fill-opacity="0.6"/>
<circle r="7.5" transform="matrix(-0.965922 0.258833 -0.258806 -0.965929 156.233 324.205)" fill="url(#paint58_linear)" fill-opacity="0.6"/>
</g>
<path fill-rule="evenodd" clip-rule="evenodd" d="M36.2654 287.37C22.9926 295.452 15.7313 304.266 16.0574 313.345C17.2465 346.457 118.897 370.554 243.1 367.167C298.088 365.668 348.277 359.034 387.035 349.232L379.681 347.935C342.155 356.786 294.742 362.759 242.993 364.169C181.074 365.857 124.884 360.689 84.1172 351.025C63.7119 346.188 47.3428 340.264 36.0767 333.62C24.6572 326.887 19.2954 319.921 19.0563 313.264C18.8172 306.606 23.6688 299.362 34.5827 292.02C36.5081 290.724 38.5981 289.443 40.8465 288.178L36.2654 287.37Z" fill="url(#paint59_linear)"/>
<g filter="url(#filter7_i)">
<circle r="7.48121" transform="matrix(-0.999991 -0.00425507 -0.00425507 0.999991 43.5573 284.528)" fill="url(#paint60_linear)"/>
<circle r="7.48121" transform="matrix(-0.999991 -0.00425507 -0.00425507 0.999991 43.5573 284.528)" fill="url(#paint61_radial)" fill-opacity="0.8"/>
<circle r="7.48121" transform="matrix(-0.999991 -0.00425507 -0.00425507 0.999991 43.5573 284.528)" fill="url(#paint62_radial)" fill-opacity="0.6"/>
<circle r="7.48121" transform="matrix(-0.999991 -0.00425507 -0.00425507 0.999991 43.5573 284.528)" fill="url(#paint63_linear)" fill-opacity="0.6"/>
</g>
<path fill-rule="evenodd" clip-rule="evenodd" d="M204.102 105.452C97.4145 101.452 16.0468 80.4169 16.0468 55.0687C16.0468 26.8645 116.783 4.00049 241.047 4.00049C260.834 4.00049 280.024 4.5802 298.306 5.66887L295.616 8.51757C278.156 7.52702 259.877 7.00049 241.047 7.00049C179.07 7.00049 123.053 12.7047 82.6118 21.8836C62.367 26.4786 46.1898 31.9083 35.1469 37.8341C29.6232 40.7982 25.5277 43.8111 22.8461 46.7855C20.1804 49.7422 19.0468 52.4998 19.0468 55.0687C19.0468 57.6376 20.1804 60.3951 22.8461 63.3519C25.5277 66.3262 29.6232 69.3392 35.1469 72.3033C46.1898 78.2291 62.367 83.6588 82.6118 88.2538C115.462 95.7099 158.591 100.873 206.842 102.549L204.102 105.452Z" fill="url(#paint64_linear)"/>
<g filter="url(#filter8_i)">
<circle cx="299.559" cy="7.51278" r="7.48121" transform="rotate(-0.243798 299.559 7.51278)" fill="url(#paint65_linear)"/>
<circle cx="299.559" cy="7.51278" r="7.48121" transform="rotate(-0.243798 299.559 7.51278)" fill="url(#paint66_radial)" fill-opacity="0.8"/>
<circle cx="299.559" cy="7.51278" r="7.48121" transform="rotate(-0.243798 299.559 7.51278)" fill="url(#paint67_radial)" fill-opacity="0.6"/>
<circle cx="299.559" cy="7.51278" r="7.48121" transform="rotate(-0.243798 299.559 7.51278)" fill="url(#paint68_linear)" fill-opacity="0.6"/>
</g>
<path fill-rule="evenodd" clip-rule="evenodd" d="M135.046 84.3863C167.166 81.1706 203.91 79.7722 242.874 80.6767C367.078 83.5596 466.8 108.749 465.611 136.94C464.872 154.455 425.353 169.007 365.738 176.826L366.323 173.732C377.55 172.241 388.044 170.51 397.679 168.566C418.107 164.443 434.505 159.391 445.793 153.724C451.438 150.89 455.659 147.973 458.465 145.063C461.254 142.169 462.504 139.439 462.612 136.87C462.72 134.302 461.703 131.519 459.163 128.501C456.608 125.466 452.642 122.36 447.246 119.269C436.459 113.09 420.518 107.288 400.477 102.225C360.443 92.1128 304.694 85.1118 242.748 83.674C209.945 82.9126 178.745 83.7887 150.59 86.0045L135.046 84.3863Z" fill="url(#paint69_linear)"/>
<g filter="url(#filter9_i)">
<circle r="7.48121" transform="matrix(0.999991 0.00425531 0.00425483 -0.999991 364.56 176.524)" fill="url(#paint70_linear)"/>
<circle r="7.48121" transform="matrix(0.999991 0.00425531 0.00425483 -0.999991 364.56 176.524)" fill="url(#paint71_radial)" fill-opacity="0.8"/>
<circle r="7.48121" transform="matrix(0.999991 0.00425531 0.00425483 -0.999991 364.56 176.524)" fill="url(#paint72_radial)" fill-opacity="0.6"/>
<circle r="7.48121" transform="matrix(0.999991 0.00425531 0.00425483 -0.999991 364.56 176.524)" fill="url(#paint73_linear)" fill-opacity="0.6"/>
</g>
<path fill-rule="evenodd" clip-rule="evenodd" d="M186.065 464.794C203.663 466.251 222.083 467.025 241.051 467.025C365.315 467.025 466.051 433.813 466.051 392.845C466.051 373.296 443.116 355.514 405.633 342.263L407.976 346.3C424.095 352.258 437.159 359.036 446.525 366.336C457.572 374.948 463.051 383.93 463.051 392.845C463.051 401.759 457.572 410.742 446.525 419.353C435.515 427.935 419.396 435.794 399.211 442.449C358.871 455.749 302.953 464.025 241.051 464.025C224.783 464.025 208.928 463.453 193.66 462.369L186.065 464.794Z" fill="url(#paint74_linear)"/>
<g filter="url(#filter10_i)">
<circle r="7.48121" transform="matrix(-0.999991 -0.00425531 -0.00425483 0.999991 185.561 461.538)" fill="url(#paint75_linear)"/>
<circle r="7.48121" transform="matrix(-0.999991 -0.00425531 -0.00425483 0.999991 185.561 461.538)" fill="url(#paint76_radial)" fill-opacity="0.8"/>
<circle r="7.48121" transform="matrix(-0.999991 -0.00425531 -0.00425483 0.999991 185.561 461.538)" fill="url(#paint77_radial)" fill-opacity="0.6"/>
<circle r="7.48121" transform="matrix(-0.999991 -0.00425531 -0.00425483 0.999991 185.561 461.538)" fill="url(#paint78_linear)" fill-opacity="0.6"/>
</g>
<path fill-rule="evenodd" clip-rule="evenodd" d="M128.508 157.554C62.3815 165.986 18.0469 181.495 18.0469 199.233C18.0469 225.97 118.783 247.645 243.047 247.645C246.442 247.645 249.82 247.629 253.179 247.597L248.187 244.632C246.478 244.641 244.765 244.645 243.047 244.645C181.061 244.645 125.033 239.237 84.5789 230.532C64.3273 226.175 48.1401 221.025 37.0887 215.403C31.5586 212.59 27.4657 209.733 24.7919 206.922C22.1309 204.124 21.0469 201.563 21.0469 199.233C21.0469 196.902 22.1309 194.342 24.7919 191.543C27.4657 188.732 31.5586 185.876 37.0887 183.063C48.1401 177.441 64.3273 172.291 84.5789 167.933C96.653 165.335 110.114 163.031 124.708 161.076L128.508 157.554Z" fill="url(#paint79_linear)"/>
<g filter="url(#filter11_i)">
<circle r="7.48121" transform="matrix(-0.999991 -0.00425531 -0.00425483 0.999991 252.557 245.526)" fill="url(#paint80_linear)"/>
<circle r="7.48121" transform="matrix(-0.999991 -0.00425531 -0.00425483 0.999991 252.557 245.526)" fill="url(#paint81_radial)" fill-opacity="0.8"/>
<circle r="7.48121" transform="matrix(-0.999991 -0.00425531 -0.00425483 0.999991 252.557 245.526)" fill="url(#paint82_radial)" fill-opacity="0.6"/>
<circle r="7.48121" transform="matrix(-0.999991 -0.00425531 -0.00425483 0.999991 252.557 245.526)" fill="url(#paint83_linear)" fill-opacity="0.6"/>
</g>
<defs>
<filter id="filter0_ddii" x="0" y="408.008" width="482.075" height="169.992" filterUnits="userSpaceOnUse" color-interpolation-filters="sRGB">
<feFlood flood-opacity="0" result="BackgroundImageFix"/>
<feColorMatrix in="SourceAlpha" type="matrix" values="0 0 0 0 0 0 0 0 0 0 0 0 0 0 0 0 0 0 127 0" result="hardAlpha"/>
<feOffset dx="4" dy="4"/>
<feGaussianBlur stdDeviation="6"/>
<feComposite in2="hardAlpha" operator="out"/>
<feColorMatrix type="matrix" values="0 0 0 0 0.2125 0 0 0 0 0.2125 0 0 0 0 0.2125 0 0 0 0.4 0"/>
<feBlend mode="normal" in2="BackgroundImageFix" result="effect1_dropShadow"/>
<feColorMatrix in="SourceAlpha" type="matrix" values="0 0 0 0 0 0 0 0 0 0 0 0 0 0 0 0 0 0 127 0" result="hardAlpha"/>
<feOffset dx="-4" dy="-4"/>
<feGaussianBlur stdDeviation="6"/>
<feComposite in2="hardAlpha" operator="out"/>
<feColorMatrix type="matrix" values="0 0 0 0 0.329167 0 0 0 0 0.329167 0 0 0 0 0.329167 0 0 0 0.1 0"/>
<feBlend mode="normal" in2="effect1_dropShadow" result="effect2_dropShadow"/>
<feBlend mode="normal" in="SourceGraphic" in2="effect2_dropShadow" result="shape"/>
<feColorMatrix in="SourceAlpha" type="matrix" values="0 0 0 0 0 0 0 0 0 0 0 0 0 0 0 0 0 0 127 0" result="hardAlpha"/>
<feOffset dx="10" dy="10"/>
<feGaussianBlur stdDeviation="30"/>
<feComposite in2="hardAlpha" operator="arithmetic" k2="-1" k3="1"/>
<feColorMatrix type="matrix" values="0 0 0 0 0 0 0 0 0 0 0 0 0 0 0 0 0 0 0.25 0"/>
<feBlend mode="normal" in2="shape" result="effect3_innerShadow"/>
<feColorMatrix in="SourceAlpha" type="matrix" values="0 0 0 0 0 0 0 0 0 0 0 0 0 0 0 0 0 0 127 0" result="hardAlpha"/>
<feOffset dx="12" dy="12"/>
<feGaussianBlur stdDeviation="20"/>
<feComposite in2="hardAlpha" operator="arithmetic" k2="-1" k3="1"/>
<feColorMatrix type="matrix" values="0 0 0 0 0 0 0 0 0 0 0 0 0 0 0 0 0 0 0.5 0"/>
<feBlend mode="normal" in2="effect3_innerShadow" result="effect4_innerShadow"/>
</filter>
<filter id="filter1_i" x="421.816" y="287.016" width="24.0264" height="22.0259" filterUnits="userSpaceOnUse" color-interpolation-filters="sRGB">
<feFlood flood-opacity="0" result="BackgroundImageFix"/>
<feBlend mode="normal" in="SourceGraphic" in2="BackgroundImageFix" result="shape"/>
<feColorMatrix in="SourceAlpha" type="matrix" values="0 0 0 0 0 0 0 0 0 0 0 0 0 0 0 0 0 0 127 0" result="hardAlpha"/>
<feOffset dx="-9" dy="-7"/>
<feGaussianBlur stdDeviation="33"/>
<feComposite in2="hardAlpha" operator="arithmetic" k2="-1" k3="1"/>
<feColorMatrix type="matrix" values="0 0 0 0 0.55 0 0 0 0 0.00687498 0 0 0 0 0.00687498 0 0 0 0.37 0"/>
<feBlend mode="normal" in2="shape" result="effect1_innerShadow"/>
</filter>
<filter id="filter2_i" x="156.729" y="182.691" width="159" height="157.008" filterUnits="userSpaceOnUse" color-interpolation-filters="sRGB">
<feFlood flood-opacity="0" result="BackgroundImageFix"/>
<feBlend mode="normal" in="SourceGraphic" in2="BackgroundImageFix" result="shape"/>
<feColorMatrix in="SourceAlpha" type="matrix" values="0 0 0 0 0 0 0 0 0 0 0 0 0 0 0 0 0 0 127 0" result="hardAlpha"/>
<feOffset dx="-9" dy="-7"/>
<feGaussianBlur stdDeviation="33"/>
<feComposite in2="hardAlpha" operator="arithmetic" k2="-1" k3="1"/>
<feColorMatrix type="matrix" values="0 0 0 0 0.55 0 0 0 0 0.00687498 0 0 0 0 0.00687498 0 0 0 0.37 0"/>
<feBlend mode="normal" in2="shape" result="effect1_innerShadow"/>
</filter>
<filter id="filter3_i" x="312.047" y="325.02" width="29" height="27.001" filterUnits="userSpaceOnUse" color-interpolation-filters="sRGB">
<feFlood flood-opacity="0" result="BackgroundImageFix"/>
<feBlend mode="normal" in="SourceGraphic" in2="BackgroundImageFix" result="shape"/>
<feColorMatrix in="SourceAlpha" type="matrix" values="0 0 0 0 0 0 0 0 0 0 0 0 0 0 0 0 0 0 127 0" result="hardAlpha"/>
<feOffset dx="-9" dy="-7"/>
<feGaussianBlur stdDeviation="33"/>
<feComposite in2="hardAlpha" operator="arithmetic" k2="-1" k3="1"/>
<feColorMatrix type="matrix" values="0 0 0 0 0.55 0 0 0 0 0.00687498 0 0 0 0 0.00687498 0 0 0 0.37 0"/>
<feBlend mode="normal" in2="shape" result="effect1_innerShadow"/>
</filter>
<filter id="filter4_i" x="146.047" y="168.497" width="20" height="27.001" filterUnits="userSpaceOnUse" color-interpolation-filters="sRGB">
<feFlood flood-opacity="0" result="BackgroundImageFix"/>
<feBlend mode="normal" in="SourceGraphic" in2="BackgroundImageFix" result="shape"/>
<feColorMatrix in="SourceAlpha" type="matrix" values="0 0 0 0 0 0 0 0 0 0 0 0 0 0 0 0 0 0 127 0" result="hardAlpha"/>
<feOffset dy="-7"/>
<feGaussianBlur stdDeviation="33"/>
<feComposite in2="hardAlpha" operator="arithmetic" k2="-1" k3="1"/>
<feColorMatrix type="matrix" values="0 0 0 0 0 0 0 0 0 0.174417 0 0 0 0 0.379167 0 0 0 0.37 0"/>
<feBlend mode="normal" in2="shape" result="effect1_innerShadow"/>
</filter>
<filter id="filter5_i" x="305.828" y="133.009" width="40" height="47.0024" filterUnits="userSpaceOnUse" color-interpolation-filters="sRGB">
<feFlood flood-opacity="0" result="BackgroundImageFix"/>
<feBlend mode="normal" in="SourceGraphic" in2="BackgroundImageFix" result="shape"/>
<feColorMatrix in="SourceAlpha" type="matrix" values="0 0 0 0 0 0 0 0 0 0 0 0 0 0 0 0 0 0 127 0" result="hardAlpha"/>
<feOffset dy="-7"/>
<feGaussianBlur stdDeviation="33"/>
<feComposite in2="hardAlpha" operator="arithmetic" k2="-1" k3="1"/>
<feColorMatrix type="matrix" values="0 0 0 0 1 0 0 0 0 0.436333 0 0 0 0 0.258333 0 0 0 0.37 0"/>
<feBlend mode="normal" in2="shape" result="effect1_innerShadow"/>
</filter>
<filter id="filter6_i" x="148.73" y="309.703" width="15.0039" height="22.0039" filterUnits="userSpaceOnUse" color-interpolation-filters="sRGB">
<feFlood flood-opacity="0" result="BackgroundImageFix"/>
<feBlend mode="normal" in="SourceGraphic" in2="BackgroundImageFix" result="shape"/>
<feColorMatrix in="SourceAlpha" type="matrix" values="0 0 0 0 0 0 0 0 0 0 0 0 0 0 0 0 0 0 127 0" result="hardAlpha"/>
<feOffset dy="-7"/>
<feGaussianBlur stdDeviation="33"/>
<feComposite in2="hardAlpha" operator="arithmetic" k2="-1" k3="1"/>
<feColorMatrix type="matrix" values="0 0 0 0 1 0 0 0 0 0.436333 0 0 0 0 0.258333 0 0 0 0.37 0"/>
<feBlend mode="normal" in2="shape" result="effect1_innerShadow"/>
</filter>
<filter id="filter7_i" x="27.0439" y="270.016" width="24.0264" height="22.0259" filterUnits="userSpaceOnUse" color-interpolation-filters="sRGB">
<feFlood flood-opacity="0" result="BackgroundImageFix"/>
<feBlend mode="normal" in="SourceGraphic" in2="BackgroundImageFix" result="shape"/>
<feColorMatrix in="SourceAlpha" type="matrix" values="0 0 0 0 0 0 0 0 0 0 0 0 0 0 0 0 0 0 127 0" result="hardAlpha"/>
<feOffset dx="-9" dy="-7"/>
<feGaussianBlur stdDeviation="33"/>
<feComposite in2="hardAlpha" operator="arithmetic" k2="-1" k3="1"/>
<feColorMatrix type="matrix" values="0 0 0 0 0.55 0 0 0 0 0.00687498 0 0 0 0 0.00687498 0 0 0 0.37 0"/>
<feBlend mode="normal" in2="shape" result="effect1_innerShadow"/>
</filter>
<filter id="filter8_i" x="283.046" y="-7" width="24.0264" height="22.0259" filterUnits="userSpaceOnUse" color-interpolation-filters="sRGB">
<feFlood flood-opacity="0" result="BackgroundImageFix"/>
<feBlend mode="normal" in="SourceGraphic" in2="BackgroundImageFix" result="shape"/>
<feColorMatrix in="SourceAlpha" type="matrix" values="0 0 0 0 0 0 0 0 0 0 0 0 0 0 0 0 0 0 127 0" result="hardAlpha"/>
<feOffset dx="-9" dy="-7"/>
<feGaussianBlur stdDeviation="33"/>
<feComposite in2="hardAlpha" operator="arithmetic" k2="-1" k3="1"/>
<feColorMatrix type="matrix" values="0 0 0 0 0.55 0 0 0 0 0.00687498 0 0 0 0 0.00687498 0 0 0 0.37 0"/>
<feBlend mode="normal" in2="shape" result="effect1_innerShadow"/>
</filter>
<filter id="filter9_i" x="348.047" y="162.011" width="24.0264" height="22.0259" filterUnits="userSpaceOnUse" color-interpolation-filters="sRGB">
<feFlood flood-opacity="0" result="BackgroundImageFix"/>
<feBlend mode="normal" in="SourceGraphic" in2="BackgroundImageFix" result="shape"/>
<feColorMatrix in="SourceAlpha" type="matrix" values="0 0 0 0 0 0 0 0 0 0 0 0 0 0 0 0 0 0 127 0" result="hardAlpha"/>
<feOffset dx="-9" dy="-7"/>
<feGaussianBlur stdDeviation="33"/>
<feComposite in2="hardAlpha" operator="arithmetic" k2="-1" k3="1"/>
<feColorMatrix type="matrix" values="0 0 0 0 0.55 0 0 0 0 0.00687498 0 0 0 0 0.00687498 0 0 0 0.37 0"/>
<feBlend mode="normal" in2="shape" result="effect1_innerShadow"/>
</filter>
<filter id="filter10_i" x="169.048" y="447.025" width="24.0264" height="22.0259" filterUnits="userSpaceOnUse" color-interpolation-filters="sRGB">
<feFlood flood-opacity="0" result="BackgroundImageFix"/>
<feBlend mode="normal" in="SourceGraphic" in2="BackgroundImageFix" result="shape"/>
<feColorMatrix in="SourceAlpha" type="matrix" values="0 0 0 0 0 0 0 0 0 0 0 0 0 0 0 0 0 0 127 0" result="hardAlpha"/>
<feOffset dx="-9" dy="-7"/>
<feGaussianBlur stdDeviation="33"/>
<feComposite in2="hardAlpha" operator="arithmetic" k2="-1" k3="1"/>
<feColorMatrix type="matrix" values="0 0 0 0 0.55 0 0 0 0 0.00687498 0 0 0 0 0.00687498 0 0 0 0.37 0"/>
<feBlend mode="normal" in2="shape" result="effect1_innerShadow"/>
</filter>
<filter id="filter11_i" x="236.044" y="231.013" width="24.0264" height="22.0259" filterUnits="userSpaceOnUse" color-interpolation-filters="sRGB">
<feFlood flood-opacity="0" result="BackgroundImageFix"/>
<feBlend mode="normal" in="SourceGraphic" in2="BackgroundImageFix" result="shape"/>
<feColorMatrix in="SourceAlpha" type="matrix" values="0 0 0 0 0 0 0 0 0 0 0 0 0 0 0 0 0 0 127 0" result="hardAlpha"/>
<feOffset dx="-9" dy="-7"/>
<feGaussianBlur stdDeviation="33"/>
<feComposite in2="hardAlpha" operator="arithmetic" k2="-1" k3="1"/>
<feColorMatrix type="matrix" values="0 0 0 0 0.55 0 0 0 0 0.00687498 0 0 0 0 0.00687498 0 0 0 0.37 0"/>
<feBlend mode="normal" in2="shape" result="effect1_innerShadow"/>
</filter>
<linearGradient id="paint0_linear" x1="241.038" y1="462.86" x2="241.038" y2="685.359" gradientUnits="userSpaceOnUse">
<stop offset="0.142259" stop-color="#0C0C0C"/>
<stop offset="0.531381" stop-color="#181818"/>
<stop offset="1"/>
</linearGradient>
<radialGradient id="paint1_radial" cx="0" cy="0" r="1" gradientUnits="userSpaceOnUse" gradientTransform="translate(241.038 556.23) rotate(90) scale(67.5444 220.633)">
<stop/>
<stop offset="1" stop-opacity="0"/>
</radialGradient>
<radialGradient id="paint2_radial" cx="0" cy="0" r="1" gradientUnits="userSpaceOnUse" gradientTransform="translate(224.84 423.961) rotate(95.5548) scale(120.041 394.818)">
<stop stop-opacity="0"/>
<stop offset="0.981852" stop-color="#E9648D"/>
</radialGradient>
<radialGradient id="paint3_radial" cx="0" cy="0" r="1" gradientUnits="userSpaceOnUse" gradientTransform="translate(255.809 571.997) rotate(-90.029) scale(158.895 375.728)">
<stop stop-color="#FB428C"/>
<stop offset="1" stop-opacity="0"/>
</radialGradient>
<linearGradient id="paint4_linear" x1="439.84" y1="299.98" x2="183.873" y2="218.561" gradientUnits="userSpaceOnUse">
<stop stop-color="#C4C4C4"/>
<stop offset="1" stop-color="#C4C4C4" stop-opacity="0"/>
</linearGradient>
<linearGradient id="paint5_linear" x1="444.604" y1="310.78" x2="431.331" y2="290.669" gradientUnits="userSpaceOnUse">
<stop stop-color="#FF31C5"/>
<stop offset="1" stop-color="#FF04B0"/>
</linearGradient>
<radialGradient id="paint6_radial" cx="0" cy="0" r="1" gradientUnits="userSpaceOnUse" gradientTransform="translate(440.433 297.783) rotate(121.734) scale(11.5627)">
<stop stop-color="#FFB340"/>
<stop offset="0.0001" stop-color="#FFB340"/>
<stop offset="0.838542" stop-color="#FF2AD0"/>
</radialGradient>
<radialGradient id="paint7_radial" cx="0" cy="0" r="1" gradientUnits="userSpaceOnUse" gradientTransform="translate(444.041 309.493) rotate(-138.906) scale(14.1966)">
<stop stop-color="#FF2A90"/>
<stop offset="0.322917" stop-color="#FF2AB7" stop-opacity="0.828125"/>
<stop offset="1" stop-color="#FF2AB7" stop-opacity="0"/>
</radialGradient>
<linearGradient id="paint8_linear" x1="432.94" y1="308.206" x2="439.92" y2="298.972" gradientUnits="userSpaceOnUse">
<stop stop-color="#7C0000"/>
<stop offset="1" stop-color="#AD2E00" stop-opacity="0"/>
</linearGradient>
<linearGradient id="paint9_linear" x1="282.982" y1="256.843" x2="195.879" y2="128.883" gradientUnits="userSpaceOnUse">
<stop stop-color="#232323"/>
<stop offset="1"/>
</linearGradient>
<radialGradient id="paint10_radial" cx="0" cy="0" r="1" gradientUnits="userSpaceOnUse" gradientTransform="translate(241.047 183.51) rotate(90) scale(31.0017 31)">
<stop stop-color="#FF2A90" stop-opacity="0.5"/>
<stop offset="1" stop-color="#7C7C7C" stop-opacity="0.05"/>
</radialGradient>
<radialGradient id="paint11_radial" cx="0" cy="0" r="1" gradientUnits="userSpaceOnUse" gradientTransform="translate(241.047 188.011) rotate(90) scale(106.506 125.052)">
<stop stop-color="#FF2A90" stop-opacity="0.48"/>
<stop offset="1" stop-color="#232323" stop-opacity="0"/>
</radialGradient>
<radialGradient id="paint12_radial" cx="0" cy="0" r="1" gradientUnits="userSpaceOnUse" gradientTransform="translate(260.402 281.037) rotate(-106.288) scale(86.2625 86.2585)">
<stop stop-color="#747474"/>
<stop offset="1" stop-opacity="0"/>
</radialGradient>
<linearGradient id="paint13_linear" x1="137.903" y1="167.751" x2="4.82836" y2="-33.866" gradientUnits="userSpaceOnUse">
<stop stop-color="#FF31C5"/>
<stop offset="1" stop-color="#FF04B0"/>
</linearGradient>
<radialGradient id="paint14_radial" cx="0" cy="0" r="1" gradientUnits="userSpaceOnUse" gradientTransform="translate(96.0891 37.4527) rotate(121.733) scale(115.922 115.919)">
<stop stop-color="#FFB340"/>
<stop offset="0.0001" stop-color="#FFB340"/>
<stop offset="0.838542" stop-color="#FF2AD0"/>
</radialGradient>
<radialGradient id="paint15_radial" cx="0" cy="0" r="1" gradientUnits="userSpaceOnUse" gradientTransform="translate(132.258 154.847) rotate(-138.904) scale(142.326 142.327)">
<stop stop-color="#FF2A90"/>
<stop offset="0.322917" stop-color="#FF2AB7" stop-opacity="0.828125"/>
<stop offset="1" stop-color="#FF2AB7" stop-opacity="0"/>
</radialGradient>
<linearGradient id="paint16_linear" x1="20.9677" y1="141.943" x2="90.9509" y2="49.3725" gradientUnits="userSpaceOnUse">
<stop stop-color="#7C0000"/>
<stop offset="1" stop-color="#AD2E00" stop-opacity="0"/>
</linearGradient>
<linearGradient id="paint17_linear" x1="18.3871" y1="22.3668" x2="0.643783" y2="-4.51547" gradientUnits="userSpaceOnUse">
<stop stop-color="#FF31C5"/>
<stop offset="1" stop-color="#FF04B0"/>
</linearGradient>
<radialGradient id="paint18_radial" cx="0" cy="0" r="1" gradientUnits="userSpaceOnUse" gradientTransform="translate(12.8119 4.99369) rotate(121.733) scale(15.4562 15.4559)">
<stop stop-color="#FFB340"/>
<stop offset="0.0001" stop-color="#FFB340"/>
<stop offset="0.838542" stop-color="#FF2AD0"/>
</radialGradient>
<radialGradient id="paint19_radial" cx="0" cy="0" r="1" gradientUnits="userSpaceOnUse" gradientTransform="translate(17.6344 20.6463) rotate(-138.904) scale(18.9767 18.9769)">
<stop stop-color="#FF2A90"/>
<stop offset="0.322917" stop-color="#FF2AB7" stop-opacity="0.828125"/>
<stop offset="1" stop-color="#FF2AB7" stop-opacity="0"/>
</radialGradient>
<linearGradient id="paint20_linear" x1="2.7957" y1="18.9258" x2="12.1268" y2="6.583" gradientUnits="userSpaceOnUse">
<stop stop-color="#7C0000"/>
<stop offset="1" stop-color="#AD2E00" stop-opacity="0"/>
</linearGradient>
<linearGradient id="paint21_linear" x1="282.982" y1="396.85" x2="195.879" y2="268.891" gradientUnits="userSpaceOnUse">
<stop/>
<stop offset="1" stop-color="#171717"/>
</linearGradient>
<radialGradient id="paint22_radial" cx="0" cy="0" r="1" gradientUnits="userSpaceOnUse" gradientTransform="translate(241.047 285.016) rotate(90) scale(100.006 100)">
<stop stop-color="#FF2A90" stop-opacity="0.32"/>
<stop offset="1" stop-color="white" stop-opacity="0.05"/>
</radialGradient>
<radialGradient id="paint23_radial" cx="0" cy="0" r="1" gradientUnits="userSpaceOnUse" gradientTransform="translate(241.047 285.016) rotate(90) scale(50.0028 50)">
<stop stop-color="#FF2A90" stop-opacity="0.48"/>
<stop offset="1" stop-color="white" stop-opacity="0"/>
</radialGradient>
<radialGradient id="paint24_radial" cx="0" cy="0" r="1" gradientUnits="userSpaceOnUse" gradientTransform="translate(260.402 421.045) rotate(-106.288) scale(86.2625 86.2585)">
<stop stop-color="#747474"/>
<stop offset="1" stop-opacity="0"/>
</radialGradient>
<linearGradient id="paint25_linear" x1="135.547" y1="308.018" x2="186.051" y2="225.516" gradientUnits="userSpaceOnUse">
<stop/>
<stop offset="1" stop-color="#232323"/>
</linearGradient>
<radialGradient id="paint26_radial" cx="0" cy="0" r="1" gradientUnits="userSpaceOnUse" gradientTransform="translate(193.047 228.013) rotate(149.93) scale(21.9548 21.9554)">
<stop stop-color="#FFB340" stop-opacity="0.32"/>
<stop offset="1" stop-color="white" stop-opacity="0.05"/>
</radialGradient>
<radialGradient id="paint27_radial" cx="0" cy="0" r="1" gradientUnits="userSpaceOnUse" gradientTransform="translate(194.047 228.013) rotate(126.026) scale(40.8059 40.8052)">
<stop stop-color="#FFB340"/>
<stop offset="1" stop-opacity="0"/>
</radialGradient>
<linearGradient id="paint28_linear" x1="228.047" y1="155.009" x2="381.555" y2="306.509" gradientUnits="userSpaceOnUse">
<stop stop-color="#111111"/>
<stop offset="1"/>
</linearGradient>
<radialGradient id="paint29_radial" cx="0" cy="0" r="1" gradientUnits="userSpaceOnUse" gradientTransform="translate(282.047 247.514) rotate(30.1348) scale(100.596 100.599)">
<stop stop-color="#FF2A90" stop-opacity="0.32"/>
<stop offset="1" stop-color="white" stop-opacity="0.05"/>
</radialGradient>
<radialGradient id="paint30_radial" cx="0" cy="0" r="1" gradientUnits="userSpaceOnUse" gradientTransform="translate(279.047 248.514) rotate(27.5333) scale(53.003 53.0047)">
<stop stop-color="#FF2A90" stop-opacity="0.48"/>
<stop offset="1" stop-color="white" stop-opacity="0"/>
</radialGradient>
<radialGradient id="paint31_radial" cx="0" cy="0" r="1" gradientUnits="userSpaceOnUse" gradientTransform="translate(257.547 194.011) rotate(47.2536) scale(125.966 125.966)">
<stop stop-color="#FF2A90"/>
<stop offset="1" stop-color="white" stop-opacity="0"/>
</radialGradient>
<linearGradient id="paint32_linear" x1="182.708" y1="403.453" x2="157.448" y2="366.345" gradientUnits="userSpaceOnUse">
<stop stop-color="#121212"/>
<stop offset="1" stop-color="#171717"/>
</linearGradient>
<radialGradient id="paint33_radial" cx="0" cy="0" r="1" gradientUnits="userSpaceOnUse" gradientTransform="translate(174.289 380.377) rotate(113.197) scale(11.8746 11.8742)">
<stop stop-color="#DDDDDD" stop-opacity="0.32"/>
<stop offset="1" stop-color="#7C7C7C" stop-opacity="0.05"/>
</radialGradient>
<radialGradient id="paint34_radial" cx="0" cy="0" r="1" gradientUnits="userSpaceOnUse" gradientTransform="translate(174.133 380.689) rotate(116.564) scale(11.1568 11.1564)">
<stop stop-color="#E6E6E6" stop-opacity="0.48"/>
<stop offset="1" stop-color="#232323" stop-opacity="0"/>
</radialGradient>
<radialGradient id="paint35_radial" cx="0" cy="0" r="1" gradientUnits="userSpaceOnUse" gradientTransform="translate(197.364 360.263) rotate(135.488) scale(38.6995)">
<stop stop-color="#FF2A90"/>
<stop offset="0.215632" stop-color="#FF2A90" stop-opacity="0.828125"/>
<stop offset="1" stop-color="#FF2A90" stop-opacity="0"/>
</radialGradient>
<radialGradient id="paint36_radial" cx="0" cy="0" r="1" gradientUnits="userSpaceOnUse" gradientTransform="translate(147.316 403.453) rotate(-40.1981) scale(26.3321 26.3323)">
<stop stop-color="#22FF95"/>
<stop offset="0.317708" stop-color="#22FFE4" stop-opacity="0.911458"/>
<stop offset="1" stop-opacity="0"/>
</radialGradient>
<radialGradient id="paint37_radial" cx="0" cy="0" r="1" gradientUnits="userSpaceOnUse" gradientTransform="translate(176.16 410.47) rotate(-106.288) scale(25.0161 25.015)">
<stop stop-color="#747474"/>
<stop offset="1" stop-opacity="0"/>
</radialGradient>
<linearGradient id="paint38_linear" x1="205.192" y1="146.922" x2="179.934" y2="109.813" gradientUnits="userSpaceOnUse">
<stop stop-color="#121212"/>
<stop offset="1" stop-color="#171717"/>
</linearGradient>
<radialGradient id="paint39_radial" cx="0" cy="0" r="1" gradientUnits="userSpaceOnUse" gradientTransform="translate(196.773 123.846) rotate(113.199) scale(11.8743 11.8745)">
<stop stop-color="#DDDDDD" stop-opacity="0.32"/>
<stop offset="1" stop-color="#7C7C7C" stop-opacity="0.05"/>
</radialGradient>
<radialGradient id="paint40_radial" cx="0" cy="0" r="1" gradientUnits="userSpaceOnUse" gradientTransform="translate(196.617 124.158) rotate(116.566) scale(11.1565 11.1567)">
<stop stop-color="#E6E6E6" stop-opacity="0.48"/>
<stop offset="1" stop-color="#232323" stop-opacity="0"/>
</radialGradient>
<radialGradient id="paint41_radial" cx="0" cy="0" r="1" gradientUnits="userSpaceOnUse" gradientTransform="translate(219.849 103.733) rotate(135.49) scale(38.6995)">
<stop stop-color="#FF2A90"/>
<stop offset="0.215632" stop-color="#FF2A90" stop-opacity="0.828125"/>
<stop offset="1" stop-color="#FF2A90" stop-opacity="0"/>
</radialGradient>
<radialGradient id="paint42_radial" cx="0" cy="0" r="1" gradientUnits="userSpaceOnUse" gradientTransform="translate(169.798 146.922) rotate(-40.1958) scale(26.3323 26.3321)">
<stop stop-color="#22FF95"/>
<stop offset="0.317708" stop-color="#22FFE4" stop-opacity="0.911458"/>
<stop offset="1" stop-opacity="0"/>
</radialGradient>
<radialGradient id="paint43_radial" cx="0" cy="0" r="1" gradientUnits="userSpaceOnUse" gradientTransform="translate(198.644 153.938) rotate(-106.289) scale(25.0153 25.0158)">
<stop stop-color="#747474"/>
<stop offset="1" stop-opacity="0"/>
</radialGradient>
<linearGradient id="paint44_linear" x1="164.434" y1="197.863" x2="146.693" y2="170.98" gradientUnits="userSpaceOnUse">
<stop stop-color="#5CF5FF"/>
<stop offset="1" stop-color="#5CF5FF"/>
</linearGradient>
<radialGradient id="paint45_radial" cx="0" cy="0" r="1" gradientUnits="userSpaceOnUse" gradientTransform="translate(137.546 201.497) rotate(127.57) scale(8.20078 8.2009)">
<stop offset="1" stop-color="white" stop-opacity="0.27"/>
</radialGradient>
<radialGradient id="paint46_radial" cx="0" cy="0" r="1" gradientUnits="userSpaceOnUse" gradientTransform="translate(148.546 195.497) rotate(-51.5804) scale(18.5072 18.5074)">
<stop stop-color="#FF2A90"/>
<stop offset="0.338542" stop-color="#FF2A90"/>
<stop offset="1" stop-color="#FF2A90" stop-opacity="0"/>
</radialGradient>
<linearGradient id="paint47_linear" x1="140.046" y1="195.497" x2="163.047" y2="195.497" gradientUnits="userSpaceOnUse">
<stop stop-color="#5CF5FF"/>
<stop stop-color="#FF2A90" stop-opacity="0.828125"/>
<stop offset="1" stop-color="#FF2A90" stop-opacity="0"/>
</linearGradient>
<linearGradient id="paint48_linear" x1="136.546" y1="198.497" x2="156.046" y2="186.996" gradientUnits="userSpaceOnUse">
<stop stop-color="#FF2A90"/>
<stop offset="1" stop-color="#5CF5FF" stop-opacity="0.64"/>
</linearGradient>
<linearGradient id="paint49_linear" x1="342.602" y1="184.742" x2="307.116" y2="130.978" gradientUnits="userSpaceOnUse">
<stop stop-color="#FFE177"/>
<stop offset="1" stop-color="#FF975C"/>
</linearGradient>
<radialGradient id="paint50_radial" cx="0" cy="0" r="1" gradientUnits="userSpaceOnUse" gradientTransform="translate(313.082 171.119) rotate(-45.0016) scale(7.17839)">
<stop stop-color="white"/>
<stop offset="1" stop-color="white" stop-opacity="0.27"/>
</radialGradient>
<radialGradient id="paint51_radial" cx="0" cy="0" r="1" gradientUnits="userSpaceOnUse" gradientTransform="translate(316.128 177.549) rotate(-73.5409) scale(15.5259 15.5252)">
<stop stop-color="white"/>
<stop offset="0.234375" stop-color="white"/>
<stop offset="1" stop-color="white" stop-opacity="0"/>
</radialGradient>
<radialGradient id="paint52_radial" cx="0" cy="0" r="1" gradientUnits="userSpaceOnUse" gradientTransform="translate(341.097 181.301) rotate(-138.904) scale(37.9535 37.9538)">
<stop stop-color="#FF2A90"/>
<stop offset="0.322917" stop-color="#FFDB5C" stop-opacity="0.828125"/>
<stop offset="1" stop-color="#FFDB5C" stop-opacity="0"/>
</radialGradient>
<linearGradient id="paint53_linear" x1="315.113" y1="175.519" x2="334.063" y2="141.679" gradientUnits="userSpaceOnUse">
<stop stop-color="#FF2A90"/>
<stop offset="1" stop-color="#FFAF37" stop-opacity="0"/>
</linearGradient>
<linearGradient id="paint54_linear" x1="13.7903" y1="16.7742" x2="0.483871" y2="-3.3871" gradientUnits="userSpaceOnUse">
<stop stop-color="#FFE177"/>
<stop offset="1" stop-color="#FF975C"/>
</linearGradient>
<radialGradient id="paint55_radial" cx="0" cy="0" r="1" gradientUnits="userSpaceOnUse" gradientTransform="translate(2.72028 11.6658) rotate(-45) scale(2.69182)">
<stop stop-color="white"/>
<stop offset="1" stop-color="white" stop-opacity="0.27"/>
</radialGradient>
<radialGradient id="paint56_radial" cx="0" cy="0" r="1" gradientUnits="userSpaceOnUse" gradientTransform="translate(3.86233 14.0768) rotate(-73.54) scale(5.82192)">
<stop stop-color="white"/>
<stop offset="0.234375" stop-color="white"/>
<stop offset="1" stop-color="white" stop-opacity="0"/>
</radialGradient>
<radialGradient id="paint57_radial" cx="0" cy="0" r="1" gradientUnits="userSpaceOnUse" gradientTransform="translate(13.2258 15.4839) rotate(-138.906) scale(14.2322)">
<stop stop-color="#FF2A90"/>
<stop offset="0.322917" stop-color="#FFDB5C" stop-opacity="0.828125"/>
<stop offset="1" stop-color="#FFDB5C" stop-opacity="0"/>
</radialGradient>
<linearGradient id="paint58_linear" x1="3.48165" y1="13.3155" x2="10.5876" y2="0.626002" gradientUnits="userSpaceOnUse">
<stop stop-color="#FF2A90"/>
<stop offset="1" stop-color="#FFAF37" stop-opacity="0"/>
</linearGradient>
<linearGradient id="paint59_linear" x1="43.0468" y1="287.37" x2="330.999" y2="390.089" gradientUnits="userSpaceOnUse">
<stop stop-color="#C4C4C4"/>
<stop offset="1" stop-color="#C4C4C4" stop-opacity="0"/>
</linearGradient>
<linearGradient id="paint60_linear" x1="13.7558" y1="16.7322" x2="0.482659" y2="-3.37861" gradientUnits="userSpaceOnUse">
<stop stop-color="#FF31C5"/>
<stop offset="1" stop-color="#FF04B0"/>
</linearGradient>
<radialGradient id="paint61_radial" cx="0" cy="0" r="1" gradientUnits="userSpaceOnUse" gradientTransform="translate(9.58484 3.73568) rotate(121.734) scale(11.5627)">
<stop stop-color="#FFB340"/>
<stop offset="0.0001" stop-color="#FFB340"/>
<stop offset="0.838542" stop-color="#FF2AD0"/>
</radialGradient>
<radialGradient id="paint62_radial" cx="0" cy="0" r="1" gradientUnits="userSpaceOnUse" gradientTransform="translate(13.1927 15.4451) rotate(-138.906) scale(14.1966)">
<stop stop-color="#FF2A90"/>
<stop offset="0.322917" stop-color="#FF2AB7" stop-opacity="0.828125"/>
<stop offset="1" stop-color="#FF2AB7" stop-opacity="0"/>
</radialGradient>
<linearGradient id="paint63_linear" x1="2.09152" y1="14.158" x2="9.0718" y2="4.92423" gradientUnits="userSpaceOnUse">
<stop stop-color="#7C0000"/>
<stop offset="1" stop-color="#AD2E00" stop-opacity="0"/>
</linearGradient>
<linearGradient id="paint64_linear" x1="298.048" y1="10.6767" x2="293.637" y2="102.092" gradientUnits="userSpaceOnUse">
<stop stop-color="#C4C4C4"/>
<stop offset="1" stop-color="#C4C4C4" stop-opacity="0"/>
</linearGradient>
<linearGradient id="paint65_linear" x1="305.833" y1="16.7637" x2="292.56" y2="-3.34704" gradientUnits="userSpaceOnUse">
<stop stop-color="#FF31C5"/>
<stop offset="1" stop-color="#FF04B0"/>
</linearGradient>
<radialGradient id="paint66_radial" cx="0" cy="0" r="1" gradientUnits="userSpaceOnUse" gradientTransform="translate(301.663 3.76725) rotate(121.734) scale(11.5627)">
<stop stop-color="#FFB340"/>
<stop offset="0.0001" stop-color="#FFB340"/>
<stop offset="0.838542" stop-color="#FF2AD0"/>
</radialGradient>
<radialGradient id="paint67_radial" cx="0" cy="0" r="1" gradientUnits="userSpaceOnUse" gradientTransform="translate(305.27 15.4767) rotate(-138.906) scale(14.1966)">
<stop stop-color="#FF2A90"/>
<stop offset="0.322917" stop-color="#FF2AB7" stop-opacity="0.828125"/>
<stop offset="1" stop-color="#FF2AB7" stop-opacity="0"/>
</radialGradient>
<linearGradient id="paint68_linear" x1="294.169" y1="14.1896" x2="301.149" y2="4.95581" gradientUnits="userSpaceOnUse">
<stop stop-color="#7C0000"/>
<stop offset="1" stop-color="#AD2E00" stop-opacity="0"/>
</linearGradient>
<linearGradient id="paint69_linear" x1="421.048" y1="289.596" x2="280.131" y2="39.2654" gradientUnits="userSpaceOnUse">
<stop stop-color="#C4C4C4"/>
<stop offset="1" stop-color="#C4C4C4" stop-opacity="0"/>
</linearGradient>
<linearGradient id="paint70_linear" x1="13.7558" y1="16.7322" x2="0.482659" y2="-3.37861" gradientUnits="userSpaceOnUse">
<stop stop-color="#FF31C5"/>
<stop offset="1" stop-color="#FF04B0"/>
</linearGradient>
<radialGradient id="paint71_radial" cx="0" cy="0" r="1" gradientUnits="userSpaceOnUse" gradientTransform="translate(9.58484 3.73568) rotate(121.734) scale(11.5627)">
<stop stop-color="#FFB340"/>
<stop offset="0.0001" stop-color="#FFB340"/>
<stop offset="0.838542" stop-color="#FF2AD0"/>
</radialGradient>
<radialGradient id="paint72_radial" cx="0" cy="0" r="1" gradientUnits="userSpaceOnUse" gradientTransform="translate(13.1927 15.4451) rotate(-138.906) scale(14.1966)">
<stop stop-color="#FF2A90"/>
<stop offset="0.322917" stop-color="#FF2AB7" stop-opacity="0.828125"/>
<stop offset="1" stop-color="#FF2AB7" stop-opacity="0"/>
</radialGradient>
<linearGradient id="paint73_linear" x1="2.09152" y1="14.158" x2="9.0718" y2="4.92423" gradientUnits="userSpaceOnUse">
<stop stop-color="#7C0000"/>
<stop offset="1" stop-color="#AD2E00" stop-opacity="0"/>
</linearGradient>
<linearGradient id="paint74_linear" x1="218.055" y1="475.045" x2="323.595" y2="293.4" gradientUnits="userSpaceOnUse">
<stop stop-color="#C4C4C4"/>
<stop offset="1" stop-color="#C4C4C4" stop-opacity="0"/>
</linearGradient>
<linearGradient id="paint75_linear" x1="13.7558" y1="16.7322" x2="0.482659" y2="-3.37861" gradientUnits="userSpaceOnUse">
<stop stop-color="#FF31C5"/>
<stop offset="1" stop-color="#FF04B0"/>
</linearGradient>
<radialGradient id="paint76_radial" cx="0" cy="0" r="1" gradientUnits="userSpaceOnUse" gradientTransform="translate(9.58484 3.73568) rotate(121.734) scale(11.5627)">
<stop stop-color="#FFB340"/>
<stop offset="0.0001" stop-color="#FFB340"/>
<stop offset="0.838542" stop-color="#FF2AD0"/>
</radialGradient>
<radialGradient id="paint77_radial" cx="0" cy="0" r="1" gradientUnits="userSpaceOnUse" gradientTransform="translate(13.1927 15.4451) rotate(-138.906) scale(14.1966)">
<stop stop-color="#FF2A90"/>
<stop offset="0.322917" stop-color="#FF2AB7" stop-opacity="0.828125"/>
<stop offset="1" stop-color="#FF2AB7" stop-opacity="0"/>
</radialGradient>
<linearGradient id="paint78_linear" x1="2.09152" y1="14.158" x2="9.0718" y2="4.92423" gradientUnits="userSpaceOnUse">
<stop stop-color="#7C0000"/>
<stop offset="1" stop-color="#AD2E00" stop-opacity="0"/>
</linearGradient>
<linearGradient id="paint79_linear" x1="253.044" y1="247.997" x2="243.057" y2="147.061" gradientUnits="userSpaceOnUse">
<stop stop-color="#C4C4C4"/>
<stop offset="1" stop-color="#C4C4C4" stop-opacity="0"/>
</linearGradient>
<linearGradient id="paint80_linear" x1="13.7558" y1="16.7322" x2="0.482659" y2="-3.37861" gradientUnits="userSpaceOnUse">
<stop stop-color="#FF31C5"/>
<stop offset="1" stop-color="#FF04B0"/>
</linearGradient>
<radialGradient id="paint81_radial" cx="0" cy="0" r="1" gradientUnits="userSpaceOnUse" gradientTransform="translate(9.58484 3.73568) rotate(121.734) scale(11.5627)">
<stop stop-color="#FFB340"/>
<stop offset="0.0001" stop-color="#FFB340"/>
<stop offset="0.838542" stop-color="#FF2AD0"/>
</radialGradient>
<radialGradient id="paint82_radial" cx="0" cy="0" r="1" gradientUnits="userSpaceOnUse" gradientTransform="translate(13.1927 15.4451) rotate(-138.906) scale(14.1966)">
<stop stop-color="#FF2A90"/>
<stop offset="0.322917" stop-color="#FF2AB7" stop-opacity="0.828125"/>
<stop offset="1" stop-color="#FF2AB7" stop-opacity="0"/>
</radialGradient>
<linearGradient id="paint83_linear" x1="2.09152" y1="14.158" x2="9.0718" y2="4.92423" gradientUnits="userSpaceOnUse">
<stop stop-color="#7C0000"/>
<stop offset="1" stop-color="#AD2E00" stop-opacity="0"/>
</linearGradient>
</defs>
</svg>
