<svg width="539" height="524" viewBox="0 0 539 524" fill="none" xmlns="http://www.w3.org/2000/svg">
<g filter="url(#filter0_ddii)">
<ellipse rx="154" ry="44.5" transform="matrix(-0.630907 -0.775858 -0.775858 0.630907 391.161 163.558)" fill="url(#paint0_linear)"/>
<ellipse rx="154" ry="44.5" transform="matrix(-0.630907 -0.775858 -0.775858 0.630907 391.161 163.558)" fill="url(#paint1_radial)"/>
<ellipse rx="154" ry="44.5" transform="matrix(-0.630907 -0.775858 -0.775858 0.630907 391.161 163.558)" fill="url(#paint2_radial)" fill-opacity="0.16"/>
<path d="M294.632 44.8513C290.255 48.4108 288.418 55.0144 289.194 64.3099C289.968 73.5658 293.319 85.229 298.966 98.5325C310.255 125.127 330.623 158.06 357.411 191.002C384.199 223.944 412.287 250.601 436.02 267.075C447.893 275.316 458.628 280.975 467.531 283.62C476.473 286.276 483.313 285.823 487.69 282.264C492.067 278.704 493.905 272.101 493.128 262.805C492.355 253.549 489.003 241.886 483.356 228.583C472.068 201.988 451.699 169.056 424.911 136.113C398.123 103.171 370.036 76.5143 346.302 60.0401C334.43 51.7991 323.695 46.14 314.791 43.4953C305.849 40.8394 299.01 41.2917 294.632 44.8513Z" stroke="url(#paint3_radial)" stroke-width="2"/>
<path d="M294.632 44.8513C290.255 48.4108 288.418 55.0144 289.194 64.3099C289.968 73.5658 293.319 85.229 298.966 98.5325C310.255 125.127 330.623 158.06 357.411 191.002C384.199 223.944 412.287 250.601 436.02 267.075C447.893 275.316 458.628 280.975 467.531 283.62C476.473 286.276 483.313 285.823 487.69 282.264C492.067 278.704 493.905 272.101 493.128 262.805C492.355 253.549 489.003 241.886 483.356 228.583C472.068 201.988 451.699 169.056 424.911 136.113C398.123 103.171 370.036 76.5143 346.302 60.0401C334.43 51.7991 323.695 46.14 314.791 43.4953C305.849 40.8394 299.01 41.2917 294.632 44.8513Z" stroke="black" stroke-opacity="0.2" stroke-width="2"/>
</g>
<g filter="url(#filter1_ddii)">
<ellipse cx="147.685" cy="360.254" rx="154" ry="44.5" transform="rotate(-129.117 147.685 360.254)" fill="url(#paint4_linear)"/>
<ellipse cx="147.685" cy="360.254" rx="154" ry="44.5" transform="rotate(-129.117 147.685 360.254)" fill="url(#paint5_radial)"/>
<path d="M51.1564 241.547C55.5338 237.988 62.3733 237.535 71.3151 240.191C80.2189 242.836 90.9536 248.495 102.826 256.736C126.56 273.21 154.647 299.867 181.435 332.809C208.223 365.751 228.592 398.684 239.88 425.279C245.527 438.582 248.879 450.245 249.652 459.501C250.429 468.797 248.591 475.4 244.214 478.96C239.837 482.519 232.997 482.972 224.056 480.316C215.152 477.671 204.417 472.012 192.544 463.771C168.811 447.297 140.723 420.64 113.935 387.698C87.1475 354.756 66.7786 321.823 55.4901 295.228C49.8431 281.925 46.4919 270.262 45.7184 261.006C44.9416 251.71 46.7791 245.107 51.1564 241.547Z" stroke="url(#paint6_radial)" stroke-width="2"/>
<path d="M51.1564 241.547C55.5338 237.988 62.3733 237.535 71.3151 240.191C80.2189 242.836 90.9536 248.495 102.826 256.736C126.56 273.21 154.647 299.867 181.435 332.809C208.223 365.751 228.592 398.684 239.88 425.279C245.527 438.582 248.879 450.245 249.652 459.501C250.429 468.797 248.591 475.4 244.214 478.96C239.837 482.519 232.997 482.972 224.056 480.316C215.152 477.671 204.417 472.012 192.544 463.771C168.811 447.297 140.723 420.64 113.935 387.698C87.1475 354.756 66.7786 321.823 55.4901 295.228C49.8431 281.925 46.4919 270.262 45.7184 261.006C44.9416 251.71 46.7791 245.107 51.1564 241.547Z" stroke="black" stroke-opacity="0.2" stroke-width="2"/>
</g>
<g filter="url(#filter2_i)">
<circle r="70" transform="matrix(-0.630907 -0.775858 -0.775858 0.630907 287.729 246.376)" fill="url(#paint7_linear)"/>
<circle r="70" transform="matrix(-0.630907 -0.775858 -0.775858 0.630907 287.729 246.376)" fill="url(#paint8_radial)"/>
<circle r="70" transform="matrix(-0.630907 -0.775858 -0.775858 0.630907 287.729 246.376)" fill="url(#paint9_radial)"/>
<circle r="70" transform="matrix(-0.630907 -0.775858 -0.775858 0.630907 287.729 246.376)" fill="url(#paint10_radial)" fill-opacity="0.6"/>
<circle r="70" transform="matrix(-0.630907 -0.775858 -0.775858 0.630907 287.729 246.376)" fill="url(#paint11_linear)" fill-opacity="0.6"/>
</g>
<g filter="url(#filter3_i)">
<ellipse rx="23.0827" ry="23.6598" transform="matrix(-0.630907 -0.775858 -0.775858 0.630907 316.615 122.351)" fill="url(#paint12_linear)"/>
<ellipse rx="23.0827" ry="23.6598" transform="matrix(-0.630907 -0.775858 -0.775858 0.630907 316.615 122.351)" fill="url(#paint13_radial)" fill-opacity="0.8"/>
<ellipse rx="23.0827" ry="23.6598" transform="matrix(-0.630907 -0.775858 -0.775858 0.630907 316.615 122.351)" fill="url(#paint14_radial)" fill-opacity="0.6"/>
<ellipse rx="23.0827" ry="23.6598" transform="matrix(-0.630907 -0.775858 -0.775858 0.630907 316.615 122.351)" fill="url(#paint15_linear)" fill-opacity="0.6"/>
</g>
<g filter="url(#filter4_i)">
<circle r="11.8141" transform="matrix(-0.630907 -0.775858 -0.775858 0.630907 432.437 219.568)" fill="url(#paint16_linear)"/>
<circle r="11.8141" transform="matrix(-0.630907 -0.775858 -0.775858 0.630907 432.437 219.568)" fill="url(#paint17_radial)" fill-opacity="0.8"/>
<circle r="11.8141" transform="matrix(-0.630907 -0.775858 -0.775858 0.630907 432.437 219.568)" fill="url(#paint18_radial)" fill-opacity="0.8"/>
<circle r="11.8141" transform="matrix(-0.630907 -0.775858 -0.775858 0.630907 432.437 219.568)" fill="url(#paint19_radial)" fill-opacity="0.6"/>
<circle r="11.8141" transform="matrix(-0.630907 -0.775858 -0.775858 0.630907 432.437 219.568)" fill="url(#paint20_linear)" fill-opacity="0.6"/>
<circle r="11.8141" transform="matrix(-0.630907 -0.775858 -0.775858 0.630907 432.437 219.568)" fill="url(#paint21_radial)" fill-opacity="0.2"/>
<circle r="11.8141" transform="matrix(-0.630907 -0.775858 -0.775858 0.630907 432.437 219.568)" fill="url(#paint22_radial)" fill-opacity="0.7"/>
</g>
<defs>
<filter id="filter0_ddii" x="243.476" y="0" width="295.371" height="327.115" filterUnits="userSpaceOnUse" color-interpolation-filters="sRGB">
<feFlood flood-opacity="0" result="BackgroundImageFix"/>
<feColorMatrix in="SourceAlpha" type="matrix" values="0 0 0 0 0 0 0 0 0 0 0 0 0 0 0 0 0 0 127 0" result="hardAlpha"/>
<feOffset dx="4" dy="4"/>
<feGaussianBlur stdDeviation="6"/>
<feComposite in2="hardAlpha" operator="out"/>
<feColorMatrix type="matrix" values="0 0 0 0 0.2125 0 0 0 0 0.2125 0 0 0 0 0.2125 0 0 0 0.4 0"/>
<feBlend mode="normal" in2="BackgroundImageFix" result="effect1_dropShadow"/>
<feColorMatrix in="SourceAlpha" type="matrix" values="0 0 0 0 0 0 0 0 0 0 0 0 0 0 0 0 0 0 127 0" result="hardAlpha"/>
<feOffset dx="-4" dy="-4"/>
<feGaussianBlur stdDeviation="6"/>
<feComposite in2="hardAlpha" operator="out"/>
<feColorMatrix type="matrix" values="0 0 0 0 0.329167 0 0 0 0 0.329167 0 0 0 0 0.329167 0 0 0 0.1 0"/>
<feBlend mode="normal" in2="effect1_dropShadow" result="effect2_dropShadow"/>
<feBlend mode="normal" in="SourceGraphic" in2="effect2_dropShadow" result="shape"/>
<feColorMatrix in="SourceAlpha" type="matrix" values="0 0 0 0 0 0 0 0 0 0 0 0 0 0 0 0 0 0 127 0" result="hardAlpha"/>
<feOffset dx="10" dy="10"/>
<feGaussianBlur stdDeviation="30"/>
<feComposite in2="hardAlpha" operator="arithmetic" k2="-1" k3="1"/>
<feColorMatrix type="matrix" values="0 0 0 0 0 0 0 0 0 0 0 0 0 0 0 0 0 0 0.25 0"/>
<feBlend mode="normal" in2="shape" result="effect3_innerShadow"/>
<feColorMatrix in="SourceAlpha" type="matrix" values="0 0 0 0 0 0 0 0 0 0 0 0 0 0 0 0 0 0 127 0" result="hardAlpha"/>
<feOffset dx="12" dy="12"/>
<feGaussianBlur stdDeviation="20"/>
<feComposite in2="hardAlpha" operator="arithmetic" k2="-1" k3="1"/>
<feColorMatrix type="matrix" values="0 0 0 0 0 0 0 0 0 0 0 0 0 0 0 0 0 0 0.5 0"/>
<feBlend mode="normal" in2="effect3_innerShadow" result="effect4_innerShadow"/>
</filter>
<filter id="filter1_ddii" x="0" y="196.696" width="295.371" height="327.115" filterUnits="userSpaceOnUse" color-interpolation-filters="sRGB">
<feFlood flood-opacity="0" result="BackgroundImageFix"/>
<feColorMatrix in="SourceAlpha" type="matrix" values="0 0 0 0 0 0 0 0 0 0 0 0 0 0 0 0 0 0 127 0" result="hardAlpha"/>
<feOffset dx="4" dy="4"/>
<feGaussianBlur stdDeviation="6"/>
<feComposite in2="hardAlpha" operator="out"/>
<feColorMatrix type="matrix" values="0 0 0 0 0.2125 0 0 0 0 0.2125 0 0 0 0 0.2125 0 0 0 0.4 0"/>
<feBlend mode="normal" in2="BackgroundImageFix" result="effect1_dropShadow"/>
<feColorMatrix in="SourceAlpha" type="matrix" values="0 0 0 0 0 0 0 0 0 0 0 0 0 0 0 0 0 0 127 0" result="hardAlpha"/>
<feOffset dx="-4" dy="-4"/>
<feGaussianBlur stdDeviation="6"/>
<feComposite in2="hardAlpha" operator="out"/>
<feColorMatrix type="matrix" values="0 0 0 0 0.329167 0 0 0 0 0.329167 0 0 0 0 0.329167 0 0 0 0.1 0"/>
<feBlend mode="normal" in2="effect1_dropShadow" result="effect2_dropShadow"/>
<feBlend mode="normal" in="SourceGraphic" in2="effect2_dropShadow" result="shape"/>
<feColorMatrix in="SourceAlpha" type="matrix" values="0 0 0 0 0 0 0 0 0 0 0 0 0 0 0 0 0 0 127 0" result="hardAlpha"/>
<feOffset dx="10" dy="10"/>
<feGaussianBlur stdDeviation="30"/>
<feComposite in2="hardAlpha" operator="arithmetic" k2="-1" k3="1"/>
<feColorMatrix type="matrix" values="0 0 0 0 0 0 0 0 0 0 0 0 0 0 0 0 0 0 0.25 0"/>
<feBlend mode="normal" in2="shape" result="effect3_innerShadow"/>
<feColorMatrix in="SourceAlpha" type="matrix" values="0 0 0 0 0 0 0 0 0 0 0 0 0 0 0 0 0 0 127 0" result="hardAlpha"/>
<feOffset dx="12" dy="12"/>
<feGaussianBlur stdDeviation="20"/>
<feComposite in2="hardAlpha" operator="arithmetic" k2="-1" k3="1"/>
<feColorMatrix type="matrix" values="0 0 0 0 0 0 0 0 0 0 0 0 0 0 0 0 0 0 0.5 0"/>
<feBlend mode="normal" in2="effect3_innerShadow" result="effect4_innerShadow"/>
</filter>
<filter id="filter2_i" x="189.255" y="140.903" width="196.947" height="203.947" filterUnits="userSpaceOnUse" color-interpolation-filters="sRGB">
<feFlood flood-opacity="0" result="BackgroundImageFix"/>
<feBlend mode="normal" in="SourceGraphic" in2="BackgroundImageFix" result="shape"/>
<feColorMatrix in="SourceAlpha" type="matrix" values="0 0 0 0 0 0 0 0 0 0 0 0 0 0 0 0 0 0 127 0" result="hardAlpha"/>
<feOffset dy="-7"/>
<feGaussianBlur stdDeviation="33"/>
<feComposite in2="hardAlpha" operator="arithmetic" k2="-1" k3="1"/>
<feColorMatrix type="matrix" values="0 0 0 0 0 0 0 0 0 0.174417 0 0 0 0 0.379167 0 0 0 0.14 0"/>
<feBlend mode="normal" in2="shape" result="effect1_innerShadow"/>
</filter>
<filter id="filter3_i" x="284.182" y="92.036" width="55.8655" height="53.6295" filterUnits="userSpaceOnUse" color-interpolation-filters="sRGB">
<feFlood flood-opacity="0" result="BackgroundImageFix"/>
<feBlend mode="normal" in="SourceGraphic" in2="BackgroundImageFix" result="shape"/>
<feColorMatrix in="SourceAlpha" type="matrix" values="0 0 0 0 0 0 0 0 0 0 0 0 0 0 0 0 0 0 127 0" result="hardAlpha"/>
<feOffset dx="-9" dy="-7"/>
<feGaussianBlur stdDeviation="33"/>
<feComposite in2="hardAlpha" operator="arithmetic" k2="-1" k3="1"/>
<feColorMatrix type="matrix" values="0 0 0 0 0.55 0 0 0 0 0.00687498 0 0 0 0 0.00687498 0 0 0 0.37 0"/>
<feBlend mode="normal" in2="shape" result="effect1_innerShadow"/>
</filter>
<filter id="filter4_i" x="415.817" y="195.949" width="33.2394" height="40.2394" filterUnits="userSpaceOnUse" color-interpolation-filters="sRGB">
<feFlood flood-opacity="0" result="BackgroundImageFix"/>
<feBlend mode="normal" in="SourceGraphic" in2="BackgroundImageFix" result="shape"/>
<feColorMatrix in="SourceAlpha" type="matrix" values="0 0 0 0 0 0 0 0 0 0 0 0 0 0 0 0 0 0 127 0" result="hardAlpha"/>
<feOffset dy="-7"/>
<feGaussianBlur stdDeviation="33"/>
<feComposite in2="hardAlpha" operator="arithmetic" k2="-1" k3="1"/>
<feColorMatrix type="matrix" values="0 0 0 0 1 0 0 0 0 0.436333 0 0 0 0 0.258333 0 0 0 0.37 0"/>
<feBlend mode="normal" in2="shape" result="effect1_innerShadow"/>
</filter>
<linearGradient id="paint0_linear" x1="154" y1="25.0264" x2="154" y2="168.767" gradientUnits="userSpaceOnUse">
<stop offset="0.142259" stop-color="#0C0C0C"/>
<stop offset="0.531381" stop-color="#181818"/>
<stop offset="1"/>
</linearGradient>
<radialGradient id="paint1_radial" cx="0" cy="0" r="1" gradientUnits="userSpaceOnUse" gradientTransform="translate(154 85.3463) rotate(90) scale(43.6357 151.009)">
<stop/>
<stop offset="1" stop-opacity="0"/>
</radialGradient>
<radialGradient id="paint2_radial" cx="0" cy="0" r="1" gradientUnits="userSpaceOnUse" gradientTransform="translate(176.331 -30.262) rotate(75.3411) scale(124.072 444.413)">
<stop stop-color="#50E0FF" stop-opacity="0"/>
<stop offset="0.536251" stop-color="#50E0FF" stop-opacity="0.66"/>
<stop offset="0.996324" stop-color="#50E0FF" stop-opacity="0.15"/>
</radialGradient>
<radialGradient id="paint3_radial" cx="0" cy="0" r="1" gradientUnits="userSpaceOnUse" gradientTransform="translate(403.564 79.4218) rotate(113.456) scale(259.792 648.539)">
<stop stop-color="#50E0FF"/>
<stop offset="1" stop-opacity="0"/>
</radialGradient>
<linearGradient id="paint4_linear" x1="147.685" y1="340.78" x2="147.685" y2="484.521" gradientUnits="userSpaceOnUse">
<stop offset="0.142259" stop-color="#0C0C0C"/>
<stop offset="0.531381" stop-color="#181818"/>
<stop offset="1"/>
</linearGradient>
<radialGradient id="paint5_radial" cx="0" cy="0" r="1" gradientUnits="userSpaceOnUse" gradientTransform="translate(147.685 401.1) rotate(90) scale(43.6357 151.009)">
<stop/>
<stop offset="1" stop-opacity="0"/>
</radialGradient>
<radialGradient id="paint6_radial" cx="0" cy="0" r="1" gradientUnits="userSpaceOnUse" gradientTransform="translate(137.49 460.997) rotate(-41.3945) scale(239.545 600.094)">
<stop stop-color="#BBBBBB"/>
<stop offset="1" stop-opacity="0"/>
</radialGradient>
<linearGradient id="paint7_linear" x1="128.71" y1="156.559" x2="4.51613" y2="-31.6129" gradientUnits="userSpaceOnUse">
<stop stop-color="#5CF5FF"/>
<stop offset="1" stop-color="#5CF5FF"/>
</linearGradient>
<radialGradient id="paint8_radial" cx="0" cy="0" r="1" gradientUnits="userSpaceOnUse" gradientTransform="translate(87.3118 39.8925) rotate(132.51) scale(61.2644)">
<stop offset="0.135417" stop-color="white"/>
<stop offset="1" stop-color="white" stop-opacity="0.27"/>
</radialGradient>
<radialGradient id="paint9_radial" cx="0" cy="0" r="1" gradientUnits="userSpaceOnUse" gradientTransform="translate(89.5699 39.8925) rotate(141.491) scale(89.456)">
<stop stop-color="white"/>
<stop offset="0.338542" stop-color="white"/>
<stop offset="1" stop-color="white" stop-opacity="0"/>
</radialGradient>
<radialGradient id="paint10_radial" cx="0" cy="0" r="1" gradientUnits="userSpaceOnUse" gradientTransform="translate(123.441 144.516) rotate(-138.906) scale(132.834)">
<stop stop-color="#5CF5FF"/>
<stop offset="0.322917" stop-color="#5CF5FF" stop-opacity="0.828125"/>
<stop offset="1" stop-color="#5CF5FF" stop-opacity="0"/>
</radialGradient>
<linearGradient id="paint11_linear" x1="19.5699" y1="132.473" x2="57.9566" y2="73.7632" gradientUnits="userSpaceOnUse">
<stop stop-color="#5CF5FF"/>
<stop offset="1" stop-color="#5CF5FF" stop-opacity="0"/>
</linearGradient>
<linearGradient id="paint12_linear" x1="42.4425" y1="52.9166" x2="0.0668834" y2="-9.72287" gradientUnits="userSpaceOnUse">
<stop stop-color="#FF31C5"/>
<stop offset="1" stop-color="#FF04B0"/>
</linearGradient>
<radialGradient id="paint13_radial" cx="0" cy="0" r="1" gradientUnits="userSpaceOnUse" gradientTransform="translate(29.5733 11.8143) rotate(121.105) scale(36.3231 35.916)">
<stop stop-color="#FFB340"/>
<stop offset="0.0001" stop-color="#FFB340"/>
<stop offset="0.838542" stop-color="#FF2AD0"/>
</radialGradient>
<radialGradient id="paint14_radial" cx="0" cy="0" r="1" gradientUnits="userSpaceOnUse" gradientTransform="translate(40.7051 48.8461) rotate(-138.204) scale(44.2789 44.4144)">
<stop stop-color="#FF2A90"/>
<stop offset="0.322917" stop-color="#FF2AB7" stop-opacity="0.828125"/>
<stop offset="1" stop-color="#FF2AB7" stop-opacity="0"/>
</radialGradient>
<linearGradient id="paint15_linear" x1="6.45324" y1="44.7756" x2="28.6717" y2="16.1011" gradientUnits="userSpaceOnUse">
<stop stop-color="#7C0000"/>
<stop offset="1" stop-color="#AD2E00" stop-opacity="0"/>
</linearGradient>
<linearGradient id="paint16_linear" x1="21.7228" y1="26.423" x2="0.762203" y2="-5.33542" gradientUnits="userSpaceOnUse">
<stop stop-color="#FFE177"/>
<stop offset="1" stop-color="#FF975C"/>
</linearGradient>
<radialGradient id="paint17_radial" cx="0" cy="0" r="1" gradientUnits="userSpaceOnUse" gradientTransform="translate(14.7359 6.73279) rotate(132.51) scale(10.3398)">
<stop stop-color="white"/>
<stop offset="1" stop-color="white" stop-opacity="0.27"/>
</radialGradient>
<radialGradient id="paint18_radial" cx="0" cy="0" r="1" gradientUnits="userSpaceOnUse" gradientTransform="translate(15.117 6.73279) rotate(141.491) scale(15.0978)">
<stop stop-color="white"/>
<stop offset="0.234375" stop-color="white"/>
<stop offset="1" stop-color="white" stop-opacity="0"/>
</radialGradient>
<radialGradient id="paint19_radial" cx="0" cy="0" r="1" gradientUnits="userSpaceOnUse" gradientTransform="translate(20.8335 24.3905) rotate(-138.906) scale(22.4188)">
<stop stop-color="#FFDB5C"/>
<stop offset="0.322917" stop-color="#FFDB5C" stop-opacity="0.828125"/>
<stop offset="1" stop-color="#FFDB5C" stop-opacity="0"/>
</radialGradient>
<linearGradient id="paint20_linear" x1="3.30288" y1="22.3579" x2="9.78154" y2="12.4493" gradientUnits="userSpaceOnUse">
<stop stop-color="#FFB526"/>
<stop offset="1" stop-color="#FFAF37" stop-opacity="0"/>
</linearGradient>
<radialGradient id="paint21_radial" cx="0" cy="0" r="1" gradientUnits="userSpaceOnUse" gradientTransform="translate(16.3873 32.1395) rotate(-106.289) scale(20.3813)">
<stop stop-color="#747474"/>
<stop offset="1" stop-opacity="0"/>
</radialGradient>
<radialGradient id="paint22_radial" cx="0" cy="0" r="1" gradientUnits="userSpaceOnUse" gradientTransform="translate(15.3636 4.5407) rotate(102.857) scale(31.1867)">
<stop stop-color="#160000" stop-opacity="0"/>
<stop offset="0.955812" stop-color="#FF4861"/>
</radialGradient>
</defs>
</svg>
