<svg width="293" height="921" viewBox="0 0 293 921" fill="none" xmlns="http://www.w3.org/2000/svg">
<path d="M290 0V0C290 38.1741 259.054 69.1202 220.88 69.1202H40.108C19.6138 69.1202 3 85.7341 3 106.228V106.228C3 126.722 19.6138 143.336 40.108 143.336H252.23C273.09 143.336 290 160.246 290 181.106V181.106C290 201.966 273.09 218.876 252.23 218.876H40.4314C19.7586 218.876 3 235.634 3 256.307V256.307C3 276.98 19.7586 293.738 40.4314 293.738H252.715C273.307 293.738 290 310.431 290 331.023V331.023C290 351.615 273.307 368.308 252.715 368.308H40.7697C19.9101 368.308 3 385.218 3 406.077V406.077C3 426.937 19.9101 443.847 40.7697 443.847H252.536C273.227 443.847 290 460.62 290 481.311V481.311C290 502.002 273.227 518.776 252.536 518.776H40.5931C19.831 518.776 3 535.607 3 556.369V556.369C3 577.131 19.831 593.962 40.5931 593.962H242.988C268.952 593.962 290 615.01 290 640.974V640.974C290 666.938 268.952 687.986 242.988 687.986H40.8984C19.9677 687.986 3 704.954 3 725.885V725.885C3 746.816 19.9677 763.783 40.8984 763.783H252.341C273.14 763.783 290 780.644 290 801.442V801.442C290 822.241 273.14 839.101 252.341 839.101H84.8988C39.6674 839.101 3 875.769 3 921V921" stroke="url(#paint0_linear)" stroke-width="5"/>
<defs>
<linearGradient id="paint0_linear" x1="144.056" y1="0.275509" x2="145.178" y2="855.002" gradientUnits="userSpaceOnUse">
<stop stop-color="white" stop-opacity="0"/>
<stop offset="0.505208" stop-color="white"/>
<stop offset="1" stop-color="white" stop-opacity="0"/>
</linearGradient>
</defs>
</svg>
