<svg width="1440" height="548" viewBox="0 0 1440 548" fill="none" xmlns="http://www.w3.org/2000/svg">
<g opacity="0.626" filter="url(#filter0_dif)">
<ellipse rx="41.2212" ry="9.387" transform="matrix(-1 0 0 1 1392.78 71.5872)" fill="url(#paint0_radial)"/>
<path d="M1392.78 82.4742C1381.32 82.4742 1370.9 81.4176 1363.3 79.6874C1359.51 78.825 1356.34 77.7772 1354.09 76.5618C1352.96 75.9546 1351.99 75.268 1351.28 74.4816C1350.56 73.6863 1350.06 72.7119 1350.06 71.5872C1350.06 70.4625 1350.56 69.4881 1351.28 68.6928C1351.99 67.9064 1352.96 67.2198 1354.09 66.6126C1356.34 65.3972 1359.51 64.3494 1363.3 63.487C1370.9 61.7568 1381.32 60.7002 1392.78 60.7002C1404.24 60.7002 1414.66 61.7568 1422.26 63.487C1426.05 64.3494 1429.21 65.3972 1431.47 66.6126C1432.6 67.2198 1433.57 67.9064 1434.28 68.6928C1434.99 69.4881 1435.5 70.4625 1435.5 71.5872C1435.5 72.7119 1434.99 73.6863 1434.28 74.4816C1433.57 75.268 1432.6 75.9546 1431.47 76.5618C1429.21 77.7772 1426.05 78.825 1422.26 79.6874C1414.66 81.4176 1404.24 82.4742 1392.78 82.4742Z" stroke="url(#paint1_radial)" stroke-width="3"/>
</g>
<g filter="url(#filter1_i)">
<circle r="27.7529" transform="matrix(-0.999991 -0.00425507 -0.00425507 0.999991 1392.82 47.8706)" fill="url(#paint2_linear)"/>
<circle r="27.7529" transform="matrix(-0.999991 -0.00425507 -0.00425507 0.999991 1392.82 47.8706)" fill="url(#paint3_radial)" fill-opacity="0.8"/>
<circle r="27.7529" transform="matrix(-0.999991 -0.00425507 -0.00425507 0.999991 1392.82 47.8706)" fill="url(#paint4_radial)" fill-opacity="0.6"/>
<circle r="27.7529" transform="matrix(-0.999991 -0.00425507 -0.00425507 0.999991 1392.82 47.8706)" fill="url(#paint5_linear)" fill-opacity="0.6"/>
</g>
<g opacity="0.626" filter="url(#filter2_dif)">
<ellipse rx="74.1981" ry="16.8966" transform="matrix(-1 0 0 1 1288.35 119.664)" fill="url(#paint6_radial)"/>
<path d="M1288.35 138.06C1267.78 138.06 1249.12 136.163 1235.55 133.074C1228.78 131.532 1223.2 129.675 1219.27 127.561C1217.31 126.505 1215.69 125.347 1214.55 124.072C1213.39 122.787 1212.65 121.307 1212.65 119.664C1212.65 118.021 1213.39 116.54 1214.55 115.256C1215.69 113.981 1217.31 112.822 1219.27 111.766C1223.2 109.652 1228.78 107.795 1235.55 106.253C1249.12 103.164 1267.78 101.267 1288.35 101.267C1308.92 101.267 1327.59 103.164 1341.15 106.253C1347.92 107.795 1353.5 109.652 1357.43 111.766C1359.39 112.822 1361.01 113.981 1362.16 115.256C1363.31 116.54 1364.05 118.021 1364.05 119.664C1364.05 121.307 1363.31 122.787 1362.16 124.072C1361.01 125.347 1359.39 126.505 1357.43 127.561C1353.5 129.675 1347.92 131.532 1341.15 133.074C1327.59 136.163 1308.92 138.06 1288.35 138.06Z" stroke="url(#paint7_radial)" stroke-width="3"/>
</g>
<g filter="url(#filter3_i)">
<circle r="49.9552" transform="matrix(-0.999991 -0.00425507 -0.00425507 0.999991 1288.42 76.9738)" fill="url(#paint8_linear)"/>
<circle r="49.9552" transform="matrix(-0.999991 -0.00425507 -0.00425507 0.999991 1288.42 76.9738)" fill="url(#paint9_radial)" fill-opacity="0.8"/>
<circle r="49.9552" transform="matrix(-0.999991 -0.00425507 -0.00425507 0.999991 1288.42 76.9738)" fill="url(#paint10_radial)" fill-opacity="0.6"/>
<circle r="49.9552" transform="matrix(-0.999991 -0.00425507 -0.00425507 0.999991 1288.42 76.9738)" fill="url(#paint11_linear)" fill-opacity="0.6"/>
</g>
<g opacity="0.626" filter="url(#filter4_dif)">
<ellipse rx="107.175" ry="24.4062" transform="matrix(-1 0 0 1 1117.97 186.638)" fill="url(#paint12_radial)"/>
<path d="M1117.97 212.544C1088.3 212.544 1061.39 209.806 1041.85 205.358C1032.1 203.137 1024.1 200.471 1018.51 197.459C1015.71 195.953 1013.44 194.323 1011.86 192.559C1010.26 190.786 1009.3 188.799 1009.3 186.638C1009.3 184.476 1010.26 182.49 1011.86 180.717C1013.44 178.952 1015.71 177.323 1018.51 175.817C1024.1 172.805 1032.1 170.139 1041.85 167.918C1061.39 163.469 1088.3 160.732 1117.97 160.732C1147.64 160.732 1174.56 163.469 1194.09 167.918C1203.84 170.139 1211.84 172.805 1217.44 175.817C1220.23 177.323 1222.5 178.952 1224.08 180.717C1225.68 182.49 1226.65 184.476 1226.65 186.638C1226.65 188.799 1225.68 190.786 1224.08 192.559C1222.5 194.323 1220.23 195.953 1217.44 197.459C1211.84 200.471 1203.84 203.137 1194.09 205.358C1174.56 209.806 1147.64 212.544 1117.97 212.544Z" stroke="url(#paint13_radial)" stroke-width="3"/>
</g>
<g filter="url(#filter5_i)">
<circle r="72.1574" transform="matrix(-0.999991 -0.00425507 -0.00425507 0.999991 1118.07 124.975)" fill="url(#paint14_linear)"/>
<circle r="72.1574" transform="matrix(-0.999991 -0.00425507 -0.00425507 0.999991 1118.07 124.975)" fill="url(#paint15_radial)" fill-opacity="0.8"/>
<circle r="72.1574" transform="matrix(-0.999991 -0.00425507 -0.00425507 0.999991 1118.07 124.975)" fill="url(#paint16_radial)" fill-opacity="0.6"/>
<circle r="72.1574" transform="matrix(-0.999991 -0.00425507 -0.00425507 0.999991 1118.07 124.975)" fill="url(#paint17_linear)" fill-opacity="0.6"/>
</g>
<g opacity="0.626" filter="url(#filter6_dif)">
<ellipse rx="140.152" ry="31.9158" transform="matrix(-1 0 0 1 881.636 260.983)" fill="url(#paint18_radial)"/>
<path d="M881.636 294.399C842.857 294.399 807.702 290.821 782.201 285.014C769.462 282.113 759.051 278.638 751.787 274.727C748.156 272.772 745.24 270.671 743.216 268.418C741.183 266.156 739.984 263.663 739.984 260.983C739.984 258.303 741.183 255.81 743.216 253.548C745.24 251.295 748.156 249.194 751.787 247.239C759.051 243.329 769.462 239.854 782.201 236.953C807.702 231.146 842.857 227.567 881.636 227.567C920.416 227.567 955.571 231.146 981.072 236.953C993.81 239.854 1004.22 243.329 1011.49 247.239C1015.12 249.194 1018.03 251.295 1020.06 253.548C1022.09 255.81 1023.29 258.303 1023.29 260.983C1023.29 263.663 1022.09 266.156 1020.06 268.418C1018.03 270.671 1015.12 272.772 1011.49 274.727C1004.22 278.638 993.81 282.113 981.072 285.014C955.571 290.821 920.416 294.399 881.636 294.399Z" stroke="url(#paint19_radial)" stroke-width="3"/>
</g>
<g filter="url(#filter7_i)">
<circle r="94.3597" transform="matrix(-0.999991 -0.00425507 -0.00425507 0.999991 881.765 180.347)" fill="url(#paint20_linear)"/>
<circle r="94.3597" transform="matrix(-0.999991 -0.00425507 -0.00425507 0.999991 881.765 180.347)" fill="url(#paint21_radial)" fill-opacity="0.8"/>
<circle r="94.3597" transform="matrix(-0.999991 -0.00425507 -0.00425507 0.999991 881.765 180.347)" fill="url(#paint22_radial)" fill-opacity="0.6"/>
<circle r="94.3597" transform="matrix(-0.999991 -0.00425507 -0.00425507 0.999991 881.765 180.347)" fill="url(#paint23_linear)" fill-opacity="0.6"/>
</g>
<g opacity="0.626" filter="url(#filter8_dif)">
<ellipse rx="173.129" ry="39.4254" transform="matrix(-1 0 0 1 579.349 342.7)" fill="url(#paint24_radial)"/>
<path d="M579.349 383.625C531.463 383.625 488.064 379.206 456.595 372.04C440.873 368.46 428.046 364.176 419.114 359.366C414.649 356.962 411.085 354.39 408.621 351.648C406.15 348.897 404.72 345.898 404.72 342.7C404.72 339.501 406.15 336.502 408.621 333.751C411.085 331.01 414.649 328.437 419.114 326.033C428.046 321.223 440.873 316.939 456.595 313.359C488.064 306.193 531.463 301.774 579.349 301.774C627.235 301.774 670.634 306.193 702.102 313.359C717.824 316.939 730.651 321.223 739.583 326.033C744.048 328.437 747.612 331.01 750.076 333.751C752.548 336.502 753.978 339.501 753.978 342.7C753.978 345.898 752.548 348.897 750.076 351.648C747.612 354.39 744.048 356.962 739.583 359.366C730.651 364.176 717.824 368.46 702.102 372.04C670.634 379.206 627.235 383.625 579.349 383.625Z" stroke="url(#paint25_radial)" stroke-width="3"/>
</g>
<g filter="url(#filter9_i)">
<circle r="116.562" transform="matrix(-0.999991 -0.00425507 -0.00425507 0.999991 579.508 243.09)" fill="url(#paint26_linear)"/>
<circle r="116.562" transform="matrix(-0.999991 -0.00425507 -0.00425507 0.999991 579.508 243.09)" fill="url(#paint27_radial)" fill-opacity="0.8"/>
<circle r="116.562" transform="matrix(-0.999991 -0.00425507 -0.00425507 0.999991 579.508 243.09)" fill="url(#paint28_radial)" fill-opacity="0.6"/>
<circle r="116.562" transform="matrix(-0.999991 -0.00425507 -0.00425507 0.999991 579.508 243.09)" fill="url(#paint29_linear)" fill-opacity="0.6"/>
</g>
<g opacity="0.626" filter="url(#filter10_dif)">
<ellipse rx="206.106" ry="47.0917" transform="matrix(-1 0 0 1 211.106 430.188)" fill="url(#paint30_radial)"/>
<path d="M211.106 478.78C154.114 478.78 102.47 473.503 65.0332 464.949C46.327 460.675 31.0856 455.565 20.4843 449.838C15.1845 446.975 10.9731 443.921 8.07031 440.68C5.15945 437.429 3.50037 433.914 3.50037 430.188C3.50037 426.462 5.15945 422.947 8.07031 419.697C10.9731 416.456 15.1845 413.401 20.4843 410.538C31.0856 404.812 46.327 399.701 65.0332 395.427C102.47 386.874 154.114 381.597 211.106 381.597C268.099 381.597 319.743 386.874 357.179 395.427C375.885 399.701 391.127 404.812 401.728 410.538C407.028 413.401 411.239 416.456 414.142 419.697C417.053 422.947 418.712 426.462 418.712 430.188C418.712 433.914 417.053 437.429 414.142 440.68C411.239 443.921 407.028 446.975 401.728 449.838C391.127 455.565 375.885 460.675 357.179 464.949C319.743 473.503 268.099 478.78 211.106 478.78Z" stroke="url(#paint31_radial)" stroke-width="3"/>
</g>
<g filter="url(#filter11_i)">
<ellipse rx="138.764" ry="139.227" transform="matrix(-0.999991 -0.00426928 -0.00424092 0.999991 211.292 311.21)" fill="url(#paint32_linear)"/>
<ellipse rx="138.764" ry="139.227" transform="matrix(-0.999991 -0.00426928 -0.00424092 0.999991 211.292 311.21)" fill="url(#paint33_radial)" fill-opacity="0.8"/>
<ellipse rx="138.764" ry="139.227" transform="matrix(-0.999991 -0.00426928 -0.00424092 0.999991 211.292 311.21)" fill="url(#paint34_radial)" fill-opacity="0.6"/>
<ellipse rx="138.764" ry="139.227" transform="matrix(-0.999991 -0.00426928 -0.00424092 0.999991 211.292 311.21)" fill="url(#paint35_linear)" fill-opacity="0.6"/>
</g>
<defs>
<filter id="filter0_dif" x="1320.56" y="0.200195" width="214.442" height="150.774" filterUnits="userSpaceOnUse" color-interpolation-filters="sRGB">
<feFlood flood-opacity="0" result="BackgroundImageFix"/>
<feColorMatrix in="SourceAlpha" type="matrix" values="0 0 0 0 0 0 0 0 0 0 0 0 0 0 0 0 0 0 127 0" result="hardAlpha"/>
<feMorphology radius="10" operator="dilate" in="SourceAlpha" result="effect1_dropShadow"/>
<feOffset dx="35" dy="4"/>
<feGaussianBlur stdDeviation="26.5"/>
<feComposite in2="hardAlpha" operator="out"/>
<feColorMatrix type="matrix" values="0 0 0 0 0.827451 0 0 0 0 0.180392 0 0 0 0 0.372549 0 0 0 0.15 0"/>
<feBlend mode="normal" in2="BackgroundImageFix" result="effect1_dropShadow"/>
<feBlend mode="normal" in="SourceGraphic" in2="effect1_dropShadow" result="shape"/>
<feColorMatrix in="SourceAlpha" type="matrix" values="0 0 0 0 0 0 0 0 0 0 0 0 0 0 0 0 0 0 127 0" result="hardAlpha"/>
<feOffset dx="14" dy="25"/>
<feGaussianBlur stdDeviation="13"/>
<feComposite in2="hardAlpha" operator="arithmetic" k2="-1" k3="1"/>
<feColorMatrix type="matrix" values="0 0 0 0 0.021441 0 0 0 0 0.0506852 0 0 0 0 0.0541667 0 0 0 1 0"/>
<feBlend mode="normal" in2="shape" result="effect2_innerShadow"/>
<feGaussianBlur stdDeviation="1" result="effect3_foregroundBlur"/>
</filter>
<filter id="filter1_i" x="1356.06" y="13.1177" width="64.5059" height="62.5059" filterUnits="userSpaceOnUse" color-interpolation-filters="sRGB">
<feFlood flood-opacity="0" result="BackgroundImageFix"/>
<feBlend mode="normal" in="SourceGraphic" in2="BackgroundImageFix" result="shape"/>
<feColorMatrix in="SourceAlpha" type="matrix" values="0 0 0 0 0 0 0 0 0 0 0 0 0 0 0 0 0 0 127 0" result="hardAlpha"/>
<feOffset dx="-9" dy="-7"/>
<feGaussianBlur stdDeviation="33"/>
<feComposite in2="hardAlpha" operator="arithmetic" k2="-1" k3="1"/>
<feColorMatrix type="matrix" values="0 0 0 0 0.55 0 0 0 0 0.00687498 0 0 0 0 0.00687498 0 0 0 0.37 0"/>
<feBlend mode="normal" in2="shape" result="effect1_innerShadow"/>
</filter>
<filter id="filter2_dif" x="1183.15" y="40.7671" width="280.396" height="165.793" filterUnits="userSpaceOnUse" color-interpolation-filters="sRGB">
<feFlood flood-opacity="0" result="BackgroundImageFix"/>
<feColorMatrix in="SourceAlpha" type="matrix" values="0 0 0 0 0 0 0 0 0 0 0 0 0 0 0 0 0 0 127 0" result="hardAlpha"/>
<feMorphology radius="10" operator="dilate" in="SourceAlpha" result="effect1_dropShadow"/>
<feOffset dx="35" dy="4"/>
<feGaussianBlur stdDeviation="26.5"/>
<feComposite in2="hardAlpha" operator="out"/>
<feColorMatrix type="matrix" values="0 0 0 0 0.827451 0 0 0 0 0.180392 0 0 0 0 0.372549 0 0 0 0.15 0"/>
<feBlend mode="normal" in2="BackgroundImageFix" result="effect1_dropShadow"/>
<feBlend mode="normal" in="SourceGraphic" in2="effect1_dropShadow" result="shape"/>
<feColorMatrix in="SourceAlpha" type="matrix" values="0 0 0 0 0 0 0 0 0 0 0 0 0 0 0 0 0 0 127 0" result="hardAlpha"/>
<feOffset dx="14" dy="25"/>
<feGaussianBlur stdDeviation="13"/>
<feComposite in2="hardAlpha" operator="arithmetic" k2="-1" k3="1"/>
<feColorMatrix type="matrix" values="0 0 0 0 0.021441 0 0 0 0 0.0506852 0 0 0 0 0.0541667 0 0 0 1 0"/>
<feBlend mode="normal" in2="shape" result="effect2_innerShadow"/>
<feGaussianBlur stdDeviation="1" result="effect3_foregroundBlur"/>
</filter>
<filter id="filter3_i" x="1229.46" y="20.0186" width="108.91" height="106.91" filterUnits="userSpaceOnUse" color-interpolation-filters="sRGB">
<feFlood flood-opacity="0" result="BackgroundImageFix"/>
<feBlend mode="normal" in="SourceGraphic" in2="BackgroundImageFix" result="shape"/>
<feColorMatrix in="SourceAlpha" type="matrix" values="0 0 0 0 0 0 0 0 0 0 0 0 0 0 0 0 0 0 127 0" result="hardAlpha"/>
<feOffset dx="-9" dy="-7"/>
<feGaussianBlur stdDeviation="33"/>
<feComposite in2="hardAlpha" operator="arithmetic" k2="-1" k3="1"/>
<feColorMatrix type="matrix" values="0 0 0 0 0.55 0 0 0 0 0.00687498 0 0 0 0 0.00687498 0 0 0 0.37 0"/>
<feBlend mode="normal" in2="shape" result="effect1_innerShadow"/>
</filter>
<filter id="filter4_dif" x="979.797" y="100.232" width="346.35" height="180.812" filterUnits="userSpaceOnUse" color-interpolation-filters="sRGB">
<feFlood flood-opacity="0" result="BackgroundImageFix"/>
<feColorMatrix in="SourceAlpha" type="matrix" values="0 0 0 0 0 0 0 0 0 0 0 0 0 0 0 0 0 0 127 0" result="hardAlpha"/>
<feMorphology radius="10" operator="dilate" in="SourceAlpha" result="effect1_dropShadow"/>
<feOffset dx="35" dy="4"/>
<feGaussianBlur stdDeviation="26.5"/>
<feComposite in2="hardAlpha" operator="out"/>
<feColorMatrix type="matrix" values="0 0 0 0 0.827451 0 0 0 0 0.180392 0 0 0 0 0.372549 0 0 0 0.15 0"/>
<feBlend mode="normal" in2="BackgroundImageFix" result="effect1_dropShadow"/>
<feBlend mode="normal" in="SourceGraphic" in2="effect1_dropShadow" result="shape"/>
<feColorMatrix in="SourceAlpha" type="matrix" values="0 0 0 0 0 0 0 0 0 0 0 0 0 0 0 0 0 0 127 0" result="hardAlpha"/>
<feOffset dx="14" dy="25"/>
<feGaussianBlur stdDeviation="13"/>
<feComposite in2="hardAlpha" operator="arithmetic" k2="-1" k3="1"/>
<feColorMatrix type="matrix" values="0 0 0 0 0.021441 0 0 0 0 0.0506852 0 0 0 0 0.0541667 0 0 0 1 0"/>
<feBlend mode="normal" in2="shape" result="effect2_innerShadow"/>
<feGaussianBlur stdDeviation="1" result="effect3_foregroundBlur"/>
</filter>
<filter id="filter5_i" x="1036.91" y="45.8176" width="153.314" height="151.315" filterUnits="userSpaceOnUse" color-interpolation-filters="sRGB">
<feFlood flood-opacity="0" result="BackgroundImageFix"/>
<feBlend mode="normal" in="SourceGraphic" in2="BackgroundImageFix" result="shape"/>
<feColorMatrix in="SourceAlpha" type="matrix" values="0 0 0 0 0 0 0 0 0 0 0 0 0 0 0 0 0 0 127 0" result="hardAlpha"/>
<feOffset dx="-9" dy="-7"/>
<feGaussianBlur stdDeviation="33"/>
<feComposite in2="hardAlpha" operator="arithmetic" k2="-1" k3="1"/>
<feColorMatrix type="matrix" values="0 0 0 0 0.55 0 0 0 0 0.00687498 0 0 0 0 0.00687498 0 0 0 0.37 0"/>
<feBlend mode="normal" in2="shape" result="effect1_innerShadow"/>
</filter>
<filter id="filter6_dif" x="710.484" y="167.067" width="412.304" height="195.832" filterUnits="userSpaceOnUse" color-interpolation-filters="sRGB">
<feFlood flood-opacity="0" result="BackgroundImageFix"/>
<feColorMatrix in="SourceAlpha" type="matrix" values="0 0 0 0 0 0 0 0 0 0 0 0 0 0 0 0 0 0 127 0" result="hardAlpha"/>
<feMorphology radius="10" operator="dilate" in="SourceAlpha" result="effect1_dropShadow"/>
<feOffset dx="35" dy="4"/>
<feGaussianBlur stdDeviation="26.5"/>
<feComposite in2="hardAlpha" operator="out"/>
<feColorMatrix type="matrix" values="0 0 0 0 0.827451 0 0 0 0 0.180392 0 0 0 0 0.372549 0 0 0 0.15 0"/>
<feBlend mode="normal" in2="BackgroundImageFix" result="effect1_dropShadow"/>
<feBlend mode="normal" in="SourceGraphic" in2="effect1_dropShadow" result="shape"/>
<feColorMatrix in="SourceAlpha" type="matrix" values="0 0 0 0 0 0 0 0 0 0 0 0 0 0 0 0 0 0 127 0" result="hardAlpha"/>
<feOffset dx="14" dy="25"/>
<feGaussianBlur stdDeviation="13"/>
<feComposite in2="hardAlpha" operator="arithmetic" k2="-1" k3="1"/>
<feColorMatrix type="matrix" values="0 0 0 0 0.021441 0 0 0 0 0.0506852 0 0 0 0 0.0541667 0 0 0 1 0"/>
<feBlend mode="normal" in2="shape" result="effect2_innerShadow"/>
<feGaussianBlur stdDeviation="1" result="effect3_foregroundBlur"/>
</filter>
<filter id="filter7_i" x="778.405" y="78.9873" width="197.72" height="195.719" filterUnits="userSpaceOnUse" color-interpolation-filters="sRGB">
<feFlood flood-opacity="0" result="BackgroundImageFix"/>
<feBlend mode="normal" in="SourceGraphic" in2="BackgroundImageFix" result="shape"/>
<feColorMatrix in="SourceAlpha" type="matrix" values="0 0 0 0 0 0 0 0 0 0 0 0 0 0 0 0 0 0 127 0" result="hardAlpha"/>
<feOffset dx="-9" dy="-7"/>
<feGaussianBlur stdDeviation="33"/>
<feComposite in2="hardAlpha" operator="arithmetic" k2="-1" k3="1"/>
<feColorMatrix type="matrix" values="0 0 0 0 0.55 0 0 0 0 0.00687498 0 0 0 0 0.00687498 0 0 0 0.37 0"/>
<feBlend mode="normal" in2="shape" result="effect1_innerShadow"/>
</filter>
<filter id="filter8_dif" x="375.22" y="241.274" width="478.258" height="210.851" filterUnits="userSpaceOnUse" color-interpolation-filters="sRGB">
<feFlood flood-opacity="0" result="BackgroundImageFix"/>
<feColorMatrix in="SourceAlpha" type="matrix" values="0 0 0 0 0 0 0 0 0 0 0 0 0 0 0 0 0 0 127 0" result="hardAlpha"/>
<feMorphology radius="10" operator="dilate" in="SourceAlpha" result="effect1_dropShadow"/>
<feOffset dx="35" dy="4"/>
<feGaussianBlur stdDeviation="26.5"/>
<feComposite in2="hardAlpha" operator="out"/>
<feColorMatrix type="matrix" values="0 0 0 0 0.827451 0 0 0 0 0.180392 0 0 0 0 0.372549 0 0 0 0.15 0"/>
<feBlend mode="normal" in2="BackgroundImageFix" result="effect1_dropShadow"/>
<feBlend mode="normal" in="SourceGraphic" in2="effect1_dropShadow" result="shape"/>
<feColorMatrix in="SourceAlpha" type="matrix" values="0 0 0 0 0 0 0 0 0 0 0 0 0 0 0 0 0 0 127 0" result="hardAlpha"/>
<feOffset dx="14" dy="25"/>
<feGaussianBlur stdDeviation="13"/>
<feComposite in2="hardAlpha" operator="arithmetic" k2="-1" k3="1"/>
<feColorMatrix type="matrix" values="0 0 0 0 0.021441 0 0 0 0 0.0506852 0 0 0 0 0.0541667 0 0 0 1 0"/>
<feBlend mode="normal" in2="shape" result="effect2_innerShadow"/>
<feGaussianBlur stdDeviation="1" result="effect3_foregroundBlur"/>
</filter>
<filter id="filter9_i" x="453.45" y="119.033" width="243.114" height="241.114" filterUnits="userSpaceOnUse" color-interpolation-filters="sRGB">
<feFlood flood-opacity="0" result="BackgroundImageFix"/>
<feBlend mode="normal" in="SourceGraphic" in2="BackgroundImageFix" result="shape"/>
<feColorMatrix in="SourceAlpha" type="matrix" values="0 0 0 0 0 0 0 0 0 0 0 0 0 0 0 0 0 0 127 0" result="hardAlpha"/>
<feOffset dx="-9" dy="-7"/>
<feGaussianBlur stdDeviation="33"/>
<feComposite in2="hardAlpha" operator="arithmetic" k2="-1" k3="1"/>
<feColorMatrix type="matrix" values="0 0 0 0 0.55 0 0 0 0 0.00687498 0 0 0 0 0.00687498 0 0 0 0.37 0"/>
<feBlend mode="normal" in2="shape" result="effect1_innerShadow"/>
</filter>
<filter id="filter10_dif" x="-25.9995" y="321.097" width="544.211" height="226.183" filterUnits="userSpaceOnUse" color-interpolation-filters="sRGB">
<feFlood flood-opacity="0" result="BackgroundImageFix"/>
<feColorMatrix in="SourceAlpha" type="matrix" values="0 0 0 0 0 0 0 0 0 0 0 0 0 0 0 0 0 0 127 0" result="hardAlpha"/>
<feMorphology radius="10" operator="dilate" in="SourceAlpha" result="effect1_dropShadow"/>
<feOffset dx="35" dy="4"/>
<feGaussianBlur stdDeviation="26.5"/>
<feComposite in2="hardAlpha" operator="out"/>
<feColorMatrix type="matrix" values="0 0 0 0 0.827451 0 0 0 0 0.180392 0 0 0 0 0.372549 0 0 0 0.15 0"/>
<feBlend mode="normal" in2="BackgroundImageFix" result="effect1_dropShadow"/>
<feBlend mode="normal" in="SourceGraphic" in2="effect1_dropShadow" result="shape"/>
<feColorMatrix in="SourceAlpha" type="matrix" values="0 0 0 0 0 0 0 0 0 0 0 0 0 0 0 0 0 0 127 0" result="hardAlpha"/>
<feOffset dx="14" dy="25"/>
<feGaussianBlur stdDeviation="13"/>
<feComposite in2="hardAlpha" operator="arithmetic" k2="-1" k3="1"/>
<feColorMatrix type="matrix" values="0 0 0 0 0.021441 0 0 0 0 0.0506852 0 0 0 0 0.0541667 0 0 0 1 0"/>
<feBlend mode="normal" in2="shape" result="effect2_innerShadow"/>
<feGaussianBlur stdDeviation="1" result="effect3_foregroundBlur"/>
</filter>
<filter id="filter11_i" x="63.5278" y="164.982" width="286.529" height="285.455" filterUnits="userSpaceOnUse" color-interpolation-filters="sRGB">
<feFlood flood-opacity="0" result="BackgroundImageFix"/>
<feBlend mode="normal" in="SourceGraphic" in2="BackgroundImageFix" result="shape"/>
<feColorMatrix in="SourceAlpha" type="matrix" values="0 0 0 0 0 0 0 0 0 0 0 0 0 0 0 0 0 0 127 0" result="hardAlpha"/>
<feOffset dx="-9" dy="-7"/>
<feGaussianBlur stdDeviation="33"/>
<feComposite in2="hardAlpha" operator="arithmetic" k2="-1" k3="1"/>
<feColorMatrix type="matrix" values="0 0 0 0 0.55 0 0 0 0 0.00687498 0 0 0 0 0.00687498 0 0 0 0.37 0"/>
<feBlend mode="normal" in2="shape" result="effect1_innerShadow"/>
</filter>
<radialGradient id="paint0_radial" cx="0" cy="0" r="1" gradientUnits="userSpaceOnUse" gradientTransform="translate(-19.4655 -4.98086) rotate(14.314) scale(117.778 520.934)">
<stop stop-color="#1F2E32"/>
<stop offset="1"/>
</radialGradient>
<radialGradient id="paint1_radial" cx="0" cy="0" r="1" gradientUnits="userSpaceOnUse" gradientTransform="translate(1373.48 65.9864) rotate(29.3695) scale(39.1547 59.1696)">
<stop stop-color="#56CFE1"/>
<stop offset="1" stop-color="#D22E5D"/>
</radialGradient>
<linearGradient id="paint2_linear" x1="51.0295" y1="62.0709" x2="1.79051" y2="-12.5336" gradientUnits="userSpaceOnUse">
<stop stop-color="#FF31C5"/>
<stop offset="1" stop-color="#FF04B0"/>
</linearGradient>
<radialGradient id="paint3_radial" cx="0" cy="0" r="1" gradientUnits="userSpaceOnUse" gradientTransform="translate(35.5566 13.8581) rotate(121.734) scale(42.8938)">
<stop stop-color="#FFB340"/>
<stop offset="0.0001" stop-color="#FFB340"/>
<stop offset="0.838542" stop-color="#FF2AD0"/>
</radialGradient>
<radialGradient id="paint4_radial" cx="0" cy="0" r="1" gradientUnits="userSpaceOnUse" gradientTransform="translate(48.9405 57.2962) rotate(-138.906) scale(52.6646)">
<stop stop-color="#FF2A90"/>
<stop offset="0.322917" stop-color="#FF2AB7" stop-opacity="0.828125"/>
<stop offset="1" stop-color="#FF2AB7" stop-opacity="0"/>
</radialGradient>
<linearGradient id="paint5_linear" x1="7.75886" y1="52.5215" x2="33.6535" y2="18.2673" gradientUnits="userSpaceOnUse">
<stop stop-color="#7C0000"/>
<stop offset="1" stop-color="#AD2E00" stop-opacity="0"/>
</linearGradient>
<radialGradient id="paint6_radial" cx="0" cy="0" r="1" gradientUnits="userSpaceOnUse" gradientTransform="translate(-35.038 -8.96554) rotate(14.314) scale(212 937.681)">
<stop stop-color="#1F2E32"/>
<stop offset="1"/>
</radialGradient>
<radialGradient id="paint7_radial" cx="0" cy="0" r="1" gradientUnits="userSpaceOnUse" gradientTransform="translate(1253.61 109.582) rotate(29.3695) scale(70.4785 106.505)">
<stop stop-color="#56CFE1"/>
<stop offset="1" stop-color="#D22E5D"/>
</radialGradient>
<linearGradient id="paint8_linear" x1="91.853" y1="111.728" x2="3.22292" y2="-22.5604" gradientUnits="userSpaceOnUse">
<stop stop-color="#FF31C5"/>
<stop offset="1" stop-color="#FF04B0"/>
</linearGradient>
<radialGradient id="paint9_radial" cx="0" cy="0" r="1" gradientUnits="userSpaceOnUse" gradientTransform="translate(64.002 24.9447) rotate(121.734) scale(77.2088)">
<stop stop-color="#FFB340"/>
<stop offset="0.0001" stop-color="#FFB340"/>
<stop offset="0.838542" stop-color="#FF2AD0"/>
</radialGradient>
<radialGradient id="paint10_radial" cx="0" cy="0" r="1" gradientUnits="userSpaceOnUse" gradientTransform="translate(88.093 103.133) rotate(-138.906) scale(94.7963)">
<stop stop-color="#FF2A90"/>
<stop offset="0.322917" stop-color="#FF2AB7" stop-opacity="0.828125"/>
<stop offset="1" stop-color="#FF2AB7" stop-opacity="0"/>
</radialGradient>
<linearGradient id="paint11_linear" x1="13.966" y1="94.5388" x2="60.5762" y2="32.8812" gradientUnits="userSpaceOnUse">
<stop stop-color="#7C0000"/>
<stop offset="1" stop-color="#AD2E00" stop-opacity="0"/>
</linearGradient>
<radialGradient id="paint12_radial" cx="0" cy="0" r="1" gradientUnits="userSpaceOnUse" gradientTransform="translate(-50.6104 -12.9502) rotate(14.314) scale(306.223 1354.43)">
<stop stop-color="#1F2E32"/>
<stop offset="1"/>
</radialGradient>
<radialGradient id="paint13_radial" cx="0" cy="0" r="1" gradientUnits="userSpaceOnUse" gradientTransform="translate(1067.79 172.076) rotate(29.3695) scale(101.802 153.841)">
<stop stop-color="#56CFE1"/>
<stop offset="1" stop-color="#D22E5D"/>
</radialGradient>
<linearGradient id="paint14_linear" x1="132.677" y1="161.384" x2="4.65532" y2="-32.5872" gradientUnits="userSpaceOnUse">
<stop stop-color="#FF31C5"/>
<stop offset="1" stop-color="#FF04B0"/>
</linearGradient>
<radialGradient id="paint15_radial" cx="0" cy="0" r="1" gradientUnits="userSpaceOnUse" gradientTransform="translate(92.4473 36.0312) rotate(121.734) scale(111.524)">
<stop stop-color="#FFB340"/>
<stop offset="0.0001" stop-color="#FFB340"/>
<stop offset="0.838542" stop-color="#FF2AD0"/>
</radialGradient>
<radialGradient id="paint16_radial" cx="0" cy="0" r="1" gradientUnits="userSpaceOnUse" gradientTransform="translate(127.245 148.97) rotate(-138.906) scale(136.928)">
<stop stop-color="#FF2A90"/>
<stop offset="0.322917" stop-color="#FF2AB7" stop-opacity="0.828125"/>
<stop offset="1" stop-color="#FF2AB7" stop-opacity="0"/>
</radialGradient>
<linearGradient id="paint17_linear" x1="20.173" y1="136.556" x2="87.499" y2="47.495" gradientUnits="userSpaceOnUse">
<stop stop-color="#7C0000"/>
<stop offset="1" stop-color="#AD2E00" stop-opacity="0"/>
</linearGradient>
<radialGradient id="paint18_radial" cx="0" cy="0" r="1" gradientUnits="userSpaceOnUse" gradientTransform="translate(-66.1828 -16.9349) rotate(14.314) scale(400.445 1771.18)">
<stop stop-color="#1F2E32"/>
<stop offset="1"/>
</radialGradient>
<radialGradient id="paint19_radial" cx="0" cy="0" r="1" gradientUnits="userSpaceOnUse" gradientTransform="translate(816.009 241.94) rotate(29.3695) scale(133.126 201.177)">
<stop stop-color="#56CFE1"/>
<stop offset="1" stop-color="#D22E5D"/>
</radialGradient>
<linearGradient id="paint20_linear" x1="173.5" y1="211.041" x2="6.08773" y2="-42.6141" gradientUnits="userSpaceOnUse">
<stop stop-color="#FF31C5"/>
<stop offset="1" stop-color="#FF04B0"/>
</linearGradient>
<radialGradient id="paint21_radial" cx="0" cy="0" r="1" gradientUnits="userSpaceOnUse" gradientTransform="translate(120.893 47.1177) rotate(121.734) scale(145.839)">
<stop stop-color="#FFB340"/>
<stop offset="0.0001" stop-color="#FFB340"/>
<stop offset="0.838542" stop-color="#FF2AD0"/>
</radialGradient>
<radialGradient id="paint22_radial" cx="0" cy="0" r="1" gradientUnits="userSpaceOnUse" gradientTransform="translate(166.398 194.807) rotate(-138.906) scale(179.06)">
<stop stop-color="#FF2A90"/>
<stop offset="0.322917" stop-color="#FF2AB7" stop-opacity="0.828125"/>
<stop offset="1" stop-color="#FF2AB7" stop-opacity="0"/>
</radialGradient>
<linearGradient id="paint23_linear" x1="26.3801" y1="178.573" x2="114.422" y2="62.1089" gradientUnits="userSpaceOnUse">
<stop stop-color="#7C0000"/>
<stop offset="1" stop-color="#AD2E00" stop-opacity="0"/>
</linearGradient>
<radialGradient id="paint24_radial" cx="0" cy="0" r="1" gradientUnits="userSpaceOnUse" gradientTransform="translate(-81.7553 -20.9196) rotate(14.314) scale(494.667 2187.92)">
<stop stop-color="#1F2E32"/>
<stop offset="1"/>
</radialGradient>
<radialGradient id="paint25_radial" cx="0" cy="0" r="1" gradientUnits="userSpaceOnUse" gradientTransform="translate(498.28 319.176) rotate(29.3695) scale(164.45 248.512)">
<stop stop-color="#56CFE1"/>
<stop offset="1" stop-color="#D22E5D"/>
</radialGradient>
<linearGradient id="paint26_linear" x1="214.324" y1="260.698" x2="7.52013" y2="-52.6409" gradientUnits="userSpaceOnUse">
<stop stop-color="#FF31C5"/>
<stop offset="1" stop-color="#FF04B0"/>
</linearGradient>
<radialGradient id="paint27_radial" cx="0" cy="0" r="1" gradientUnits="userSpaceOnUse" gradientTransform="translate(149.338 58.2042) rotate(121.734) scale(180.154)">
<stop stop-color="#FFB340"/>
<stop offset="0.0001" stop-color="#FFB340"/>
<stop offset="0.838542" stop-color="#FF2AD0"/>
</radialGradient>
<radialGradient id="paint28_radial" cx="0" cy="0" r="1" gradientUnits="userSpaceOnUse" gradientTransform="translate(205.55 240.644) rotate(-138.906) scale(221.191)">
<stop stop-color="#FF2A90"/>
<stop offset="0.322917" stop-color="#FF2AB7" stop-opacity="0.828125"/>
<stop offset="1" stop-color="#FF2AB7" stop-opacity="0"/>
</radialGradient>
<linearGradient id="paint29_linear" x1="32.5872" y1="220.59" x2="141.345" y2="76.7227" gradientUnits="userSpaceOnUse">
<stop stop-color="#7C0000"/>
<stop offset="1" stop-color="#AD2E00" stop-opacity="0"/>
</linearGradient>
<radialGradient id="paint30_radial" cx="0" cy="0" r="1" gradientUnits="userSpaceOnUse" gradientTransform="translate(-97.3277 -24.9874) rotate(14.3598) scale(589.01 2612.83)">
<stop stop-color="#1F2E32"/>
<stop offset="1"/>
</radialGradient>
<radialGradient id="paint31_radial" cx="0" cy="0" r="1" gradientUnits="userSpaceOnUse" gradientTransform="translate(114.596 402.091) rotate(29.4512) scale(195.931 296.597)">
<stop stop-color="#56CFE1"/>
<stop offset="1" stop-color="#D22E5D"/>
</radialGradient>
<linearGradient id="paint32_linear" x1="255.147" y1="311.39" x2="7.80807" y2="-62.1191" gradientUnits="userSpaceOnUse">
<stop stop-color="#FF31C5"/>
<stop offset="1" stop-color="#FF04B0"/>
</linearGradient>
<radialGradient id="paint33_radial" cx="0" cy="0" r="1" gradientUnits="userSpaceOnUse" gradientTransform="translate(177.783 69.522) rotate(121.649) scale(214.987 214.666)">
<stop stop-color="#FFB340"/>
<stop offset="0.0001" stop-color="#FFB340"/>
<stop offset="0.838542" stop-color="#FF2AD0"/>
</radialGradient>
<radialGradient id="paint34_radial" cx="0" cy="0" r="1" gradientUnits="userSpaceOnUse" gradientTransform="translate(244.703 287.437) rotate(-138.811) scale(263.703 263.821)">
<stop stop-color="#FF2A90"/>
<stop offset="0.322917" stop-color="#FF2AB7" stop-opacity="0.828125"/>
<stop offset="1" stop-color="#FF2AB7" stop-opacity="0"/>
</radialGradient>
<linearGradient id="paint35_linear" x1="38.7943" y1="263.484" x2="168.817" y2="92.0583" gradientUnits="userSpaceOnUse">
<stop stop-color="#7C0000"/>
<stop offset="1" stop-color="#AD2E00" stop-opacity="0"/>
</linearGradient>
</defs>
</svg>
