<svg width="141" height="144" viewBox="0 0 141 144" fill="none" xmlns="http://www.w3.org/2000/svg">
<g filter="url(#filter0_iiii_248)">
<ellipse cx="67.4923" cy="74" rx="58.4923" ry="60" fill="url(#paint0_linear_248)"/>
</g>
<g filter="url(#filter1_f_248)">
<ellipse rx="27.4132" ry="25.7687" transform="matrix(0.406221 0.913775 -0.902975 0.429694 70.485 72.1944)" fill="url(#paint1_radial_248)" fill-opacity="0.5"/>
</g>
<path d="M90.9785 88.6537C93.1238 90.3925 96.339 90.0937 97.6608 87.6692C99.1334 84.9678 100.147 82.0275 100.649 78.9681C101.422 74.2564 100.953 69.4246 99.2895 64.9493C97.6255 60.4739 94.8237 56.5096 91.1603 53.4474C87.497 50.3851 83.0987 48.3306 78.3993 47.4866C73.6998 46.6425 68.8615 47.038 64.3615 48.6341C59.8615 50.2302 55.8553 52.9717 52.7379 56.5883C49.6206 60.2049 47.4998 64.5716 46.5847 69.2577C45.9906 72.3006 45.9181 75.41 46.3586 78.455C46.754 81.1879 49.6643 82.5869 52.2806 81.7033C54.8968 80.8197 56.2453 77.9543 56.1386 75.1949C56.0869 73.8559 56.1896 72.5099 56.4485 71.1838C57.0288 68.2122 58.3736 65.4432 60.3504 63.1499C62.3271 60.8566 64.8675 59.1181 67.721 58.106C70.5746 57.0939 73.6426 56.8431 76.6226 57.3784C79.6027 57.9136 82.3917 59.2164 84.7147 61.1582C87.0376 63.1 88.8143 65.6139 89.8695 68.4517C90.9246 71.2896 91.2218 74.3535 90.7318 77.3413C90.513 78.6746 90.1409 79.9723 89.6264 81.2096C88.5662 83.7593 88.8333 86.9149 90.9785 88.6537Z" fill="url(#paint2_linear_248)"/>
<path d="M90.9785 88.6537C93.1238 90.3925 96.339 90.0937 97.6608 87.6692C99.1334 84.9678 100.147 82.0275 100.649 78.9681C101.422 74.2564 100.953 69.4246 99.2895 64.9493C97.6255 60.4739 94.8237 56.5096 91.1603 53.4474C87.497 50.3851 83.0987 48.3306 78.3993 47.4866C73.6998 46.6425 68.8615 47.038 64.3615 48.6341C59.8615 50.2302 55.8553 52.9717 52.7379 56.5883C49.6206 60.2049 47.4998 64.5716 46.5847 69.2577C45.9906 72.3006 45.9181 75.41 46.3586 78.455C46.754 81.1879 49.6643 82.5869 52.2806 81.7033C54.8968 80.8197 56.2453 77.9543 56.1386 75.1949C56.0869 73.8559 56.1896 72.5099 56.4485 71.1838C57.0288 68.2122 58.3736 65.4432 60.3504 63.1499C62.3271 60.8566 64.8675 59.1181 67.721 58.106C70.5746 57.0939 73.6426 56.8431 76.6226 57.3784C79.6027 57.9136 82.3917 59.2164 84.7147 61.1582C87.0376 63.1 88.8143 65.6139 89.8695 68.4517C90.9246 71.2896 91.2218 74.3535 90.7318 77.3413C90.513 78.6746 90.1409 79.9723 89.6264 81.2096C88.5662 83.7593 88.8333 86.9149 90.9785 88.6537Z" fill="url(#paint3_radial_248)"/>
<path d="M90.9785 88.6537C93.1238 90.3925 96.339 90.0937 97.6608 87.6692C99.1334 84.9678 100.147 82.0275 100.649 78.9681C101.422 74.2564 100.953 69.4246 99.2895 64.9493C97.6255 60.4739 94.8237 56.5096 91.1603 53.4474C87.497 50.3851 83.0987 48.3306 78.3993 47.4866C73.6998 46.6425 68.8615 47.038 64.3615 48.6341C59.8615 50.2302 55.8553 52.9717 52.7379 56.5883C49.6206 60.2049 47.4998 64.5716 46.5847 69.2577C45.9906 72.3006 45.9181 75.41 46.3586 78.455C46.754 81.1879 49.6643 82.5869 52.2806 81.7033C54.8968 80.8197 56.2453 77.9543 56.1386 75.1949C56.0869 73.8559 56.1896 72.5099 56.4485 71.1838C57.0288 68.2122 58.3736 65.4432 60.3504 63.1499C62.3271 60.8566 64.8675 59.1181 67.721 58.106C70.5746 57.0939 73.6426 56.8431 76.6226 57.3784C79.6027 57.9136 82.3917 59.2164 84.7147 61.1582C87.0376 63.1 88.8143 65.6139 89.8695 68.4517C90.9246 71.2896 91.2218 74.3535 90.7318 77.3413C90.513 78.6746 90.1409 79.9723 89.6264 81.2096C88.5662 83.7593 88.8333 86.9149 90.9785 88.6537Z" fill="url(#paint4_radial_248)"/>
<circle cx="85.5215" cy="96.5" r="5.5" fill="url(#paint5_linear_248)"/>
<circle cx="85.5215" cy="96.5" r="5.5" fill="url(#paint6_radial_248)"/>
<circle cx="85.5215" cy="96.5" r="5.5" fill="url(#paint7_radial_248)"/>
<g filter="url(#filter2_ii_248)">
<path d="M29.1293 75.6624L57.7712 104.667C59.6491 106.569 62.8451 105.208 62.8367 102.51L62.6543 44.312C62.6458 41.6139 59.4408 40.2728 57.575 42.1867L29.1156 71.3797C27.959 72.566 27.9652 74.4835 29.1293 75.6624Z" fill="url(#paint8_linear_248)"/>
<path d="M29.1293 75.6624L57.7712 104.667C59.6491 106.569 62.8451 105.208 62.8367 102.51L62.6543 44.312C62.6458 41.6139 59.4408 40.2728 57.575 42.1867L29.1156 71.3797C27.959 72.566 27.9652 74.4835 29.1293 75.6624Z" fill="url(#paint9_radial_248)"/>
<path d="M29.1293 75.6624L57.7712 104.667C59.6491 106.569 62.8451 105.208 62.8367 102.51L62.6543 44.312C62.6458 41.6139 59.4408 40.2728 57.575 42.1867L29.1156 71.3797C27.959 72.566 27.9652 74.4835 29.1293 75.6624Z" fill="url(#paint10_radial_248)"/>
<path d="M29.1293 75.6624L57.7712 104.667C59.6491 106.569 62.8451 105.208 62.8367 102.51L62.6543 44.312C62.6458 41.6139 59.4408 40.2728 57.575 42.1867L29.1156 71.3797C27.959 72.566 27.9652 74.4835 29.1293 75.6624Z" fill="url(#paint11_radial_248)" fill-opacity="0.5"/>
</g>
<defs>
<filter id="filter0_iiii_248" x="-42" y="9" width="172.985" height="174" filterUnits="userSpaceOnUse" color-interpolation-filters="sRGB">
<feFlood flood-opacity="0" result="BackgroundImageFix"/>
<feBlend mode="normal" in="SourceGraphic" in2="BackgroundImageFix" result="shape"/>
<feColorMatrix in="SourceAlpha" type="matrix" values="0 0 0 0 0 0 0 0 0 0 0 0 0 0 0 0 0 0 127 0" result="hardAlpha"/>
<feMorphology radius="22" operator="erode" in="SourceAlpha" result="effect1_innerShadow_248"/>
<feOffset dx="-97" dy="49"/>
<feGaussianBlur stdDeviation="14.5"/>
<feComposite in2="hardAlpha" operator="arithmetic" k2="-1" k3="1"/>
<feColorMatrix type="matrix" values="0 0 0 0 0.108333 0 0 0 0 0.108333 0 0 0 0 0.108333 0 0 0 0.72 0"/>
<feBlend mode="normal" in2="shape" result="effect1_innerShadow_248"/>
<feColorMatrix in="SourceAlpha" type="matrix" values="0 0 0 0 0 0 0 0 0 0 0 0 0 0 0 0 0 0 127 0" result="hardAlpha"/>
<feMorphology radius="28" operator="dilate" in="SourceAlpha" result="effect2_innerShadow_248"/>
<feOffset dx="-10" dy="-26"/>
<feGaussianBlur stdDeviation="16.5"/>
<feComposite in2="hardAlpha" operator="arithmetic" k2="-1" k3="1"/>
<feColorMatrix type="matrix" values="0 0 0 0 1 0 0 0 0 1 0 0 0 0 1 0 0 0 0.1 0"/>
<feBlend mode="normal" in2="effect1_innerShadow_248" result="effect2_innerShadow_248"/>
<feColorMatrix in="SourceAlpha" type="matrix" values="0 0 0 0 0 0 0 0 0 0 0 0 0 0 0 0 0 0 127 0" result="hardAlpha"/>
<feOffset dx="5" dy="5"/>
<feGaussianBlur stdDeviation="2.5"/>
<feComposite in2="hardAlpha" operator="arithmetic" k2="-1" k3="1"/>
<feColorMatrix type="matrix" values="0 0 0 0 0 0 0 0 0 0 0 0 0 0 0 0 0 0 0.21 0"/>
<feBlend mode="normal" in2="effect2_innerShadow_248" result="effect3_innerShadow_248"/>
<feColorMatrix in="SourceAlpha" type="matrix" values="0 0 0 0 0 0 0 0 0 0 0 0 0 0 0 0 0 0 127 0" result="hardAlpha"/>
<feOffset dx="-2" dy="-2"/>
<feGaussianBlur stdDeviation="2"/>
<feComposite in2="hardAlpha" operator="arithmetic" k2="-1" k3="1"/>
<feColorMatrix type="matrix" values="0 0 0 0 0.3125 0 0 0 0 0.3125 0 0 0 0 0.3125 0 0 0 0.1 0"/>
<feBlend mode="normal" in2="effect3_innerShadow_248" result="effect4_innerShadow_248"/>
</filter>
<filter id="filter1_f_248" x="0.683105" y="0.799927" width="139.604" height="142.789" filterUnits="userSpaceOnUse" color-interpolation-filters="sRGB">
<feFlood flood-opacity="0" result="BackgroundImageFix"/>
<feBlend mode="normal" in="SourceGraphic" in2="BackgroundImageFix" result="shape"/>
<feGaussianBlur stdDeviation="22" result="effect1_foregroundBlur_248"/>
</filter>
<filter id="filter2_ii_248" x="28.2522" y="34.2869" width="34.5845" height="71.2666" filterUnits="userSpaceOnUse" color-interpolation-filters="sRGB">
<feFlood flood-opacity="0" result="BackgroundImageFix"/>
<feBlend mode="normal" in="SourceGraphic" in2="BackgroundImageFix" result="shape"/>
<feColorMatrix in="SourceAlpha" type="matrix" values="0 0 0 0 0 0 0 0 0 0 0 0 0 0 0 0 0 0 127 0" result="hardAlpha"/>
<feOffset dy="-7"/>
<feGaussianBlur stdDeviation="33"/>
<feComposite in2="hardAlpha" operator="arithmetic" k2="-1" k3="1"/>
<feColorMatrix type="matrix" values="0 0 0 0 1 0 0 0 0 1 0 0 0 0 1 0 0 0 0.37 0"/>
<feBlend mode="normal" in2="shape" result="effect1_innerShadow_248"/>
<feColorMatrix in="SourceAlpha" type="matrix" values="0 0 0 0 0 0 0 0 0 0 0 0 0 0 0 0 0 0 127 0" result="hardAlpha"/>
<feOffset dy="-7"/>
<feGaussianBlur stdDeviation="33"/>
<feComposite in2="hardAlpha" operator="arithmetic" k2="-1" k3="1"/>
<feColorMatrix type="matrix" values="0 0 0 0 1 0 0 0 0 1 0 0 0 0 1 0 0 0 0.37 0"/>
<feBlend mode="normal" in2="effect1_innerShadow_248" result="effect2_innerShadow_248"/>
</filter>
<linearGradient id="paint0_linear_248" x1="9" y1="4.16393" x2="170.598" y2="192.771" gradientUnits="userSpaceOnUse">
<stop/>
<stop offset="1"/>
</linearGradient>
<radialGradient id="paint1_radial_248" cx="0" cy="0" r="1" gradientUnits="userSpaceOnUse" gradientTransform="translate(27.4132 25.7687) rotate(144.127) scale(50.8343 52.5403)">
<stop stop-color="white"/>
<stop offset="1" stop-color="#8C8C8C" stop-opacity="0"/>
</radialGradient>
<linearGradient id="paint2_linear_248" x1="70.0531" y1="115.415" x2="78.6885" y2="27.3664" gradientUnits="userSpaceOnUse">
<stop stop-color="#3E3E3E"/>
<stop offset="1" stop-color="#0D0D0D"/>
</linearGradient>
<radialGradient id="paint3_radial_248" cx="0" cy="0" r="1" gradientUnits="userSpaceOnUse" gradientTransform="translate(86.26 69.6215) rotate(171.537) scale(24.0401)">
<stop offset="0.135417" stop-color="white"/>
<stop offset="1" stop-color="white" stop-opacity="0.27"/>
</radialGradient>
<radialGradient id="paint4_radial_248" cx="0" cy="0" r="1" gradientUnits="userSpaceOnUse" gradientTransform="translate(86.9483 70.1794) rotate(-179.483) scale(35.1025)">
<stop stop-color="white"/>
<stop offset="0.338542" stop-color="white"/>
<stop offset="1" stop-color="white" stop-opacity="0"/>
</radialGradient>
<linearGradient id="paint5_linear_248" x1="90.1344" y1="103.301" x2="80.3763" y2="88.5161" gradientUnits="userSpaceOnUse">
<stop stop-color="#3E3E3E"/>
<stop offset="1" stop-color="#0D0D0D"/>
</linearGradient>
<radialGradient id="paint6_radial_248" cx="0" cy="0" r="1" gradientUnits="userSpaceOnUse" gradientTransform="translate(86.8817 94.1344) rotate(132.51) scale(4.81363)">
<stop offset="0.135417" stop-color="white"/>
<stop offset="1" stop-color="white" stop-opacity="0.27"/>
</radialGradient>
<radialGradient id="paint7_radial_248" cx="0" cy="0" r="1" gradientUnits="userSpaceOnUse" gradientTransform="translate(87.0591 94.1344) rotate(141.491) scale(7.02868)">
<stop stop-color="white"/>
<stop offset="0.338542" stop-color="white"/>
<stop offset="1" stop-color="white" stop-opacity="0"/>
</radialGradient>
<linearGradient id="paint8_linear_248" x1="25.6543" y1="66.2894" x2="105.529" y2="82.0802" gradientUnits="userSpaceOnUse">
<stop stop-color="#3E3E3E"/>
<stop offset="1" stop-color="#0D0D0D"/>
</linearGradient>
<radialGradient id="paint9_radial_248" cx="0" cy="0" r="1" gradientUnits="userSpaceOnUse" gradientTransform="translate(66.0492 85.7316) rotate(-92.6223) scale(22.532 22.1094)">
<stop offset="0.135417" stop-color="white"/>
<stop offset="1" stop-color="white" stop-opacity="0.27"/>
</radialGradient>
<radialGradient id="paint10_radial_248" cx="0" cy="0" r="1" gradientUnits="userSpaceOnUse" gradientTransform="translate(65.4748 86.3208) rotate(-83.8102) scale(32.8945 32.289)">
<stop stop-color="white"/>
<stop offset="0.338542" stop-color="white"/>
<stop offset="1" stop-color="white" stop-opacity="0"/>
</radialGradient>
<radialGradient id="paint11_radial_248" cx="0" cy="0" r="1" gradientUnits="userSpaceOnUse" gradientTransform="translate(41.0571 58.8474) rotate(39.8589) scale(28.2683 28.3073)">
<stop stop-color="#747474"/>
<stop offset="1" stop-opacity="0"/>
</radialGradient>
</defs>
</svg>
