<svg width="287" height="227" viewBox="0 0 287 227" fill="none" xmlns="http://www.w3.org/2000/svg">
<ellipse cx="163.387" cy="203.5" rx="17.8282" ry="17.9675" transform="rotate(-109.836 163.387 203.5)" fill="url(#paint0_linear)"/>
<ellipse cx="163.387" cy="203.5" rx="17.8282" ry="17.9675" transform="rotate(-109.836 163.387 203.5)" fill="url(#paint1_radial)" fill-opacity="0.3"/>
<ellipse cx="163.387" cy="203.5" rx="17.8282" ry="17.9675" transform="rotate(-109.836 163.387 203.5)" fill="url(#paint2_radial)" fill-opacity="0.6"/>
<ellipse cx="255.608" cy="31.6928" rx="26.9455" ry="27.1561" transform="rotate(170.105 255.608 31.6928)" fill="url(#paint3_linear)"/>
<ellipse cx="255.608" cy="31.6928" rx="26.9455" ry="27.1561" transform="rotate(170.105 255.608 31.6928)" fill="url(#paint4_radial)" fill-opacity="0.2"/>
<ellipse cx="255.608" cy="31.6928" rx="26.9455" ry="27.1561" transform="rotate(170.105 255.608 31.6928)" fill="url(#paint5_radial)" fill-opacity="0.3"/>
<ellipse cx="11.5429" cy="28.4871" rx="9.48357" ry="9.55766" transform="rotate(76.2049 11.5429 28.4871)" fill="url(#paint6_linear)"/>
<ellipse cx="11.5429" cy="28.4871" rx="9.48357" ry="9.55766" transform="rotate(76.2049 11.5429 28.4871)" fill="url(#paint7_radial)" fill-opacity="0.3"/>
<ellipse cx="11.5429" cy="28.4871" rx="9.48357" ry="9.55766" transform="rotate(76.2049 11.5429 28.4871)" fill="url(#paint8_radial)" fill-opacity="0.8"/>
<g filter="url(#filter0_f)">
<ellipse cx="93.6693" cy="82.728" rx="8.52012" ry="8.18831" transform="rotate(52.918 93.6693 82.728)" fill="white" fill-opacity="0.4"/>
</g>
<g filter="url(#filter1_i)">
<path d="M95.5814 90.5729C91.947 90.8488 88.777 88.1261 88.5011 84.4917C88.2253 80.8572 90.9479 77.6873 94.5824 77.4114C98.2168 77.1355 101.387 79.8582 101.663 83.4926C101.939 87.1271 99.2159 90.297 95.5814 90.5729Z" fill="url(#paint9_linear)"/>
<path d="M95.5814 90.5729C91.947 90.8488 88.777 88.1261 88.5011 84.4917C88.2253 80.8572 90.9479 77.6873 94.5824 77.4114C98.2168 77.1355 101.387 79.8582 101.663 83.4926C101.939 87.1271 99.2159 90.297 95.5814 90.5729Z" fill="url(#paint10_radial)"/>
<path d="M95.5814 90.5729C91.947 90.8488 88.777 88.1261 88.5011 84.4917C88.2253 80.8572 90.9479 77.6873 94.5824 77.4114C98.2168 77.1355 101.387 79.8582 101.663 83.4926C101.939 87.1271 99.2159 90.297 95.5814 90.5729Z" fill="url(#paint11_radial)"/>
</g>
<defs>
<filter id="filter0_f" x="56.3585" y="45.3264" width="74.6217" height="74.8032" filterUnits="userSpaceOnUse" color-interpolation-filters="sRGB">
<feFlood flood-opacity="0" result="BackgroundImageFix"/>
<feBlend mode="normal" in="SourceGraphic" in2="BackgroundImageFix" result="shape"/>
<feGaussianBlur stdDeviation="14.5" result="effect1_foregroundBlur"/>
</filter>
<filter id="filter1_i" x="88.4819" y="70.3921" width="13.2" height="20.2" filterUnits="userSpaceOnUse" color-interpolation-filters="sRGB">
<feFlood flood-opacity="0" result="BackgroundImageFix"/>
<feBlend mode="normal" in="SourceGraphic" in2="BackgroundImageFix" result="shape"/>
<feColorMatrix in="SourceAlpha" type="matrix" values="0 0 0 0 0 0 0 0 0 0 0 0 0 0 0 0 0 0 127 0" result="hardAlpha"/>
<feOffset dy="-7"/>
<feGaussianBlur stdDeviation="33"/>
<feComposite in2="hardAlpha" operator="arithmetic" k2="-1" k3="1"/>
<feColorMatrix type="matrix" values="0 0 0 0 0.83401 0 0 0 0 0.835616 0 0 0 0 0.8375 0 0 0 0.37 0"/>
<feBlend mode="normal" in2="shape" result="effect1_innerShadow"/>
</filter>
<linearGradient id="paint0_linear" x1="178.34" y1="225.718" x2="146.953" y2="179.964" gradientUnits="userSpaceOnUse">
<stop stop-color="#121212"/>
<stop offset="1" stop-color="#171717"/>
</linearGradient>
<radialGradient id="paint1_radial" cx="0" cy="0" r="1" gradientUnits="userSpaceOnUse" gradientTransform="translate(134.824 225.718) rotate(-40.4165) scale(32.4809 32.5222)">
<stop stop-color="white"/>
<stop offset="1" stop-opacity="0"/>
</radialGradient>
<radialGradient id="paint2_radial" cx="0" cy="0" r="1" gradientUnits="userSpaceOnUse" gradientTransform="translate(180.135 197.151) rotate(152.475) scale(22.3827 22.2562)">
<stop stop-color="#D1D0D0"/>
<stop offset="1" stop-opacity="0"/>
</radialGradient>
<linearGradient id="paint3_linear" x1="278.207" y1="65.2729" x2="230.769" y2="-3.87981" gradientUnits="userSpaceOnUse">
<stop stop-color="#121212"/>
<stop offset="1" stop-color="#171717"/>
</linearGradient>
<radialGradient id="paint4_radial" cx="0" cy="0" r="1" gradientUnits="userSpaceOnUse" gradientTransform="translate(212.437 65.2729) rotate(-40.4165) scale(49.0917 49.1541)">
<stop stop-color="white"/>
<stop offset="1" stop-opacity="0"/>
</radialGradient>
<radialGradient id="paint5_radial" cx="0" cy="0" r="1" gradientUnits="userSpaceOnUse" gradientTransform="translate(280.92 22.0963) rotate(152.475) scale(33.8292 33.638)">
<stop stop-color="#D1D0D0"/>
<stop offset="1" stop-opacity="0"/>
</radialGradient>
<linearGradient id="paint6_linear" x1="19.4969" y1="40.3057" x2="2.80089" y2="15.9672" gradientUnits="userSpaceOnUse">
<stop stop-color="#121212"/>
<stop offset="1" stop-color="#171717"/>
</linearGradient>
<radialGradient id="paint7_radial" cx="0" cy="0" r="1" gradientUnits="userSpaceOnUse" gradientTransform="translate(-3.65121 40.3057) rotate(-40.4165) scale(17.278 17.2999)">
<stop stop-color="white"/>
<stop offset="1" stop-opacity="0"/>
</radialGradient>
<radialGradient id="paint8_radial" cx="0" cy="0" r="1" gradientUnits="userSpaceOnUse" gradientTransform="translate(20.4517 25.1096) rotate(155.409) scale(18.4887 18.3842)">
<stop stop-color="#D1D0D0"/>
<stop offset="1" stop-opacity="0"/>
</radialGradient>
<linearGradient id="paint9_linear" x1="87.3634" y1="90.1292" x2="104.167" y2="77.1108" gradientUnits="userSpaceOnUse">
<stop stop-color="#3E3E3E"/>
<stop offset="1" stop-color="#0D0D0D"/>
</linearGradient>
<radialGradient id="paint10_radial" cx="0" cy="0" r="1" gradientUnits="userSpaceOnUse" gradientTransform="translate(98.0359 85.4048) rotate(-141.83) scale(5.77608)">
<stop offset="0.135417" stop-color="white"/>
<stop offset="1" stop-color="white" stop-opacity="0.27"/>
</radialGradient>
<radialGradient id="paint11_radial" cx="0" cy="0" r="1" gradientUnits="userSpaceOnUse" gradientTransform="translate(98.052 85.6171) rotate(-132.85) scale(8.43402)">
<stop stop-color="white"/>
<stop offset="0.338542" stop-color="white"/>
<stop offset="1" stop-color="white" stop-opacity="0"/>
</radialGradient>
</defs>
</svg>
