<svg width="1449" height="560" viewBox="0 0 1449 560" fill="none" xmlns="http://www.w3.org/2000/svg">
<g filter="url(#filter0_d)">
<rect x="0.00585938" y="1" width="1440" height="550" fill="black"/>
</g>
<g filter="url(#filter1_f)">
<path d="M137.006 55L1361.51 139L1312.51 489.5L203.006 453L137.006 55Z" fill="#0B0A0A"/>
</g>
<path d="M137.006 58L1357.51 140L1312.01 488.5L202.506 453L137.006 58Z" fill="url(#paint0_radial)" fill-opacity="0.45"/>
<path d="M137.006 58L1357.51 140L1312.01 488.5L202.506 453L137.006 58Z" fill="#444444" fill-opacity="0.2"/>
<path d="M137.506 57.9999L0.00585938 1H1440.51L1358.51 138L137.506 57.9999Z" fill="url(#paint1_linear)" fill-opacity="0.4"/>
<path d="M202.506 453L0.00583358 551.5L0.00583749 1L137.005 58L202.506 453Z" fill="url(#paint2_linear)" fill-opacity="0.8"/>
<path d="M1358.5 139L1439.5 0L1439.5 550.5L1312 489L1358.5 139Z" fill="url(#paint3_linear)" fill-opacity="0.5"/>
<path d="M1311 489L1440 550.996L-0.000244141 550.996L202.5 453.002L1311 489Z" fill="url(#paint4_linear)" fill-opacity="0.5"/>
<defs>
<filter id="filter0_d" x="0.00585938" y="1" width="1448" height="559" filterUnits="userSpaceOnUse" color-interpolation-filters="sRGB">
<feFlood flood-opacity="0" result="BackgroundImageFix"/>
<feColorMatrix in="SourceAlpha" type="matrix" values="0 0 0 0 0 0 0 0 0 0 0 0 0 0 0 0 0 0 127 0" result="hardAlpha"/>
<feOffset dx="4" dy="5"/>
<feGaussianBlur stdDeviation="2"/>
<feColorMatrix type="matrix" values="0 0 0 0 0 0 0 0 0 0 0 0 0 0 0 0 0 0 0.25 0"/>
<feBlend mode="normal" in2="BackgroundImageFix" result="effect1_dropShadow"/>
<feBlend mode="normal" in="SourceGraphic" in2="effect1_dropShadow" result="shape"/>
</filter>
<filter id="filter1_f" x="133.006" y="51" width="1232.5" height="442.5" filterUnits="userSpaceOnUse" color-interpolation-filters="sRGB">
<feFlood flood-opacity="0" result="BackgroundImageFix"/>
<feBlend mode="normal" in="SourceGraphic" in2="BackgroundImageFix" result="shape"/>
<feGaussianBlur stdDeviation="2" result="effect1_foregroundBlur"/>
</filter>
<radialGradient id="paint0_radial" cx="0" cy="0" r="1" gradientUnits="userSpaceOnUse" gradientTransform="translate(287.002 234.5) rotate(36.5877) scale(304.504 162.711)">
<stop stop-color="#FEFEFE"/>
<stop offset="1" stop-color="#0E0E0E" stop-opacity="0"/>
</radialGradient>
<linearGradient id="paint1_linear" x1="386.002" y1="-23" x2="379.502" y2="84.5" gradientUnits="userSpaceOnUse">
<stop/>
<stop offset="1" stop-color="#5C5C5C"/>
</linearGradient>
<linearGradient id="paint2_linear" x1="20.0058" y1="309" x2="185.004" y2="301" gradientUnits="userSpaceOnUse">
<stop/>
<stop offset="1" stop-color="#444242"/>
</linearGradient>
<linearGradient id="paint3_linear" x1="1437.13" y1="239.5" x2="1309.29" y2="239.5" gradientUnits="userSpaceOnUse">
<stop/>
<stop offset="1" stop-color="#444444"/>
</linearGradient>
<linearGradient id="paint4_linear" x1="807.001" y1="551" x2="785" y2="377" gradientUnits="userSpaceOnUse">
<stop/>
<stop offset="1" stop-color="#484848"/>
</linearGradient>
</defs>
</svg>
