<svg width="42" height="29" viewBox="0 0 42 29" fill="none" xmlns="http://www.w3.org/2000/svg">
<path d="M40.5671 4.52795C40.0925 2.74841 38.6886 1.34455 36.9025 0.863409C33.673 3.14279e-07 20.7152 0 20.7152 0C20.7152 0 7.76409 3.14279e-07 4.52796 0.863409C2.74841 1.33795 1.34455 2.74182 0.863409 4.52795C0 7.7575 0 14.5 0 14.5C0 14.5 0 21.2425 0.863409 24.472C1.33795 26.2516 2.74182 27.6555 4.52796 28.1366C7.76409 29 20.7152 29 20.7152 29C20.7152 29 33.673 29 36.9025 28.1366C38.6821 27.662 40.0859 26.2582 40.5671 24.472C41.4305 21.2425 41.4305 14.5 41.4305 14.5C41.4305 14.5 41.4305 7.7575 40.5671 4.52795Z" fill="#F7F7F7"/>
<path d="M16.5761 20.7156L27.3391 14.5004L16.5761 8.28516V20.7156Z" fill="#101010"/>
</svg>
