<svg width="185" height="32" viewBox="0 0 185 32" fill="none" xmlns="http://www.w3.org/2000/svg">
<path d="M0.000801894 0.0280696C4.63268 0.0280696 9.26697 -0.0579045 13.8948 0.0710759C16.5626 0.14512 18.9022 1.1284 20.153 3.71279C20.9343 5.3155 21.0582 7.15649 20.4988 8.8481C20.1507 9.91447 19.4112 10.812 18.4272 11.3624C18.2218 11.4874 18.0132 11.6077 17.7581 11.7605C17.8469 11.827 17.9414 11.8855 18.0405 11.9357C20.9634 12.9994 22.4341 15.9444 21.9719 19.1259C21.3694 23.2923 18.8372 25.6036 14.5696 25.7342C10.0107 25.8775 5.44545 25.8218 0.882567 25.8552C0.587308 25.8552 0.291248 25.8791 0 25.891L0.000801894 0.0280696ZM7.18972 14.9237V20.0527C9.07601 20.0527 10.9174 20.1458 12.7443 20.0224C13.0588 19.9949 13.3644 19.9047 13.643 19.7573C13.9216 19.61 14.1674 19.4084 14.3657 19.1646C14.564 18.9209 14.7108 18.6399 14.7972 18.3386C14.8837 18.0373 14.908 17.7218 14.8689 17.411C14.8288 16.0264 14.0312 14.9994 12.7515 14.9428C10.9158 14.8648 9.0736 14.9237 7.18972 14.9237ZM7.13115 10.0455C8.80482 10.0455 10.4207 10.0997 12.0302 10.0273C12.2995 10.01 12.5625 9.93964 12.8041 9.82043C13.0457 9.70122 13.261 9.53548 13.4374 9.33288C13.6138 9.13028 13.7477 8.89487 13.8315 8.64036C13.9153 8.38585 13.9472 8.11736 13.9253 7.8505C13.9598 7.5958 13.9414 7.33677 13.8713 7.08939C13.8011 6.842 13.6807 6.61149 13.5173 6.41205C13.354 6.21261 13.1512 6.04846 12.9216 5.9297C12.6919 5.81094 12.4402 5.74009 12.1818 5.72152C10.5138 5.61324 8.8337 5.69365 7.12714 5.69365L7.13115 10.0455Z" fill="#9FA8AD"/>
<path d="M94.8387 25.8178H88.3205C88.3037 25.5494 88.274 25.2915 88.2724 25.0327C88.2451 21.5359 88.2491 18.0391 88.1842 14.5431C88.2268 14.0275 88.0711 13.5149 87.7484 13.1086C87.4257 12.7022 86.9599 12.4322 86.4447 12.3528C85.8874 12.2499 85.3115 12.3642 84.8371 12.6722C84.3627 12.9801 84.0263 13.4578 83.898 14.0057C83.7532 14.4078 83.672 14.8297 83.6574 15.2565C83.6301 18.5057 83.6108 21.7549 83.6389 25.0041C83.6445 25.6792 83.4873 25.8958 82.7756 25.8727C81.0658 25.817 79.3536 25.8544 77.6406 25.8544H76.8672V7.41336H83.0781V10.0216L83.2265 10.1618C83.7205 9.15975 84.4898 8.3167 85.4457 7.72983C86.4017 7.14297 87.5054 6.8362 88.6294 6.8449C89.7496 6.74868 90.8715 7.00876 91.8328 7.58747C92.7941 8.16619 93.5448 9.03352 93.9762 10.0638C94.1367 9.84329 94.2642 9.68565 94.3774 9.51925C96.3904 6.51846 100.328 6.35524 102.681 7.44441C104.615 8.34011 105.462 10.0328 105.825 11.9985C105.964 12.7982 106.033 13.6083 106.03 14.4197C106.051 18.0073 106.04 21.5956 106.038 25.1832C106.038 25.3806 106.013 25.5813 105.997 25.8122H99.5147C99.5002 25.559 99.4738 25.301 99.473 25.0431C99.4585 21.6362 99.4521 18.2294 99.4281 14.8218C99.4199 14.4615 99.3605 14.1042 99.2515 13.7605C99.1654 13.3934 98.9673 13.0616 98.6841 12.8104C98.401 12.5591 98.0466 12.4008 97.6693 12.3568C97.266 12.2549 96.8403 12.2841 96.4549 12.44C96.0694 12.5959 95.7445 12.8704 95.5279 13.2231C95.1694 13.8181 94.9547 14.4873 94.9005 15.1785C94.8259 18.4484 94.8475 21.7206 94.8347 24.9921C94.8379 25.258 94.8387 25.5216 94.8387 25.8178Z" fill="#9FA8AD"/>
<path d="M166.734 25.8854C168.765 25.8854 170.745 25.8783 172.728 25.899C172.82 25.916 172.907 25.9512 172.985 26.0025C173.063 26.0538 173.129 26.1202 173.18 26.1975C173.554 26.6999 174.072 27.0776 174.666 27.2806C175.261 27.4835 175.904 27.502 176.509 27.3337C177.063 27.2262 177.561 26.9284 177.916 26.4925C178.27 26.0566 178.458 25.5107 178.447 24.9507C178.505 24.3687 178.506 23.7811 178.527 23.1991C178.527 23.1195 178.494 23.0399 178.502 23.0781C177.647 23.687 176.733 24.2108 175.774 24.6418C174.15 25.1567 172.391 25.0564 170.837 24.3602C169.282 23.6641 168.043 22.4214 167.357 20.8719C166.516 19.0962 166.153 17.1346 166.302 15.1781C166.452 13.2216 167.11 11.337 168.212 9.70796C168.978 8.4962 170.134 7.57705 171.493 7.10003C172.851 6.623 174.333 6.61614 175.696 7.08056C176.938 7.49309 177.994 8.32662 178.679 9.43485V7.34091H184.949C184.964 7.56702 184.989 7.76052 184.989 7.95478C184.989 13.2095 185.029 18.4643 184.96 23.719C184.917 24.8869 184.695 26.0413 184.301 27.1426C183.981 28.1278 183.423 29.0203 182.676 29.7427C181.928 30.4651 181.015 30.9954 180.014 31.2875C177.075 32.2779 173.881 32.2346 170.97 31.1649C169.83 30.7776 168.825 30.0747 168.075 29.1393C167.324 28.2038 166.859 27.0748 166.734 25.8854ZM172.643 15.9818C172.866 16.9622 173.185 17.9187 173.594 18.8377C173.801 19.24 174.115 19.5783 174.503 19.8157C174.89 20.0531 175.335 20.1806 175.79 20.1842C176.245 20.1878 176.693 20.0674 177.084 19.8362C177.475 19.6049 177.794 19.2717 178.007 18.8727C178.554 18.0058 178.845 17.0044 178.848 15.9818C178.851 14.9592 178.566 13.9561 178.024 13.0861C177.804 12.6785 177.476 12.3389 177.074 12.1049C176.672 11.8708 176.213 11.7513 175.747 11.7596C175.281 11.7678 174.827 11.9034 174.434 12.1515C174.041 12.3996 173.724 12.7506 173.519 13.1657C173.138 14.0747 172.844 15.0176 172.643 15.9818Z" fill="#9FA8AD"/>
<path d="M115.81 23.6313V25.8168H109.592V0.0565186H116.07V9.27226C116.206 9.19253 116.334 9.09829 116.449 8.99121C118.786 5.94106 124.976 5.69662 127.492 10.3232C128.693 12.6432 129.186 15.2604 128.91 17.8542C128.833 19.4548 128.437 21.0244 127.745 22.472C126.974 24.0433 125.646 25.2767 124.015 25.9353C122.384 26.594 120.566 26.6314 118.909 26.0405C117.662 25.5526 116.585 24.7156 115.81 23.6313ZM122.355 16.4729C122.142 15.3765 121.87 14.2923 121.539 13.2253C121.38 12.7466 121.07 12.3311 120.656 12.0389C120.242 11.7468 119.745 11.5935 119.237 11.6011C118.731 11.5602 118.225 11.6705 117.783 11.9177C117.341 12.1649 116.983 12.5376 116.757 12.988C116.165 14.0586 115.857 15.2606 115.861 16.4815C115.866 17.7024 116.182 18.9023 116.781 19.9689C117.014 20.4281 117.384 20.8057 117.839 21.0511C118.295 21.2965 118.815 21.3981 119.331 21.3423C119.838 21.3346 120.329 21.1673 120.734 20.8645C121.139 20.5618 121.437 20.1391 121.584 19.6576C121.896 18.6098 122.153 17.5468 122.355 16.4729H122.355Z" fill="#9FA8AD"/>
<path d="M150.024 18.3974H137.562C137.549 20.8011 139.488 22.3306 141.673 21.7079C142.001 21.6128 142.307 21.4534 142.572 21.2391C142.836 21.0248 143.055 20.76 143.215 20.4603C143.264 20.3707 143.331 20.2921 143.412 20.2297C143.493 20.1673 143.586 20.1225 143.685 20.0981C145.531 20.0726 147.376 20.0806 149.226 20.083C149.359 20.083 149.491 20.1037 149.686 20.1204C149.266 22.0688 148.103 23.7806 146.44 24.8974C144.52 26.0466 142.29 26.5804 140.054 26.4259C137.818 26.2715 135.684 25.4363 133.943 24.0344C132.184 22.4261 131.12 20.2046 130.975 17.8354C130.647 15.3976 131.2 12.9236 132.536 10.8521C134.521 7.88713 137.445 6.71198 140.928 6.87121C146.521 7.11803 149.201 11.0042 149.794 15.4158C149.92 16.3672 149.944 17.3322 150.024 18.3974ZM137.507 14.6196H143.352C143.398 14.2186 143.362 13.8124 143.245 13.4259C143.127 13.0393 142.932 12.6806 142.67 12.3717C142.408 12.0627 142.086 11.81 141.722 11.6291C141.359 11.4482 140.962 11.3428 140.555 11.3194C138.813 11.2255 137.68 12.4373 137.504 14.6196H137.507Z" fill="#9FA8AD"/>
<path d="M42.9209 6.93567C47.9484 6.93567 51.3823 9.60366 52.3885 14.3751C52.8887 16.6384 52.6643 19.0001 51.7466 21.1307C51.2973 22.235 50.6097 23.2282 49.7321 24.0406C48.8546 24.853 47.8083 25.4647 46.667 25.8329C44.1987 26.7102 41.4961 26.685 39.0448 25.762C35.5948 24.4698 33.8409 21.848 33.317 18.3274C33.0483 16.5601 33.2022 14.7549 33.7663 13.0575C35.0396 9.18885 38.4303 6.93806 42.9209 6.93567ZM45.9369 16.9969C45.8093 15.8942 45.7403 15.1315 45.6248 14.3767C45.5624 14.0213 45.4596 13.6741 45.3183 13.3417C45.1578 12.7942 44.8214 12.3138 44.3604 11.9734C43.8994 11.6331 43.339 11.4515 42.7645 11.4564C42.1994 11.4615 41.6524 11.6548 41.2111 12.0051C40.7699 12.3555 40.46 12.8427 40.331 13.3887C39.6186 15.5451 39.6243 17.8718 40.347 20.0248C40.4703 20.5602 40.7683 21.0402 41.1947 21.3903C41.6211 21.7404 42.152 21.9411 42.7051 21.9611C43.282 21.9838 43.8494 21.8103 44.3134 21.4693C44.7774 21.1283 45.1101 20.6403 45.2565 20.0861C45.5474 19.0711 45.776 18.0395 45.9409 16.9969H45.9369Z" fill="#9FA8AD"/>
<path d="M73.9338 16.6252C73.8624 19.8895 72.9285 22.6952 70.2215 24.6785C66.4705 27.4277 59.1805 27.2135 56.122 22.3807C53.6147 18.419 54.2053 12.4691 57.478 9.37997C58.9402 8.02706 60.8144 7.19542 62.8055 7.01613C64.9848 6.68635 67.2136 7.03603 69.184 8.01692C72.1174 9.56229 73.4757 12.1212 73.8496 15.2828C73.9066 15.7526 73.9066 16.2287 73.9338 16.6252ZM67.2287 16.587C67.28 15.3055 67.0194 14.0307 66.4689 12.8704C66.3025 12.5224 66.0554 12.2183 65.7479 11.9831C65.4405 11.7479 65.0813 11.5881 64.6998 11.5169C63.2804 11.2781 62.2206 11.9349 61.6846 13.4381C61.1827 15.0342 61.0637 16.7246 61.3372 18.3744C61.4196 19.1327 61.6441 19.8691 61.9991 20.5455C62.3137 21.0855 62.7852 21.5186 63.3519 21.7884C63.9321 22.0147 64.5781 22.0098 65.1549 21.7748C65.7316 21.5398 66.1947 21.0929 66.4473 20.5272C67.0279 19.2968 67.2961 17.944 67.2287 16.587Z" fill="#9FA8AD"/>
<path d="M23.1855 25.8535V0.0629883H29.9091V25.8535H23.1855Z" fill="#9FA8AD"/>
<path d="M153.201 7.41026H159.439V10.595C159.909 9.9421 160.227 9.4405 160.604 8.98668C161.167 8.28453 161.9 7.73514 162.735 7.38963C163.569 7.04412 164.478 6.91371 165.377 7.01057C165.865 7.04481 166.087 7.22874 166.071 7.77173C166.031 9.25899 166.059 10.7486 166.055 12.2367C166.055 12.4325 166.031 12.6292 166.02 12.7765C165.21 12.7353 164.398 12.7403 163.588 12.7916C162.636 12.8804 161.746 13.3026 161.079 13.9826C160.411 14.6627 160.009 15.5562 159.945 16.5034C159.829 17.6674 159.779 18.8369 159.793 20.0065C159.768 21.9007 159.78 23.7947 159.775 25.6888C159.763 25.7443 159.743 25.7978 159.716 25.8481H153.202L153.201 7.41026Z" fill="#9FA8AD"/>
</svg>
