<svg width="101" height="32" viewBox="0 0 101 32" fill="none" xmlns="http://www.w3.org/2000/svg">
<path d="M0.000473437 0.347113C1.92125 0.347113 3.80321 0.20131 5.65271 0.385024C7.79553 0.595955 8.81801 2.15267 8.48398 4.2819C8.42509 4.71365 8.25823 5.12346 7.99895 5.47321C7.73966 5.82297 7.39633 6.10131 7.00094 6.28235C7.51424 6.49802 7.96388 6.84194 8.30692 7.28131C8.64996 7.72067 8.87495 8.24082 8.9605 8.79214C9.08098 9.48177 8.97166 10.192 8.64939 10.8131C8.32712 11.4342 7.80983 11.9317 7.17742 12.2288C6.42991 12.5241 5.64004 12.6974 4.83781 12.742C3.24719 12.8198 1.64977 12.7653 0 12.7653L0.000473437 0.347113ZM2.04631 10.9962C3.21565 10.9413 4.34669 10.9564 5.45736 10.8154C5.66144 10.8025 5.86094 10.7491 6.04431 10.6584C6.22767 10.5676 6.39126 10.4413 6.52561 10.2868C6.65997 10.1323 6.76239 9.95256 6.82701 9.75807C6.89163 9.56358 6.91714 9.35817 6.90205 9.15373C6.92775 8.21135 6.47302 7.49642 5.51796 7.36082C4.38983 7.20092 3.23505 7.23251 2.04584 7.17905L2.04631 10.9962ZM2.05454 2.09581V5.54312C3.16133 5.48868 4.22449 5.51493 5.26148 5.36183C6.15011 5.23061 6.56463 4.55651 6.53603 3.65252C6.54666 3.45969 6.51899 3.26667 6.4546 3.08466C6.39021 2.90265 6.29039 2.73527 6.16095 2.59225C6.0315 2.44923 5.87499 2.33342 5.70053 2.25153C5.52607 2.16965 5.33712 2.12331 5.14466 2.11524C4.14209 2.03019 3.12643 2.09629 2.05454 2.09629V2.09581Z" fill="#9FA8AD"/>
<path d="M54.8506 31.7103V19.2308C56.9444 19.3149 59.0102 19.2542 61.0337 19.5176C63.2177 19.8024 64.6697 21.2186 65.2728 23.3328C65.9641 25.7507 65.7329 28.0637 64.007 30.0476C63.6107 30.5217 63.1231 30.9107 62.5733 31.1913C62.0235 31.4719 61.4228 31.6383 60.8073 31.6806C58.8521 31.7939 56.8877 31.7103 54.8506 31.7103ZM56.8926 21.118V30.016C58.2393 29.931 59.5425 29.8663 60.8412 29.7526C61.1367 29.6973 61.4168 29.5784 61.662 29.4041C63.6254 28.2221 64.2048 24.6003 62.6602 22.6587C62.2037 22.054 61.5642 21.6136 60.8374 21.4033C59.5305 21.2174 58.2125 21.122 56.8926 21.118Z" fill="#9FA8AD"/>
<path d="M50.8252 0.0705566L59.346 8.20306V0.261549H61.3652V12.8858L52.8134 4.58127V12.7264H50.8257L50.8252 0.0705566Z" fill="#9FA8AD"/>
<path d="M89.9578 26.841L94.2904 31.8246C93.4425 31.8246 92.7643 31.8479 92.0904 31.8081C91.9241 31.7979 91.7428 31.6034 91.6143 31.4547C90.494 30.1585 89.3416 28.8856 88.2867 27.5374C88.0514 27.1803 87.7028 26.9133 87.2972 26.7796C86.8917 26.6458 86.453 26.6533 86.0522 26.8006V31.7886H84.0112V19.4351C85.9087 19.4351 87.7587 19.3495 89.5966 19.4637C90.2304 19.4777 90.8441 19.6895 91.3522 20.0695C91.8602 20.4496 92.2374 20.9791 92.4312 21.5842C92.9107 22.965 92.901 24.3705 91.9353 25.5239C91.4665 26.0838 90.6796 26.3763 89.9578 26.841ZM86.0794 24.9086C87.1459 24.9086 88.1427 24.9829 89.122 24.8872C89.3372 24.869 89.5467 24.8083 89.7384 24.7088C89.9302 24.6092 90.1005 24.4727 90.2395 24.307C90.3785 24.1414 90.4836 23.9498 90.5486 23.7434C90.6137 23.5369 90.6375 23.3197 90.6186 23.104C90.6336 22.1174 90.1439 21.3655 89.1976 21.2605C88.1594 21.1958 87.1185 21.1874 86.0794 21.2353V24.9086Z" fill="#9FA8AD"/>
<path d="M27.0834 31.9236L18.5878 23.6677V31.7458H16.6001V19.1779L25.1083 27.2943V19.3412H27.0819L27.0834 31.9236Z" fill="#9FA8AD"/>
<path d="M13.651 0.255249H15.6682C15.6682 0.546859 15.6682 0.795221 15.6682 1.04406C15.6775 3.4095 15.6484 5.77591 15.7085 8.1399C15.7657 10.3877 17.5507 11.6023 19.6799 10.9146C20.7368 10.5744 21.178 9.73305 21.3733 8.73235C21.4656 8.23157 21.511 7.72327 21.5091 7.21404C21.5227 4.91907 21.5154 2.62409 21.5154 0.271282H23.4992C23.5258 0.315996 23.5695 0.354881 23.5695 0.393276C23.5564 3.12858 23.6053 5.86583 23.5045 8.59772C23.3954 11.5673 21.0616 13.1881 18.1892 12.9665C15.1703 12.7337 13.5923 10.9359 13.5904 7.88376C13.5884 5.40216 13.5917 2.92072 13.6001 0.439448C13.6108 0.376476 13.6278 0.314759 13.651 0.255249Z" fill="#9FA8AD"/>
<path d="M67.1601 0.243042H74.6745V2.05636H69.2341V5.09008H74.0477V6.95298H69.2341V10.8601H74.6881V12.723H67.1577L67.1601 0.243042Z" fill="#9FA8AD"/>
<path d="M70.1934 19.3325H77.6147V21.192H72.1611V24.1533H76.9825V26.0517H72.1602V29.9233H77.6137V31.793H70.1938L70.1934 19.3325Z" fill="#9FA8AD"/>
<path d="M79.6271 9.64131C80.7912 10.5915 82.2512 11.1019 83.7523 11.0833C84.0511 11.074 84.3482 11.0331 84.6385 10.9613C85.5819 10.7348 86.0303 10.277 86.087 9.51931C86.1355 8.84375 85.737 8.26053 84.8954 7.90866C84.0014 7.53491 83.0818 7.22483 82.1805 6.86907C80.3688 6.15414 79.5069 4.96145 79.568 3.28081C79.6281 1.6337 80.7897 0.437612 82.6906 0.0983727C84.0904 -0.137657 85.5288 0.0533487 86.8191 0.646609C87.0428 0.703247 87.2364 0.843418 87.3604 1.03847C87.4844 1.23353 87.5294 1.46872 87.4862 1.69592C87.4543 2.17742 87.4508 2.66037 87.4755 3.14229L86.6082 2.60428C85.5248 1.95217 84.2429 1.71418 82.9984 1.93406C82.6575 1.94567 82.3326 2.08217 82.0853 2.31772C81.838 2.55328 81.6855 2.87154 81.6565 3.21229C81.5947 3.54921 81.662 3.89708 81.8449 4.18645C82.0278 4.47583 82.3128 4.68541 82.643 4.77337C83.5157 5.13642 84.4121 5.44941 85.3002 5.77796C87.5303 6.60419 88.4931 8.20416 88.0049 10.2814C87.6815 11.6563 86.3905 12.6731 84.6758 12.902C83.1315 13.1165 81.5586 12.8604 80.1614 12.1671C79.9863 12.1155 79.8354 12.0028 79.7359 11.8494C79.6364 11.6961 79.5949 11.5121 79.6189 11.3307C79.6601 10.8286 79.6271 10.3203 79.6271 9.64131Z" fill="#9FA8AD"/>
<path d="M92.5002 9.66563C93.7 10.6447 95.2165 11.1482 96.7621 11.0809C97.482 11.0459 98.214 10.9351 98.663 10.2697C98.7854 10.0922 98.8677 9.89004 98.9041 9.67732C98.9405 9.4646 98.9301 9.24647 98.8737 9.03819C98.8173 8.8299 98.7162 8.63648 98.5775 8.47144C98.4387 8.3064 98.2657 8.17372 98.0705 8.08267C97.2648 7.68851 96.4057 7.40225 95.5714 7.06787C95.2078 6.92207 94.834 6.79279 94.4884 6.6115C92.8241 5.7391 92.1952 4.54253 92.4755 2.82398C92.7111 1.37711 93.8445 0.374939 95.5743 0.0896472C96.9294 -0.119032 98.3158 0.060576 99.5734 0.607745C100.107 0.824995 100.407 1.11661 100.322 1.74357C100.291 2.18938 100.287 2.63676 100.312 3.08302C100.129 3.01525 99.9518 2.9315 99.7833 2.83273C98.737 2.0824 97.4503 1.74766 96.1721 1.89325C95.2107 1.96616 94.5766 2.43564 94.4791 3.14328C94.3657 3.96951 94.6774 4.42831 95.6654 4.83851C96.7926 5.30655 97.9682 5.67786 99.0464 6.23872C99.7192 6.54079 100.272 7.05968 100.617 7.71286C100.961 8.36605 101.078 9.11602 100.949 9.84351C100.715 11.4819 99.6495 12.3518 98.1602 12.7509C96.3987 13.2204 94.5245 12.9906 92.9278 12.1093C92.8165 12.0299 92.7227 11.9283 92.6526 11.8107C92.5824 11.6932 92.5373 11.5624 92.5201 11.4265C92.4814 10.8403 92.4748 10.2525 92.5002 9.66563Z" fill="#9FA8AD"/>
<path d="M28.6094 9.6602C29.7884 10.6331 31.2822 11.139 32.8082 11.0823C33.1768 11.0701 33.5424 11.011 33.8961 10.9063C34.1937 10.843 34.4635 10.6865 34.6666 10.4593C34.8696 10.2322 34.9954 9.9462 35.0257 9.6427C35.0849 9.32989 35.0359 9.00619 34.8868 8.72503C34.7378 8.44388 34.4976 8.22206 34.2059 8.09619C33.3246 7.6962 32.4068 7.3764 31.506 7.01918C30.328 6.55163 29.1999 6.0175 28.7383 4.69505C27.9685 2.48902 29.2318 0.505105 31.6927 0.101226C33.1185 -0.131257 34.5812 0.0808084 35.8828 0.708746C36.0691 0.76362 36.2287 0.885172 36.3314 1.05031C36.4341 1.21545 36.4727 1.41267 36.4398 1.60447C36.3952 2.0623 36.4301 2.5279 36.4301 3.11112C36.0806 2.9138 35.8072 2.7748 35.5498 2.61053C34.5094 1.97864 33.2799 1.73542 32.0781 1.92379C31.0523 2.04189 30.5069 2.6776 30.5796 3.56992C30.6069 3.84979 30.7177 4.11494 30.8974 4.3308C31.0772 4.54666 31.3177 4.70323 31.5875 4.7801C32.465 5.13441 33.357 5.45372 34.2442 5.78324C35.8033 6.36209 36.9338 7.30885 37.0837 9.09836C37.2456 11.0278 35.8843 12.57 33.724 12.9C32.1822 13.1338 30.6058 12.8967 29.2003 12.2196C29.0014 12.1652 28.8298 12.0386 28.7187 11.8645C28.6076 11.6903 28.565 11.481 28.5992 11.2772C28.6298 10.7387 28.6332 10.199 28.6094 9.6602Z" fill="#9FA8AD"/>
<path d="M40.3706 22.3083C39.307 21.3971 37.9384 20.924 36.5406 20.9844C36.2186 21.0002 35.8992 21.0509 35.588 21.1355C35.3006 21.1929 35.0404 21.3445 34.8484 21.5664C34.6563 21.7883 34.5434 22.0679 34.5273 22.3613C34.4888 22.6537 34.549 22.9506 34.6984 23.2047C34.8477 23.4588 35.0776 23.6555 35.3514 23.7634C36.1727 24.1294 37.0245 24.4259 37.8627 24.7535C38.1856 24.8798 38.5172 24.9882 38.8275 25.1423C40.4273 25.9291 41.1884 27.2681 40.9809 28.8972C40.787 30.4107 39.6909 31.4882 37.9752 31.8493C36.3775 32.169 34.7201 31.977 33.2372 31.3006C33.0266 31.2447 32.845 31.1107 32.7291 30.9258C32.6132 30.7409 32.5717 30.5187 32.6128 30.3042C32.6416 29.7975 32.645 29.2896 32.623 28.7825C32.9139 28.9628 33.1165 29.0892 33.3201 29.2151C34.5778 30.0331 36.1053 30.3241 37.5747 30.0258C37.9245 29.9904 38.2526 29.8392 38.5072 29.5961C38.7618 29.3531 38.9283 29.0319 38.9806 28.6834C39.0267 28.3451 38.9538 28.0013 38.7744 27.711C38.5951 27.4207 38.3206 27.2021 37.998 27.0926C37.2262 26.7315 36.4151 26.455 35.619 26.1459C34.3479 25.6516 33.1184 25.1039 32.6647 23.6463C32.0475 21.6653 33.0448 19.8758 35.1318 19.331C36.7824 18.8869 38.5409 19.1109 40.0283 19.9545C40.1115 20.0016 40.1838 20.0658 40.2405 20.1429C40.2972 20.2199 40.3371 20.3081 40.3575 20.4017C40.3948 20.9708 40.3706 21.5453 40.3706 22.3083Z" fill="#9FA8AD"/>
<path d="M44.5908 12.7347H42.6143V0.263062H44.5908V12.7347Z" fill="#9FA8AD"/>
<path d="M48.5356 31.7896H46.5542V19.3475H48.5356V31.7896Z" fill="#9FA8AD"/>
<path d="M10.3915 31.7925H8.41357V19.3558H10.3915V31.7925Z" fill="#9FA8AD"/>
</svg>
