<svg width="309" height="25" viewBox="0 0 309 25" fill="none" xmlns="http://www.w3.org/2000/svg">
<path d="M86.5931 0.473622V24.1055C82.3673 24.9817 82.3014 24.9245 80.1785 21.401C77.6633 17.2217 75.0972 13.0719 72.1679 8.27914V24.2607H67.438V0.610963C70.3504 -0.212856 72.2917 0.362049 73.7868 3.21381C76.1557 7.60632 78.8747 11.8048 81.918 15.7696V0.473622H86.5931Z" fill="#9FA8AD"/>
<path d="M289.629 0.414307H294.279V10.5234H304.309V0.515112H309V24.2577H304.491V14.4934H294.445V24.2952H289.634L289.629 0.414307Z" fill="#9FA8AD"/>
<path d="M231.435 24.4611C230.552 24.5095 229.87 24.5737 229.188 24.5787C226.11 24.6034 225.863 24.3564 225.755 21.2202C225.555 15.3408 224.014 14.1209 217.581 15.1492V24.2962H213.103V0.504247C216.487 0.504247 219.926 0.306626 223.33 0.563452C226.438 0.799534 228.973 2.26542 229.907 5.50241C230.778 8.51617 229.982 10.3022 226.663 13.0156C232.306 15.2036 229.39 20.6887 231.435 24.4611ZM217.706 11.2939C220.413 10.8444 223.426 12.3103 224.92 9.3242C225.16 8.6763 225.244 7.98197 225.166 7.29616C225.088 6.61036 224.85 5.95192 224.471 5.37303C222.749 3.33423 220.198 3.81625 217.706 4.13926V11.2939Z" fill="#9FA8AD"/>
<path d="M200.66 15.3053L195.79 15.0604V11.8845H205.032C205.032 14.8213 205.063 17.7738 204.998 20.7254C204.899 21.2221 204.638 21.6729 204.256 22.0094C200.638 25.8134 192.321 25.8994 188.558 22.1922C184.418 18.1126 184.654 6.38751 188.957 2.5045C192.204 -0.431224 198.522 -0.723603 201.977 1.96912C202.874 2.61918 203.577 3.49593 204.014 4.50757C204.45 5.51922 204.604 6.62854 204.458 7.7191H200.406C199.099 4.26973 197.766 3.34909 194.755 3.77384C192.434 4.1008 190.729 6.2433 190.586 9.23335C190.344 11.3611 190.373 13.5106 190.672 15.6313C191.031 17.4291 191.934 19.0762 193.261 20.354C194.105 21.057 195.176 21.4373 196.279 21.4263C197.383 21.4152 198.446 21.0135 199.275 20.2937C200.307 19.3731 200.193 17.19 200.66 15.3053Z" fill="#9FA8AD"/>
<path d="M45.8549 12.4862C45.7871 14.4434 45.5477 16.3912 45.1393 18.3073C43.8518 22.6092 39.543 25.2021 34.8301 24.8268C30.1172 24.4514 26.5123 21.5077 25.8356 17.0152C25.4421 14.4026 25.3885 11.7509 25.676 9.12481C26.3227 3.35906 30.5933 -0.299741 35.8791 0.0193157C41.7847 0.375909 45.3259 3.95073 45.6403 9.89724C45.6852 10.7507 45.6473 11.6081 45.6473 12.4655L45.8549 12.4862ZM41.0642 13.2251C40.9723 11.1834 41.0192 9.80139 40.8276 8.45305C40.6903 7.21244 40.1141 6.05984 39.2008 5.19932C38.2875 4.33879 37.096 3.82582 35.8372 3.75115C33.1664 3.63163 30.9756 4.96815 30.6283 7.71619C30.2578 10.8379 30.2603 13.9918 30.6354 17.113C30.8485 18.2354 31.444 19.2517 32.3225 19.9922C33.2011 20.7327 34.3094 21.1528 35.4629 21.1823C36.6165 21.2119 37.7455 20.8492 38.6616 20.1548C39.5777 19.4603 40.2255 18.476 40.4971 17.366C40.7864 16.0009 40.9763 14.6171 41.0651 13.2251H41.0642Z" fill="#9FA8AD"/>
<path d="M257.731 24.2546C253.026 24.7278 253.026 24.7278 251.086 19.2702H243.22C242.282 22.2958 241.81 26.0811 236.732 24.059C237.337 22.1931 237.96 20.1948 238.629 18.2133C240.445 12.8664 242.234 7.50965 244.17 2.20619C244.346 1.79119 244.618 1.42325 244.965 1.13242C245.312 0.841595 245.724 0.636051 246.166 0.532776C247.443 0.527837 249.596 0.8222 249.865 1.54625C252.641 8.98334 255.109 16.5311 257.731 24.2546ZM250.035 15.5838L247.463 7.65279L246.846 7.76144L244.425 15.3675C245.236 15.4663 245.722 15.5651 246.221 15.5789C247.332 15.6016 248.445 15.5838 250.035 15.5838Z" fill="#9FA8AD"/>
<path d="M268.635 24.3367H264.107V0.594121C268.012 0.594121 271.904 0.25142 275.706 0.684074C280.098 1.1839 282.41 4.34974 282.202 8.53107C282.002 12.5089 279.107 15.3339 274.742 15.6431C272.859 15.7765 270.957 15.6659 268.635 15.6659V24.3367ZM268.658 12.0743C270.663 12.0743 272.294 12.1968 273.898 12.0456C276.386 11.8115 277.89 10.0838 277.361 7.65288C277.101 6.45173 276.016 4.79918 274.984 4.52359C273.109 4.02179 270.992 4.37932 268.981 4.44352C268.864 4.44352 268.676 5.02642 268.673 5.33955C268.645 7.51862 268.658 9.69966 268.658 12.0743Z" fill="#9FA8AD"/>
<path d="M118.061 24.2687V0.526123H133.365V3.85293H123.055V10.0761H131.671V13.7181H122.988V20.7956H133.326V24.2716L118.061 24.2687Z" fill="#9FA8AD"/>
<path d="M163.76 0.352173C168.613 0.352173 173.274 0.352108 177.932 0.360011C178.294 0.392729 178.653 0.453893 179.005 0.54281V3.90133H168.512V10.0127H177.345V13.7802H168.402V20.8074H178.909V24.313H163.76V0.352173Z" fill="#9FA8AD"/>
<path d="M19.472 8.01536H14.4736L14.8968 7.46418C13.7051 6.27883 12.719 4.56013 11.2798 4.01487C10.6161 3.72604 9.89102 3.60224 9.16792 3.65445C8.44481 3.70666 7.74565 3.93328 7.13133 4.31439C6.51701 4.69549 6.00612 5.21958 5.64348 5.84093C5.28084 6.46229 5.07749 7.16202 5.05088 7.8791C4.74769 10.9336 4.74068 14.0097 5.02992 17.0655C5.1302 18.1947 5.64797 19.2477 6.48414 20.0224C7.32031 20.7971 8.41609 21.239 9.5612 21.2636C12.5105 21.3436 13.9816 19.699 14.3749 16.8571H18.4149C18.9788 19.6881 17.7163 21.7398 15.5754 23.2106C9.62895 27.2843 1.37787 24.0591 0.293967 17.0398C-0.14759 13.6582 -0.0914551 10.2312 0.460637 6.86562C0.677648 5.31175 1.38336 3.8649 2.47773 2.73021C3.5721 1.59551 4.99973 0.830528 6.55797 0.543726C10.2099 -0.302812 13.9435 -0.246543 16.7231 2.68029C17.9268 3.95454 18.414 5.88963 19.472 8.01536Z" fill="#9FA8AD"/>
<path d="M104.236 24.3339H99.6709V3.96558H93.0078V0.508301H111.393V3.90926C109.784 3.90926 108.244 4.013 106.725 3.88262C104.882 3.72457 104.341 4.45461 104.369 6.22079C104.456 11.6971 104.402 17.1754 104.39 22.6537C104.388 23.1525 104.301 23.6503 104.236 24.3339Z" fill="#9FA8AD"/>
<path d="M140.776 24.2982V0.519043H145.453V20.9179H156.225V24.2982H140.776Z" fill="#9FA8AD"/>
<path d="M58.2873 24.408H53.9707V0.533936H58.2873V24.408Z" fill="#9FA8AD"/>
</svg>
