<svg width="158" height="31" viewBox="0 0 158 31" fill="none" xmlns="http://www.w3.org/2000/svg">
<path d="M0.231457 21.0429L2.22908 20.7245V2.2866L0 1.99713L0.115728 0H14.0688L13.7214 5.58646L10.9425 5.49956L10.7688 1.99713H6.45556V10.3043H8.33704L8.77138 8.39407L10.7108 8.45201V14.1831H8.77138L8.30826 12.2147H6.42658V21.0139H10.7688L11.1742 17.1933L14.0978 17.2802L14.3293 23.098H0.144921L0.231457 21.0429ZM15.6321 23.1269L15.7191 21.4193L17.2821 21.1008V9.46506L15.4584 9.29125V7.55462L20.0323 6.88898L20.3797 7.87306V8.5387C21.4796 7.38102 22.8112 6.68621 24.5192 6.68621C27.0089 6.68621 28.8614 8.1915 28.8614 11.1727V21.0719L30.5117 21.3903L30.4247 23.098H24.9823V12.0411C24.9823 10.4489 24.4035 9.55175 22.9559 9.55175C22.4638 9.55175 22.1164 9.63866 21.7403 9.78329C21.5088 9.98606 21.2769 10.2755 21.0745 10.536V21.1298L22.7245 21.4482L22.6088 23.1559H15.6321V23.1269ZM103.085 23.1269L103.143 21.4193L104.706 21.1008V9.46506L102.882 9.29125V7.55462L107.456 6.88898L107.804 7.87306V8.5387C108.904 7.38102 110.235 6.68621 111.943 6.68621C114.433 6.68621 116.285 8.1915 116.285 11.1727V21.0719L117.936 21.3903L117.849 23.098H112.436V12.0411C112.436 10.4489 111.856 9.55175 110.409 9.55175C109.917 9.55175 109.569 9.63866 109.193 9.78329C108.962 9.98606 108.73 10.2755 108.527 10.536V21.1298L110.177 21.4482L110.062 23.1559H103.085V23.1269ZM39.1381 22.8085C38.5013 23.069 37.3724 23.3587 35.896 23.3587C33.9564 23.3587 32.1615 22.4903 32.1615 19.6537V9.46485L30.309 9.17558L30.3957 7.14949L32.4801 7.06258L33.3773 3.9655L36.0408 3.84963V7.17825H38.9067L38.704 9.20455L36.0695 9.49402V19.6824C36.0695 20.5219 36.5329 21.0719 37.4014 21.0719H38.9644L39.1381 22.8085ZM147.492 23.1269L147.55 21.4482L149.026 21.1008V9.46506L147.289 9.29125V7.55462L152.037 6.88898L152.355 8.01769V8.39407C153.6 7.46772 155.279 6.86001 157.305 6.86001L158 7.46772L157.508 11.8673L154.903 11.7806L154.642 9.43609C154.034 9.52278 153.455 9.69659 152.963 10.0438V21.1298L154.613 21.4772L154.497 23.1559H147.492V23.1269ZM79.3184 23.1269L79.4054 21.4482L80.8817 21.1008V9.46506L79.1447 9.29125V7.55462L83.8923 6.88898L84.2107 8.01769V8.39407C85.4556 7.46772 87.1346 6.86001 89.161 6.86001L89.8558 7.46772L89.3057 11.8673L86.7002 11.7806L86.4396 9.43609C85.8319 9.52278 85.2529 9.69659 84.7608 10.0438V21.1298L86.4108 21.4772L86.2951 23.1559H79.3184V23.1269ZM40.296 23.1269L40.383 21.4482L41.8593 21.1008V9.46506L40.1223 9.29125V7.55462L44.8699 6.88898L45.1883 8.01769V8.39407C46.4332 7.46772 48.1122 6.86001 50.1096 6.86001L50.8044 7.46772L50.3123 11.8673L47.7068 11.7806L47.4462 9.43609C46.8383 9.52278 46.2595 9.69659 45.7674 10.0438V21.1298L47.4174 21.4772L47.3017 23.1559H40.296V23.1269ZM55.2913 16.0354C55.2913 18.8142 56.507 20.9562 58.91 20.9562C60.1548 20.9562 61.139 20.6957 62.2969 20.1455L62.9627 21.6798C61.7759 22.6349 60.0389 23.3585 57.8678 23.3585C53.6413 23.3585 51.2097 19.7114 51.2097 15.0223C51.2097 11.0281 52.9755 6.65724 57.8098 6.65724C62.0365 6.65724 63.6286 10.5648 63.6286 14.9067L63.2232 15.9487L55.2913 16.0354ZM55.2335 14.1831L60.0969 13.9514C60.0099 12.0122 59.6047 8.94405 57.6941 8.94405C57.231 8.94405 56.9125 9.03074 56.3335 9.32022C55.552 10.6519 55.2335 13.0542 55.2335 14.1831ZM122.567 16.0354C122.567 18.8142 123.783 20.9562 126.186 20.9562C127.431 20.9562 128.415 20.6957 129.573 20.1455L130.239 21.6798C129.052 22.6349 127.315 23.3585 125.144 23.3585C120.917 23.3585 118.486 19.7114 118.486 15.0223C118.486 11.0281 120.251 6.65724 125.086 6.65724C129.312 6.65724 130.904 10.5648 130.904 14.9067L130.499 15.9487L122.567 16.0354ZM122.509 14.1831L127.373 13.9514C127.286 12.0122 126.881 8.94405 124.97 8.94405C124.507 8.94405 124.188 9.03074 123.609 9.32022C122.828 10.6519 122.509 13.0542 122.509 14.1831ZM94.3137 16.0354C94.3137 18.8142 95.5294 20.9562 97.9323 20.9562C99.1772 20.9562 100.161 20.6957 101.319 20.1455L101.985 21.6798C100.798 22.6349 99.0613 23.3585 96.8902 23.3585C92.6635 23.3585 90.2321 19.7114 90.2321 15.0223C90.2321 11.0281 91.9979 6.65724 96.8322 6.65724C101.059 6.65724 102.651 10.5648 102.651 14.9067L102.246 15.9487L94.3137 16.0354ZM94.2557 14.1831L99.1192 13.9514C99.0323 12.0122 98.6271 8.94405 96.7165 8.94405C96.2533 8.94405 95.9347 9.03074 95.3559 9.32022C94.5743 10.6519 94.227 13.0542 94.2557 14.1831ZM141.847 23.1269L141.442 21.7377C140.37 22.7506 139.328 23.3585 137.707 23.3585C135.218 23.3585 132.989 22.1139 132.989 18.6694V9.05992L131.165 8.88611V7.35205L136.434 6.74414L136.839 8.13357V18.2061C136.839 19.9717 137.562 20.8981 138.981 20.8981C139.386 20.8981 139.907 20.8401 140.37 20.6665C140.643 20.3938 140.885 20.093 141.094 19.7691V9.05971L139.213 8.88611V7.35205L144.539 6.74414L144.944 8.13357V21.1008L146.594 21.4193L146.392 23.1269H141.847ZM71.5315 21.0429C70.692 21.0429 70.0259 20.8983 69.5051 20.6088V10.391C69.7365 10.0436 69.9972 9.72535 70.2578 9.43588C70.7499 9.26207 71.1841 9.20434 71.7049 9.20434C73.8763 9.20434 74.2524 11.404 74.2524 15.3406C74.2524 19.1325 73.6736 20.1745 73.5289 20.6086C72.9208 20.8981 72.284 21.0427 71.5312 21.0427L71.5315 21.0429ZM78.0158 14.6462C78.0158 9.75453 76.5685 6.68621 72.9498 6.68621C70.547 6.68621 69.4181 8.07563 68.955 8.65457V8.10439L68.5496 6.71517L63.831 7.38102V9.05971L65.6549 9.29125V29.0318L64.0917 29.3501L64.0047 31H70.9814L71.0971 29.3501L69.4471 29.0318V22.7797C70.1129 23.1559 71.0393 23.3874 72.0523 23.3874C77.9578 23.3874 78.0158 17.3958 78.0158 14.6462Z" fill="#9FA8AD"/>
</svg>
