<svg width="129" height="32" viewBox="0 0 129 32" fill="none" xmlns="http://www.w3.org/2000/svg">
<path d="M63.4473 2.78609V1.86197L73.3903 0C73.2113 3.47065 73.1207 6.89969 73.143 10.3923C73.289 10.3353 73.401 10.2954 73.5099 10.2481C74.5119 9.79637 75.5638 9.46139 76.6442 9.24988C78.6942 8.79802 80.8408 9.113 82.6694 10.134C84.1182 10.9947 85.2968 12.2361 86.0735 13.7196C86.837 15.1307 87.2868 16.6864 87.3931 18.283C87.5946 20.2815 87.3771 22.2997 86.754 24.2114C86.1678 26.1434 85.0407 27.8724 83.5028 29.1989C81.965 30.5254 80.0788 31.3954 78.062 31.7085C76.3043 32.0162 74.5113 32.0773 72.7362 31.8902C70.6948 31.7005 68.6672 31.3865 66.6649 30.9498C66.5921 30.9309 66.5202 30.9084 66.4497 30.8822C66.4497 30.5562 66.4431 30.2409 66.4497 29.9263C66.4802 28.761 66.5396 27.5957 66.5437 26.4304C66.5608 20.9173 66.5676 15.4031 66.5643 9.88791C66.5643 8.558 66.4818 7.22816 66.4167 5.89906C66.3763 5.25355 66.2392 4.61749 66.0099 4.01173C65.9175 3.73282 65.7462 3.48582 65.5163 3.29998C65.2864 3.11414 65.0075 2.99723 64.7125 2.96296C64.305 2.8994 63.8869 2.84803 63.4473 2.78609ZM73.0679 11.9073C73.0679 12.0939 73.0679 12.2332 73.0679 12.3693C73.0844 15.0691 73.0843 17.768 73.1223 20.4678C73.1651 23.5595 73.2402 26.6504 73.3045 29.7413C73.3045 29.9043 73.3335 30.0608 73.3484 30.2172C73.8029 30.2906 74.2234 30.3371 74.6325 30.4316C75.0229 30.509 75.4264 30.4922 75.8087 30.3826C76.6327 30.1612 77.3618 29.6817 77.8865 29.0161C78.613 28.1272 79.1692 27.1148 79.5278 26.0286C80.0079 24.6639 80.2986 23.2412 80.3921 21.7993C80.5401 20.2334 80.4824 18.6552 80.2205 17.1039C79.9951 15.7627 79.4779 14.4857 78.7046 13.3611C78.2397 12.6524 77.552 12.1141 76.7473 11.8291C75.5395 11.5058 74.2629 11.5329 73.0703 11.9073H73.0679Z" fill="white"/>
<path d="M0.0361936 1.94998V0.664062H26.002C26.0902 0.908532 26.3624 8.31111 26.3146 9.27432C26.0795 9.34766 25.8288 9.42915 25.5722 9.50331C25.3157 9.57746 25.056 9.64747 24.7673 9.72733C24.7244 9.62057 24.679 9.52036 24.6443 9.41686C24.2775 8.25551 23.764 7.14447 23.1159 6.11002C22.4599 5.0432 21.536 4.16201 20.4337 3.55202C19.5999 3.09349 18.6658 2.84189 17.7118 2.81869C15.9162 2.79261 14.1206 2.79989 12.3259 2.79581C12.2522 2.79988 12.1789 2.80893 12.1065 2.82277C11.8961 3.58307 11.6115 14.2492 11.7831 15.1497C11.8746 15.1554 11.9736 15.1684 12.0717 15.1676C12.979 15.1562 13.8938 15.113 14.8027 15.1367C15.5787 15.1882 16.3505 14.9888 17.0017 14.5687C17.6528 14.1485 18.1479 13.5304 18.4121 12.8077C18.6595 12.2552 18.8245 11.6668 19.0216 11.0923C19.0422 11.0345 19.0587 10.975 19.0818 10.9H20.376V21.3559H19.0786C19.0365 21.2019 18.9961 21.0463 18.9515 20.8898C18.7414 20.039 18.3781 19.2325 17.8792 18.5087C17.5819 18.069 17.1804 17.7078 16.7097 17.4563C16.2389 17.2048 15.7132 17.0706 15.1781 17.0655C14.0885 17.0378 12.998 17.0338 11.9084 17.0199C11.8605 17.0249 11.8131 17.0336 11.7666 17.046C11.7492 17.1391 11.7388 17.2333 11.7352 17.3279C11.7971 19.392 11.8524 21.4562 11.9291 23.5211C11.9637 24.4574 12.0182 25.3954 12.1081 26.3268C12.1639 26.8804 12.2657 27.4286 12.4125 27.9657C12.543 28.4805 12.8256 28.9453 13.2244 29.301C13.6232 29.6567 14.12 29.8871 14.6518 29.9629C15.1829 30.0454 15.7182 30.0998 16.2552 30.126C16.4309 30.1431 16.6058 30.1626 16.7947 30.1822V31.4183C16.5093 31.4998 0.918731 31.5365 0.0279375 31.4558C-0.00338298 31.029 -0.0083958 30.6007 0.0130362 30.1732C0.481528 30.1048 0.920396 30.0493 1.36332 29.9719C1.6788 29.9215 1.99027 29.8491 2.29536 29.7551C2.65991 29.6466 2.99267 29.453 3.26545 29.1906C3.53824 28.9282 3.74304 28.6047 3.86251 28.2476C4.10556 27.5534 4.26065 26.8321 4.32435 26.1003C4.6409 22.7687 4.7802 19.4231 4.74169 16.0771C4.71612 13.7082 4.6328 11.3401 4.5363 8.97281C4.48516 7.70809 4.37712 6.44656 4.2435 5.1851C4.17029 4.69779 4.04425 4.21967 3.86745 3.75903C3.69664 3.28841 3.36184 2.8933 2.92302 2.64431C2.38755 2.31611 1.78209 2.11552 1.1546 2.0584C0.791683 2.02418 0.423854 1.98991 0.0361936 1.94998Z" fill="white"/>
<path d="M22.9789 20.7921C22.8948 18.6818 23.3357 16.5832 24.2631 14.6804C24.9821 13.2134 26.0454 11.9373 27.3644 10.9584C28.6834 9.97952 30.2201 9.32616 31.8464 9.05267C33.8179 8.68412 35.8452 8.72153 37.8015 9.16263C39.1106 9.44164 40.3421 10.0004 41.4095 10.7995C42.4769 11.5987 43.3543 12.619 43.9802 13.7888C44.8432 15.3195 45.3676 17.0139 45.5185 18.7597C45.6619 20.1985 45.6063 21.6498 45.3534 23.0738C44.9967 25.2004 43.9915 27.1688 42.472 28.7157C40.9526 30.2627 38.9913 31.3144 36.8505 31.7305C34.7541 32.1306 32.5949 32.0764 30.5218 31.5716C29.3648 31.2966 28.2743 30.7984 27.3128 30.1055C26.3514 29.4127 25.5381 28.539 24.9197 27.5346C23.9208 25.9776 23.2997 24.2136 23.105 22.3803C23.0366 21.7545 23.0044 21.1213 22.9789 20.7921ZM29.9708 20.0391C29.9528 21.4068 30.0289 22.7741 30.1985 24.1315C30.3497 25.429 30.6827 26.6994 31.1882 27.9062C31.4682 28.617 31.9001 29.2599 32.4543 29.791C32.7617 30.0806 33.1317 30.2971 33.5365 30.4242C33.9412 30.5513 34.3699 30.5856 34.7901 30.5244C35.1917 30.4727 35.5782 30.3398 35.9254 30.134C36.2727 29.9282 36.5732 29.6539 36.8084 29.3282C37.2718 28.7038 37.6169 28.0017 37.827 27.2558C38.2767 25.7082 38.5229 24.1098 38.5595 22.5001C38.6851 20.4624 38.6172 18.4176 38.3566 16.3924C38.1892 15.0845 37.8232 13.809 37.2712 12.6088C37.0213 12.0802 36.6911 11.5925 36.2921 11.1624C35.783 10.6632 35.1082 10.3629 34.3924 10.3171C33.6766 10.2713 32.9683 10.4829 32.3982 10.913C31.9247 11.3045 31.5406 11.7909 31.2715 12.34C30.8173 13.2777 30.5076 14.2772 30.3526 15.3054C30.0987 16.8708 29.9711 18.4537 29.9708 20.0391Z" fill="white"/>
<path d="M96.1513 19.388C96.1314 19.4709 96.117 19.5551 96.1084 19.6398C95.9834 21.6007 96.4476 23.5543 97.4428 25.2553C97.9963 26.2038 98.7745 27.0053 99.7107 27.5911C100.647 28.1769 101.713 28.5294 102.817 28.6184C104.259 28.8061 105.725 28.6467 107.091 28.1539C107.772 27.8842 108.412 27.5242 108.995 27.084L109.648 27.8491C109.577 27.9534 109.521 28.0488 109.452 28.1352C108.559 29.1858 107.46 30.047 106.221 30.667C104.309 31.6718 102.149 32.1238 99.989 31.9709C98.0176 31.9163 96.098 31.3359 94.4332 30.2914C93.1231 29.4942 92.0048 28.4243 91.1563 27.1562C90.3078 25.8881 89.7496 24.4523 89.5206 22.9491C89.0474 20.416 89.3252 17.8018 90.3206 15.4211C91.2673 13.0622 93.0615 11.1313 95.3595 9.99798C96.5154 9.44502 97.7614 9.09901 99.0397 8.97607C100.11 8.85101 101.191 8.84883 102.262 8.96956C103.487 9.0831 104.668 9.47596 105.713 10.1173C106.758 10.7585 107.638 11.6307 108.283 12.6651C109.176 14.0771 109.734 15.6703 109.916 17.3255C109.978 17.8275 109.998 18.3352 110.037 18.8404C110.048 19.0034 110.037 19.1664 110.037 19.3807C109.561 19.4011 109.106 19.3881 108.65 19.3905C108.195 19.393 107.727 19.3905 107.265 19.3905H96.1462L96.1513 19.388ZM96.2509 17.7582C96.6906 17.8397 102.812 17.7175 103.108 17.6271C103.121 17.5549 103.127 17.4819 103.127 17.4087C103.056 16.3354 103.01 15.2598 102.897 14.1914C102.82 13.4219 102.622 12.669 102.311 11.9594C102.142 11.5475 101.892 11.1731 101.574 10.8585C101.232 10.527 100.776 10.3357 100.297 10.3231C99.9499 10.3057 99.6034 10.3605 99.2795 10.4841C98.9557 10.6076 98.6617 10.7971 98.4169 11.0402C97.9837 11.4738 97.6358 11.983 97.3909 12.5421C96.7584 13.9308 96.3886 15.4222 96.2997 16.9425C96.279 17.2163 96.2666 17.4909 96.2509 17.7582Z" fill="white"/>
<path d="M127.791 15.593L126.707 15.9092C126.651 15.756 126.599 15.6183 126.55 15.479C126.198 14.3918 125.672 13.3669 124.994 12.4426C124.347 11.5323 123.406 10.8654 122.326 10.5504C121.696 10.3706 121.033 10.3297 120.385 10.4307C120.004 10.4925 119.641 10.6353 119.321 10.8491C119.001 11.0629 118.731 11.3427 118.531 11.6693C118.056 12.3656 117.87 13.2161 118.012 14.0441C118.155 14.8722 118.614 15.6145 119.295 16.117C119.573 16.3212 119.864 16.5064 120.167 16.6711C121.185 17.2058 122.242 17.6651 123.329 18.0451C124.513 18.4644 125.636 19.0362 126.668 19.7458C127.691 20.423 128.432 21.4417 128.756 22.615C128.945 23.3269 129.025 24.0628 128.993 24.7981C128.973 25.8782 128.711 26.9404 128.226 27.9086C127.452 29.3123 126.218 30.4144 124.727 31.0346C123.685 31.4996 122.571 31.7856 121.432 31.8804C118.362 32.1915 115.259 31.8509 112.333 30.8814C112.116 30.8089 111.902 30.7273 111.655 30.6369C111.568 28.4945 111.481 26.3603 111.394 24.1992L112.495 23.8667C112.546 23.9783 112.594 24.0753 112.633 24.1756C113.079 25.4052 113.7 26.5656 114.478 27.6218C115.108 28.4925 115.96 29.183 116.948 29.6232C117.979 30.0678 119.129 30.1645 120.221 29.8986C121.082 29.6796 121.822 29.1371 122.284 28.3867C122.745 27.6363 122.892 26.7375 122.692 25.882C122.509 25.1615 122.07 24.5301 121.455 24.1039C120.726 23.6067 119.937 23.2023 119.106 22.9003C118.31 22.5849 117.501 22.3005 116.709 21.9778C115.817 21.6202 114.971 21.1607 114.188 20.6087C113.626 20.2269 113.147 19.7377 112.78 19.17C112.412 18.6024 112.164 17.9677 112.048 17.3035C111.858 16.4402 111.851 15.5472 112.028 14.6811C112.205 13.815 112.562 12.9948 113.077 12.2723C113.777 11.312 114.691 10.5235 115.749 9.96781C116.904 9.35502 118.177 8.98803 119.484 8.8905C121.89 8.6602 124.319 8.92572 126.615 9.67033C126.846 9.74693 127.068 9.84719 127.298 9.92379C127.385 9.94456 127.46 9.99535 127.512 10.0669C127.563 10.1384 127.587 10.2259 127.579 10.3133C127.602 11.0222 127.653 11.7304 127.685 12.4386C127.731 13.4254 127.768 14.4131 127.809 15.4007C127.806 15.4496 127.798 15.4993 127.791 15.593Z" fill="white"/>
<path d="M59.5809 30.249V31.4208C59.3005 31.4966 46.3345 31.5218 45.7918 31.4461V30.2392C46.0582 30.2009 46.308 30.1577 46.5596 30.1292C47.0312 30.1039 47.4827 29.9321 47.8496 29.6383C48.2165 29.3444 48.4801 28.9435 48.6027 28.4928C48.7702 27.909 48.8635 27.3068 48.8806 26.7001C49.092 24.2382 49.1673 21.7667 49.1059 19.2967C49.0498 17.627 48.9202 15.9556 48.8039 14.2916C48.7725 13.8226 48.6501 13.3639 48.4434 12.9405C48.2873 12.5832 48.03 12.278 47.7024 12.0619C47.3747 11.8457 46.9906 11.7278 46.5966 11.7223C46.3311 11.7084 46.0656 11.684 45.7827 11.6628V10.7468L55.6623 8.81874V13.6438L55.7199 13.6609C55.7826 13.5444 55.8486 13.4295 55.9064 13.3105C56.6547 11.7399 57.8702 10.4322 59.3904 9.56197C60.5828 8.86175 62.0015 8.64007 63.3544 8.94263C63.7646 9.03945 64.1692 9.15747 64.5669 9.29627C64.6935 9.34662 64.8165 9.40575 64.9348 9.47313L62.5328 15.4366C62.0313 15.2059 61.5777 14.9729 61.1059 14.7847C59.8839 14.2626 58.5231 14.1482 57.2294 14.4587C56.7378 14.5587 56.281 14.7833 55.9039 15.1106C55.8131 15.1898 55.7391 15.2861 55.6863 15.3938C55.6334 15.5015 55.6028 15.6185 55.5962 15.7381C55.4172 18.1138 55.372 20.4975 55.4609 22.8782C55.5277 24.508 55.6804 26.1378 55.8264 27.7676C55.8729 28.1441 55.9769 28.5115 56.1349 28.8571C56.2803 29.2265 56.5344 29.5444 56.8645 29.7697C57.1945 29.995 57.5853 30.1174 57.9865 30.1211C58.4335 30.1504 58.8822 30.1797 59.3292 30.2115C59.4026 30.2147 59.4762 30.2319 59.5809 30.249Z" fill="white"/>
</svg>
