<svg width="157" height="32" viewBox="0 0 157 32" fill="none" xmlns="http://www.w3.org/2000/svg">
<path fill-rule="evenodd" clip-rule="evenodd" d="M6.2434 31.5983V21.2441L0 0.35704H5.16541L8.89348 14.5941H8.98331L12.7114 0.35704H17.4276L11.1842 21.2441V31.5983H6.2434ZM23.2668 7.54254V24.4128C23.2668 26.6443 24.255 27.4923 25.827 27.4923C27.3991 27.4923 28.3873 26.6443 28.3873 24.4128V7.54254C28.3873 5.31102 27.3991 4.46304 25.827 4.46304C24.255 4.46304 23.2668 5.31102 23.2668 7.54254ZM18.326 24.1004V7.85495C18.326 2.85635 20.976 0 25.827 0C30.678 0 33.3281 2.85635 33.3281 7.85495V24.1004C33.3281 29.099 30.678 31.9554 25.827 31.9554C20.976 31.9554 18.326 29.099 18.326 24.1004ZM36.2926 0.35704H41.2334V24.4575C41.2334 26.689 42.2216 27.4923 43.7937 27.4923C45.3657 27.4923 46.3539 26.689 46.3539 24.4575V0.35704H51.0252V24.1451C51.0252 29.1437 48.5099 32 43.6589 32C38.8079 32 36.2926 29.1437 36.2926 24.1451V0.35704ZM69.7554 31.5983H64.7248C64.4553 30.795 64.2756 30.3041 64.2756 27.7601V22.8508C64.2756 19.9498 63.2875 18.8787 61.0416 18.8787H59.3348V31.5983H54.394V0.35704H61.8501C66.9706 0.35704 69.1715 2.72246 69.1715 7.54254V9.99721C69.1715 13.2106 68.1385 15.2636 65.9375 16.2901V16.3794C68.408 17.4059 69.2164 19.7266 69.2164 22.9847V27.8047C69.2164 29.3222 69.2614 30.4379 69.7554 31.5983ZM61.7154 4.82008H59.3348V14.4156H61.2662C63.1078 14.4156 64.2307 13.6123 64.2307 11.113V8.03348C64.2307 5.80196 63.4671 4.82008 61.7154 4.82008ZM71.8216 7.85495C71.8216 2.85635 74.292 0 79.0981 0C83.9042 0 86.3746 2.85635 86.3746 7.85495V8.83682H81.7033V7.54254C81.7033 5.31102 80.8049 4.46304 79.2328 4.46304C77.6608 4.46304 76.7624 5.31102 76.7624 7.54254C76.7624 9.81869 77.7506 11.5146 80.9846 14.3264C85.1169 17.9414 86.4195 20.53 86.4195 24.1004C86.4195 29.099 83.9042 31.9554 79.0532 31.9554C74.2022 31.9554 71.6869 29.099 71.6869 24.1004V22.1813H76.3582V24.4128C76.3582 26.6443 77.3463 27.4477 78.9184 27.4477C80.4905 27.4477 81.4787 26.6443 81.4787 24.4128C81.4787 22.1367 80.4905 20.4407 77.2565 17.629C73.1242 14.014 71.8216 11.4254 71.8216 7.85495ZM87.8119 4.82008V0.35704H103.084V4.82008H97.9181V31.5983H92.9773V4.82008H87.8119ZM109.776 7.54254V24.4128C109.776 26.6443 110.764 27.4923 112.336 27.4923C113.908 27.4923 114.897 26.6443 114.897 24.4128V7.54254C114.897 5.31102 113.908 4.46304 112.336 4.46304C110.764 4.46304 109.776 5.31102 109.776 7.54254ZM104.835 24.1004V7.85495C104.835 2.85635 107.485 0 112.336 0C117.187 0 119.837 2.85635 119.837 7.85495V24.1004C119.837 29.099 117.187 31.9554 112.336 31.9554C107.485 31.9554 104.835 29.099 104.835 24.1004ZM138.388 31.5983H133.357C133.088 30.795 132.908 30.3041 132.908 27.7601V22.8508C132.908 19.9498 131.92 18.8787 129.674 18.8787H127.967V31.5983H123.027V0.35704H130.483C135.603 0.35704 137.804 2.72246 137.804 7.54254V9.99721C137.804 13.2106 136.771 15.2636 134.57 16.2901V16.3794C137.04 17.4059 137.849 19.7266 137.849 22.9847V27.8047C137.849 29.3222 137.894 30.4379 138.388 31.5983ZM130.348 4.82008H127.967V14.4156H129.899C131.74 14.4156 132.863 13.6123 132.863 11.113V8.03348C132.863 5.80196 132.1 4.82008 130.348 4.82008ZM145.26 31.5983V21.2441L139.017 0.35704H144.182L147.91 14.5941H148L151.728 0.35704H156.444L150.201 21.2441V31.5983H145.26Z" fill="#9FA8AD"/>
</svg>
